<svg fill="none" height="21" viewBox="0 0 11 21" width="11" xmlns="http://www.w3.org/2000/svg"><path d="m4.6509 3.47973-3.02563 3.04235c-.02512.02959-.05254.05719-.08205.08266-.31566.27232-.791351.23525-1.061484-.08243-.269273-.3166-.232709-.79251.063823-1.04701l4.323681-4.3545c.2941-.294447.76878-.294468 1.06281-.00004l4.30545 4.33753c.0294.02531.0568.05294.082.08264.2693.31659.2328.79244-.0818 1.06381-.31567.27232-.79136.23525-1.04482-.0643l-3.03815-3.05983v16.46399c0 .4167-.3362.7554-.7519.7554-.41569 0-.75193-.3387-.75193-.7554z" fill="#26666b"/></svg>