<svg fill="none" height="500" viewBox="0 0 792 500" width="792" xmlns="http://www.w3.org/2000/svg"><g clip-rule="evenodd" fill="#00343d" fill-rule="evenodd" opacity=".3"><path d="m704.521 63.2082c.583 1.0048 1.301 1.2316 1.707.5543.41-.6772.334-1.9907-.249-2.9924-27.212-46.5665-60.565-89.9546-99.703-129.0996-119.707-119.7285-278.901-185.6705-448.245-185.6705-154.27792 0-300.104 54.728-415.356 154.9359-.876.7655-1.339 1.9436-1.131 2.6618.208.7245 1.011.7056 1.887-.0567 111.05-96.752 256.091644-155.44 414.6-155.44 233.015 0 436.971 126.838 546.49 315.1072z" opacity=".05"/><path d="m715.629 83.1603c47.316 88.5587 74.185 189.6297 74.185 296.8687 0 94.163-20.745 183.566-57.849 263.923-.489 1.058-.788 2.409-.731 3.036.038.375.057.753.057 1.134 0 4.187-1.988 7.919-5.085 10.345-.91.718-2.164 2.013-2.683 3.052-10.002 20.015-21.014 39.438-33.009 58.181-.624.976-.759 2.315-.422 3.055.337.747 1.036.596 1.663-.381 65.186-101.203 100.16-219.073 100.16-342.345 0-105.179-25.417-206.438-73.341-296.7553-.545-1.03-1.228-1.8333-1.528-1.8175-.17.0063-.353.0126-.532.0126-.318 0-.63-.0158-.942-.0441-.52-.041-.491.7119.057 1.7356z" opacity=".05"/><g fill-opacity=".1"><path d="m158.029 954.284c-316.714 0-574.384-257.614-574.384-574.258 0-316.7134 257.67-574.383 574.384-574.383 178.031 0 337.384 81.468 442.798 209.0714.737.8946 1.6 1.1182 2.007.5449.406-.5701.211-1.7073-.529-2.5987-11.536-13.91045-23.77-27.3609-36.707-40.298-108.845-108.8636-253.591-168.8206-407.569-168.8206-154.02277 0-298.8 59.957-407.664 168.8206-108.864 108.8672-168.821 253.6444-168.821 407.6634 0 153.982 59.957 298.724 168.821 407.566 7.44 7.443 15.066 14.622 22.838 21.596.863.775 2.302 1.862 3.099 2.565.8.708 2.048 2.003 2.923 2.768 104.974 91.741 238.0175 141.861 378.804 141.861 123.319 0 240.694-38.468 338.467-109.696.939-.68 2.268-1.994 3.156-2.74.337-.287.687-.549 1.059-.788.976-.63 2.627-1.525 3.547-2.218 21.48-16.2 41.983-33.991 61.34-53.348 39.11-39.11 71.876-82.88 97.848-130.026.558-1.017.879-2.353.797-2.983-.047-.378-.079-.765-.079-1.156 0-.658.07-1.298.192-1.918.205-1.043.114-1.014-.434.009-97.036 180.08-287.391 302.766-505.893 302.766z"/><path d="m712.707 231.238c12.741 47.477 19.577 97.348 19.577 148.79 0 73.991-14.081 144.752-39.678 209.762-.428 1.077-.214 1.947.467 2.022.68.076 1.572-.677 1.987-1.757 25.802-66.043 39.325-136.991 39.325-210.027 0-5.037-.088-10.061-.221-15.079-.025-1.159-.579-2.892-1.011-3.969-.516-1.288-.806-2.693-.806-4.167 0-1.185.186-2.331.526-3.405.356-1.106.775-2.873.718-4.032-2.208-42.396-8.996-83.932-20.097-124.057-.312-1.118-.532-1.723-.513-1.348.012.227.022.454.022.683 0 .87-.095 1.717-.259 2.536-.233 1.137-.343 2.927-.037 4.048z"/><path d="m709.434 215.716c.428.456.825.942 1.184 1.455.665.951.803.907.473-.208-1.966-6.716-4.051-13.394-6.263-20.024-.362-1.106-1.153-1.793-1.773-1.61-.621.179-.832 1.162-.463 2.265 1.628 4.867 3.178 9.771 4.678 14.698.34 1.108 1.37 2.576 2.164 3.424z"/><path d="m683.397 148.215c3.364 7.61 6.568 15.306 9.611 23.083.425 1.081 1.241 1.695 1.867 1.433.621-.258.81-1.291.391-2.372-2.895-7.427-5.944-14.795-9.154-22.097-.463-1.061-1.105-1.899-1.427-1.884-.189.01-.384.016-.576.016-.265 0-.523-.009-.785-.025-.431-.031-.4.788.073 1.846z"/><path d="m673.959 125.272c.482-.574.507-1.831-.012-2.87-8.757-17.505-18.425-34.5839-28.984-51.1781-.623-.9765-1.934-2.2743-2.784-3.0681-1.437-1.345-2.542-3.0208-3.197-4.9045-.385-1.0962-1.037-2.8161-1.686-3.78-6.445-9.5981-13.211-19.0103-20.26-28.2524-.706-.9229-1.774-1.3734-2.42-1.0993-.649.274-.63 1.1655.079 2.0884 21.94 28.7501 41.227 59.6232 57.51 92.26.516 1.037 1.272 1.377 1.754.804z"/></g><path d="m618.582 133.4c-.054.514.308 1.755.853 2.778 27.238 51.361 46.145 107.778 54.93 167.448.173 1.147 1.03 2.69 1.736 3.613.079.098.157.199.227.303.674.941.907.891.746-.256-8.599-62.37-28.236-122.084-57.941-176.837-.554-1.018-1.068-1.837-1.14-1.821-.076.013.23.828.447 1.893.129.63.195 1.279.195 1.947 0 .315-.019.627-.053.932z" opacity=".15"/><path d="m608 113.428c.371-.715.286-2.044-.312-3.04-21.868-36.3411-48.318-70.2666-79.075-101.03264-13.312-13.30875-27.231-25.78906-41.658-37.46296-.904-.7308-1.922-.8536-2.328-.3276-.41.5261-.054 1.4994.85 2.2302 48.022 38.7986 89.038 85.9226 120.863 139.161.595.998 1.285 1.184 1.66.472z" opacity=".15"/><path d="m678.189 423.014c-.092 1.156.305 2.155.878 2.281.58.126 1.122-.659 1.213-1.815 1.178-14.383 1.802-28.866 1.802-43.451 0-21.328-1.266-42.455-3.758-63.305-.139-1.153-.34-1.141-.69-.035-.072.227-.154.454-.239.674-.426 1.081-.86 2.794-.734 3.947 2.17 19.278 3.32 38.865 3.32 58.719 0 14.474-.627 28.804-1.792 42.985z" opacity=".15"/><path d="m675.254 450.287c-10.515 77.78-38.235 150.164-79.175 213.214-.634.974-.8 2.322-.476 3.062.324.747 1.017.596 1.651-.375 42.518-64.987 69.854-138.433 80.164-215.916.151-1.15 0-2.051-.343-2.035-.205.012-.416.016-.621.016-.157 0-.312-.004-.466-.01-.255-.016-.58.898-.734 2.044z" opacity=".15"/><path d="m414.499-19.0009c91.35 58.946 161.246 148.3999 195.206 253.8369.356 1.105 1.228 2.066 1.947 2.223.712.155.992-.554.645-1.66-22.761-71.823-62.527-137.6231-117.302-192.411-23.118-23.121-48.208-43.542491-74.863-61.1699-.974-.6394-2.029-1.1277-2.366-1.1088-.198.0095-.403.0158-.608.0158-.828 0-1.638-.0882-2.419-.252-1.137-.2363-1.219-.1008-.24.526z" opacity=".2"/><path d="m633.424 375.63c.586-.119 1.049-1.121 1.033-2.283-.305-22.394-2.142-44.532-5.468-66.305-.173-1.149-.828-2.098-1.449-2.183-.617-.088-.967.719-.781 1.865 3.405 21.902 5.308 44.292 5.601 67.067.015 1.159.485 1.962 1.064 1.839z" opacity=".2"/><path d="m632.972 401.666c-.582-.149-1.083.63-1.134 1.789-6.082 124.387-60.272 236.341-144.339 317.589-.835.806-1.181 1.871-.822 2.435.353.561 1.269.397 2.107-.41 2.083-2.006 4.155-4.028 6.209-6.079 34.606-34.606 63.202-73.622 85.327-115.753.539-1.03 1.175-2.788 1.663-3.84.142-.318.303-.624.482-.923.583-1.002 1.648-2.548 2.168-3.585 29.153-58.306 46.027-122.346 49.3-188.899.054-1.159-.381-2.176-.961-2.324z" opacity=".2"/><path d="m617.36 261.232c1.705 6.581 3.276 13.215 4.7 19.905.243 1.134.857 1.764 1.411 1.465.558-.299.845-1.418.602-2.552-1.468-6.908-3.087-13.768-4.854-20.588-.293-1.121-.901-1.588-1.414-1.103-.514.489-.734 1.752-.445 2.873z" opacity=".2"/><path d="m503.912 120.637c.964.189 1.143-.264.444-1.19-12.131-16.068-25.446-31.4058-39.93-45.8896-48.717-48.7273-107.008-84.3916-170.626-105.3013-1.102-.3591-1.575-.0567-1.178.7434.403.8001 1.519 1.7892 2.618 2.1578 82.467 27.75775 153.855 79.8115 205.632 147.6277.706.923 2.076 1.667 3.04 1.852z" opacity=".25"/><path d="m580.726 465.25c-6.917 34.36-17.917 67.262-32.495 98.154-.501 1.049-.381 2.01.252 2.218.627.207 1.525-.413 2.016-1.465 14.792-31.481 25.701-64.701 32.502-99.061.223-1.138-.013-1.969-.545-1.916-.315.032-.633.048-.958.048-.06 0-.123-.01-.183-.016-.1-.013-.362.904-.589 2.038z" opacity=".25"/><path d="m512.121 130.253c.013.079.019.158.019.24 0 .523-.047 1.033-.138 1.531-.145.838.167 2.261.825 3.216 48.138 69.59 76.388 153.947 76.388 244.786 0 21.269-1.56 42.182-4.546 62.632-.167 1.15.17 2.221.74 2.473.561.255 1.128-.41 1.298-1.563 3.046-20.859 4.609-42.078 4.609-63.542 0-90.124-27.317-176.037-78.01-248.292-.668-.951-1.203-1.613-1.185-1.481z" opacity=".25"/><path d="m-125.19 55.0686c45.5108-39.7152 99.4011-70.0403 158.64-87.948 1.1119-.3371 1.8269-1.0773 1.6474-1.6821-.1796-.6017-1.1749-.8379-2.2869-.504-1.1214.337-2.2365.6804-3.3548 1.0237-1.1056.3465-14.6916 4.8321-15.7846 5.2164-52.2144 18.3834-100.6457 46.8153-142.9061 84.3224-.869.7686-.907 1.1592-.06 1.0048.504-.0945 1.024-.1449 1.556-.1449.167 0 .328.0189.489.0378.264.0315 1.184-.5607 2.06-1.3261z" opacity=".25"/><path d="m368.237 48.1352c.091-.6269-.564-1.6286-1.55-2.2428-9.201-5.7708-18.654-11.1794-28.341-16.1879-1.033-.5355-2.283-.8757-2.8-.8253-.309.0347-.62.0536-.939.0536-3.071 0-5.799-1.4207-7.594-3.6288-.731-.9009-1.997-2.1578-3.049-2.6492-42.018-19.59611-88.034-31.98821-136.468-35.5918-1.153-.0851-2.23.3339-2.463.9009s.46 1.0647 1.619 1.1497c65.671 4.76284 126.91 25.7733 179.695 59.0373.983.6206 1.795.6111 1.89-.0157z" opacity=".3"/><path d="m-8.46518 25.2113c50.56068-23.82344 106.99608-37.1605 166.49318-37.1605 1.638 0 3.276.022 4.908.0504 1.159.022 1.899-.419 1.713-1.0017-.182-.5859-1.216-1.0899-2.378-1.1088-1.411-.0221-2.822-.041-4.243-.041-58.5868 0-115.2175 12.69451-166.75148 36.77-1.0521.4914-1.77662 1.449-1.70412 2.1388.0724.693.91032.8474 1.96242.3528z" opacity=".3"/><path d="m516.939 220.156c.46-.403.485-1.537.009-2.592-28.728-63.24-73.675-117.612-129.509-157.7462-.941-.6772-2.129-.9103-2.683-.5859-.552.3245-.259 1.0773.686 1.7514 56.064 40.0937 101.156 94.5817 129.853 158.0227.472 1.059 1.184 1.553 1.644 1.15z" opacity=".3"/><path d="m523.621 238.824c12.87 33.239 21.322 68.657 24.661 105.525.104 1.159.488 1.909.888 1.717.397-.193.816-.637.951-1.015.136-.381.186-1.619.079-2.772-3.458-36.177-11.803-70.947-24.4-103.625-.419-1.084-1.19-1.865-1.723-1.808-.324.031-.652.047-.979.047-.044 0-.082-.003-.12-.01-.069-.009.224.86.643 1.941z" opacity=".3"/><path d="m513.715 544.44c-.488 1.052-.249 1.351.637.825.891-.529 2.075-1.679 2.557-2.737 22.535-49.575 35.11-104.593 35.11-162.499 0-3.994-.079-7.967-.201-11.929-.038-1.163-.564-2.193-1.156-2.375-.586-.18-1.008.557-.971 1.716.139 4.18.23 8.37.23 12.588 0 58.684-12.99 114.379-36.206 164.411z" opacity=".3"/><path d="m497.894 486.589c-.346 1.112-.611 2.952-.816 4.095-.195 1.116-.551 2.161-1.033 3.132-.52 1.036-1.411 2.674-1.795 3.767-10.273 29.292-24.271 56.835-41.423 82.083-.655.96-.967 1.707-.696 1.672.157-.019.321-.037.488-.037.262 0 .52.022.772.05.425.047 1.298-.671 1.947-1.635 38.474-57.097 60.965-125.811 60.965-199.688 0-26.378-2.883-52.098-8.319-76.866-.252-1.134-.848-1.726-1.364-1.383-.523.343-.769 1.496-.52 2.633 5.292 24.375 8.098 49.673 8.098 75.616 0 37.107-5.726 72.901-16.304 106.561z" opacity=".35"/><path d="m188.85 24.4193c.617-.1229 1.257-.189 1.912-.189 1.263 0 2.469.2362 3.581.6615 1.087.4126 2.81 1.0395 3.963 1.1686 53.097 6.0071 102.69 23.7416 146.132 50.5386.986.608 1.694.6647 1.635.1103-.035-.3339-.054-.671-.054-1.0143 0-.0914.01-.1859.025-.2804.022-.1512-.768-.7749-1.757-1.3797-52.52-32.0985-113.895-51.052-179.532-52.2648-1.165-.022-1.738.4001-1.367.9828.382.5859 1.556 1.1151 2.716 1.1435 6.309.1386 12.581.4378 18.802.9072 1.159.0819 2.901-.1796 3.944-.3843z" opacity=".35"/><path d="m501.463 281.53c.623.06.86-.74.535-1.855-23.143-79.235-72.985-147.181-139.069-193.432-.951-.6647-2.243-.9324-2.911-.6836-.671.2457-.466.8915.492 1.5498 66.077 45.8418 115.973 113.4408 139.23 192.3548.33 1.115 1.096 2.01 1.723 2.066z" opacity=".35"/><path d="m145.379 22.932c.372-.5922-.211-1.0049-1.373-.9608-76.2239 2.9484-146.40901 29.8148-203.2571 73.2974-.9198.7024-1.3261 1.6128-.9607 2.0632.3654.4505 1.3639.2741 2.2837-.4315 56.15509-42.9345 125.3984-69.5615 200.6081-72.765 1.159-.0473 2.328-.608 2.699-1.2033z" opacity=".35"/><path d="m472.898 300.453c.563-.145.803-1.137.507-2.258-.013-.041-.022-.082-.035-.123-.29-1.125-.907-1.685-1.411-1.323s-.744 1.367-.501 2.306c.243.938.879 1.546 1.44 1.398z" opacity=".4"/><path d="m477.026 440.779c.63-.198 1.332-1.241 1.537-2.384 1.556-8.559 2.775-17.231 3.645-26.01.113-1.156-.268-1.896-.867-1.732-.598.157-1.184 1.174-1.304 2.331-.894 8.826-2.151 17.548-3.748 26.151-.208 1.14.104 1.849.737 1.644z" opacity=".4"/><path d="m470.716 463.822c-37.015 137.999-163.17 239.898-312.687 239.898-25.635 0-50.58-3.014-74.5137-8.675-1.1277-.268-2.5231-.069-3.1689.369-.6457.444-.2961.96.8316 1.234 24.655 5.985 50.387 9.173 76.851 9.173 150.1 0 276.796-102.031 314.42-240.376.302-1.125.12-2.356-.362-2.804-.482-.45-1.068.06-1.371 1.181z" opacity=".4"/><path d="m67.4177 69.1897c17.6683-5.1629 35.9543-8.8641 54.7213-10.9431 1.153-.1292 1.16-.4032.073-.8127-.098-.0378-.195-.0756-.293-.1166-1.074-.4347-2.813-.8221-3.966-.6804-17.923 2.205-35.4027 5.8748-52.3119 10.8801-1.1151.3308-1.5719.9293-1.0805 1.3892s1.7451.6079 2.8571.2835z" opacity=".4"/><path d="m44.8375 75.536c.1008-.6615-.6363-.8568-1.7199-.4473-5.0526 1.912-10.039 3.9501-14.9688 6.0984-1.0647.4662-2.6743 1.4269-3.7012 1.9624-.4064.2079-.8253.4001-1.2537.5702-1.0805.4221-2.8602 1.0048-3.9092 1.4994-79.7328 37.6739-141.8197 106.7539-170.2137 191.1859-.368 1.1-.138 1.805.526 1.648.662-.161 1.509-1.128 1.881-2.231 31.059-91.116 101.6693-164.077 191.2711-198.333 1.0836-.4158 1.9845-1.2915 2.0884-1.953z" opacity=".4"/><path d="m333.522 108.108c.98.633 1.922.702 2.171.173.255-.532-.284-1.458-1.26-2.088-50.873-32.9019-111.444-52.035-176.404-52.035-6.662 0-13.274.2205-19.841.6237-1.156.0693-2.798.7686-3.774 1.3986-.082.0504-.167.1039-.252.1543-.989.6048-.933.8757.224.7907 7.808-.567 15.693-.8631 23.643-.8631 64.642 0 124.898 19.0669 175.493 51.8458z" opacity=".4"/><path d="m356.123 124.158c17.552 13.63 33.674 29.021 48.097 45.914.753.879 1.443 1.588 1.538 1.556.1-.025.356-.422.614-.875.255-.457-.11-1.528-.866-2.407-14.361-16.777-30.395-32.073-47.836-45.643-.917-.716-1.975-.927-2.404-.523-.431.403-.066 1.266.857 1.978z" opacity=".4"/><path d="m421.482 192.146c18.311 25.612 32.984 53.991 43.259 84.385.378 1.099.791 1.978.945 1.956.092-.009.183-.022.274-.022.29 0 .574.019.854.047.469.054.551-.768.183-1.867-10.417-31.072-25.392-60.062-44.138-86.184-.677-.939-1.399-1.642-1.61-1.563-.211.076-.494.451-.667.844-.174.391.223 1.459.9 2.404z" opacity=".4"/><path d="m480.785 347.737c.491 1.377.759 2.857.759 4.395 0 .727-.06 1.442-.177 2.135-.198 1.147-.447 2.971-.368 4.13.476 7.15.724 14.361.724 21.631 0 2.807-.047 5.601-.122 8.388-.035 1.16.422 2.24.992 2.483.576.242 1.046-.445 1.08-1.61.092-3.078.155-6.161.155-9.261 0-17.684-1.44-35.041-4.165-51.972-.189-1.143-.803-1.966-1.376-1.884-.583.079-.895 1.034-.709 2.18.825 5.091 1.534 10.219 2.111 15.385.132 1.153.702 2.907 1.096 4z" opacity=".4"/><path d="m393.747 555.81c-.693.932-.897 1.625-.45 1.587.271-.022.545-.034.819-.034.183 0 .356.006.532.015.3.016 1.103-.715 1.793-1.647 36.347-49.19 57.862-109.982 57.862-175.704 0-96.166-46.04-181.783-117.23-235.957-.92-.702-2.19-1.017-2.857-.781-.671.23-.479.904.447 1.6 71.328 53.742 117.542 139.139 117.542 235.138 0 65.854-21.766 126.706-58.458 175.783z" opacity=".5"/><path d="m-133.999 344.075c12.53-102.375 77.833-188.666 167.8064-230.741 1.049-.494 2.6712-1.442 3.717-1.946.2268-.111.4631-.215.6993-.312 1.0742-.441 2.8602-1.021 3.9249-1.481 35.5824-15.3056 74.7554-23.8043 115.8824-23.8043 34.464 0 67.555 5.963 98.308 16.9093 1.096.387 2.183.271 2.479-.243.293-.51-.312-1.225-1.405-1.612-31.078-11.1042-64.537-17.1553-99.382-17.1553-151.20967 0-276.309 113.8443-294.138 260.3163-.141 1.149-.107 2.079.073 2.069.107-.006.214-.012.324-.012.246 0 .488.009.731.028.403.028.838-.863.98-2.016z" opacity=".5"/><path d="m319.258 133.371c-.019-.243-.028-.482-.028-.728 0-.182.003-.365.012-.545.016-.302-.74-1.064-1.719-1.691-10.348-6.637-21.137-12.644-32.31-17.974-1.043-.504-1.985-.432-2.161.129-.17.561.504 1.402 1.55 1.903 11.415 5.465 22.425 11.645 32.974 18.481.97.633 1.714.828 1.682.425z" opacity=".5"/><path d="m74.7702 662.454c.0094-.148-.8852-.529-1.9971-.863-98.4218-29.849-175.1781-109.97-200.2391-210.335-.284-1.124-1.011-2.076-1.635-2.18-.624-.1-.904.687-.624 1.812 25.068 101.735 102.8415 182.952 202.5957 212.93 1.112.334 1.9624.221 1.9246-.249-.022-.28-.0346-.564-.0346-.853 0-.089.0063-.177.0095-.262z" opacity=".5"/><path d="m417.812 443.173c-.274 1.127-.438 2.416-.381 2.885.032.277.054.557.054.847 0 1.846-.479 3.566-1.301 5.088-.548 1.02-1.418 2.649-1.749 3.761-32.731 110.643-135.289 191.605-256.406 191.605-1.106 0-2.212-.013-3.314-.026-1.159-.018-1.912.416-1.736.999.177.58 1.213 1.09 2.375 1.103.889.015 1.783.025 2.675.025 148.566 0 269.435-120.866 269.435-269.432 0-6.682-.255-13.306-.737-19.864-.085-1.159-.567-1.708-1.115-1.282-.548.422-.948 1.657-.873 2.816.413 6.057.624 12.171.624 18.33 0 21.744-2.624 42.89-7.551 63.145z" opacity=".6"/><path d="m-12.018 172.463c.4221.403 1.4648.161 2.36881-.567 45.89549-37.05 104.23979-59.264 167.67719-59.264 8.701 0 17.31.425 25.799 1.244 1.153.114 1.997-.261 1.934-.856-.06-.59-.998-1.172-2.155-1.279-8.416-.797-16.953-1.21-25.578-1.21-36.82 0-71.9329 7.434-103.9338 20.859-1.071.451-2.6208 1.478-3.591 2.117-1.1592.762-2.4538 1.351-3.8335 1.723-1.1214.296-2.9201.769-3.969 1.27-19.3347 9.188-37.40944 20.607-53.8871 33.931-.9009.731-1.2537 1.626-.8316 2.032z" opacity=".6"/><path d="m400.626 265.287c.529-.24.576-1.241.069-2.287-36.01-74.406-105.238-129.843-188.294-146.935-1.134-.233-2.208.044-2.444.589-.24.548.45 1.15 1.59 1.383 82.581 16.852 151.433 71.902 187.233 145.832.507 1.043 1.317 1.657 1.846 1.418z" opacity=".6"/><path d="m417.514 311.346c.617.06.876-.753.57-1.874-1.925-7.088-4.127-14.056-6.599-20.897-.397-1.094-1.15-1.771-1.695-1.572-.545.201-.674 1.203-.28 2.296 2.365 6.539 4.476 13.192 6.328 19.955.309 1.119 1.058 2.032 1.676 2.092z" opacity=".6"/><path d="m135.538 137.65c-.514-.114-1.014-.258-1.496-.441-1.09-.403-2.829-.81-3.982-.677-26.649 3.039-52.0127 10.373-75.3857 21.287-1.049.492-2.1609 1.676-2.6429 2.558-.4819.882-.1512 1.109.8946.605 25.4079-12.241 53.257-20.188 82.602-22.894 1.157-.107 1.144-.189.01-.438z" opacity=".7"/><path d="m41.8059 166.558c-.085.007-.1701.01-.2583.01-.5292 0-1.0489-.035-1.5592-.107-.86-.117-2.3562.154-3.3642.73-14.0648 8.055-27.25696 17.461-39.40022 28.042-.8757.762-.74025.945.3717.617.1953-.06.3906-.11.58905-.157 1.130855-.274 2.790905-.926 3.6792-1.673 11.87547-9.989 24.71177-18.865 38.35757-26.463 1.0111-.564 1.723-1.008 1.5844-.999z" opacity=".7"/><path d="m400.18 399.481c-6.971 87.558-60.556 162.172-135.872 198.97-1.043.507-1.884 1.48-1.994 2.17-.104.687.595.832 1.638.328 42.304-20.365 77.903-52.514 102.498-92.179.608-.985 1.172-2.74 1.499-3.852.51-1.742 1.43-3.304 2.652-4.58.81-.838 2.054-2.189 2.606-3.21 16.08-29.427 26.299-62.483 29.077-97.609.092-1.159-.031-2.076-.271-2.047-.138.018-.283.037-.431.037-.211 0-.419-.022-.624-.044-.34-.041-.687.86-.778 2.016z" opacity=".7"/><path d="m210.266 142.701c1.134.249 2.517.035 3.141-.416.623-.45.255-.967-.873-1.225-17.536-4-35.778-6.123-54.504-6.123-3.614 0-7.211.081-10.786.236-1.159.053-2.813.727-3.821 1.304-.378.217-.769.413-1.172.586-1.068.453-1.065.56.095.488 5.185-.337 10.417-.51 15.684-.51 17.926 0 35.409 1.956 52.236 5.66z" opacity=".7"/><path d="m402.312 377.51c.403.047.718-.841.696-2.004-.022-1.367-.06-2.737-.107-4.101-.038-1.159-.595-2.334-1.194-2.693-.595-.362-.995.23-.948 1.389.066 1.77.113 3.547.145 5.327.022 1.162.173 2.088.353 2.063.107-.016.214-.028.327-.028.246 0 .488.018.728.047z" opacity=".7"/><path d="m322.602 200.618c.255-.028.516-.047.787-.047.252 0 .504.019.753.047.413.044.06-.539-.794-1.323-25.445-23.301-55.799-41.316-89.318-52.281-1.106-.359-1.685-.104-1.389.602.293.709 1.357 1.603 2.457 1.972 31.818 10.672 60.719 27.758 85.16 49.729.863.775 1.906 1.351 2.344 1.301z" opacity=".7"/><path d="m333.408 211.281c-.044.378.558 1.361 1.355 2.205 34.266 36.357 57.469 83.251 64.178 135.239.151 1.153.649 1.663 1.178 1.188.526-.476.888-1.733.731-2.886-7.113-52.643-31.012-100.028-66.103-136.593-.803-.838-1.392-1.141-1.342-.674.035.274.048.554.048.838 0 .229-.013.459-.045.683z" opacity=".7"/><path d="m-30.8749 494.784c-.3244-.457-.6142-.939-.8725-1.439-.5324-1.03-1.2726-2.753-1.8491-3.758-18.5503-32.304-29.1784-69.713-29.1784-109.56 0-5.882.2457-11.703.7024-17.474.0914-1.156-.2992-2.186-.8662-2.365-.567-.18-1.0962.564-1.1907 1.72-.4851 5.975-.7466 12.017-.7466 18.119 0 64.663 27.6917 122.972 71.83263 163.718.85365.79 2.04119 1.193 2.66489.973.62368-.227.44728-.98-.4095-1.764-14.4207-13.176-27.09002-28.24-37.61732-44.784-.6237-.979-1.8018-2.435-2.4696-3.386z" opacity=".8"/><path d="m140.357 158.973c-.661.642-.343.992.816.904 5.566-.429 11.182-.652 16.856-.652 17.712 0 34.936 2.107 51.449 6.066 1.134.271 1.656-.006 1.288-.693-.378-.693-1.496-1.521-2.627-1.779-16.116-3.714-32.883-5.699-50.11-5.699-4.858 0-9.677.161-14.459.473-1.159.075-2.548.743-3.213 1.38z" opacity=".8"/><path d="m-55.2768 322.882c22.4847-83.85 93.2243-148.148 180.4918-161.208 1.15-.173 1.383-.586.592-1.061-.794-.476-2.302-.823-3.449-.637-41.1925 6.653-78.6366 24.636-109.0341 50.64-.8788.753-1.9782 2.236-2.6554 3.178-.96393 1.336-2.20504 2.463-3.64144 3.301-1.0017.586-2.58615 1.537-3.4209 2.344-28.59256 27.503-49.88336 62.546-60.63116 101.896-.3056 1.121-.104 2.322.3811 2.753.482.432 1.0647-.085 1.3671-1.206z" opacity=".8"/><path d="m351.136 486.891c-.56 1.014-1.247 2.756-1.729 3.815-.325.708-.718 1.376-1.178 2.009-.684.936-1.868 2.382-2.482 3.371-34.83 56.13-94.119 95.571-162.865 103.304-1.153.132-2.492.803-3.087 1.443-.586.633-.195.998.958.882 112.25-11.419 200.132-106.48 200.132-221.688 0-98.573-64.307-182.397-153.163-211.73-1.099-.362-2.488-.243-3.165.151-.674.394-.369.904.737 1.26 88.931 28.517 153.49 112.017 153.49 210.319 0 38.742-10.042 75.181-27.648 106.864z" opacity=".8"/><path d="m329.766 276.47c18.302 30.25 28.858 65.69 28.858 103.556 0 33.409-8.222 64.934-22.734 92.67-.536 1.03-.41 1.673.321 1.537.731-.138 1.774-1.008 2.303-2.041 14.188-27.666 22.207-58.996 22.207-92.166 0-37.796-10.401-73.212-28.482-103.534-.592-.998-1.348-1.767-1.669-1.726-.196.022-.388.041-.586.041-.224 0-.441-.019-.662-.044-.359-.041-.157.715.444 1.707z" opacity=".9"/><path d="m318.984 260.438c.696.933 1.377 1.153 1.641.52.259-.633-.018-1.871-.721-2.797-37.025-49.08-95.804-80.87-161.875-80.87-45.631 0-87.7845 15.167-121.7005 40.707-.9293.7-1.3388 1.604-.9828 2.064.3559.46 1.3513.286 2.2774-.41 33.5601-25.26 75.2629-40.26 120.4059-40.26 65.838 0 124.359 31.9 160.955 81.046z" opacity=".9"/><path d="m327.056 489.247c-.151-.517-.409-.677-.624-.356-.211.315-.078.712.29.907.366.189.485-.041.334-.551z"/><path d="m-19.2177 473.956c-14.9247-28.042-23.3888-60.014-23.3888-93.927 0-57.217 24.0849-108.908 62.6378-145.492.8442-.804 1.1749-1.749.7812-2.177-.3938-.428-1.3545-.176-2.1987.624-38.9718 36.971-63.3213 89.214-63.3213 147.045 0 33.78 8.316 65.646 22.995 93.687.5386 1.027 1.5529 1.846 2.2459 1.909.693.066.7938-.646.2489-1.669z" opacity=".9"/><path d="m337.364 412.586c-.207 1.14-.333 2.435-.302 2.895.019.277.035.554.035.838 0 1.798-.372 3.509-1.033 5.074-.454 1.071-1.191 2.782-1.478 3.903-1.855 7.226-4.136 14.276-6.829 21.127-.425 1.084-.302 2.01.274 2.133s1.389-.602 1.811-1.682c8.093-20.737 12.547-43.278 12.547-66.846 0-74.457-44.352-138.739-108.014-167.826-1.055-.485-1.433-.233-.967.617.466.851 1.597 1.985 2.646 2.482 61.57 29.292 104.237 92.116 104.237 164.727 0 11.11-1.014 21.99-2.927 32.558z"/><path d="m315.865 471.07c-31.55 54.483-90.477 91.221-157.834 91.221-100.5227 0-182.303-81.764-182.303-182.262 0-40.238 13.1072-77.468 35.2706-107.658.6867-.935 1.0615-2.315.9418-3.115-.1197-.797-.6993-.706-1.3986.221-23.1651 30.825-36.9148 69.111-36.9148 110.552 0 101.654 82.7221 184.36 184.404 184.36 68.031 0 127.563-37.041 159.507-92.015.582-1.005.639-2.079.182-2.438-.469-.365-1.272.133-1.855 1.134z"/><path d="m25.6773 254.803c33.2514-35.126 80.2807-57.075 132.3537-57.075 19.451 0 38.206 3.068 55.793 8.741 1.105.356 2.721.312 3.66.025.939-.296.841-.73-.255-1.105-18.588-6.322-38.499-9.762-59.198-9.762-53.437 0-101.6349 22.85-135.3462 59.289-.7875.851-.9828 1.468-.441 1.421.3244-.032.652-.047.9859-.047.167 0 .3371.003.504.012.2804.016 1.1466-.655 1.9436-1.499z"/><path d="m290.019 279.286c.211-.012.428-.016.639-.016.234 0 .47.004.703.019.39.022.142-.693-.57-1.612-15.486-20.05-35.397-36.518-58.263-47.903-1.039-.519-2.287-.56-2.819-.166-.526.4-.132 1.08.907 1.59 22.485 11.013 42.109 26.986 57.475 46.475.715.914 1.578 1.629 1.928 1.613z"/><path d="m248.048 520.169c.252.526 1.206.463 2.173-.177 31.689-20.938 55.891-52.315 67.634-89.22.349-1.103.179-2.17-.353-2.426-.529-.255-1.216.407-1.566 1.512-11.532 36.465-35.374 67.489-66.628 88.222-.967.643-1.512 1.557-1.26 2.089z"/><path d="m322.273 400.939c-.149 1.147.047 2.048.45 2.026.236-.013.476-.019.718-.019.114 0 .23.006.34.009.186.013.467-.91.608-2.06.86-6.845 1.339-13.8 1.339-20.868 0-29.906-7.9-57.982-21.675-82.316-.57-1.011-1.219-1.266-1.515-.611-.293.652-.123 1.972.441 2.989 13.129 23.72 20.648 50.961 20.648 79.938 0 7.084-.482 14.058-1.354 20.912z"/><path d="m113.187 539.426c-44.1067-12.417-80.7821-42.686-101.7548-82.47-.5418-1.027-1.3829-1.638-1.92467-1.424-.5418.22-.57645 1.175-.0378 2.205 21.67197 41.24 59.98227 72.409 105.97827 84.489 1.125.293 1.434-.019.807-.781-.63-.772-1.953-1.704-3.068-2.019z"/><path d="m-5.82113 355.852c.1701-1.15-.1512-2.113-.72135-2.224-.5733-.104-1.17495.687-1.34505 1.837-1.1844 8.02-1.81755 16.219-1.81755 24.563 0 19.427 3.32325 38.09 9.427952 55.453.3843 1.099 1.111951 1.729 1.644298 1.484.5292-.246.65835-1.279.27405-2.375-5.985-17.095-9.24525-35.454-9.24525-54.562 0-8.215.62055-16.282 1.7829-24.176z"/><path d="m5.06069 316.626c5.53141-13.296 12.74491-25.713 21.37591-37 .7056-.926.5733-1.345-.3528-1.108-.9261.236-2.2712 1.049-2.9642 1.981-8.379 11.331-15.34676 23.754-20.68916 37.006-.4347 1.081-.2142 1.689.504 1.446.7245-.249 1.6821-1.25 2.12625-2.325z"/><path d="m93.6454 226.287c-.1229-.577-1.049-.69-2.1137-.23-21.0924 9.144-39.942 22.5-55.4967 39-.7969.841-1.4112 1.758-1.3954 2.032.0094.16.0126.327.0126.494 0 .403-.0221.807-.0662 1.2-.0724.659.4316.485 1.2128-.371 15.6051-17.077 34.7098-30.896 56.1897-40.273 1.0647-.463 1.7829-1.276 1.6569-1.852z"/><path d="m116.875 218.487c.255.536 1.329.759 2.457.485 12.42-2.983 25.376-4.577 38.698-4.577 16.843 0 33.09 2.552 48.415 7.248 1.112.341 1.868.114 1.774-.535-.108-.646-1.03-1.462-2.142-1.792-15.231-4.565-31.352-7.025-48.047-7.025-13.646 0-26.914 1.644-39.621 4.734-1.128.275-1.789.923-1.534 1.462z"/><path d="m293.418 309.853c-.576-1.103-1.159-2.199-1.761-3.286-.564-1.017-1.606-1.827-2.318-1.899-.712-.066-.807.623-.233 1.635.73 1.301 1.442 2.611 2.138 3.931.539 1.027 1.44 1.723 2.039 1.619.598-.104.674-.97.135-2z"/><path d="m68.2067 501.918c-.5702-1.011-1.6002-2.482-2.5169-3.2-35.3524-27.553-58.13953-70.507-58.13953-118.689 0-12.241 1.4679-24.142 4.23673-35.538.2772-1.128.0095-1.815-.6363-1.607-.6426.208-1.41118 1.232-1.67578 2.363-2.6208 11.179-4.0257 22.815-4.0257 34.782 0 68.597 45.53638 126.724 107.96578 145.851 1.112.34 2.291.17 2.681-.321.394-.495-.157-1.118-1.269-1.446-12.263-3.685-23.871-8.877-34.6094-15.394-.9922-.598-1.8774-1.093-1.9845-1.08-.063.009-.1291.015-.1953.015-4.243 0-7.9065-2.318-9.8311-5.736z"/><path d="m278.317 288.109c.215-.662-.119-1.922-.847-2.829-7.579-9.544-16.26-18.169-25.871-25.66-.917-.715-1.893-.866-2.23-.394-.337.473.091 1.39 1.005 2.105 9.818 7.66 18.67 16.509 26.327 26.334.715.913 1.399 1.108 1.616.444z"/><path d="m193.36 233.785c13.267 3.207 25.849 8.174 37.488 14.641 1.017.567 2.028.608 2.337.117.303-.495-.214-1.336-1.225-1.9-12.021-6.69-25.024-11.806-38.748-15.06-1.128-.264-1.979-.038-1.931.498.028.321.044.642.044.97 0 .044-.003.085-.003.129-.007.069.907.334 2.038.605z"/><path d="m142.927 229.263c-.138-.573-1.131-.954-2.287-.822-55.4995 6.322-102.0282 42.556-123.0891 92.125-.4536 1.068-.4315 2.347-.0252 2.898.4095.551 1.0364.157 1.4837-.917 20.5632-49.559 66.8493-85.841 122.1346-92.043 1.15-.129 1.919-.668 1.783-1.241z"/><path d="m302.471 331.013c-.371-1.099-1.049-1.644-1.54-1.291-.498.356-.617 1.484-.246 2.583 5.031 15.003 7.79 31.046 7.79 47.722 0 82.959-67.492 150.448-150.444 150.448-1.276 0-2.545-.029-3.808-.076-1.163-.035-1.928.384-1.783.97.148.589 1.153 1.109 2.312 1.144 1.09.037 2.18.066 3.279.066 84.115 0 152.545-68.434 152.545-152.552 0-17.139-2.863-33.623-8.105-49.014z"/><path d="m295.313 369.2c.599.214.992-.501.895-1.657-5.45-60.801-50.227-110.436-108.653-123.146-1.131-.249-2.7.022-3.563.456-.86.438-.677.854.463 1.081 58.518 11.513 103.73 60.483 109.57 120.837.11 1.153.69 2.218 1.288 2.429z"/><path d="m236.164 492.56c-.626.548-1.316 1.018-2.06 1.412-1.027.538-2.734 1.304-3.717 1.921-21.001 13.164-45.794 20.812-72.358 20.812-24.343 0-47.203-6.426-67.0197-17.624-1.0111-.57-1.8837-.561-2.0286.025-.1449.589.5009 1.525 1.512 2.089 20.0053 11.195 43.0293 17.608 67.5363 17.608 71.974 0 131.282-55.09 138.086-125.304.11-1.153-.28-1.877-.879-1.669-.598.211-1.181 1.269-1.301 2.419-4.06 39.076-24.639 73.291-54.627 95.549-.935.696-2.265 2.003-3.144 2.762z"/><path d="m85.7321 262.786c.6773.255 2.0003.034 3.002-.555 20.3299-12.004 44.0209-18.906 69.2969-18.906 3.276 0 6.52.139 9.737.375 1.159.085 1.455-.268.752-.901-.705-.633-2.138-1.295-3.294-1.358-2.388-.135-4.779-.22-7.195-.22-26.252 0-50.81 7.352-71.7665 20.068-.9923.605-1.2096 1.241-.5324 1.497z"/><path d="m66.2396 481.179c-27.5625-25.018-44.9127-61.088-44.9127-101.15 0-40.994 18.1566-77.818 46.8373-102.892.8726-.765 1.5057-1.823 1.4553-2.378-.0346-.334-.0535-.671-.0535-1.017 0-.104.0063-.205.0126-.309.0094-.173-.7056.287-1.5876 1.039-29.8274 25.481-48.7683 63.347-48.7683 105.557 0 40.657 17.6022 77.263 45.5616 102.668.8599.781 1.8522 1.027 2.2585.605.4001-.419.0567-1.345-.8032-2.123z"/><path d="m158.03 506.286c21.672 0 42.071-5.515 59.913-15.18 1.02-.551 1.581-1.417 1.329-1.94-.258-.523-1.235-.504-2.249.05-17.565 9.523-37.649 14.966-58.993 14.966-68.4751 0-124.1829-55.695-124.1829-124.154 0-37.337 16.5753-70.859 42.7392-93.643.8757-.759 1.0773-1.503.4694-1.742-.6111-.24-1.7924.119-2.6618.891-26.1292 23.153-42.6478 56.921-42.6478 94.494 0 69.618 56.6527 126.258 126.2839 126.258z"/><path d="m236.927 477.152c.404.425 1.418.208 2.303-.539 24.614-20.724 41.199-50.661 44.437-84.445.107-1.156.01-2.221-.208-2.362-.214-.152-.324.031-.277.428.025.239.047.482.047.728 0 1.735-.428 3.361-1.168 4.803-.533 1.034-1.264 2.7-1.449 3.846-4.792 30.124-20.45 56.66-42.831 75.474-.885.744-1.257 1.645-.854 2.067z"/><path d="m95.1664 272.974c18.4496-10.877 39.9386-17.127 62.8646-17.127 62.521 0 114.367 46.482 122.888 106.703.164 1.15.91 2.577 1.584 3.283.677.712 1.04.428.904-.725-7.402-62.628-60.804-111.365-125.376-111.365-22.945 0-44.469 6.162-63.0284 16.9-1.0049.583-1.7262 1.518-1.6727 2.079.0347.337.0536.677.0536 1.021 0 .053-.0032.107-.0095.157-.0063.085.7938-.337 1.7924-.926z"/></g></svg>