<svg width="792" height="500" viewBox="0 0 792 500" fill="none" xmlns="http://www.w3.org/2000/svg">
<g opacity="0.3">
<path opacity="0.05" fill-rule="evenodd" clip-rule="evenodd" d="M704.521 63.2082C705.104 64.213 705.822 64.4398 706.228 63.7625C706.638 63.0853 706.562 61.7718 705.979 60.7701C678.767 14.2036 645.414 -29.1845 606.276 -68.3295C486.569 -188.058 327.375 -254 158.031 -254C3.75308 -254 -142.073 -199.272 -257.325 -99.0641C-258.201 -98.2986 -258.664 -97.1205 -258.456 -96.4023C-258.248 -95.6778 -257.445 -95.6967 -256.569 -96.459C-145.519 -193.211 -0.477356 -251.899 158.031 -251.899C391.046 -251.899 595.002 -125.061 704.521 63.2082Z" fill="#00343D"/>
<path opacity="0.05" fill-rule="evenodd" clip-rule="evenodd" d="M715.629 83.1603C762.945 171.719 789.814 272.79 789.814 380.029C789.814 474.192 769.069 563.595 731.965 643.952C731.476 645.01 731.177 646.361 731.234 646.988C731.272 647.363 731.291 647.741 731.291 648.122C731.291 652.309 729.303 656.041 726.206 658.467C725.296 659.185 724.042 660.48 723.523 661.519C713.521 681.534 702.509 700.957 690.514 719.7C689.89 720.676 689.755 722.015 690.092 722.755C690.429 723.502 691.128 723.351 691.755 722.374C756.941 621.171 791.915 503.301 791.915 380.029C791.915 274.85 766.498 173.591 718.574 83.2737C718.029 82.2437 717.346 81.4404 717.046 81.4562C716.876 81.4625 716.693 81.4688 716.514 81.4688C716.196 81.4688 715.884 81.453 715.572 81.4247C715.052 81.3837 715.081 82.1366 715.629 83.1603Z" fill="#00343D"/>
<path fill-rule="evenodd" clip-rule="evenodd" d="M158.029 954.284C-158.685 954.284 -416.355 696.67 -416.355 380.026C-416.355 63.3126 -158.685 -194.357 158.029 -194.357C336.06 -194.357 495.413 -112.889 600.827 14.7144C601.564 15.609 602.427 15.8326 602.834 15.2593C603.24 14.6892 603.045 13.552 602.305 12.6606C590.769 -1.24985 578.535 -14.7003 565.598 -27.6374C456.753 -136.501 312.007 -196.458 158.029 -196.458C4.00623 -196.458 -140.771 -136.501 -249.635 -27.6374C-358.499 81.2298 -418.456 226.007 -418.456 380.026C-418.456 534.008 -358.499 678.75 -249.635 787.592C-242.195 795.035 -234.569 802.214 -226.797 809.188C-225.934 809.963 -224.495 811.05 -223.698 811.753C-222.898 812.461 -221.65 813.756 -220.775 814.521C-115.801 906.262 17.2425 956.382 158.029 956.382C281.348 956.382 398.723 917.914 496.496 846.686C497.435 846.006 498.764 844.692 499.652 843.946C499.989 843.659 500.339 843.397 500.711 843.158C501.687 842.528 503.338 841.633 504.258 840.94C525.738 824.74 546.241 806.949 565.598 787.592C604.708 748.482 637.474 704.712 663.446 657.566C664.004 656.549 664.325 655.213 664.243 654.583C664.196 654.205 664.164 653.818 664.164 653.427C664.164 652.769 664.234 652.129 664.356 651.509C664.561 650.466 664.47 650.495 663.922 651.518C566.886 831.598 376.531 954.284 158.029 954.284Z" fill="#00343D" fill-opacity="0.1"/>
<path fill-rule="evenodd" clip-rule="evenodd" d="M712.707 231.238C725.448 278.715 732.284 328.586 732.284 380.028C732.284 454.019 718.203 524.78 692.606 589.79C692.178 590.867 692.392 591.737 693.073 591.812C693.753 591.888 694.645 591.135 695.06 590.055C720.862 524.012 734.385 453.064 734.385 380.028C734.385 374.991 734.297 369.967 734.164 364.949C734.139 363.79 733.585 362.057 733.153 360.98C732.637 359.692 732.347 358.287 732.347 356.813C732.347 355.628 732.533 354.482 732.873 353.408C733.229 352.302 733.648 350.535 733.591 349.376C731.383 306.98 724.595 265.444 713.494 225.319C713.182 224.201 712.962 223.596 712.981 223.971C712.993 224.198 713.003 224.425 713.003 224.654C713.003 225.524 712.908 226.371 712.744 227.19C712.511 228.327 712.401 230.117 712.707 231.238Z" fill="#00343D" fill-opacity="0.1"/>
<path fill-rule="evenodd" clip-rule="evenodd" d="M709.434 215.716C709.862 216.172 710.259 216.658 710.618 217.171C711.283 218.122 711.421 218.078 711.091 216.963C709.125 210.247 707.04 203.569 704.828 196.939C704.466 195.833 703.675 195.146 703.055 195.329C702.434 195.508 702.223 196.491 702.592 197.594C704.22 202.461 705.77 207.365 707.27 212.292C707.61 213.4 708.64 214.868 709.434 215.716Z" fill="#00343D" fill-opacity="0.1"/>
<path fill-rule="evenodd" clip-rule="evenodd" d="M683.397 148.215C686.761 155.825 689.965 163.521 693.008 171.298C693.433 172.379 694.249 172.993 694.875 172.731C695.496 172.473 695.685 171.44 695.266 170.359C692.371 162.932 689.322 155.564 686.112 148.262C685.649 147.201 685.007 146.363 684.685 146.378C684.496 146.388 684.301 146.394 684.109 146.394C683.844 146.394 683.586 146.385 683.324 146.369C682.893 146.338 682.924 147.157 683.397 148.215Z" fill="#00343D" fill-opacity="0.1"/>
<path fill-rule="evenodd" clip-rule="evenodd" d="M673.959 125.272C674.441 124.698 674.466 123.441 673.947 122.402C665.19 104.897 655.522 87.8181 644.963 71.2239C644.34 70.2474 643.029 68.9496 642.179 68.1558C640.742 66.8108 639.637 65.135 638.982 63.2513C638.597 62.1551 637.945 60.4352 637.296 59.4713C630.851 49.8732 624.085 40.461 617.036 31.2189C616.33 30.296 615.262 29.8455 614.616 30.1196C613.967 30.3936 613.986 31.2851 614.695 32.208C636.635 60.9581 655.922 91.8312 672.205 124.468C672.721 125.505 673.477 125.845 673.959 125.272Z" fill="#00343D" fill-opacity="0.1"/>
<path opacity="0.15" fill-rule="evenodd" clip-rule="evenodd" d="M618.582 133.4C618.528 133.914 618.89 135.155 619.435 136.178C646.673 187.539 665.58 243.956 674.365 303.626C674.538 304.773 675.395 306.316 676.101 307.239C676.18 307.337 676.258 307.438 676.328 307.542C677.002 308.483 677.235 308.433 677.074 307.286C668.475 244.916 648.838 185.202 619.133 130.449C618.579 129.431 618.065 128.612 617.993 128.628C617.917 128.641 618.223 129.456 618.44 130.521C618.569 131.151 618.635 131.8 618.635 132.468C618.635 132.783 618.616 133.095 618.582 133.4Z" fill="#00343D"/>
<path opacity="0.15" fill-rule="evenodd" clip-rule="evenodd" d="M608 113.428C608.371 112.713 608.286 111.384 607.688 110.388C585.82 74.0469 559.37 40.1214 528.613 9.35536C515.301 -3.95339 501.382 -16.4337 486.955 -28.1076C486.051 -28.8384 485.033 -28.9612 484.627 -28.4352C484.217 -27.9091 484.573 -26.9358 485.477 -26.205C533.499 12.5936 574.515 59.7176 606.34 112.956C606.935 113.954 607.625 114.14 608 113.428Z" fill="#00343D"/>
<path opacity="0.15" fill-rule="evenodd" clip-rule="evenodd" d="M678.189 423.014C678.097 424.17 678.494 425.169 679.067 425.295C679.647 425.421 680.189 424.636 680.28 423.48C681.458 409.097 682.082 394.614 682.082 380.029C682.082 358.701 680.816 337.574 678.324 316.724C678.185 315.571 677.984 315.583 677.634 316.689C677.562 316.916 677.48 317.143 677.395 317.363C676.969 318.444 676.535 320.157 676.661 321.31C678.831 340.588 679.981 360.175 679.981 380.029C679.981 394.503 679.354 408.833 678.189 423.014Z" fill="#00343D"/>
<path opacity="0.15" fill-rule="evenodd" clip-rule="evenodd" d="M675.254 450.287C664.739 528.067 637.019 600.451 596.079 663.501C595.445 664.475 595.279 665.823 595.603 666.563C595.927 667.31 596.62 667.159 597.254 666.188C639.772 601.201 667.108 527.755 677.418 450.272C677.569 449.122 677.418 448.221 677.075 448.237C676.87 448.249 676.659 448.253 676.454 448.253C676.297 448.253 676.142 448.249 675.988 448.243C675.733 448.227 675.408 449.141 675.254 450.287Z" fill="#00343D"/>
<path opacity="0.2" fill-rule="evenodd" clip-rule="evenodd" d="M414.499 -19.0009C505.849 39.9451 575.745 129.399 609.705 234.836C610.061 235.941 610.933 236.902 611.652 237.059C612.364 237.214 612.644 236.505 612.297 235.399C589.536 163.576 549.77 97.7759 494.995 42.988C471.877 19.867 446.787 -0.554491 420.132 -18.1819C419.158 -18.8213 418.103 -19.3096 417.766 -19.2907C417.568 -19.2812 417.363 -19.2749 417.158 -19.2749C416.33 -19.2749 415.52 -19.3631 414.739 -19.5269C413.602 -19.7632 413.52 -19.6277 414.499 -19.0009Z" fill="#00343D"/>
<path opacity="0.2" fill-rule="evenodd" clip-rule="evenodd" d="M633.424 375.63C634.01 375.511 634.473 374.509 634.457 373.347C634.152 350.953 632.315 328.815 628.989 307.042C628.816 305.893 628.161 304.944 627.54 304.859C626.923 304.771 626.573 305.578 626.759 306.724C630.164 328.626 632.067 351.016 632.36 373.791C632.375 374.95 632.845 375.753 633.424 375.63Z" fill="#00343D"/>
<path opacity="0.2" fill-rule="evenodd" clip-rule="evenodd" d="M632.972 401.666C632.39 401.517 631.889 402.296 631.838 403.455C625.756 527.842 571.566 639.796 487.499 721.044C486.664 721.85 486.318 722.915 486.677 723.479C487.03 724.04 487.946 723.876 488.784 723.069C490.867 721.063 492.939 719.041 494.993 716.99C529.599 682.384 558.195 643.368 580.32 601.237C580.859 600.207 581.495 598.449 581.983 597.397C582.125 597.079 582.286 596.773 582.465 596.474C583.048 595.472 584.113 593.926 584.633 592.889C613.786 534.583 630.66 470.543 633.933 403.99C633.987 402.831 633.552 401.814 632.972 401.666Z" fill="#00343D"/>
<path opacity="0.2" fill-rule="evenodd" clip-rule="evenodd" d="M617.36 261.232C619.065 267.813 620.636 274.447 622.06 281.137C622.303 282.271 622.917 282.901 623.471 282.602C624.029 282.303 624.316 281.184 624.073 280.05C622.605 273.142 620.986 266.282 619.219 259.462C618.926 258.341 618.318 257.874 617.805 258.359C617.291 258.848 617.071 260.111 617.36 261.232Z" fill="#00343D"/>
<path opacity="0.25" fill-rule="evenodd" clip-rule="evenodd" d="M503.912 120.637C504.876 120.826 505.055 120.373 504.356 119.447C492.225 103.379 478.91 88.0412 464.426 73.5574C415.709 24.8301 357.418 -10.8342 293.8 -31.7439C292.698 -32.103 292.225 -31.8006 292.622 -31.0005C293.025 -30.2004 294.141 -29.2113 295.24 -28.8427C377.707 -1.08495 449.095 50.9688 500.872 118.785C501.578 119.708 502.948 120.452 503.912 120.637Z" fill="#00343D"/>
<path opacity="0.25" fill-rule="evenodd" clip-rule="evenodd" d="M580.726 465.25C573.809 499.61 562.809 532.512 548.231 563.404C547.73 564.453 547.85 565.414 548.483 565.622C549.11 565.829 550.008 565.209 550.499 564.157C565.291 532.676 576.2 499.456 583.001 465.096C583.224 463.958 582.988 463.127 582.456 463.18C582.141 463.212 581.823 463.228 581.498 463.228C581.438 463.228 581.375 463.218 581.315 463.212C581.215 463.199 580.953 464.116 580.726 465.25Z" fill="#00343D"/>
<path opacity="0.25" fill-rule="evenodd" clip-rule="evenodd" d="M512.121 130.253C512.134 130.332 512.14 130.411 512.14 130.493C512.14 131.016 512.093 131.526 512.002 132.024C511.857 132.862 512.169 134.285 512.827 135.24C560.965 204.83 589.215 289.187 589.215 380.026C589.215 401.295 587.655 422.208 584.669 442.658C584.502 443.808 584.839 444.879 585.409 445.131C585.97 445.386 586.537 444.721 586.707 443.568C589.753 422.709 591.316 401.49 591.316 380.026C591.316 289.902 563.999 203.989 513.306 131.734C512.638 130.783 512.103 130.121 512.121 130.253Z" fill="#00343D"/>
<path opacity="0.25" fill-rule="evenodd" clip-rule="evenodd" d="M-125.19 55.0686C-79.6792 15.3534 -25.7889 -14.9717 33.45 -32.8794C34.5619 -33.2165 35.2769 -33.9567 35.0974 -34.5615C34.9178 -35.1632 33.9225 -35.3994 32.8105 -35.0655C31.6891 -34.7285 30.574 -34.3851 29.4557 -34.0418C28.3501 -33.6953 14.7641 -29.2097 13.6711 -28.8254C-38.5433 -10.442 -86.9746 17.9899 -129.235 55.497C-130.104 56.2656 -130.142 56.6562 -129.295 56.5018C-128.791 56.4073 -128.271 56.3569 -127.739 56.3569C-127.572 56.3569 -127.411 56.3758 -127.25 56.3947C-126.986 56.4262 -126.066 55.834 -125.19 55.0686Z" fill="#00343D"/>
<path opacity="0.3" fill-rule="evenodd" clip-rule="evenodd" d="M368.237 48.1352C368.328 47.5083 367.673 46.5066 366.687 45.8924C357.486 40.1216 348.033 34.713 338.346 29.7045C337.313 29.169 336.063 28.8288 335.546 28.8792C335.237 28.9139 334.926 28.9328 334.607 28.9328C331.536 28.9328 328.808 27.5121 327.013 25.304C326.282 24.4031 325.016 23.1462 323.964 22.6548C281.946 3.05869 235.93 -9.33341 187.496 -12.937C186.343 -13.0221 185.266 -12.6031 185.033 -12.0361C184.8 -11.4691 185.493 -10.9714 186.652 -10.8864C252.323 -6.12356 313.562 14.8869 366.347 48.1509C367.33 48.7715 368.142 48.762 368.237 48.1352Z" fill="#00343D"/>
<path opacity="0.3" fill-rule="evenodd" clip-rule="evenodd" d="M-8.46518 25.2113C42.0955 1.38786 98.5309 -11.9492 158.028 -11.9492C159.666 -11.9492 161.304 -11.9272 162.936 -11.8988C164.095 -11.8768 164.835 -12.3178 164.649 -12.9005C164.467 -13.4864 163.433 -13.9904 162.271 -14.0093C160.86 -14.0314 159.449 -14.0503 158.028 -14.0503C99.4412 -14.0503 42.8105 -1.35579 -8.72348 22.7197C-9.77558 23.2111 -10.5001 24.1687 -10.4276 24.8585C-10.3552 25.5515 -9.51728 25.7059 -8.46518 25.2113Z" fill="#00343D"/>
<path opacity="0.3" fill-rule="evenodd" clip-rule="evenodd" d="M516.939 220.156C517.399 219.753 517.424 218.619 516.948 217.564C488.22 154.324 443.273 99.952 387.439 59.8178C386.498 59.1406 385.31 58.9075 384.756 59.2319C384.204 59.5564 384.497 60.3092 385.442 60.9833C441.506 101.077 486.598 155.565 515.295 219.006C515.767 220.065 516.479 220.559 516.939 220.156Z" fill="#00343D"/>
<path opacity="0.3" fill-rule="evenodd" clip-rule="evenodd" d="M523.621 238.824C536.491 272.063 544.943 307.481 548.282 344.349C548.386 345.508 548.77 346.258 549.17 346.066C549.567 345.873 549.986 345.429 550.121 345.051C550.257 344.67 550.307 343.432 550.2 342.279C546.742 306.102 538.397 271.332 525.8 238.654C525.381 237.57 524.61 236.789 524.077 236.846C523.753 236.877 523.425 236.893 523.098 236.893C523.054 236.893 523.016 236.89 522.978 236.883C522.909 236.874 523.202 237.743 523.621 238.824Z" fill="#00343D"/>
<path opacity="0.3" fill-rule="evenodd" clip-rule="evenodd" d="M513.715 544.44C513.227 545.492 513.466 545.791 514.352 545.265C515.243 544.736 516.427 543.586 516.909 542.528C539.444 492.953 552.019 437.935 552.019 380.029C552.019 376.035 551.94 372.062 551.818 368.1C551.78 366.937 551.254 365.907 550.662 365.725C550.076 365.545 549.654 366.282 549.691 367.441C549.83 371.621 549.921 375.811 549.921 380.029C549.921 438.713 536.931 494.408 513.715 544.44Z" fill="#00343D"/>
<path opacity="0.35" fill-rule="evenodd" clip-rule="evenodd" d="M497.894 486.589C497.548 487.701 497.283 489.541 497.078 490.684C496.883 491.8 496.527 492.845 496.045 493.816C495.525 494.852 494.634 496.49 494.25 497.583C483.977 526.875 469.979 554.418 452.827 579.666C452.172 580.626 451.86 581.373 452.131 581.338C452.288 581.319 452.452 581.301 452.619 581.301C452.881 581.301 453.139 581.323 453.391 581.351C453.816 581.398 454.689 580.68 455.338 579.716C493.812 522.619 516.303 453.905 516.303 380.028C516.303 353.65 513.42 327.93 507.984 303.162C507.732 302.028 507.136 301.436 506.62 301.779C506.097 302.122 505.851 303.275 506.1 304.412C511.392 328.787 514.198 354.085 514.198 380.028C514.198 417.135 508.472 452.929 497.894 486.589Z" fill="#00343D"/>
<path opacity="0.35" fill-rule="evenodd" clip-rule="evenodd" d="M188.85 24.4193C189.467 24.2964 190.107 24.2303 190.762 24.2303C192.025 24.2303 193.231 24.4665 194.343 24.8918C195.43 25.3044 197.153 25.9313 198.306 26.0604C251.403 32.0675 300.996 49.802 344.438 76.599C345.424 77.207 346.132 77.2637 346.073 76.7093C346.038 76.3754 346.019 76.0383 346.019 75.695C346.019 75.6036 346.029 75.5091 346.044 75.4146C346.066 75.2634 345.276 74.6397 344.287 74.0349C291.767 41.9364 230.392 22.9829 164.755 21.7701C163.59 21.7481 163.017 22.1702 163.388 22.7529C163.77 23.3388 164.944 23.868 166.104 23.8964C172.413 24.035 178.685 24.3342 184.906 24.8036C186.065 24.8855 187.807 24.624 188.85 24.4193Z" fill="#00343D"/>
<path opacity="0.35" fill-rule="evenodd" clip-rule="evenodd" d="M501.463 281.53C502.086 281.59 502.323 280.79 501.998 279.675C478.855 200.44 429.013 132.494 362.929 86.243C361.978 85.5783 360.686 85.3106 360.018 85.5594C359.347 85.8051 359.552 86.4509 360.51 87.1092C426.587 132.951 476.483 200.55 499.74 279.464C500.07 280.579 500.836 281.474 501.463 281.53Z" fill="#00343D"/>
<path opacity="0.35" fill-rule="evenodd" clip-rule="evenodd" d="M145.379 22.932C145.751 22.3398 145.168 21.9271 144.006 21.9712C67.7821 24.9196 -2.40301 51.786 -59.2511 95.2686C-60.1709 95.971 -60.5772 96.8814 -60.2118 97.3318C-59.8464 97.7823 -58.8479 97.6059 -57.9281 96.9003C-1.77301 53.9658 67.4703 27.3388 142.68 24.1353C143.839 24.088 145.008 23.5273 145.379 22.932Z" fill="#00343D"/>
<path opacity="0.4" fill-rule="evenodd" clip-rule="evenodd" d="M472.898 300.453C473.461 300.308 473.701 299.316 473.405 298.195C473.392 298.154 473.383 298.113 473.37 298.072C473.08 296.947 472.463 296.387 471.959 296.749C471.455 297.111 471.215 298.116 471.458 299.055C471.701 299.993 472.337 300.601 472.898 300.453Z" fill="#00343D"/>
<path opacity="0.4" fill-rule="evenodd" clip-rule="evenodd" d="M477.026 440.779C477.656 440.581 478.358 439.538 478.563 438.395C480.119 429.836 481.338 421.164 482.208 412.385C482.321 411.229 481.94 410.489 481.341 410.653C480.743 410.81 480.157 411.827 480.037 412.984C479.143 421.81 477.886 430.532 476.289 439.135C476.081 440.275 476.393 440.984 477.026 440.779Z" fill="#00343D"/>
<path opacity="0.4" fill-rule="evenodd" clip-rule="evenodd" d="M470.716 463.822C433.701 601.821 307.546 703.72 158.029 703.72C132.394 703.72 107.449 700.706 83.5153 695.045C82.3876 694.777 80.9922 694.976 80.3464 695.414C79.7007 695.858 80.0503 696.374 81.178 696.648C105.833 702.633 131.565 705.821 158.029 705.821C308.129 705.821 434.825 603.79 472.449 465.445C472.751 464.32 472.569 463.089 472.087 462.641C471.605 462.191 471.019 462.701 470.716 463.822Z" fill="#00343D"/>
<path opacity="0.4" fill-rule="evenodd" clip-rule="evenodd" d="M67.4177 69.1897C85.086 64.0268 103.372 60.3256 122.139 58.2466C123.292 58.1174 123.299 57.8434 122.212 57.4339C122.114 57.3961 122.017 57.3583 121.919 57.3173C120.845 56.8826 119.106 56.4952 117.953 56.6369C100.03 58.8419 82.5503 62.5117 65.6411 67.517C64.526 67.8478 64.0692 68.4463 64.5606 68.9062C65.052 69.3661 66.3057 69.5141 67.4177 69.1897Z" fill="#00343D"/>
<path opacity="0.4" fill-rule="evenodd" clip-rule="evenodd" d="M44.8375 75.536C44.9383 74.8745 44.2012 74.6792 43.1176 75.0887C38.065 77.0007 33.0786 79.0388 28.1488 81.1871C27.0841 81.6533 25.4745 82.614 24.4476 83.1495C24.0412 83.3574 23.6223 83.5496 23.1939 83.7197C22.1134 84.1418 20.3337 84.7245 19.2847 85.2191C-60.4481 122.893 -122.535 191.973 -150.929 276.405C-151.297 277.505 -151.067 278.21 -150.403 278.053C-149.741 277.892 -148.894 276.925 -148.522 275.822C-117.463 184.706 -46.8527 111.745 42.7491 77.489C43.8327 77.0732 44.7336 76.1975 44.8375 75.536Z" fill="#00343D"/>
<path opacity="0.4" fill-rule="evenodd" clip-rule="evenodd" d="M333.522 108.108C334.502 108.741 335.444 108.81 335.693 108.281C335.948 107.749 335.409 106.823 334.433 106.193C283.56 73.2911 222.989 54.158 158.029 54.158C151.367 54.158 144.755 54.3785 138.188 54.7817C137.032 54.851 135.39 55.5503 134.414 56.1803C134.332 56.2307 134.247 56.2842 134.162 56.3346C133.173 56.9394 133.229 57.2103 134.386 57.1253C142.194 56.5583 150.079 56.2622 158.029 56.2622C222.671 56.2622 282.927 75.3291 333.522 108.108Z" fill="#00343D"/>
<path opacity="0.4" fill-rule="evenodd" clip-rule="evenodd" d="M356.123 124.158C373.675 137.788 389.797 153.179 404.22 170.072C404.973 170.951 405.663 171.66 405.758 171.628C405.858 171.603 406.114 171.206 406.372 170.753C406.627 170.296 406.262 169.225 405.506 168.346C391.145 151.569 375.111 136.273 357.67 122.703C356.753 121.987 355.695 121.776 355.266 122.18C354.835 122.583 355.2 123.446 356.123 124.158Z" fill="#00343D"/>
<path opacity="0.4" fill-rule="evenodd" clip-rule="evenodd" d="M421.482 192.146C439.793 217.758 454.466 246.137 464.741 276.531C465.119 277.63 465.532 278.509 465.686 278.487C465.778 278.478 465.869 278.465 465.96 278.465C466.25 278.465 466.534 278.484 466.814 278.512C467.283 278.566 467.365 277.744 466.997 276.645C456.58 245.573 441.605 216.583 422.859 190.461C422.182 189.522 421.46 188.819 421.249 188.898C421.038 188.974 420.755 189.349 420.582 189.742C420.408 190.133 420.805 191.201 421.482 192.146Z" fill="#00343D"/>
<path opacity="0.4" fill-rule="evenodd" clip-rule="evenodd" d="M480.785 347.737C481.276 349.114 481.544 350.594 481.544 352.132C481.544 352.859 481.484 353.574 481.367 354.267C481.169 355.414 480.92 357.238 480.999 358.397C481.475 365.547 481.723 372.758 481.723 380.028C481.723 382.835 481.676 385.629 481.601 388.416C481.566 389.576 482.023 390.656 482.593 390.899C483.169 391.141 483.639 390.454 483.673 389.289C483.765 386.211 483.828 383.128 483.828 380.028C483.828 362.344 482.388 344.987 479.663 328.056C479.474 326.913 478.86 326.09 478.287 326.172C477.704 326.251 477.392 327.206 477.578 328.352C478.403 333.443 479.112 338.571 479.689 343.737C479.821 344.89 480.391 346.644 480.785 347.737Z" fill="#00343D"/>
<path opacity="0.5" fill-rule="evenodd" clip-rule="evenodd" d="M393.747 555.81C393.054 556.742 392.85 557.435 393.297 557.397C393.568 557.375 393.842 557.363 394.116 557.363C394.299 557.363 394.472 557.369 394.648 557.378C394.948 557.394 395.751 556.663 396.441 555.731C432.788 506.541 454.303 445.749 454.303 380.027C454.303 283.861 408.263 198.244 337.073 144.07C336.153 143.368 334.883 143.053 334.216 143.289C333.545 143.519 333.737 144.193 334.663 144.889C405.991 198.631 452.205 284.028 452.205 380.027C452.205 445.881 430.439 506.733 393.747 555.81Z" fill="#00343D"/>
<path opacity="0.5" fill-rule="evenodd" clip-rule="evenodd" d="M-133.999 344.075C-121.469 241.7 -56.166 155.409 33.8074 113.334C34.8564 112.84 36.4786 111.892 37.5244 111.388C37.7512 111.277 37.9875 111.173 38.2237 111.076C39.2979 110.635 41.0839 110.055 42.1486 109.595C77.731 94.2894 116.904 85.7907 158.031 85.7907C192.495 85.7907 225.586 91.7537 256.339 102.7C257.435 103.087 258.522 102.971 258.818 102.457C259.111 101.947 258.506 101.232 257.413 100.845C226.335 89.7408 192.876 83.6897 158.031 83.6897C6.82133 83.6897 -118.278 197.534 -136.107 344.006C-136.248 345.155 -136.214 346.085 -136.034 346.075C-135.927 346.069 -135.82 346.063 -135.71 346.063C-135.464 346.063 -135.222 346.072 -134.979 346.091C-134.576 346.119 -134.141 345.228 -133.999 344.075Z" fill="#00343D"/>
<path opacity="0.5" fill-rule="evenodd" clip-rule="evenodd" d="M319.258 133.371C319.239 133.128 319.23 132.889 319.23 132.643C319.23 132.461 319.233 132.278 319.242 132.098C319.258 131.796 318.502 131.034 317.523 130.407C307.175 123.77 296.386 117.763 285.213 112.433C284.17 111.929 283.228 112.001 283.052 112.562C282.882 113.123 283.556 113.964 284.602 114.465C296.017 119.93 307.027 126.11 317.576 132.946C318.546 133.579 319.29 133.774 319.258 133.371Z" fill="#00343D"/>
<path opacity="0.5" fill-rule="evenodd" clip-rule="evenodd" d="M74.7702 662.454C74.7796 662.306 73.885 661.925 72.7731 661.591C-25.6487 631.742 -102.405 551.621 -127.466 451.256C-127.75 450.132 -128.477 449.18 -129.101 449.076C-129.725 448.976 -130.005 449.763 -129.725 450.888C-104.657 552.623 -26.8835 633.84 72.8707 663.818C73.9827 664.152 74.8331 664.039 74.7953 663.569C74.7733 663.289 74.7607 663.005 74.7607 662.716C74.7607 662.627 74.767 662.539 74.7702 662.454Z" fill="#00343D"/>
<path opacity="0.6" fill-rule="evenodd" clip-rule="evenodd" d="M417.812 443.173C417.538 444.3 417.374 445.589 417.431 446.058C417.463 446.335 417.485 446.615 417.485 446.905C417.485 448.751 417.006 450.471 416.184 451.993C415.636 453.013 414.766 454.642 414.435 455.754C381.704 566.397 279.146 647.359 158.029 647.359C156.923 647.359 155.817 647.346 154.715 647.333C153.556 647.315 152.803 647.749 152.979 648.332C153.156 648.912 154.192 649.422 155.354 649.435C156.243 649.45 157.137 649.46 158.029 649.46C306.595 649.46 427.464 528.594 427.464 380.028C427.464 373.346 427.209 366.722 426.727 360.164C426.642 359.005 426.16 358.456 425.612 358.882C425.064 359.304 424.664 360.539 424.739 361.698C425.152 367.755 425.363 373.869 425.363 380.028C425.363 401.772 422.739 422.918 417.812 443.173Z" fill="#00343D"/>
<path opacity="0.6" fill-rule="evenodd" clip-rule="evenodd" d="M-12.018 172.463C-11.5959 172.866 -10.5532 172.624 -9.64919 171.896C36.2463 134.846 94.5906 112.632 158.028 112.632C166.729 112.632 175.338 113.057 183.827 113.876C184.98 113.99 185.824 113.615 185.761 113.02C185.701 112.43 184.763 111.848 183.606 111.741C175.19 110.944 166.653 110.531 158.028 110.531C121.208 110.531 86.0951 117.965 54.0942 131.39C53.0232 131.841 51.4734 132.868 50.5032 133.507C49.344 134.269 48.0494 134.858 46.6697 135.23C45.5483 135.526 43.7496 135.999 42.7007 136.5C23.366 145.688 5.29126 157.107 -11.1864 170.431C-12.0873 171.162 -12.4401 172.057 -12.018 172.463Z" fill="#00343D"/>
<path opacity="0.6" fill-rule="evenodd" clip-rule="evenodd" d="M400.626 265.287C401.155 265.047 401.202 264.046 400.695 263C364.685 188.594 295.457 133.157 212.401 116.065C211.267 115.832 210.193 116.109 209.957 116.654C209.717 117.202 210.407 117.804 211.547 118.037C294.128 134.889 362.98 189.939 398.78 263.869C399.287 264.912 400.097 265.526 400.626 265.287Z" fill="#00343D"/>
<path opacity="0.6" fill-rule="evenodd" clip-rule="evenodd" d="M417.514 311.346C418.131 311.406 418.39 310.593 418.084 309.472C416.159 302.384 413.957 295.416 411.485 288.575C411.088 287.481 410.335 286.804 409.79 287.003C409.245 287.204 409.116 288.206 409.51 289.299C411.875 295.838 413.986 302.491 415.838 309.254C416.147 310.373 416.896 311.286 417.514 311.346Z" fill="#00343D"/>
<path opacity="0.7" fill-rule="evenodd" clip-rule="evenodd" d="M135.538 137.65C135.024 137.536 134.524 137.392 134.042 137.209C132.952 136.806 131.213 136.399 130.06 136.532C103.411 139.571 78.0473 146.905 54.6743 157.819C53.6253 158.311 52.5134 159.495 52.0314 160.377C51.5495 161.259 51.8802 161.486 52.926 160.982C78.3339 148.741 106.183 140.794 135.528 138.088C136.685 137.981 136.672 137.899 135.538 137.65Z" fill="#00343D"/>
<path opacity="0.7" fill-rule="evenodd" clip-rule="evenodd" d="M41.8059 166.558C41.7209 166.565 41.6358 166.568 41.5476 166.568C41.0184 166.568 40.4987 166.533 39.9884 166.461C39.1284 166.344 37.6322 166.615 36.6242 167.191C22.5594 175.246 9.36724 184.652 -2.77602 195.233C-3.65172 195.995 -3.51627 196.178 -2.40432 195.85C-2.20902 195.79 -2.01372 195.74 -1.81527 195.693C-0.684415 195.419 0.975635 194.767 1.86393 194.02C13.7394 184.031 26.5757 175.155 40.2215 167.557C41.2326 166.993 41.9445 166.549 41.8059 166.558Z" fill="#00343D"/>
<path opacity="0.7" fill-rule="evenodd" clip-rule="evenodd" d="M400.18 399.481C393.209 487.039 339.624 561.653 264.308 598.451C263.265 598.958 262.424 599.931 262.314 600.621C262.21 601.308 262.909 601.453 263.952 600.949C306.256 580.584 341.855 548.435 366.45 508.77C367.058 507.785 367.622 506.03 367.949 504.918C368.459 503.176 369.379 501.614 370.601 500.338C371.411 499.5 372.655 498.149 373.207 497.128C389.287 467.701 399.506 434.645 402.284 399.519C402.376 398.36 402.253 397.443 402.013 397.472C401.875 397.49 401.73 397.509 401.582 397.509C401.371 397.509 401.163 397.487 400.958 397.465C400.618 397.424 400.271 398.325 400.18 399.481Z" fill="#00343D"/>
<path opacity="0.7" fill-rule="evenodd" clip-rule="evenodd" d="M210.266 142.701C211.4 142.95 212.783 142.736 213.407 142.285C214.03 141.835 213.662 141.318 212.534 141.06C194.998 137.06 176.756 134.937 158.03 134.937C154.416 134.937 150.819 135.018 147.244 135.173C146.085 135.226 144.431 135.9 143.423 136.477C143.045 136.694 142.654 136.89 142.251 137.063C141.183 137.516 141.186 137.623 142.346 137.551C147.531 137.214 152.763 137.041 158.03 137.041C175.956 137.041 193.439 138.997 210.266 142.701Z" fill="#00343D"/>
<path opacity="0.7" fill-rule="evenodd" clip-rule="evenodd" d="M402.312 377.51C402.715 377.557 403.03 376.669 403.008 375.506C402.986 374.139 402.948 372.769 402.901 371.405C402.863 370.246 402.306 369.071 401.707 368.712C401.112 368.35 400.712 368.942 400.759 370.101C400.825 371.871 400.872 373.648 400.904 375.428C400.926 376.59 401.077 377.516 401.257 377.491C401.364 377.475 401.471 377.463 401.584 377.463C401.83 377.463 402.072 377.481 402.312 377.51Z" fill="#00343D"/>
<path opacity="0.7" fill-rule="evenodd" clip-rule="evenodd" d="M322.602 200.618C322.857 200.59 323.118 200.571 323.389 200.571C323.641 200.571 323.893 200.59 324.142 200.618C324.555 200.662 324.202 200.079 323.348 199.295C297.903 175.994 267.549 157.979 234.03 147.014C232.924 146.655 232.345 146.91 232.641 147.616C232.934 148.325 233.998 149.219 235.098 149.588C266.916 160.26 295.817 177.346 320.258 199.317C321.121 200.092 322.164 200.668 322.602 200.618Z" fill="#00343D"/>
<path opacity="0.7" fill-rule="evenodd" clip-rule="evenodd" d="M333.408 211.281C333.364 211.659 333.966 212.642 334.763 213.486C369.029 249.843 392.232 296.737 398.941 348.725C399.092 349.878 399.59 350.388 400.119 349.913C400.645 349.437 401.007 348.18 400.85 347.027C393.737 294.384 369.838 246.999 334.747 210.434C333.944 209.596 333.355 209.293 333.405 209.76C333.44 210.034 333.453 210.314 333.453 210.598C333.453 210.827 333.44 211.057 333.408 211.281Z" fill="#00343D"/>
<path opacity="0.8" fill-rule="evenodd" clip-rule="evenodd" d="M-30.8749 494.784C-31.1993 494.327 -31.4891 493.845 -31.7474 493.345C-32.2798 492.315 -33.02 490.592 -33.5965 489.587C-52.1468 457.283 -62.7749 419.874 -62.7749 380.027C-62.7749 374.145 -62.5292 368.324 -62.0725 362.553C-61.9811 361.397 -62.3717 360.367 -62.9387 360.188C-63.5057 360.008 -64.0349 360.752 -64.1294 361.908C-64.6145 367.883 -64.876 373.925 -64.876 380.027C-64.876 444.69 -37.1843 502.999 6.95663 543.745C7.81028 544.535 8.99782 544.938 9.62152 544.718C10.2452 544.491 10.0688 543.738 9.21202 542.954C-5.20868 529.778 -17.878 514.714 -28.4053 498.17C-29.029 497.191 -30.2071 495.735 -30.8749 494.784Z" fill="#00343D"/>
<path opacity="0.8" fill-rule="evenodd" clip-rule="evenodd" d="M140.357 158.973C139.696 159.615 140.014 159.965 141.173 159.877C146.739 159.448 152.355 159.225 158.029 159.225C175.741 159.225 192.965 161.332 209.478 165.291C210.612 165.562 211.134 165.285 210.766 164.598C210.388 163.905 209.27 163.077 208.139 162.819C192.023 159.105 175.256 157.12 158.029 157.12C153.171 157.12 148.352 157.281 143.57 157.593C142.411 157.668 141.022 158.336 140.357 158.973Z" fill="#00343D"/>
<path opacity="0.8" fill-rule="evenodd" clip-rule="evenodd" d="M-55.2768 322.882C-32.7921 239.032 37.9475 174.734 125.215 161.674C126.365 161.501 126.598 161.088 125.807 160.613C125.013 160.137 123.505 159.79 122.358 159.976C81.1655 166.629 43.7214 184.612 13.3239 210.616C12.4451 211.369 11.3457 212.852 10.6685 213.794C9.70457 215.13 8.46346 216.257 7.02706 217.095C6.02536 217.681 4.44091 218.632 3.60616 219.439C-24.9864 246.942 -46.2772 281.985 -57.025 321.335C-57.3306 322.456 -57.129 323.657 -56.6439 324.088C-56.1619 324.52 -55.5792 324.003 -55.2768 322.882Z" fill="#00343D"/>
<path opacity="0.8" fill-rule="evenodd" clip-rule="evenodd" d="M351.136 486.891C350.576 487.905 349.889 489.647 349.407 490.706C349.082 491.414 348.689 492.082 348.229 492.715C347.545 493.651 346.361 495.097 345.747 496.086C310.917 552.216 251.628 591.657 182.882 599.39C181.729 599.522 180.39 600.193 179.795 600.833C179.209 601.466 179.6 601.831 180.753 601.715C293.003 590.296 380.885 495.235 380.885 380.027C380.885 281.454 316.578 197.63 227.722 168.297C226.623 167.935 225.234 168.054 224.557 168.448C223.883 168.842 224.188 169.352 225.294 169.708C314.225 198.225 378.784 281.725 378.784 380.027C378.784 418.769 368.742 455.208 351.136 486.891Z" fill="#00343D"/>
<path opacity="0.9" fill-rule="evenodd" clip-rule="evenodd" d="M329.766 276.47C348.068 306.72 358.624 342.16 358.624 380.026C358.624 413.435 350.402 444.96 335.89 472.696C335.354 473.726 335.48 474.369 336.211 474.233C336.942 474.095 337.985 473.225 338.514 472.192C352.702 444.526 360.721 413.196 360.721 380.026C360.721 342.23 350.32 306.814 332.239 276.492C331.647 275.494 330.891 274.725 330.57 274.766C330.374 274.788 330.182 274.807 329.984 274.807C329.76 274.807 329.543 274.788 329.322 274.763C328.963 274.722 329.165 275.478 329.766 276.47Z" fill="#00343D"/>
<path opacity="0.9" fill-rule="evenodd" clip-rule="evenodd" d="M318.984 260.438C319.68 261.371 320.361 261.591 320.625 260.958C320.884 260.325 320.607 259.087 319.904 258.161C282.879 209.081 224.1 177.291 158.029 177.291C112.398 177.291 70.2445 192.458 36.3285 217.998C35.3992 218.698 34.9897 219.602 35.3457 220.062C35.7016 220.522 36.697 220.348 37.6231 219.652C71.1832 194.392 112.886 179.392 158.029 179.392C223.867 179.392 282.388 211.292 318.984 260.438Z" fill="#00343D"/>
<path fill-rule="evenodd" clip-rule="evenodd" d="M327.056 489.247C326.905 488.73 326.647 488.57 326.432 488.891C326.221 489.206 326.354 489.603 326.722 489.798C327.088 489.987 327.207 489.757 327.056 489.247Z" fill="#00343D"/>
<path opacity="0.9" fill-rule="evenodd" clip-rule="evenodd" d="M-19.2177 473.956C-34.1424 445.914 -42.6065 413.942 -42.6065 380.029C-42.6065 322.812 -18.5216 271.121 20.0313 234.537C20.8755 233.733 21.2062 232.788 20.8125 232.36C20.4187 231.932 19.458 232.184 18.6138 232.984C-20.358 269.955 -44.7075 322.198 -44.7075 380.029C-44.7075 413.809 -36.3915 445.675 -21.7125 473.716C-21.1739 474.743 -20.1596 475.562 -19.4666 475.625C-18.7736 475.691 -18.6728 474.979 -19.2177 473.956Z" fill="#00343D"/>
<path fill-rule="evenodd" clip-rule="evenodd" d="M337.364 412.586C337.157 413.726 337.031 415.021 337.062 415.481C337.081 415.758 337.097 416.035 337.097 416.319C337.097 418.117 336.725 419.828 336.064 421.393C335.61 422.464 334.873 424.175 334.586 425.296C332.731 432.522 330.45 439.572 327.757 446.423C327.332 447.507 327.455 448.433 328.031 448.556C328.607 448.679 329.42 447.954 329.842 446.874C337.935 426.137 342.389 403.596 342.389 380.028C342.389 305.571 298.037 241.289 234.375 212.202C233.32 211.717 232.942 211.969 233.408 212.819C233.874 213.67 235.005 214.804 236.054 215.301C297.624 244.593 340.291 307.417 340.291 380.028C340.291 391.138 339.277 402.018 337.364 412.586Z" fill="#00343D"/>
<path fill-rule="evenodd" clip-rule="evenodd" d="M315.865 471.07C284.315 525.553 225.388 562.291 158.031 562.291C57.5083 562.291 -24.272 480.527 -24.272 380.029C-24.272 339.791 -11.1648 302.561 10.9986 272.371C11.6853 271.436 12.0601 270.056 11.9404 269.256C11.8207 268.459 11.2411 268.55 10.5418 269.477C-12.6233 300.302 -26.373 338.588 -26.373 380.029C-26.373 481.683 56.3491 564.389 158.031 564.389C226.062 564.389 285.594 527.348 317.538 472.374C318.12 471.369 318.177 470.295 317.72 469.936C317.251 469.571 316.448 470.069 315.865 471.07Z" fill="#00343D"/>
<path fill-rule="evenodd" clip-rule="evenodd" d="M25.6773 254.803C58.9287 219.677 105.958 197.728 158.031 197.728C177.482 197.728 196.237 200.796 213.824 206.469C214.929 206.825 216.545 206.781 217.484 206.494C218.423 206.198 218.325 205.764 217.229 205.389C198.641 199.067 178.73 195.627 158.031 195.627C104.594 195.627 56.3961 218.477 22.6848 254.916C21.8973 255.767 21.702 256.384 22.2438 256.337C22.5682 256.305 22.8958 256.29 23.2297 256.29C23.3967 256.29 23.5668 256.293 23.7337 256.302C24.0141 256.318 24.8803 255.647 25.6773 254.803Z" fill="#00343D"/>
<path fill-rule="evenodd" clip-rule="evenodd" d="M290.019 279.286C290.23 279.274 290.447 279.27 290.658 279.27C290.892 279.27 291.128 279.274 291.361 279.289C291.751 279.311 291.503 278.596 290.791 277.677C275.305 257.627 255.394 241.159 232.528 229.774C231.489 229.255 230.241 229.214 229.709 229.608C229.183 230.008 229.577 230.688 230.616 231.198C253.101 242.211 272.725 258.184 288.091 277.673C288.806 278.587 289.669 279.302 290.019 279.286Z" fill="#00343D"/>
<path fill-rule="evenodd" clip-rule="evenodd" d="M248.048 520.169C248.3 520.695 249.254 520.632 250.221 519.992C281.91 499.054 306.112 467.677 317.855 430.772C318.204 429.669 318.034 428.602 317.502 428.346C316.973 428.091 316.286 428.753 315.936 429.858C304.404 466.323 280.562 497.347 249.308 518.08C248.341 518.723 247.796 519.637 248.048 520.169Z" fill="#00343D"/>
<path fill-rule="evenodd" clip-rule="evenodd" d="M322.273 400.939C322.124 402.086 322.32 402.987 322.723 402.965C322.959 402.952 323.199 402.946 323.441 402.946C323.555 402.946 323.671 402.952 323.781 402.955C323.967 402.968 324.248 402.045 324.389 400.895C325.249 394.05 325.728 387.095 325.728 380.027C325.728 350.121 317.828 322.045 304.053 297.711C303.483 296.7 302.834 296.445 302.538 297.1C302.245 297.752 302.415 299.072 302.979 300.089C316.108 323.809 323.627 351.05 323.627 380.027C323.627 387.111 323.145 394.085 322.273 400.939Z" fill="#00343D"/>
<path fill-rule="evenodd" clip-rule="evenodd" d="M113.187 539.426C69.0803 527.009 32.4049 496.74 11.4322 456.956C10.8904 455.929 10.0493 455.318 9.50753 455.532C8.96573 455.752 8.93108 456.707 9.46973 457.737C31.1417 498.977 69.452 530.146 115.448 542.226C116.573 542.519 116.882 542.207 116.255 541.445C115.625 540.673 114.302 539.741 113.187 539.426Z" fill="#00343D"/>
<path fill-rule="evenodd" clip-rule="evenodd" d="M-5.82113 355.852C-5.65103 354.702 -5.97233 353.739 -6.54248 353.628C-7.11578 353.524 -7.71743 354.315 -7.88753 355.465C-9.07193 363.485 -9.70508 371.684 -9.70508 380.028C-9.70508 399.455 -6.38183 418.118 -0.277128 435.481C0.107172 436.58 0.834823 437.21 1.36717 436.965C1.89637 436.719 2.02552 435.686 1.64122 434.59C-4.34378 417.495 -7.60403 399.136 -7.60403 380.028C-7.60403 371.813 -6.98348 363.746 -5.82113 355.852Z" fill="#00343D"/>
<path fill-rule="evenodd" clip-rule="evenodd" d="M5.06069 316.626C10.5921 303.33 17.8056 290.913 26.4366 279.626C27.1422 278.7 27.0099 278.281 26.0838 278.518C25.1577 278.754 23.8126 279.567 23.1196 280.499C14.7406 291.83 7.77284 304.253 2.43044 317.505C1.99574 318.586 2.21624 319.194 2.93444 318.951C3.65894 318.702 4.61654 317.701 5.06069 316.626Z" fill="#00343D"/>
<path fill-rule="evenodd" clip-rule="evenodd" d="M93.6454 226.287C93.5225 225.71 92.5964 225.597 91.5317 226.057C70.4393 235.201 51.5897 248.557 36.035 265.057C35.2381 265.898 34.6238 266.815 34.6396 267.089C34.649 267.249 34.6522 267.416 34.6522 267.583C34.6522 267.986 34.6301 268.39 34.586 268.783C34.5136 269.442 35.0176 269.268 35.7988 268.412C51.4039 251.335 70.5086 237.516 91.9885 228.139C93.0532 227.676 93.7714 226.863 93.6454 226.287Z" fill="#00343D"/>
<path fill-rule="evenodd" clip-rule="evenodd" d="M116.875 218.487C117.13 219.023 118.204 219.246 119.332 218.972C131.752 215.989 144.708 214.395 158.03 214.395C174.873 214.395 191.12 216.947 206.445 221.643C207.557 221.984 208.313 221.757 208.219 221.108C208.111 220.462 207.189 219.646 206.077 219.316C190.846 214.751 174.725 212.291 158.03 212.291C144.384 212.291 131.116 213.935 118.409 217.025C117.281 217.3 116.62 217.948 116.875 218.487Z" fill="#00343D"/>
<path fill-rule="evenodd" clip-rule="evenodd" d="M293.418 309.853C292.842 308.75 292.259 307.654 291.657 306.567C291.093 305.55 290.051 304.74 289.339 304.668C288.627 304.602 288.532 305.291 289.106 306.303C289.836 307.604 290.548 308.914 291.244 310.234C291.783 311.261 292.684 311.957 293.283 311.853C293.881 311.749 293.957 310.883 293.418 309.853Z" fill="#00343D"/>
<path fill-rule="evenodd" clip-rule="evenodd" d="M68.2067 501.918C67.6365 500.907 66.6065 499.436 65.6898 498.718C30.3374 471.165 7.55027 428.211 7.55027 380.029C7.55027 367.788 9.01817 355.887 11.787 344.491C12.0642 343.363 11.7965 342.676 11.1507 342.884C10.5081 343.092 9.73952 344.116 9.47492 345.247C6.85412 356.426 5.44922 368.062 5.44922 380.029C5.44922 448.626 50.9856 506.753 113.415 525.88C114.527 526.22 115.706 526.05 116.096 525.559C116.49 525.064 115.939 524.441 114.827 524.113C102.564 520.428 90.956 515.236 80.2176 508.719C79.2254 508.121 78.3402 507.626 78.2331 507.639C78.1701 507.648 78.104 507.654 78.0378 507.654C73.7948 507.654 70.1313 505.336 68.2067 501.918Z" fill="#00343D"/>
<path fill-rule="evenodd" clip-rule="evenodd" d="M278.317 288.109C278.532 287.447 278.198 286.187 277.47 285.28C269.891 275.736 261.21 267.111 251.599 259.62C250.682 258.905 249.706 258.754 249.369 259.226C249.032 259.699 249.46 260.616 250.374 261.331C260.192 268.991 269.044 277.84 276.701 287.665C277.416 288.578 278.1 288.773 278.317 288.109Z" fill="#00343D"/>
<path fill-rule="evenodd" clip-rule="evenodd" d="M193.36 233.785C206.627 236.992 219.209 241.959 230.848 248.426C231.865 248.993 232.876 249.034 233.185 248.543C233.488 248.048 232.971 247.207 231.96 246.643C219.939 239.953 206.936 234.837 193.212 231.583C192.084 231.319 191.233 231.545 191.281 232.081C191.309 232.402 191.325 232.723 191.325 233.051C191.325 233.095 191.322 233.136 191.322 233.18C191.315 233.249 192.229 233.514 193.36 233.785Z" fill="#00343D"/>
<path fill-rule="evenodd" clip-rule="evenodd" d="M142.927 229.263C142.789 228.69 141.796 228.309 140.64 228.441C85.1405 234.763 38.6118 270.997 17.5509 320.566C17.0973 321.634 17.1194 322.913 17.5257 323.464C17.9352 324.015 18.5621 323.621 19.0094 322.547C39.5726 272.988 85.8587 236.706 141.144 230.504C142.294 230.375 143.063 229.836 142.927 229.263Z" fill="#00343D"/>
<path fill-rule="evenodd" clip-rule="evenodd" d="M302.471 331.013C302.1 329.914 301.422 329.369 300.931 329.722C300.433 330.078 300.314 331.206 300.685 332.305C305.716 347.308 308.475 363.351 308.475 380.027C308.475 462.986 240.983 530.475 158.031 530.475C156.755 530.475 155.486 530.446 154.223 530.399C153.06 530.364 152.295 530.783 152.44 531.369C152.588 531.958 153.593 532.478 154.752 532.513C155.842 532.55 156.932 532.579 158.031 532.579C242.146 532.579 310.576 464.145 310.576 380.027C310.576 362.888 307.713 346.404 302.471 331.013Z" fill="#00343D"/>
<path fill-rule="evenodd" clip-rule="evenodd" d="M295.313 369.2C295.912 369.414 296.305 368.699 296.208 367.543C290.758 306.742 245.981 257.107 187.555 244.397C186.424 244.148 184.855 244.419 183.992 244.853C183.132 245.291 183.315 245.707 184.455 245.934C242.973 257.447 288.185 306.417 294.025 366.771C294.135 367.924 294.715 368.989 295.313 369.2Z" fill="#00343D"/>
<path fill-rule="evenodd" clip-rule="evenodd" d="M236.164 492.56C235.538 493.108 234.848 493.578 234.104 493.972C233.077 494.51 231.37 495.276 230.387 495.893C209.386 509.057 184.593 516.705 158.029 516.705C133.686 516.705 110.826 510.279 91.0093 499.081C89.9982 498.511 89.1256 498.52 88.9807 499.106C88.8358 499.695 89.4816 500.631 90.4927 501.195C110.498 512.39 133.522 518.803 158.029 518.803C230.003 518.803 289.311 463.713 296.115 393.499C296.225 392.346 295.835 391.622 295.236 391.83C294.638 392.041 294.055 393.099 293.935 394.249C289.875 433.325 269.296 467.54 239.308 489.798C238.373 490.494 237.043 491.801 236.164 492.56Z" fill="#00343D"/>
<path fill-rule="evenodd" clip-rule="evenodd" d="M85.7321 262.786C86.4094 263.041 87.7324 262.82 88.7341 262.231C109.064 250.227 132.755 243.325 158.031 243.325C161.307 243.325 164.551 243.464 167.768 243.7C168.927 243.785 169.223 243.432 168.52 242.799C167.815 242.166 166.382 241.504 165.226 241.441C162.838 241.306 160.447 241.221 158.031 241.221C131.779 241.221 107.221 248.573 86.2645 261.289C85.2722 261.894 85.0549 262.53 85.7321 262.786Z" fill="#00343D"/>
<path fill-rule="evenodd" clip-rule="evenodd" d="M66.2396 481.179C38.6771 456.161 21.3269 420.091 21.3269 380.029C21.3269 339.035 39.4835 302.211 68.1642 277.137C69.0368 276.372 69.6699 275.314 69.6195 274.759C69.5849 274.425 69.566 274.088 69.566 273.742C69.566 273.638 69.5723 273.537 69.5786 273.433C69.588 273.26 68.873 273.72 67.991 274.472C38.1636 299.953 19.2227 337.819 19.2227 380.029C19.2227 420.686 36.8249 457.292 64.7843 482.697C65.6442 483.478 66.6365 483.724 67.0428 483.302C67.4429 482.883 67.0995 481.957 66.2396 481.179Z" fill="#00343D"/>
<path fill-rule="evenodd" clip-rule="evenodd" d="M158.03 506.286C179.702 506.286 200.101 500.771 217.943 491.106C218.963 490.555 219.524 489.689 219.272 489.166C219.014 488.643 218.037 488.662 217.023 489.216C199.458 498.739 179.374 504.182 158.03 504.182C89.5549 504.182 33.8471 448.487 33.8471 380.028C33.8471 342.691 50.4224 309.169 76.5863 286.385C77.462 285.626 77.6636 284.882 77.0557 284.643C76.4446 284.403 75.2633 284.762 74.3939 285.534C48.2647 308.687 31.7461 342.455 31.7461 380.028C31.7461 449.646 88.3988 506.286 158.03 506.286Z" fill="#00343D"/>
<path fill-rule="evenodd" clip-rule="evenodd" d="M236.927 477.152C237.331 477.577 238.345 477.36 239.23 476.613C263.844 455.889 280.429 425.952 283.667 392.168C283.774 391.012 283.677 389.947 283.459 389.806C283.245 389.654 283.135 389.837 283.182 390.234C283.207 390.473 283.229 390.716 283.229 390.962C283.229 392.697 282.801 394.323 282.061 395.765C281.528 396.799 280.797 398.465 280.612 399.611C275.82 429.735 260.162 456.271 237.781 475.085C236.896 475.829 236.524 476.73 236.927 477.152Z" fill="#00343D"/>
<path fill-rule="evenodd" clip-rule="evenodd" d="M95.1664 272.974C113.616 262.097 135.105 255.847 158.031 255.847C220.552 255.847 272.398 302.329 280.919 362.55C281.083 363.7 281.829 365.127 282.503 365.833C283.18 366.545 283.543 366.261 283.407 365.108C276.005 302.48 222.603 253.743 158.031 253.743C135.086 253.743 113.562 259.905 95.0026 270.643C93.9977 271.226 93.2764 272.161 93.3299 272.722C93.3646 273.059 93.3835 273.399 93.3835 273.743C93.3835 273.796 93.3803 273.85 93.374 273.9C93.3677 273.985 94.1678 273.563 95.1664 272.974Z" fill="#00343D"/>
</g>
</svg>
