<svg fill="none" height="1105" viewBox="0 0 883 1105" width="883" xmlns="http://www.w3.org/2000/svg"><g clip-rule="evenodd" fill="#00343d" fill-rule="evenodd" opacity=".3"><path d="m795.521 153.409c.583 1.005 1.301 1.232 1.707.554.41-.677.334-1.992-.249-2.994-27.212-46.596-60.565-90.0114-99.703-129.1812-119.707-119.804-278.901-185.7878-448.245-185.7878-154.2779 0-300.104 54.763-415.356 155.03384-.876.76593-1.339 1.9448-1.131 2.66344.208.72496 1.011.70606 1.887-.05673 111.0499-96.81355 256.0916-155.53855 414.6-155.53855 233.015 0 436.971 126.9185 546.49 315.307z" opacity=".05"/><path d="m806.629 173.374c47.316 88.615 74.185 189.75 74.185 297.056 0 94.223-20.745 183.682-57.849 264.09-.489 1.059-.788 2.411-.731 3.038.038.375.057.754.057 1.135 0 4.189-1.988 7.924-5.085 10.351-.91.719-2.164 2.014-2.683 3.054-10.002 20.028-21.014 39.463-33.009 58.218-.624.977-.759 2.316-.422 3.057.337.747 1.036.596 1.663-.381 65.186-101.267 100.16-219.212 100.16-342.562 0-105.245-25.417-206.569-73.341-296.943-.545-1.03-1.228-1.834-1.528-1.818-.17.006-.353.012-.532.012-.318 0-.63-.016-.942-.044-.52-.041-.491.712.057 1.737z" opacity=".05"/><path d="m-224.942 888.07c-.769-.87-1.827-1.232-2.407-.863-.586.359-.472 1.295.296 2.165 8.899 10.102 18.122 19.981 27.724 29.591 1.288 1.286 2.592 2.541 3.893 3.801.835.81 2.451 1.551 3.559 1.904 3.119.996 5.598 3.376 6.707 6.424.397 1.091 1.2 2.682 2.047 3.477 117.7158 109.871 270.2829 170.151 432.152 170.151 169.347 0 328.539-65.97 448.245-185.757 3.191-3.19 6.335-6.402 9.437-9.648.804-.835.81-1.551.035-1.718-.775-.164-2.025.274-2.832 1.113-115 119.47-276.416 193.9-454.885 193.9-188.5686 0-358.086-83.07-473.971-214.54z"/><path d="m768.571 829.706c-15.189 21.929-31.717 42.871-49.49 62.671-.775.864-1.115 2.141-.882 2.891.233.756.948.699 1.733-.161 18.742-20.765 35.948-42.59 51.616-65.303.658-.955.967-1.705.689-1.671-.17.026-.33.041-.507.041-.337 0-.661-.018-.989-.056-.542-.054-1.509.63-2.17 1.588z"/><path d="m249.029 1045.05c-316.714 0-574.384-257.778-574.384-574.623 0-316.914 257.67-574.746 574.384-574.746 178.031 0 337.384 81.5195 442.798 209.203.737.896 1.6 1.119 2.007.546.406-.571.211-1.709-.529-2.601-11.536-13.9188-23.77-27.3778-36.707-40.323-108.845-108.9329-253.591-168.928-407.569-168.928-154.0228 0-298.7999 59.9951-407.664 168.928-108.864 108.936-168.821 253.805-168.821 407.921 0 154.079 59.957 298.913 168.821 407.824 7.44 7.448 15.066 14.631 22.838 21.61.863.775 2.302 1.863 3.099 2.566.8.709 2.048 2.004 2.923 2.77 104.9741 91.799 238.018 141.953 378.804 141.953 123.319 0 240.694-38.49 338.467-109.768.939-.681 2.268-1.995 3.156-2.742.337-.287.687-.548 1.059-.788.976-.63 2.627-1.526 3.547-2.219 21.48-16.211 41.983-34.013 61.34-53.382 39.11-39.135 71.876-82.932 97.848-130.108.558-1.018.879-2.355.797-2.985-.047-.378-.079-.766-.079-1.157 0-.659.07-1.298.192-1.919.205-1.044.114-1.015-.434.009-97.036 180.193-287.391 302.959-505.893 302.959z" fill-opacity=".1"/><path d="m758.225 736.825c.463-.445.974-.845 1.515-1.192.977-.624 2.309-1.778 2.835-2.815 4.511-8.806 8.82-17.717 12.859-26.738.472-1.059.362-2.216-.196-2.657-.557-.432-1.345.019-1.82 1.078-4.864 10.871-10.061 21.566-15.571 32.065-.538 1.028-.466 1.062.378.259z"/><g fill-opacity=".1"><path d="m803.707 321.545c12.741 47.507 19.577 97.409 19.577 148.884 0 74.037-14.081 144.844-39.678 209.895-.428 1.077-.214 1.947.467 2.023.68.076 1.572-.678 1.987-1.759 25.802-66.084 39.325-137.077 39.325-210.159 0-5.04-.088-10.067-.221-15.088-.025-1.16-.579-2.894-1.011-3.972-.516-1.289-.806-2.695-.806-4.17 0-1.185.186-2.332.526-3.407.356-1.107.775-2.875.718-4.035-2.208-42.422-8.996-83.985-20.097-124.135-.312-1.119-.532-1.724-.513-1.349.012.227.022.454.022.684 0 .87-.095 1.718-.259 2.538-.233 1.137-.343 2.928-.037 4.05z"/><path d="m800.434 306.013c.428.457.825.942 1.184 1.456.665.952.803.908.473-.208-1.966-6.72-4.051-13.402-6.263-20.037-.362-1.107-1.153-1.794-1.773-1.611-.621.18-.832 1.163-.463 2.266 1.628 4.87 3.178 9.778 4.678 14.708.34 1.109 1.37 2.578 2.164 3.426z"/><path d="m774.397 238.47c3.364 7.615 6.568 15.315 9.611 23.097.425 1.081 1.241 1.696 1.867 1.434.621-.258.81-1.292.391-2.373-2.895-7.432-5.944-14.805-9.154-22.111-.463-1.062-1.105-1.901-1.427-1.885-.189.009-.384.016-.576.016-.265 0-.523-.01-.785-.026-.431-.031-.4.788.073 1.848z"/><path d="m764.959 215.512c.482-.574.507-1.832-.012-2.872-8.757-17.516-18.425-34.606-28.984-51.21-.623-.977-1.934-2.276-2.784-3.07-1.437-1.346-2.542-3.023-3.197-4.908-.385-1.097-1.037-2.818-1.686-3.782-6.445-9.605-13.211-19.023-20.26-28.271-.706-.923-1.774-1.374-2.42-1.1-.649.275-.63 1.167.079 2.09 21.94 28.768 41.227 59.661 57.51 92.319.516 1.037 1.272 1.377 1.754.804z"/></g><path d="m709.582 223.645c-.054.514.308 1.756.853 2.78 27.238 51.393 46.145 107.846 54.93 167.554.173 1.147 1.03 2.692 1.736 3.615.079.098.157.199.227.303.674.942.907.892.746-.256-8.599-62.409-28.236-122.161-57.941-176.949-.554-1.018-1.068-1.838-1.14-1.822-.076.012.23.829.447 1.894.129.631.195 1.28.195 1.948 0 .315-.019.627-.053.933z" opacity=".15"/><path d="m-100.144 82.3891c92.56301-83.48367 215.044-134.36 349.175-134.36 84.026 0 163.469 19.99 233.856 55.44672 1.036.52323 2.542.58942 3.414.28053.87-.3089.775-.87941-.261-1.40579-72.545-36.88146-153.263-56.42376-237.009-56.42376-130.943 0-254.533 47.69589-350.958 134.8611-.863.7754-1.118 1.7241-.626 2.1686.494.4412 1.546.208 2.409-.5674z"/><path d="m699 203.661c.371-.716.286-2.046-.312-3.042-21.868-36.365-48.318-70.311-79.075-101.097-13.312-13.3171-27.231-25.8053-41.658-37.4866-.904-.7313-1.922-.8542-2.328-.3278-.41.5264-.054 1.5003.85 2.2316 48.022 38.8228 89.038 85.9768 120.863 139.2488.595.999 1.285 1.185 1.66.473z" opacity=".15"/><path d="m673.098 774.602c-94.821 131.99-249.58 218.112-424.068 218.112-97.077 0-188.0365-26.673-265.9832-73.035-.9986-.59-1.6664-.479-1.5845.274.0504.451.0756.908.0756 1.371 0 .051-.0031.107-.0063.164-.0094.082.797.634 1.7955 1.223 79.6698 47.015 170.7489 72.105 265.7029 72.105 140.005 0 271.615-54.539 370.585-153.568 20.802-20.822 39.633-43.091 56.413-66.567.674-.943.945-1.686.608-1.667-.199.012-.403.015-.605.015-.287 0-.573-.012-.857-.038-.469-.034-1.398.666-2.076 1.611z"/><path d="m769.189 513.442c-.092 1.157.305 2.156.878 2.282.58.126 1.122-.658 1.213-1.815 1.178-14.392 1.802-28.885 1.802-43.479 0-21.342-1.266-42.482-3.758-63.345-.139-1.154-.34-1.141-.69-.035-.072.227-.154.454-.239.674-.426 1.082-.86 2.796-.734 3.95 2.17 19.29 3.32 38.889 3.32 58.756 0 14.484-.627 28.822-1.792 43.012z" opacity=".15"/><path d="m766.254 540.733c-10.515 77.829-38.235 150.258-79.175 213.349-.634.974-.8 2.323-.476 3.063.324.747 1.017.596 1.651-.375 42.518-65.028 69.854-138.52 80.164-216.053.151-1.15 0-2.052-.343-2.036-.205.012-.416.016-.621.016-.157 0-.312-.004-.466-.01-.255-.016-.58.898-.734 2.046z" opacity=".15"/><path d="m556.887 47.3372c.422-.5295.05-1.4751-.888-2.1559-16.903-12.277-34.455-23.4698-52.558-33.5561-1.014-.5642-1.547-.3247-1.333.5736.224.8952 1.103 2.1024 2.114 2.6698 17.391 9.7995 34.165 20.5635 50.255 32.2259.939.6808 1.991.7691 2.41.2427z"/><path d="m498.84 66.3137c-.344-.4444-.658-.914-.936-1.4026-.57-1.0118-1.663-2.405-2.655-3.007-35.97-21.7992-74.561-38.6434-114.931-50.1513-1.115-.3184-1.701-.0158-1.408.7186.296.7344 1.339 1.6201 2.451 1.9448 41.687 12.1383 81.011 29.8809 117.129 52.3199.986.6146 1.065.4949.35-.4224z"/><path d="m-95.091 798.71c-.6552.265-.5701 1.068.2331 1.907 2.2554 2.351 4.5392 4.677 6.845 6.985 17.262 17.273 35.6328 33.029 54.9265 47.251.9293.694 2.6303 1.412 3.695 1.866 1.3797.599 2.5987 1.491 3.5815 2.6.7686.867 1.994 2.242 2.9484 2.903 21.30979 14.865 43.6937 27.883 66.9533 38.978 1.0489.498 2.0947.394 2.4003-.205s-.2489-1.459-1.2978-1.957c-51.72616-24.721-98.3178-58.52-137.6739-99.354-.8064-.839-1.9562-1.236-2.6114-.974z"/><path d="m43.1107 42.7196c62.3193-30.1645 132.1743-47.10648 205.9183-47.10648 13.174 0 26.208.57366 39.114 1.63588 1.153.09456 2.933-.26161 4.048-.58627.97-.28368 1.99-.44128 3.058-.44128 1.865 0 3.604.46335 5.147 1.2608 1.03.53269 2.706 1.23243 3.859 1.36797 18.68 2.17487 37.028 5.44348 54.983 9.73334 1.134.27108 2.473.02207 3.078-.47279.605-.49487.239-1.04331-.885-1.31438-36.373-8.76254-74.035-13.28565-112.402-13.28565-73.225 0-143.907 16.43449-207.8871 47.49736-1.0458.5075-1.4049 1.2513-.8599 1.7241.5418.476 1.7829.4917 2.8287-.0126z"/><path d="m19.5195 53.5642c-.0913-.7124-.9198-.8479-1.9341-.2806-38.2567 21.3138-73.7887 48.0614-105.6006 79.8904-88.2978 88.357-137.6428 205.314-139.4818 330.026-.016 1.16.441 1.976 1.02 1.872.583-.107 1.075-1.09 1.09-2.25 2.76-174.718 100.284-326.805 243.3032-406.9537 1.0143-.5674 1.6947-1.5918 1.6033-2.3041z" opacity=".2"/><path d="m488.227 881.668c.12.709.932.82 1.934.23 23.946-14.102 46.777-30.36 68.213-48.714.879-.756 1.115-1.645.564-2.042s-1.676-.148-2.558.602c-20.752 17.701-43.041 33.638-66.638 47.595-.999.589-1.635 1.623-1.515 2.329z"/><path d="m469.924 890.432c-18.922 10.001-38.588 18.763-58.905 26.174-1.09.394-1.73 1.185-1.497 1.796.233.609 1.248.81 2.338.413 20.616-7.476 40.679-16.393 60.073-26.688 1.024-.545 1.349-1.298.794-1.765-.557-.469-1.776-.473-2.803.07z"/><path d="m70.8776 911.658c-.2489.605.378 1.434 1.4553 1.863 45.8231 18.272 94.5531 29.336 144.7961 32.639 1.159.079 2.095-.344 2.155-.927.056-.58-.788-1.103-1.944-1.182-50.602-3.357-99.055-14.676-144.1188-32.724-1.0805-.432-2.0979-.277-2.3436.331z"/><path d="m245.046 945.093c-1.163-.022-2.067.249-2.048.612.013.22.019.435.019.655 0 .133-.003.271-.009.404-.013.224.913.413 2.072.432 1.317.025 2.631.044 3.951.044 47.568 0 94.068-6.941 138.357-20.315 1.112-.331 1.805-1.081 1.629-1.693-.18-.605-1.163-.835-2.278-.498-43.596 13.258-89.835 20.403-137.708 20.403-1.333 0-2.659-.022-3.985-.044z"/><path d="m505.499 71.1477c91.35 58.9833 161.246 148.4933 195.206 253.9973.356 1.106 1.228 2.067 1.947 2.225.712.154.992-.555.645-1.661-22.761-71.869-62.527-137.711-117.302-192.533-23.118-23.136-48.208-43.5702-74.863-61.2088-.974-.6398-2.029-1.1284-2.366-1.1095-.198.0095-.403.0158-.608.0158-.828 0-1.638-.0883-2.419-.2522-1.137-.2364-1.219-.1008-.24.5264z" opacity=".2"/><path d="m724.424 466.029c.586-.12 1.049-1.122 1.033-2.285-.305-22.408-2.142-44.56-5.468-66.347-.173-1.15-.828-2.099-1.449-2.184-.617-.088-.967.719-.781 1.866 3.405 21.916 5.308 44.32 5.601 67.109.015 1.16.485 1.964 1.064 1.841z" opacity=".2"/><path d="m723.972 492.08c-.582-.148-1.083.63-1.134 1.79-6.082 124.466-60.272 236.491-144.339 317.79-.835.807-1.181 1.873-.822 2.437.353.561 1.269.397 2.107-.41 2.083-2.008 4.155-4.031 6.209-6.083 34.606-34.628 63.202-73.668 85.327-115.826.539-1.031 1.175-2.79 1.663-3.843.142-.318.303-.624.482-.923.583-1.003 1.648-2.55 2.168-3.587 29.153-58.344 46.027-122.423 49.3-189.019.054-1.16-.381-2.178-.961-2.326z" opacity=".2"/><path d="m708.36 351.558c1.705 6.585 3.276 13.223 4.7 19.918.243 1.134.857 1.765 1.411 1.465.558-.299.845-1.418.602-2.553-1.468-6.912-3.087-13.777-4.854-20.601-.293-1.122-.901-1.589-1.414-1.103-.514.488-.734 1.752-.445 2.874z" opacity=".2"/><path d="m594.912 210.874c.964.19 1.143-.264.444-1.191-12.131-16.078-25.446-31.425-39.93-45.918-48.717-48.758-107.008-84.4453-170.626-105.3682-1.102-.3593-1.575-.0567-1.178.7439.403.8006 1.519 1.7903 2.618 2.1591 82.467 27.7754 153.855 79.8622 205.632 147.7212.706.924 2.076 1.667 3.04 1.853z" opacity=".25"/><path d="m-106.047 717.091c-.428.548-.283 1.724.388 2.672 14.269 20.23 30.3624 39.388 48.2197 57.256 34.0484 34.064 72.7808 61.732 114.7293 82.46 1.0395.517 2.0318.416 2.2869-.193.2552-.605-.3213-1.478-1.3639-1.995-65.07904-32.257-120.897-80.473-162.335-139.504-.668-.952-1.5-1.248-1.925-.696z"/><path d="m116.801 881.123c-11.741-3.788-23.2601-8.062-34.5371-12.809-1.071-.454-2.1199-.331-2.4097.255-.2867.577.2866 1.384 1.3576 1.831 11.1101 4.669 22.4152 8.858 33.8942 12.574 1.105.356 2.325.179 2.797-.331.469-.511.003-1.163-1.102-1.52z"/><path d="m270.492 902.399c.151.58 1.165 1.015 2.325.952 7.172-.394 14.304-.971 21.401-1.705 1.156-.12 2.872-.76 3.95-1.204 1.285-.527 2.699-.823 4.18-.823.63 0 1.244.063 1.839.176 1.005.183 2.722.36 3.872.202 7.692-1.037 15.34-2.272 22.929-3.716 1.14-.221 1.82-.845 1.581-1.422-.243-.57-1.311-.876-2.451-.658-18.878 3.615-38.184 6.004-57.84 7.054-1.156.06-1.937.558-1.786 1.144z"/><path d="m671.726 555.705c-6.917 34.382-17.917 67.304-32.495 98.216-.501 1.05-.381 2.011.252 2.219.627.208 1.525-.413 2.016-1.466 14.792-31.501 25.701-64.742 32.502-99.124.223-1.137-.013-1.97-.545-1.916-.315.032-.633.047-.958.047-.06 0-.123-.009-.183-.015-.1-.013-.362.904-.589 2.039z" opacity=".25"/><path d="m603.121 220.497c.013.078.019.157.019.239 0 .523-.047 1.034-.138 1.532-.145.838.167 2.263.825 3.218 48.138 69.634 76.388 154.044 76.388 244.941 0 21.283-1.56 42.209-4.546 62.672-.167 1.15.17 2.222.74 2.474.561.255 1.128-.41 1.298-1.564 3.046-20.872 4.609-42.104 4.609-63.582 0-90.181-27.317-176.149-78.01-248.449-.668-.952-1.203-1.614-1.185-1.481z" opacity=".25"/><path d="m506.878 817.302c-1.399 2.443-3.784 4.249-6.622 4.86-1.134.24-2.85.769-3.802 1.438-40.836 28.727-86.864 50.551-136.369 63.764-1.119.297-1.953.993-1.9 1.561.032.337.05.677.05 1.024 0 .038 0 .072-.006.107-.003.057.907-.129 2.026-.429 73.174-19.302 140.253-57.659 195.17-112.608 29.381-29.398 53.998-62.292 73.512-97.724.564-1.018.542-2.096 0-2.468-.539-.378-1.389.101-1.953 1.116-29.298 53.221-69.511 99.619-117.577 136.169-.923.703-1.95 2.181-2.529 3.19z"/><path d="m-34.1904 145.264c45.5112-39.74 99.4015-70.0844 158.6404-88.0035 1.112-.3373 1.827-1.078 1.647-1.6832-.179-.602-1.175-.8384-2.286-.5043-1.122.3373-2.237.6808-3.355 1.0244-1.106.3467-14.692 4.8352-15.785 5.2197-52.2143 18.395-100.64555 46.8449-142.906 84.3759-.8694.769-.9072 1.16-.0598 1.005.504-.094 1.0237-.145 1.5561-.145.1669 0 .3276.019.4882.038.2646.032 1.1844-.561 2.0601-1.327z" opacity=".25"/><path d="m136.797 888.169c.107.675 1.034 1.472 2.155 1.769 7.428 1.938 14.912 3.697 22.456 5.241 1.137.234 2.684.24 3.472.12.463-.072.938-.11 1.427-.11 1.707 0 3.316.394 4.756 1.081 1.046.498 2.731 1.239 3.875 1.434 21.864 3.745 44.163 5.819 66.742 6.191 1.162.019 2.161-.451 2.283-1.031.126-.58-.667-1.05-1.83-1.069-35.736-.557-70.427-5.49-103.572-14.287-1.121-.297-1.874-.01-1.764.661z"/><path d="m363.475 54.3213c1.115.312 2.593.1292 3.365-.2995.775-.4286.545-.9424-.571-1.2544-14.871-4.1544-30-7.5081-45.341-10.0581-1.14-.1891-2.917.0852-4.038.3846-.898.2427-1.84.3782-2.819.3782-2.136 0-4.12-.6083-5.812-1.6485-.992-.6051-2.614-1.3805-3.771-1.5255-18.251-2.323-36.76-3.5271-55.458-3.5271-32.319 0-64.09 3.5302-94.891 10.3732-1.131.2522-1.884.9298-1.733 1.5224.152.5957 1.144.8731 2.278.621 30.375-6.8115 61.948-10.4111 94.346-10.4111 39.608 0 77.984 5.3868 114.445 15.4448z"/><path d="m-48.0135 729.224c17.4447 20.012 36.8802 38.247 57.98204 54.404.92296.703 2.56096 1.604 3.55006 2.212.5922.363 1.1529.782 1.6695 1.239.8694.776 2.2018 2.087 3.1405 2.768 64.8995 47.04 144.6104 74.822 230.6994 74.822 13.148 0 26.145-.653 38.963-1.923 1.159-.11 2.217-.722 2.441-1.333.217-.612-.479-.987-1.638-.87-13.079 1.327-26.34 2.023-39.766 2.023-108.057 0-206.0317-43.986-277.0107-114.981-.819-.82-2.1388-1.945-2.8224-2.642-.6835-.693-1.7703-2.036-2.5735-2.877-18.6039-19.347-35.2454-40.595-49.5999-63.425-.6174-.983-1.3955-1.377-1.8018-.93-.4064.448-.2741 1.573.3433 2.557 9.0594 14.354 19.0166 28.097 29.7959 41.127.7371.895 2.142 2.127 2.9641 2.947.4536.454.8694.946 1.238 1.469.6709.945 1.6632 2.537 2.4255 3.413z"/><path d="m459.237 138.326c.091-.627-.564-1.629-1.55-2.244-9.201-5.774-18.654-11.186-28.341-16.198-1.033-.536-2.283-.876-2.8-.826-.309.035-.62.054-.939.054-3.071 0-5.799-1.422-7.594-3.631-.731-.902-1.997-2.159-3.049-2.651-42.018-19.6086-88.034-32.0085-136.468-35.6144-1.153-.0851-2.23.3341-2.463.9015-.233.5673.46 1.0653 1.619 1.1504 65.671 4.7658 126.91 25.7895 179.695 59.0745.983.621 1.795.612 1.89-.016z" opacity=".3"/><path d="m82.5348 115.388c50.5602-23.8385 106.9962-37.1841 166.4932-37.1841 1.638 0 3.276.0221 4.908.0505 1.159.022 1.899-.4192 1.713-1.0024-.182-.5862-1.216-1.0905-2.378-1.1095-1.411-.022-2.822-.0409-4.243-.0409-58.587 0-115.217 12.7025-166.7515 36.7934-1.0521.491-1.7766 1.45-1.7041 2.14.0724.693.9103.848 1.9624.353z" opacity=".3"/><path d="m607.939 310.456c.46-.404.485-1.538.009-2.594-28.728-63.28-73.675-117.686-129.509-157.846-.941-.677-2.129-.911-2.683-.586-.552.325-.259 1.078.686 1.753 56.064 40.118 101.156 94.641 129.853 158.122.472 1.059 1.184 1.554 1.644 1.151z" opacity=".3"/><path d="m454.755 804.041c-42.818 26.54-91.092 45.064-142.727 53.452-1.146.183-1.723.719-1.351 1.248.375.526 1.556.838 2.702.649 52.602-8.68 101.727-27.819 145.156-55.213.982-.618 1.436-1.065 1.017-1.018-.249.028-.504.041-.762.041-.381 0-.759-.022-1.128-.07-.624-.078-1.921.3-2.907.911z"/><path d="m505.739 766.461c-11.264 9.793-23.08 18.962-35.415 27.438-.958.658-1.871 2.017-2.253 2.969-.378.955-.056 1.128.904.482 13.366-9.034 26.152-18.871 38.282-29.427.879-.76 1.21-1.677.791-2.08-.419-.407-1.436-.142-2.309.618z"/><path d="m614.621 329.136c12.87 33.259 21.322 68.7 24.661 105.591.104 1.16.488 1.91.888 1.718.397-.192.816-.636.951-1.015.136-.381.186-1.62.079-2.773-3.458-36.201-11.803-70.993-24.4-103.692-.419-1.084-1.19-1.866-1.723-1.809-.324.032-.652.048-.979.048-.044 0-.082-.004-.12-.01-.069-.009.224.861.643 1.942z" opacity=".3"/><path d="m598.59 647.55c-18.748 36.9-43.155 70.459-72.084 99.508-.816.826-1.141 1.813-.756 2.247.384.439 1.329.158 2.148-.665 28.41-28.512 52.504-61.331 71.184-97.399.532-1.028.718-2.613.573-3.571-.082-.568-.129-1.148-.129-1.744 0-.041.003-.085.003-.129.006-.069-.413.716-.939 1.753z"/><path d="m-21.1705 186.557c20.537951-19.58 43.1896-36.954 67.5738-51.746.9922-.605 1.7923-1.185 1.7765-1.305-.0126-.073-.0189-.142-.0189-.215 0-.431.0347-.851.0914-1.264.0977-.696-.5576-.765-1.5561-.17-24.8252 14.906-48.1446 32.677-69.5583 53.121-.841.8-1.1025 1.774-.6363 2.209.4662.438 1.4868.171 2.3279-.63z" opacity=".3"/><path d="m604.715 634.945c-.488 1.053-.249 1.352.637.826.891-.53 2.075-1.68 2.557-2.739 22.535-49.606 35.11-104.659 35.11-162.602 0-3.997-.079-7.971-.201-11.937-.038-1.163-.564-2.193-1.156-2.376-.586-.18-1.008.558-.971 1.718.139 4.182.23 8.374.23 12.595 0 58.722-12.99 114.452-36.206 164.515z" opacity=".3"/><path d="m66.8097 777.8c-.4788.394-.0914 1.151.9072 1.74 46.7271 27.533 100.1981 44.762 157.2951 48.56 1.156.079 2.334-.35 2.697-.914.355-.561-.24-1.031-1.399-1.107-56.917-3.596-110.241-20.632-156.8449-47.954-1.0048-.589-2.1735-.712-2.6554-.325z"/><path d="m588.894 577.058c-.346 1.112-.611 2.953-.816 4.097-.195 1.116-.551 2.163-1.033 3.133-.52 1.037-1.411 2.676-1.795 3.77-10.273 29.311-24.271 56.872-41.423 82.135-.655.961-.967 1.708-.696 1.673.157-.018.321-.037.488-.037.262 0 .52.022.772.05.425.047 1.298-.671 1.947-1.636 38.474-57.133 60.965-125.89 60.965-199.814 0-26.395-2.883-52.131-8.319-76.915-.252-1.135-.848-1.727-1.364-1.384-.523.344-.769 1.498-.52 2.635 5.292 24.391 8.098 49.704 8.098 75.664 0 37.13-5.726 72.947-16.304 106.629z" opacity=".35"/><path d="m279.85 114.595c.617-.122 1.257-.189 1.912-.189 1.263 0 2.469.237 3.581.662 1.087.413 2.81 1.04 3.963 1.17 53.097 6.011 102.69 23.756 146.132 50.57.986.609 1.694.665 1.635.111-.035-.335-.054-.672-.054-1.015 0-.092.01-.186.025-.281.022-.151-.768-.775-1.757-1.38-52.52-32.119-113.895-51.085-179.532-52.298-1.165-.022-1.738.4-1.367.983.382.586 1.556 1.116 2.716 1.144 6.309.139 12.581.438 18.802.908 1.159.082 2.901-.18 3.944-.385z" opacity=".35"/><path d="m592.463 371.869c.623.06.86-.741.535-1.856-23.143-79.286-72.985-147.274-139.069-193.555-.951-.665-2.243-.933-2.911-.684-.671.246-.466.892.492 1.551 66.077 45.871 115.973 113.513 139.23 192.476.33 1.116 1.096 2.011 1.723 2.068z" opacity=".35"/><path d="m248.102 826.813c-.51-.009-.605.432-.277 1.015.327.587.683 1.088.866 1.091.117.003.227.006.337.006 115.58 0 218.535-55.062 284.089-140.33.709-.92 1.011-2.152.766-2.789-.246-.64-.939-.432-1.638.492-65.136 85.352-167.854 140.522-283.217 140.522-.309 0-.617-.003-.926-.007z"/><path d="m236.379 113.107c.372-.592-.211-1.005-1.373-.961-76.224 2.95-146.409 29.833-203.2571 73.344-.9198.702-1.3261 1.613-.9607 2.064s1.3639.274 2.2837-.432c56.1551-42.961 125.3981-69.605 200.6081-72.811 1.159-.047 2.328-.608 2.699-1.204z" opacity=".35"/><path d="m46.9808 765.085c.167-.59-.4252-1.592-1.3765-2.257-70.9065-49.518-123.0516-124.148-143.4132-210.903-.2678-1.129-.7875-1.516-1.2443-.921-.4567.599-.6835 1.936-.4126 3.064 20.8152 86.803 73.2879 161.414 144.4653 210.909.9544.662 1.8112.697 1.9813.108z" opacity=".35"/><path d="m-54.8405 284.546c18.6826-30.47 41.8162-57.927 68.4904-81.47.8694-.769 1.2348-1.708.8568-2.149s-1.3545-.215-2.2239.551c-7.64187 6.749-14.99397 13.812-22.03737 21.175-.80323.836-1.57503 2.465-1.96873 3.556-.9986 2.771-3.0744 5.021-5.733 6.269-1.049.498-2.5988 1.419-3.3611 2.292-13.5922 15.564-25.8646 32.301-36.6408 50.053-.6016.993-.5575 1.668.1008 1.58.3938-.051.7938-.082 1.2033-.082.0378 0 .0725.003.1103.012.0598.006.5953-.797 1.2033-1.787z" opacity=".35"/><path d="m563.898 390.804c.563-.145.803-1.138.507-2.26-.013-.041-.022-.082-.035-.123-.29-1.125-.907-1.686-1.411-1.324-.504.363-.744 1.368-.501 2.308.243.939.879 1.547 1.44 1.399z" opacity=".4"/><path d="m568.026 531.219c.63-.199 1.332-1.242 1.537-2.386 1.556-8.564 2.775-17.242 3.645-26.026.113-1.157-.268-1.898-.867-1.734-.598.158-1.184 1.176-1.304 2.332-.894 8.832-2.151 17.56-3.748 26.168-.208 1.141.104 1.85.737 1.646z" opacity=".4"/><path d="m60.5308 733.626c-40.3484-29.001-73.7699-67.052-97.3035-111.158-.5481-1.024-1.4553-1.708-2.0538-1.592-.5985.111-.6584.977-.1134 2.002 24.0534 45.288 58.4671 84.265 100.066 113.733.9482.671 1.4805.567 1.3136-.258-.1669-.823-.9671-2.049-1.9089-2.727z"/><path d="m561.716 554.276c-37.015 138.086-163.17 240.05-312.687 240.05-25.635 0-50.58-3.017-74.514-8.681-1.127-.268-2.523-.069-3.169.369-.645.444-.296.961.832 1.236 24.655 5.988 50.387 9.178 76.851 9.178 150.1 0 276.796-102.096 314.42-240.528.302-1.126.12-2.358-.362-2.806-.482-.45-1.068.06-1.371 1.182z" opacity=".4"/><path d="m75.6443 745.188c-.8536.151-.7654.678.2174 1.295 23.0643 14.531 48.0623 26.253 74.5193 34.679 1.106.349 1.673.085 1.348-.628-.324-.718-1.404-1.61-2.51-1.97-24.873-8.081-48.431-19.101-70.2703-32.651-.986-.609-2.4507-.88-3.3044-.725z"/><path d="m158.418 159.394c17.668-5.166 35.954-8.87 54.721-10.95 1.153-.129 1.16-.403.073-.813-.098-.038-.195-.076-.293-.117-1.074-.435-2.813-.822-3.966-.681-17.923 2.207-35.403 5.879-52.312 10.887-1.115.331-1.572.93-1.08 1.39.491.461 1.745.609 2.857.284z" opacity=".4"/><path d="m135.838 165.744c.1-.662-.637-.857-1.72-.447-5.053 1.913-10.039 3.952-14.969 6.102-1.065.467-2.675 1.428-3.701 1.964-.407.208-.826.4-1.254.57-1.081.423-2.86 1.006-3.909 1.501-79.7331 37.697-141.8196 106.821-170.2137 191.307-.3685 1.1-.1386 1.806.5261 1.648.6615-.161 1.5088-1.128 1.8805-2.232 31.059-91.174 101.6694-164.18 191.2711-198.458 1.084-.416 1.985-1.293 2.089-1.955z" opacity=".4"/><path d="m424.522 198.337c.98.634 1.922.703 2.171.174.255-.533-.284-1.46-1.26-2.09-50.873-32.923-111.444-52.068-176.404-52.068-6.662 0-13.274.221-19.841.624-1.156.069-2.798.769-3.774 1.4-.082.05-.167.104-.252.154-.989.605-.933.876.224.791 7.808-.567 15.693-.863 23.643-.863 64.642 0 124.898 19.079 175.493 51.878z" opacity=".4"/><path d="m447.123 214.397c17.552 13.639 33.674 29.04 48.097 45.944.753.879 1.443 1.588 1.538 1.557.1-.025.356-.423.614-.877.255-.457-.11-1.528-.866-2.408-14.361-16.787-30.395-32.093-47.836-45.672-.917-.715-1.975-.927-2.404-.523-.431.403-.066 1.267.857 1.979z" opacity=".4"/><path d="m512.482 282.428c18.311 25.629 32.984 54.025 43.259 84.439.378 1.1.791 1.979.945 1.957.092-.009.183-.022.274-.022.29 0 .574.019.854.047.469.054.551-.769.183-1.869-10.417-31.091-25.392-60.099-44.138-86.238-.677-.94-1.399-1.642-1.61-1.564-.211.076-.494.451-.667.845-.174.391.223 1.459.9 2.405z" opacity=".4"/><path d="m571.785 438.118c.491 1.377.759 2.859.759 4.397 0 .728-.06 1.443-.177 2.137-.198 1.147-.447 2.972-.368 4.132.476 7.155.724 14.37.724 21.645 0 2.808-.047 5.604-.122 8.394-.035 1.16.422 2.241.992 2.483.576.243 1.046-.444 1.08-1.61.092-3.08.155-6.166.155-9.267 0-17.695-1.44-35.063-4.165-52.005-.189-1.144-.803-1.967-1.376-1.885-.583.079-.895 1.034-.709 2.181.825 5.094 1.534 10.226 2.111 15.395.132 1.153.702 2.909 1.096 4.003z" opacity=".4"/><path d="m484.747 646.322c-.693.933-.897 1.626-.45 1.588.271-.022.545-.034.819-.034.183 0 .356.006.532.015.3.016 1.103-.715 1.793-1.648 36.347-49.222 57.862-110.052 57.862-175.815 0-96.227-46.04-181.898-117.23-236.106-.92-.703-2.19-1.018-2.857-.782-.671.23-.479.905.447 1.601 71.328 53.776 117.542 139.227 117.542 235.287 0 65.896-21.766 126.786-58.458 175.894z" opacity=".5"/><path d="m-42.9994 434.453c12.5307-102.439 77.8334-188.785 167.8064-230.886 1.049-.495 2.672-1.444 3.717-1.948.227-.111.463-.215.7-.312 1.074-.442 2.86-1.022 3.925-1.482 35.582-15.315 74.755-23.819 115.882-23.819 34.464 0 67.555 5.966 98.308 16.92 1.096.387 2.183.271 2.479-.243.293-.511-.312-1.226-1.405-1.614-31.078-11.111-64.537-17.166-99.382-17.166-151.2097 0-276.3087 113.916-294.1377 260.481-.1418 1.15-.1071 2.08.0724 2.071.1071-.007.2142-.013.3245-.013.2457 0 .4882.01.7308.029.4032.028.8379-.864.9796-2.018z" opacity=".5"/><path d="m429.094 703.836c.015.243.028.492.028.741 0 .189-.006.375-.019.561-.013.315.706-.003 1.622-.716 15.196-11.845 29.216-25.127 41.845-39.655.762-.873 1.175-2.156 1.024-2.878-.155-.715-.807-.595-1.566.284-12.471 14.499-26.325 27.782-41.356 39.627-.908.715-1.613 1.623-1.578 2.036z"/><path d="m407.059 718.593c-28.439 18.196-60.197 31.627-94.144 39.185-1.134.249-2.479 1.164-3.172 1.907-.687.744-.438 1.037.693.798 36.168-7.66 69.914-21.951 99.921-41.528.97-.63 1.616-1.138 1.439-1.119-.104.01-.211.016-.318.016-.457 0-.904-.041-1.339-.11-.734-.114-2.101.227-3.08.851z"/><path d="m410.258 223.616c-.019-.243-.028-.482-.028-.728 0-.183.003-.366.012-.545.016-.303-.74-1.066-1.719-1.693-10.348-6.641-21.137-12.652-32.31-17.985-1.043-.504-1.985-.432-2.161.129-.17.561.504 1.403 1.55 1.904 11.415 5.469 22.425 11.653 32.974 18.493.97.633 1.714.829 1.682.425z" opacity=".5"/><path d="m165.77 753.034c.01-.148-.885-.53-1.997-.864-98.4217-29.868-175.1777-110.039-200.2391-210.468-.2835-1.125-1.0112-2.077-1.6349-2.181-.6237-.101-.904.687-.6237 1.813 25.0677 101.799 102.8412 183.067 202.5957 213.065 1.112.334 1.962.22 1.924-.249-.022-.281-.034-.565-.034-.854 0-.089.006-.177.009-.262z" opacity=".5"/><path d="m192.353 759.301c-1.141-.221-2.284.044-2.609.57-.324.527.293 1.116 1.43 1.34 18.718 3.725 38.062 5.677 57.856 5.677 16.683 0 33.041-1.397 48.977-4.063 1.146-.189 1.269-.552.356-.987-.914-.444-2.492-.801-3.639-.624-14.896 2.342-30.155 3.571-45.694 3.571-19.385 0-38.332-1.888-56.677-5.484z"/><path d="m508.812 533.613c-.274 1.129-.438 2.418-.381 2.888.032.277.054.557.054.847 0 1.848-.479 3.569-1.301 5.091-.548 1.021-1.418 2.651-1.749 3.763-32.731 110.714-135.289 191.727-256.406 191.727-1.106 0-2.212-.013-3.314-.026-1.159-.019-1.912.416-1.736 1 .177.58 1.213 1.09 2.375 1.103.889.016 1.783.025 2.675.025 148.566 0 269.435-120.942 269.435-269.602 0-6.686-.255-13.315-.737-19.877-.085-1.16-.567-1.708-1.115-1.283-.548.423-.948 1.658-.873 2.818.413 6.061.624 12.179.624 18.342 0 21.758-2.624 42.917-7.551 63.184z" opacity=".6"/><path d="m29.6431 625.074c-.6457.091-.6331.863.041 1.809 20.5096 28.696 46.4971 53.212 76.4219 72.017.983.614 1.922.652 2.152.11s-.344-1.459-1.326-2.074c-29.2608-18.442-54.7191-42.379-74.9043-70.375-.6804-.945-1.7388-1.576-2.3846-1.487z"/><path d="m58.5592 282.817c.8159-.828 1.1435-1.825.7718-2.272-.378-.448-1.3136-.167-2.1294.662-48.0029 48.714-77.6664 115.568-77.6664 189.22 0 50.36 13.86941 97.535 37.9921 137.906.5922.996 1.3041 1.308 1.6569.757.3465-.552.1953-1.775-.3969-2.774-23.59034-39.848-37.1511-86.311-37.1511-135.889 0-73.013 29.3769-139.283 76.923-187.61z" opacity=".6"/><path d="m129.582 710.895c-.359.469.157 1.245 1.2 1.755 26.945 13.217 56.395 22.074 87.438 25.623 1.153.132 2.243-.243 2.485-.798.246-.558-.447-1.087-1.603-1.216-30.892-3.455-60.206-12.211-87.025-25.317-1.043-.508-2.136-.52-2.495-.047z"/><path d="m78.982 262.733c.4221.403 1.4648.161 2.3688-.568 45.8952-37.073 104.2402-59.301 167.6772-59.301 8.701 0 17.31.425 25.799 1.245 1.153.113 1.997-.262 1.934-.857-.06-.59-.998-1.173-2.155-1.28-8.416-.798-16.953-1.211-25.578-1.211-36.82 0-71.933 7.439-103.934 20.873-1.071.451-2.621 1.478-3.591 2.118-1.159.763-2.454 1.352-3.833 1.724-1.122.297-2.92.769-3.969 1.27-19.335 9.195-37.4097 20.621-53.8874 33.954-.9009.731-1.2537 1.626-.8316 2.033z" opacity=".6"/><path d="m491.626 355.615c.529-.239.576-1.242.069-2.288-36.01-74.453-105.238-129.925-188.294-147.028-1.134-.233-2.208.044-2.444.59-.24.548.45 1.15 1.59 1.383 82.581 16.863 151.433 71.948 187.233 145.925.507 1.043 1.317 1.658 1.846 1.418z" opacity=".6"/><path d="m508.514 401.704c.617.059.876-.754.57-1.876-1.925-7.092-4.127-14.064-6.599-20.91-.397-1.094-1.15-1.772-1.695-1.573-.545.202-.674 1.204-.28 2.298 2.365 6.543 4.476 13.2 6.328 19.968.309 1.119 1.058 2.033 1.676 2.093z" opacity=".6"/><path d="m34.5499 356.263c.5008-.942 1.008-1.879 1.5246-2.812.5607-1.018.4284-1.591-.3371-1.424-.7654.17-1.8553 1.043-2.4129 2.061-.4221.782-.8442 1.567-1.26 2.355-.5418 1.024-.4945 1.762.104 1.702.3591-.038.7245-.057 1.093-.057.0504 0 .104.009.1512.013.0851.015.5891-.814 1.1372-1.838z" opacity=".7"/><path d="m300.386 708.038c-16.559 3.584-33.739 5.481-51.357 5.481-45.423 0-87.97-12.539-124.381-34.328-.992-.596-2.123-.722-2.574-.315-.45.4-.053 1.178.939 1.777 36.849 22.193 79.969 34.968 126.016 34.968 17.624 0 34.817-1.888 51.395-5.437 1.134-.246 2.016-.753 1.994-1.128-.009-.221-.019-.445-.019-.675 0-.132.01-.268.016-.403.009-.218-.895-.186-2.029.06z"/><path d="m76.7086 643.151c-.4882.338-.252 1.23.5765 2.04 7.9474 7.82 16.4304 15.088 25.3799 21.777.932.69 1.808.772 2.019.202.208-.565-.328-1.561-1.254-2.257-8.5837-6.446-16.7296-13.437-24.3778-20.936-.8316-.816-1.8585-1.163-2.3436-.826z"/><path d="m226.538 227.898c-.514-.114-1.014-.259-1.496-.441-1.09-.404-2.829-.81-3.982-.678-26.649 3.042-52.013 10.379-75.386 21.301-1.049.492-2.161 1.677-2.643 2.559-.482.883-.151 1.11.895.606 25.408-12.249 53.257-20.201 82.602-22.909 1.157-.107 1.144-.189.01-.438z" opacity=".7"/><path d="m325.879 702.141c.299.51 1.395.652 2.498.277 2.844-.977 5.673-1.995 8.467-3.076 1.083-.416 1.449-1.025.872-1.422-.579-.403-1.868-.454-2.958-.044-2.472.936-4.964 1.834-7.478 2.692-1.093.375-1.707 1.062-1.401 1.573z"/><path d="m80.7878 293.602c.063-.18.1292-.36.1985-.536.4284-1.081.2614-1.232-.5828-.432-13.8694 13.179-26.2111 27.946-36.7101 44.027-.6363.971-.8757 2.364-.6835 3.149.1921.782.756.643 1.3828-.337 9.869-15.388 21.4232-29.594 34.398-42.36.8253-.813 1.6254-2.411 1.9971-3.511z" opacity=".7"/><path d="m132.806 256.825c-.085.006-.17.009-.258.009-.53 0-1.049-.035-1.56-.107-.86-.117-2.356.154-3.364.731-14.065 8.06-27.257 17.472-39.4 28.059-.8757.763-.7403.946.3717.618.1953-.06.3906-.11.589-.158 1.1309-.274 2.7909-.926 3.6792-1.673 11.8751-9.995 24.7121-18.878 38.3571-26.48 1.012-.565 1.724-1.009 1.585-.999z" opacity=".7"/><path d="m491.18 489.895c-6.971 87.612-60.556 162.274-135.872 199.095-1.043.508-1.884 1.482-1.994 2.172-.104.687.595.832 1.638.328 42.304-20.378 77.903-52.547 102.498-92.237.608-.987 1.172-2.742 1.499-3.855.51-1.743 1.43-3.306 2.652-4.583.81-.838 2.054-2.191 2.606-3.212 16.08-29.446 26.299-62.523 29.077-97.671.092-1.16-.031-2.077-.271-2.048-.138.019-.283.037-.431.037-.211 0-.419-.022-.624-.044-.34-.041-.687.861-.778 2.018z" opacity=".7"/><path d="m21.3606 555.366c-9.8973-26.454-15.32156-55.071-15.32156-84.936 0-32.668 6.47326-63.847 18.20386-92.332.441-1.075.4347-2.351.0441-2.912-.3938-.561-1.0238-.186-1.4742.886-12.1496 29.058-18.87481 60.934-18.87481 94.358 0 30.46 5.5944 59.638 15.78461 86.572.4127 1.084 1.0742 1.554 1.5246 1.103.4505-.45.5198-1.651.1134-2.739z" opacity=".7"/><path d="m29.503 576.128c-.23.029-.4599.047-.693.047-.1575 0-.3119-.015-.4662-.037-.2552-.032-.0536.797.4567 1.84 8.6846 17.718 19.4513 34.241 31.9662 49.253.7434.896 1.6034 1.195 1.9625.722.3622-.473.0913-1.541-.6521-2.43-12.0739-14.537-22.4973-30.502-30.9613-47.598-.5135-1.04-1.2317-1.841-1.6128-1.797z" opacity=".7"/><path d="m301.266 232.952c1.134.249 2.517.035 3.141-.416.623-.451.255-.967-.873-1.226-17.536-4.003-35.778-6.127-54.504-6.127-3.614 0-7.211.082-10.786.236-1.159.054-2.813.728-3.821 1.305-.378.217-.769.413-1.172.586-1.068.454-1.065.561.095.489 5.185-.337 10.417-.511 15.684-.511 17.926 0 35.409 1.958 52.236 5.664z" opacity=".7"/><path d="m493.312 467.909c.403.047.718-.842.696-2.005-.022-1.368-.06-2.739-.107-4.104-.038-1.159-.595-2.335-1.194-2.694-.595-.363-.995.23-.948 1.39.066 1.771.113 3.549.145 5.33.022 1.163.173 2.089.353 2.064.107-.016.214-.028.327-.028.246 0 .488.019.728.047z" opacity=".7"/><path d="m413.602 290.906c.255-.029.516-.048.787-.048.252 0 .504.019.753.048.413.044.06-.539-.794-1.324-25.445-23.316-55.799-41.342-89.318-52.314-1.106-.359-1.685-.104-1.389.602.293.709 1.357 1.604 2.457 1.973 31.818 10.679 60.719 27.776 85.16 49.761.863.775 1.906 1.352 2.344 1.302z" opacity=".7"/><path d="m424.408 301.575c-.044.379.558 1.362 1.355 2.207 34.266 36.38 57.469 83.304 64.178 135.324.151 1.154.649 1.664 1.178 1.189.526-.476.888-1.734.731-2.888-7.113-52.676-31.012-100.091-66.103-136.68-.803-.838-1.392-1.141-1.342-.674.035.274.048.555.048.838 0 .23-.013.461-.045.684z" opacity=".7"/><path d="m118.076 649.434c-.108.643.51 1.711 1.452 2.386 25.663 18.385 55.361 31.473 87.494 37.625 1.14.224 1.884-.097 1.739-.718s-1.128-1.305-2.271-1.529c-31.822-6.241-61.214-19.338-86.578-37.695-.939-.674-1.729-.709-1.836-.069z"/><path d="m60.1251 585.258c-.3244-.457-.6142-.94-.8725-1.441-.5324-1.03-1.2726-2.755-1.8491-3.76-18.5503-32.324-29.1784-69.757-29.1784-109.629 0-5.885.2457-11.71.7024-17.485.0914-1.156-.2992-2.187-.8662-2.367-.567-.179-1.0962.564-1.1907 1.721-.4851 5.98-.7466 12.025-.7466 18.131 0 64.704 27.6917 123.05 71.8326 163.821.8537.791 2.0412 1.195 2.6654.974.623-.227.447-.98-.41-1.765-14.4207-13.185-27.09-28.258-37.6173-44.812-.6237-.98-1.8018-2.436-2.4696-3.388z" opacity=".8"/><path d="m250.143 691.309c-.372.009-.74.012-1.115.012-.117 0-.236 0-.353-.003-.198-.003-13.019-.407-14.175-.479-1.033-.069-2.066-.145-3.096-.23-1.153-.095-2.29.302-2.612.857-.318.558.309 1.066 1.468 1.163 6.19.524 12.446.798 18.768.798.847 0 1.685-.01 2.523-.019 1.162-.019 1.509-.432.844-1.003-.667-.576-1.638-1.106-2.252-1.096z"/><path d="m231.357 249.234c-.661.643-.343.993.816.905 5.566-.429 11.182-.653 16.856-.653 17.712 0 34.936 2.109 51.449 6.071 1.134.271 1.656-.006 1.288-.694-.378-.693-1.496-1.522-2.627-1.78-16.116-3.717-32.883-5.702-50.11-5.702-4.858 0-9.677.16-14.459.472-1.159.076-2.548.744-3.213 1.381z" opacity=".8"/><path d="m35.7232 413.247c22.4847-83.903 93.2238-148.242 180.4918-161.31 1.15-.173 1.383-.586.592-1.062-.794-.476-2.302-.823-3.449-.637-41.193 6.657-78.637 24.652-109.034 50.672-.879.753-1.978 2.238-2.656 3.18-.963 1.337-2.2045 2.465-3.6409 3.303-1.0017.587-2.5862 1.539-3.4209 2.345-28.5926 27.521-49.8834 62.586-60.6312 101.961-.3056 1.122-.104 2.323.3811 2.755.482.432 1.0647-.085 1.3671-1.207z" opacity=".8"/><path d="m442.136 577.36c-.56 1.015-1.247 2.758-1.729 3.817-.325.709-.718 1.377-1.178 2.011-.684.936-1.868 2.383-2.482 3.372-34.83 56.166-94.119 95.632-162.865 103.37-1.153.132-2.492.804-3.087 1.444-.586.633-.195.999.958.882 112.25-11.426 200.132-106.547 200.132-221.828 0-98.635-64.307-182.512-153.163-211.864-1.099-.362-2.488-.243-3.165.151-.674.394-.369.905.737 1.261 88.931 28.535 153.49 112.088 153.49 210.452 0 38.767-10.042 75.229-27.648 106.932z" opacity=".8"/><path d="m403.272 600.233c-.435-.391-1.358-.016-2.117.86-33.059 38.486-80.41 64.339-133.739 69.206-1.156.107-1.248.453-.278.951.971.495 2.618.937 3.774.811 52.517-5.665 99.086-31.486 131.806-69.556.756-.882.985-1.884.554-2.272z"/><path d="m420.766 366.806c18.302 30.268 28.858 65.731 28.858 103.621 0 33.43-8.222 64.976-22.734 92.729-.536 1.031-.41 1.674.321 1.538.731-.139 1.774-1.009 2.303-2.042 14.188-27.684 22.207-59.034 22.207-92.225 0-37.82-10.401-73.258-28.482-103.599-.592-.999-1.348-1.769-1.669-1.728-.196.023-.388.041-.586.041-.224 0-.441-.018-.662-.044-.359-.041-.157.716.444 1.709z" opacity=".9"/><path d="m409.984 350.764c.696.933 1.377 1.153 1.641.52.259-.634-.018-1.873-.721-2.799-37.025-49.111-95.804-80.921-161.875-80.921-45.631 0-87.784 15.177-121.701 40.733-.929.7-1.338 1.604-.982 2.064.356.461 1.351.287 2.277-.409 33.56-25.276 75.263-40.286 120.406-40.286 65.838 0 124.359 31.92 160.955 81.098z" opacity=".9"/><path d="m418.056 579.717c-.151-.517-.409-.677-.624-.356-.211.315-.078.712.29.908.366.189.485-.041.334-.552z"/><path d="m71.7823 564.416c-14.9247-28.059-23.3888-60.052-23.3888-93.986 0-57.253 24.0849-108.977 62.6375-145.584.844-.804 1.175-1.75.781-2.178-.393-.429-1.354-.177-2.198.624-38.972 36.995-63.3215 89.27-63.3215 147.138 0 33.802 8.316 65.687 22.995 93.746.5386 1.028 1.5529 1.847 2.2459 1.911.693.066.7938-.647.2489-1.671z" opacity=".9"/><path d="m81.826 583.069c-.274.634-.0252 1.904.6395 2.856 36.6475 52.739 97.6405 87.323 166.5655 87.323.523 0 1.046-.007 1.569-.016.863-.01 2.208-.627 3.106-1.229.901-.609.765-.936-.394-.911-1.427.034-2.851.053-4.281.053-68.682 0-129.405-34.703-165.589-87.502-.6584-.961-1.3419-1.204-1.616-.574z" opacity=".9"/><path d="m428.364 503.008c-.207 1.141-.333 2.436-.302 2.896.019.278.035.555.035.839 0 1.8-.372 3.511-1.033 5.078-.454 1.071-1.191 2.783-1.478 3.905-1.855 7.231-4.136 14.285-6.829 21.14-.425 1.085-.302 2.011.274 2.134s1.389-.602 1.811-1.683c8.093-20.749 12.547-43.305 12.547-66.888 0-74.504-44.352-138.827-108.014-167.932-1.055-.485-1.433-.233-.967.618s1.597 1.986 2.646 2.484c61.57 29.31 104.237 92.173 104.237 164.83 0 11.117-1.014 22.004-2.927 32.579z"/><path d="m406.865 561.529c-31.55 54.517-90.477 91.278-157.834 91.278-100.523 0-182.303-81.816-182.303-182.377 0-40.264 13.1072-77.517 35.271-107.726.686-.936 1.061-2.316.941-3.117-.119-.798-.699-.706-1.398.221-23.1653 30.845-36.915 69.154-36.915 110.622 0 101.718 82.722 184.476 184.404 184.476 68.031 0 127.563-37.064 159.507-92.072.582-1.006.639-2.081.182-2.44-.469-.366-1.272.132-1.855 1.135z"/><path d="m116.677 345.125c33.252-35.148 80.281-57.111 132.354-57.111 19.451 0 38.206 3.07 55.793 8.747 1.105.356 2.721.312 3.66.025.939-.297.841-.732-.255-1.107-18.588-6.326-38.499-9.768-59.198-9.768-53.437 0-101.635 22.865-135.346 59.327-.788.851-.983 1.469-.441 1.422.324-.032.652-.048.986-.048.167 0 .337.004.504.013.28.016 1.146-.656 1.943-1.5z"/><path d="m236.937 635.647c-1.156-.085-2.605-.057-3.244.012-.381.041-.769.057-1.162.057-.854 0-1.679-.104-2.47-.29-1.131-.271-2.709-.76-3.594-.867-.885-.113-2.249.252-3.122.709-.869.451-.702.858.444 1.031 8.234 1.255 16.661 1.929 25.241 1.929 24 0 46.816-5.109 67.483-14.237 1.061-.47 1.609-1.236 1.285-1.728-.321-.488-1.399-.523-2.463-.056-20.315 8.923-42.733 13.922-66.305 13.922-4.069 0-8.098-.18-12.093-.482z"/><path d="m381.019 369.623c.211-.012.428-.015.639-.015.234 0 .47.003.703.019.39.022.142-.694-.57-1.614-15.486-20.063-35.397-36.541-58.263-47.933-1.039-.52-2.287-.561-2.819-.167-.526.401-.132 1.081.907 1.592 22.485 11.019 42.109 27.003 57.475 46.505.715.914 1.578 1.629 1.928 1.613z"/><path d="m339.048 610.658c.252.527 1.206.464 2.173-.176 31.689-20.951 55.891-52.348 67.634-89.277.349-1.103.179-2.172-.353-2.427-.529-.256-1.216.406-1.566 1.513-11.532 36.487-35.374 67.531-66.628 88.278-.967.643-1.512 1.557-1.26 2.089z"/><path d="m413.273 491.354c-.149 1.147.047 2.049.45 2.027.236-.013.476-.019.718-.019.114 0 .23.006.34.009.186.013.467-.911.608-2.061.86-6.85 1.339-13.809 1.339-20.882 0-29.925-7.9-58.019-21.675-82.368-.57-1.012-1.219-1.267-1.515-.612-.293.653-.123 1.974.441 2.992 13.129 23.734 20.648 50.993 20.648 79.988 0 7.089-.482 14.067-1.354 20.926z"/><path d="m204.187 629.928c-44.107-12.426-80.782-42.713-101.755-82.523-.542-1.027-1.383-1.639-1.924-1.424-.5423.22-.5769 1.175-.038 2.206 21.672 41.266 59.982 72.455 105.978 84.543 1.125.293 1.434-.019.807-.782-.63-.772-1.953-1.705-3.068-2.02z"/><path d="m85.1789 446.238c.1701-1.151-.1512-2.115-.7214-2.225-.5733-.104-1.1749.687-1.345 1.837-1.1844 8.025-1.8176 16.23-1.8176 24.579 0 19.439 3.3233 38.114 9.428 55.488.3843 1.1 1.1119 1.731 1.6443 1.485.5292-.246.6583-1.28.274-2.377-5.985-17.106-9.2452-35.476-9.2452-54.596 0-8.22.6205-16.292 1.7829-24.191z"/><path d="m96.0607 406.987c5.5313-13.304 12.7453-25.729 21.3763-37.023.705-.927.573-1.346-.353-1.109-.926.236-2.271 1.049-2.964 1.982-8.379 11.338-15.3472 23.769-20.6896 37.03-.4347 1.081-.2142 1.689.504 1.447.7245-.249 1.6821-1.252 2.1263-2.327z"/><path d="m184.645 316.59c-.122-.576-1.049-.69-2.113-.23-21.093 9.151-39.942 22.515-55.497 39.025-.797.842-1.411 1.759-1.395 2.033.009.161.012.328.012.495 0 .404-.022.807-.066 1.201-.072.659.432.485 1.213-.372 15.605-17.087 34.71-30.915 56.189-40.298 1.065-.464 1.783-1.277 1.657-1.854z"/><path d="m207.875 308.786c.255.536 1.329.76 2.457.485 12.42-2.985 25.376-4.58 38.698-4.58 16.843 0 33.09 2.554 48.415 7.253 1.112.341 1.868.114 1.774-.536-.108-.646-1.03-1.462-2.142-1.793-15.231-4.567-31.352-7.029-48.047-7.029-13.646 0-26.914 1.645-39.621 4.737-1.128.275-1.789.924-1.534 1.463z"/><path d="m384.418 400.209c-.576-1.103-1.159-2.2-1.761-3.287-.564-1.018-1.606-1.829-2.318-1.901-.712-.066-.807.624-.233 1.636.73 1.302 1.442 2.613 2.138 3.934.539 1.027 1.44 1.724 2.039 1.62.598-.104.674-.971.135-2.002z"/><path d="m159.207 592.396c-.57-1.012-1.601-2.484-2.517-3.202-35.353-27.571-58.1397-70.551-58.1397-118.764 0-12.249 1.4677-24.157 4.2367-35.561.277-1.128.009-1.815-.636-1.607-.643.208-1.411 1.232-1.676 2.364-2.6209 11.186-4.0258 22.829-4.0258 34.804 0 68.641 45.5368 126.805 107.9658 145.943 1.112.341 2.291.171 2.681-.321.394-.495-.157-1.119-1.269-1.447-12.263-3.688-23.871-8.882-34.609-15.404-.993-.599-1.878-1.093-1.985-1.081-.063.01-.129.016-.195.016-4.243 0-7.907-2.32-9.831-5.74z"/><path d="m369.317 378.452c.215-.662-.119-1.923-.847-2.831-7.579-9.55-16.26-18.181-25.871-25.676-.917-.715-1.893-.867-2.23-.394s.091 1.39 1.005 2.106c9.818 7.665 18.67 16.519 26.327 26.35.715.914 1.399 1.11 1.616.445z"/><path d="m284.36 324.094c13.267 3.208 25.849 8.179 37.488 14.65 1.017.567 2.028.608 2.337.117.303-.495-.214-1.337-1.225-1.901-12.021-6.695-25.024-11.814-38.748-15.07-1.128-.264-1.979-.037-1.931.498.028.322.044.643.044.971 0 .044-.003.085-.003.129-.007.07.907.335 2.038.606z"/><path d="m233.927 319.569c-.138-.574-1.131-.955-2.287-.823-55.5 6.326-102.028 42.583-123.089 92.183-.454 1.069-.432 2.348-.025 2.9.409.552 1.036.158 1.483-.917 20.564-49.59 66.85-85.895 122.135-92.101 1.15-.13 1.919-.669 1.783-1.242z"/><path d="m393.471 421.384c-.371-1.101-1.049-1.646-1.54-1.293-.498.356-.617 1.485-.246 2.585 5.031 15.013 7.79 31.066 7.79 47.752 0 83.011-67.492 150.543-150.444 150.543-1.276 0-2.545-.029-3.808-.076-1.163-.035-1.928.385-1.783.971.148.589 1.153 1.109 2.312 1.144 1.09.038 2.18.066 3.279.066 84.115 0 152.545-68.477 152.545-152.648 0-17.149-2.863-33.644-8.105-49.044z"/><path d="m386.313 459.594c.599.214.992-.501.895-1.658-5.45-60.84-50.227-110.506-108.653-123.224-1.131-.249-2.7.022-3.563.457-.86.438-.677.854.463 1.081 58.518 11.521 103.73 60.522 109.57 120.914.11 1.153.69 2.219 1.288 2.43z"/><path d="m327.164 583.033c-.626.548-1.316 1.018-2.06 1.412-1.027.539-2.734 1.305-3.717 1.922-21.001 13.173-45.794 20.826-72.358 20.826-24.343 0-47.203-6.431-67.02-17.636-1.011-.57-1.883-.561-2.028.025-.145.59.501 1.526 1.512 2.09 20.005 11.202 43.029 17.62 67.536 17.62 71.974 0 131.282-55.125 138.086-125.383.11-1.154-.28-1.879-.879-1.671-.598.211-1.181 1.27-1.301 2.421-4.06 39.1-24.639 73.337-54.627 95.609-.935.697-2.265 2.005-3.144 2.765z"/><path d="m176.732 353.112c.677.256 2 .035 3.002-.554 20.33-12.013 44.021-18.919 69.297-18.919 3.276 0 6.52.139 9.737.376 1.159.085 1.455-.268.752-.902-.705-.633-2.138-1.295-3.294-1.358-2.388-.136-4.779-.221-7.195-.221-26.252 0-50.81 7.357-71.767 20.081-.992.605-1.209 1.242-.532 1.497z"/><path d="m157.24 571.643c-27.563-25.033-44.913-61.126-44.913-101.213 0-41.02 18.156-77.867 46.837-102.957.873-.766 1.506-1.825 1.456-2.38-.035-.334-.054-.671-.054-1.018 0-.104.006-.205.013-.309.009-.173-.706.287-1.588 1.041-29.827 25.496-48.768 63.386-48.768 105.623 0 40.683 17.602 77.312 45.561 102.733.86.781 1.852 1.027 2.259.605.4-.419.057-1.346-.803-2.125z"/><path d="m249.03 596.767c21.672 0 42.071-5.519 59.913-15.19 1.02-.551 1.581-1.418 1.329-1.941-.258-.523-1.235-.504-2.249.05-17.565 9.529-37.649 14.975-58.993 14.975-68.475 0-124.183-55.73-124.183-124.232 0-37.361 16.575-70.904 42.739-93.703.876-.759 1.078-1.503.47-1.743-.611-.239-1.793.12-2.662.892-26.129 23.167-42.648 56.957-42.648 94.554 0 69.662 56.653 126.338 126.284 126.338z"/><path d="m327.927 567.614c.404.426 1.418.208 2.303-.539 24.614-20.737 41.199-50.693 44.437-84.498.107-1.157.01-2.223-.208-2.364-.214-.152-.324.031-.277.428.025.24.047.482.047.728 0 1.737-.428 3.363-1.168 4.807-.533 1.034-1.264 2.701-1.449 3.849-4.792 30.142-20.45 56.695-42.831 75.521-.885.744-1.257 1.646-.854 2.068z"/><path d="m186.166 363.307c18.45-10.883 39.939-17.137 62.865-17.137 62.521 0 114.367 46.511 122.888 106.771.164 1.15.91 2.578 1.584 3.284.677.712 1.04.429.904-.725-7.402-62.668-60.804-111.436-125.376-111.436-22.945 0-44.469 6.166-63.028 16.911-1.005.583-1.727 1.519-1.673 2.08.035.337.053.678.053 1.021 0 .054-.003.108-.009.158-.006.085.794-.337 1.792-.927z"/></g></svg>