<svg width="883" height="1105" viewBox="0 0 883 1105" fill="none" xmlns="http://www.w3.org/2000/svg">
<g opacity="0.3">
<path opacity="0.05" fill-rule="evenodd" clip-rule="evenodd" d="M795.521 153.409C796.104 154.414 796.822 154.641 797.228 153.963C797.638 153.286 797.562 151.971 796.979 150.969C769.767 104.373 736.414 60.9576 697.276 21.7878C577.569 -98.0162 418.375 -164 249.031 -164C94.7531 -164 -51.073 -109.237 -166.325 -8.96616C-167.201 -8.20023 -167.664 -7.02136 -167.456 -6.30272C-167.248 -5.57776 -166.445 -5.59666 -165.569 -6.35945C-54.5191 -103.173 90.5226 -161.898 249.031 -161.898C482.046 -161.898 686.002 -34.9795 795.521 153.409Z" fill="#00343D"/>
<path opacity="0.05" fill-rule="evenodd" clip-rule="evenodd" d="M806.629 173.374C853.945 261.989 880.814 363.124 880.814 470.43C880.814 564.653 860.069 654.112 822.965 734.52C822.476 735.579 822.177 736.931 822.234 737.558C822.272 737.933 822.291 738.312 822.291 738.693C822.291 742.882 820.303 746.617 817.206 749.044C816.296 749.763 815.042 751.058 814.523 752.098C804.521 772.126 793.509 791.561 781.514 810.316C780.89 811.293 780.755 812.632 781.092 813.373C781.429 814.12 782.128 813.969 782.755 812.992C847.941 711.725 882.915 593.78 882.915 470.43C882.915 365.185 857.498 263.861 809.574 173.487C809.029 172.457 808.346 171.653 808.046 171.669C807.876 171.675 807.693 171.681 807.514 171.681C807.196 171.681 806.884 171.665 806.572 171.637C806.052 171.596 806.081 172.349 806.629 173.374Z" fill="#00343D"/>
<path fill-rule="evenodd" clip-rule="evenodd" d="M-224.942 888.07C-225.711 887.2 -226.769 886.838 -227.349 887.207C-227.935 887.566 -227.821 888.502 -227.053 889.372C-218.154 899.474 -208.931 909.353 -199.329 918.963C-198.041 920.249 -196.737 921.504 -195.436 922.764C-194.601 923.574 -192.985 924.315 -191.877 924.668C-188.758 925.664 -186.279 928.044 -185.17 931.092C-184.773 932.183 -183.97 933.774 -183.123 934.569C-65.4072 1044.44 87.1599 1104.72 249.029 1104.72C418.376 1104.72 577.568 1038.75 697.274 918.963C700.465 915.773 703.609 912.561 706.711 909.315C707.515 908.48 707.521 907.764 706.746 907.597C705.971 907.433 704.721 907.871 703.914 908.71C588.914 1028.18 427.498 1102.61 249.029 1102.61C60.4604 1102.61 -109.057 1019.54 -224.942 888.07Z" fill="#00343D"/>
<path fill-rule="evenodd" clip-rule="evenodd" d="M768.571 829.706C753.382 851.635 736.854 872.577 719.081 892.377C718.306 893.241 717.966 894.518 718.199 895.268C718.432 896.024 719.147 895.967 719.932 895.107C738.674 874.342 755.88 852.517 771.548 829.804C772.206 828.849 772.515 828.099 772.237 828.133C772.067 828.159 771.907 828.174 771.73 828.174C771.393 828.174 771.069 828.156 770.741 828.118C770.199 828.064 769.232 828.748 768.571 829.706Z" fill="#00343D"/>
<path fill-rule="evenodd" clip-rule="evenodd" d="M249.029 1045.05C-67.685 1045.05 -325.355 787.272 -325.355 470.427C-325.355 153.513 -67.685 -104.319 249.029 -104.319C427.06 -104.319 586.413 -22.7995 691.827 104.884C692.564 105.78 693.427 106.003 693.834 105.43C694.24 104.859 694.045 103.721 693.305 102.829C681.769 88.9102 669.535 75.4512 656.598 62.506C547.753 -46.4269 403.007 -106.422 249.029 -106.422C95.0062 -106.422 -49.7709 -46.4269 -158.635 62.506C-267.499 171.442 -327.456 316.311 -327.456 470.427C-327.456 624.506 -267.499 769.34 -158.635 878.251C-151.195 885.699 -143.569 892.882 -135.797 899.861C-134.934 900.636 -133.495 901.724 -132.698 902.427C-131.898 903.136 -130.65 904.431 -129.775 905.197C-24.8009 996.996 108.243 1047.15 249.029 1047.15C372.348 1047.15 489.723 1008.66 587.496 937.382C588.435 936.701 589.764 935.387 590.652 934.64C590.989 934.353 591.339 934.092 591.711 933.852C592.687 933.222 594.338 932.326 595.258 931.633C616.738 915.422 637.241 897.62 656.598 878.251C695.708 839.116 728.474 795.319 754.446 748.143C755.004 747.125 755.325 745.788 755.243 745.158C755.196 744.78 755.164 744.392 755.164 744.001C755.164 743.342 755.234 742.703 755.356 742.082C755.561 741.038 755.47 741.067 754.922 742.091C657.886 922.284 467.531 1045.05 249.029 1045.05Z" fill="#00343D" fill-opacity="0.1"/>
<path fill-rule="evenodd" clip-rule="evenodd" d="M758.225 736.825C758.688 736.38 759.199 735.98 759.74 735.633C760.717 735.009 762.049 733.855 762.575 732.818C767.086 724.012 771.395 715.101 775.434 706.08C775.906 705.021 775.796 703.864 775.238 703.423C774.681 702.991 773.893 703.442 773.418 704.501C768.554 715.372 763.357 726.067 757.847 736.566C757.309 737.594 757.381 737.628 758.225 736.825Z" fill="#00343D"/>
<path fill-rule="evenodd" clip-rule="evenodd" d="M803.707 321.545C816.448 369.052 823.284 418.954 823.284 470.429C823.284 544.466 809.203 615.273 783.606 680.324C783.178 681.401 783.392 682.271 784.073 682.347C784.753 682.423 785.645 681.669 786.06 680.588C811.862 614.504 825.385 543.511 825.385 470.429C825.385 465.389 825.297 460.362 825.164 455.341C825.139 454.181 824.585 452.447 824.153 451.369C823.637 450.08 823.347 448.674 823.347 447.199C823.347 446.014 823.533 444.867 823.873 443.792C824.229 442.685 824.648 440.917 824.591 439.757C822.383 397.335 815.595 355.772 804.494 315.622C804.182 314.503 803.962 313.898 803.981 314.273C803.993 314.5 804.003 314.727 804.003 314.957C804.003 315.827 803.908 316.675 803.744 317.495C803.511 318.632 803.401 320.423 803.707 321.545Z" fill="#00343D" fill-opacity="0.1"/>
<path fill-rule="evenodd" clip-rule="evenodd" d="M800.434 306.013C800.862 306.47 801.259 306.955 801.618 307.469C802.283 308.421 802.421 308.377 802.091 307.261C800.125 300.541 798.04 293.859 795.828 287.224C795.466 286.117 794.675 285.43 794.055 285.613C793.434 285.793 793.223 286.776 793.592 287.879C795.22 292.749 796.77 297.657 798.27 302.587C798.61 303.696 799.64 305.165 800.434 306.013Z" fill="#00343D" fill-opacity="0.1"/>
<path fill-rule="evenodd" clip-rule="evenodd" d="M774.397 238.47C777.761 246.085 780.965 253.785 784.008 261.567C784.433 262.648 785.249 263.263 785.875 263.001C786.496 262.743 786.685 261.709 786.266 260.628C783.371 253.196 780.322 245.823 777.112 238.517C776.649 237.455 776.007 236.616 775.685 236.632C775.496 236.641 775.301 236.648 775.109 236.648C774.844 236.648 774.586 236.638 774.324 236.622C773.893 236.591 773.924 237.41 774.397 238.47Z" fill="#00343D" fill-opacity="0.1"/>
<path fill-rule="evenodd" clip-rule="evenodd" d="M764.959 215.512C765.441 214.938 765.466 213.68 764.947 212.64C756.19 195.124 746.522 178.034 735.963 161.43C735.34 160.453 734.029 159.154 733.179 158.36C731.742 157.014 730.637 155.337 729.982 153.452C729.597 152.355 728.945 150.634 728.296 149.67C721.851 140.065 715.085 130.647 708.036 121.399C707.33 120.476 706.262 120.025 705.616 120.299C704.967 120.574 704.986 121.466 705.695 122.389C727.635 151.157 746.922 182.05 763.205 214.708C763.721 215.745 764.477 216.085 764.959 215.512Z" fill="#00343D" fill-opacity="0.1"/>
<path opacity="0.15" fill-rule="evenodd" clip-rule="evenodd" d="M709.582 223.645C709.528 224.159 709.89 225.401 710.435 226.425C737.673 277.818 756.58 334.271 765.365 393.979C765.538 395.126 766.395 396.671 767.101 397.594C767.18 397.692 767.258 397.793 767.328 397.897C768.002 398.839 768.235 398.789 768.074 397.641C759.475 335.232 739.838 275.48 710.133 220.692C709.579 219.674 709.065 218.854 708.993 218.87C708.917 218.882 709.223 219.699 709.44 220.764C709.569 221.395 709.635 222.044 709.635 222.712C709.635 223.027 709.616 223.339 709.582 223.645Z" fill="#00343D"/>
<path fill-rule="evenodd" clip-rule="evenodd" d="M-100.144 82.3891C-7.58099 -1.09457 114.9 -51.9709 249.031 -51.9709C333.057 -51.9709 412.5 -31.9809 482.887 3.47582C483.923 3.99905 485.429 4.06524 486.301 3.75635C487.171 3.44745 487.076 2.87694 486.04 2.35056C413.495 -34.5309 332.777 -54.0732 249.031 -54.0732C118.088 -54.0732 -5.502 -6.37731 -101.927 80.7879C-102.79 81.5633 -103.045 82.512 -102.553 82.9565C-102.059 83.3977 -101.007 83.1645 -100.144 82.3891Z" fill="#00343D"/>
<path opacity="0.15" fill-rule="evenodd" clip-rule="evenodd" d="M699 203.661C699.371 202.945 699.286 201.615 698.688 200.619C676.82 164.254 650.37 130.308 619.613 99.522C606.301 86.2049 592.382 73.7167 577.955 62.0354C577.051 61.3041 576.033 61.1812 575.627 61.7076C575.217 62.234 575.573 63.2079 576.477 63.9392C624.499 102.762 665.515 149.916 697.34 203.188C697.935 204.187 698.625 204.373 699 203.661Z" fill="#00343D"/>
<path fill-rule="evenodd" clip-rule="evenodd" d="M673.098 774.602C578.277 906.592 423.518 992.714 249.03 992.714C151.953 992.714 60.9935 966.041 -16.9532 919.679C-17.9518 919.089 -18.6196 919.2 -18.5377 919.953C-18.4873 920.404 -18.4621 920.861 -18.4621 921.324C-18.4621 921.375 -18.4652 921.431 -18.4684 921.488C-18.4778 921.57 -17.6714 922.122 -16.6729 922.711C62.9969 969.726 154.076 994.816 249.03 994.816C389.035 994.816 520.645 940.277 619.615 841.248C640.417 820.426 659.248 798.157 676.028 774.681C676.702 773.738 676.973 772.995 676.636 773.014C676.437 773.026 676.233 773.029 676.031 773.029C675.744 773.029 675.458 773.017 675.174 772.991C674.705 772.957 673.776 773.657 673.098 774.602Z" fill="#00343D"/>
<path opacity="0.15" fill-rule="evenodd" clip-rule="evenodd" d="M769.189 513.442C769.097 514.599 769.494 515.598 770.067 515.724C770.647 515.85 771.189 515.066 771.28 513.909C772.458 499.517 773.082 485.024 773.082 470.43C773.082 449.088 771.816 427.948 769.324 407.085C769.185 405.931 768.984 405.944 768.634 407.05C768.562 407.277 768.48 407.504 768.395 407.724C767.969 408.806 767.535 410.52 767.661 411.674C769.831 430.964 770.981 450.563 770.981 470.43C770.981 484.914 770.354 499.252 769.189 513.442Z" fill="#00343D"/>
<path opacity="0.15" fill-rule="evenodd" clip-rule="evenodd" d="M766.254 540.733C755.739 618.562 728.019 690.991 687.079 754.082C686.445 755.056 686.279 756.405 686.603 757.145C686.927 757.892 687.62 757.741 688.254 756.77C730.772 691.742 758.108 618.25 768.418 540.717C768.569 539.567 768.418 538.665 768.075 538.681C767.87 538.693 767.659 538.697 767.454 538.697C767.297 538.697 767.142 538.693 766.988 538.687C766.733 538.671 766.408 539.585 766.254 540.733Z" fill="#00343D"/>
<path fill-rule="evenodd" clip-rule="evenodd" d="M556.887 47.3372C557.309 46.8077 556.937 45.8621 555.999 45.1813C539.096 32.9043 521.544 21.7115 503.441 11.6252C502.427 11.061 501.894 11.3005 502.108 12.1988C502.332 13.094 503.211 14.3012 504.222 14.8686C521.613 24.6681 538.387 35.4321 554.477 47.0945C555.416 47.7753 556.468 47.8636 556.887 47.3372Z" fill="#00343D"/>
<path fill-rule="evenodd" clip-rule="evenodd" d="M498.84 66.3137C498.496 65.8693 498.182 65.3997 497.904 64.9111C497.334 63.8993 496.241 62.5061 495.249 61.9041C459.279 40.1049 420.688 23.2607 380.318 11.7528C379.203 11.4344 378.617 11.737 378.91 12.4714C379.206 13.2058 380.249 14.0915 381.361 14.4162C423.048 26.5545 462.372 44.2971 498.49 66.7361C499.476 67.3507 499.555 67.231 498.84 66.3137Z" fill="#00343D"/>
<path fill-rule="evenodd" clip-rule="evenodd" d="M-95.091 798.71C-95.7462 798.975 -95.6611 799.778 -94.8579 800.617C-92.6025 802.968 -90.3187 805.294 -88.0129 807.602C-70.7509 824.875 -52.3801 840.631 -33.0864 854.853C-32.1571 855.547 -30.4561 856.265 -29.3914 856.719C-28.0117 857.318 -26.7927 858.21 -25.8099 859.319C-25.0413 860.186 -23.8159 861.561 -22.8615 862.222C-1.55171 877.087 20.8322 890.105 44.0918 901.2C45.1407 901.698 46.1865 901.594 46.4921 900.995C46.7977 900.396 46.2432 899.536 45.1943 899.038C-6.53186 874.317 -53.1235 840.518 -92.4796 799.684C-93.286 798.845 -94.4358 798.448 -95.091 798.71Z" fill="#00343D"/>
<path fill-rule="evenodd" clip-rule="evenodd" d="M43.1107 42.7196C105.43 12.5551 175.285 -4.38688 249.029 -4.38688C262.203 -4.38688 275.237 -3.81322 288.143 -2.751C289.296 -2.65644 291.076 -3.01261 292.191 -3.33727C293.161 -3.62095 294.181 -3.77855 295.249 -3.77855C297.114 -3.77855 298.853 -3.3152 300.396 -2.51775C301.426 -1.98506 303.102 -1.28532 304.255 -1.14978C322.935 1.02509 341.283 4.2937 359.238 8.58356C360.372 8.85464 361.711 8.60563 362.316 8.11077C362.921 7.6159 362.555 7.06746 361.431 6.79639C325.058 -1.96615 287.396 -6.48926 249.029 -6.48926C175.804 -6.48926 105.122 9.94523 41.1419 41.0081C40.0961 41.5156 39.737 42.2594 40.282 42.7322C40.8238 43.2082 42.0649 43.2239 43.1107 42.7196Z" fill="#00343D"/>
<path opacity="0.2" fill-rule="evenodd" clip-rule="evenodd" d="M19.5195 53.5642C19.4282 52.8518 18.5997 52.7163 17.5854 53.2836C-20.6713 74.5974 -56.2033 101.345 -88.0152 133.174C-176.313 221.531 -225.658 338.488 -227.497 463.2C-227.513 464.36 -227.056 465.176 -226.477 465.072C-225.894 464.965 -225.402 463.982 -225.387 462.822C-222.627 288.104 -125.103 136.017 17.9162 55.8683C18.9305 55.3009 19.6109 54.2765 19.5195 53.5642Z" fill="#00343D"/>
<path fill-rule="evenodd" clip-rule="evenodd" d="M488.227 881.668C488.347 882.377 489.159 882.488 490.161 881.898C514.107 867.796 536.938 851.538 558.374 833.184C559.253 832.428 559.489 831.539 558.938 831.142C558.387 830.745 557.262 830.994 556.38 831.744C535.628 849.445 513.339 865.382 489.742 879.339C488.743 879.928 488.107 880.962 488.227 881.668Z" fill="#00343D"/>
<path fill-rule="evenodd" clip-rule="evenodd" d="M469.924 890.432C451.002 900.433 431.336 909.195 411.019 916.606C409.929 917 409.289 917.791 409.522 918.402C409.755 919.011 410.77 919.212 411.86 918.815C432.476 911.339 452.539 902.422 471.933 892.127C472.957 891.582 473.282 890.829 472.727 890.362C472.17 889.893 470.951 889.889 469.924 890.432Z" fill="#00343D"/>
<path fill-rule="evenodd" clip-rule="evenodd" d="M70.8776 911.658C70.6287 912.263 71.2556 913.092 72.3329 913.521C118.156 931.793 166.886 942.857 217.129 946.16C218.288 946.239 219.224 945.816 219.284 945.233C219.34 944.653 218.496 944.13 217.34 944.051C166.738 940.694 118.285 929.375 73.2212 911.327C72.1407 910.895 71.1233 911.05 70.8776 911.658Z" fill="#00343D"/>
<path fill-rule="evenodd" clip-rule="evenodd" d="M245.046 945.093C243.883 945.071 242.979 945.342 242.998 945.705C243.011 945.925 243.017 946.14 243.017 946.36C243.017 946.493 243.014 946.631 243.008 946.764C242.995 946.988 243.921 947.177 245.08 947.196C246.397 947.221 247.711 947.24 249.031 947.24C296.599 947.24 343.099 940.299 387.388 926.925C388.5 926.594 389.193 925.844 389.017 925.232C388.837 924.627 387.854 924.397 386.739 924.734C343.143 937.992 296.904 945.137 249.031 945.137C247.698 945.137 246.372 945.115 245.046 945.093Z" fill="#00343D"/>
<path opacity="0.2" fill-rule="evenodd" clip-rule="evenodd" d="M505.499 71.1477C596.849 130.131 666.745 219.641 700.705 325.145C701.061 326.251 701.933 327.212 702.652 327.37C703.364 327.524 703.644 326.815 703.297 325.709C680.536 253.84 640.77 187.998 585.995 133.176C562.877 110.04 537.787 89.6058 511.132 71.9672C510.158 71.3274 509.103 70.8388 508.766 70.8577C508.568 70.8672 508.363 70.8735 508.158 70.8735C507.33 70.8735 506.52 70.7852 505.739 70.6213C504.602 70.3849 504.52 70.5205 505.499 71.1477Z" fill="#00343D"/>
<path opacity="0.2" fill-rule="evenodd" clip-rule="evenodd" d="M724.424 466.029C725.01 465.909 725.473 464.907 725.457 463.744C725.152 441.336 723.315 419.184 719.989 397.397C719.816 396.247 719.161 395.298 718.54 395.213C717.923 395.125 717.573 395.932 717.759 397.079C721.164 418.995 723.067 441.399 723.36 464.188C723.375 465.348 723.845 466.152 724.424 466.029Z" fill="#00343D"/>
<path opacity="0.2" fill-rule="evenodd" clip-rule="evenodd" d="M723.972 492.08C723.39 491.932 722.889 492.71 722.838 493.87C716.756 618.336 662.566 730.361 578.499 811.66C577.664 812.467 577.318 813.533 577.677 814.097C578.03 814.658 578.946 814.494 579.784 813.687C581.867 811.679 583.939 809.656 585.993 807.604C620.599 772.976 649.195 733.936 671.32 691.778C671.859 690.747 672.495 688.988 672.983 687.935C673.125 687.617 673.286 687.311 673.465 687.012C674.048 686.009 675.113 684.462 675.633 683.425C704.786 625.081 721.66 561.002 724.933 494.406C724.987 493.246 724.552 492.228 723.972 492.08Z" fill="#00343D"/>
<path opacity="0.2" fill-rule="evenodd" clip-rule="evenodd" d="M708.36 351.558C710.065 358.143 711.636 364.781 713.06 371.476C713.303 372.61 713.917 373.241 714.471 372.941C715.029 372.642 715.316 371.523 715.073 370.388C713.605 363.476 711.986 356.611 710.219 349.787C709.926 348.665 709.318 348.198 708.805 348.684C708.291 349.172 708.071 350.436 708.36 351.558Z" fill="#00343D"/>
<path opacity="0.25" fill-rule="evenodd" clip-rule="evenodd" d="M594.912 210.874C595.876 211.064 596.055 210.61 595.356 209.683C583.225 193.605 569.91 178.258 555.426 163.765C506.709 115.007 448.418 79.3197 384.8 58.3968C383.698 58.0375 383.225 58.3401 383.622 59.1407C384.025 59.9413 385.141 60.931 386.24 61.2998C468.707 89.0752 540.095 141.162 591.872 209.021C592.578 209.945 593.948 210.688 594.912 210.874Z" fill="#00343D"/>
<path fill-rule="evenodd" clip-rule="evenodd" d="M-106.047 717.091C-106.475 717.639 -106.33 718.815 -105.659 719.763C-91.39 739.993 -75.2966 759.151 -57.4393 777.019C-23.3909 811.083 15.3415 838.751 57.29 859.479C58.3295 859.996 59.3218 859.895 59.5769 859.286C59.8321 858.681 59.2556 857.808 58.213 857.291C-6.86604 825.034 -62.684 776.818 -104.122 717.787C-104.79 716.835 -105.622 716.539 -106.047 717.091Z" fill="#00343D"/>
<path fill-rule="evenodd" clip-rule="evenodd" d="M116.801 881.123C105.06 877.335 93.5409 873.061 82.2639 868.314C81.1929 867.86 80.144 867.983 79.8542 868.569C79.5675 869.146 80.1408 869.953 81.2118 870.4C92.3219 875.069 103.627 879.258 115.106 882.974C116.211 883.33 117.431 883.153 117.903 882.643C118.372 882.132 117.906 881.48 116.801 881.123Z" fill="#00343D"/>
<path fill-rule="evenodd" clip-rule="evenodd" d="M270.492 902.399C270.643 902.979 271.657 903.414 272.817 903.351C279.989 902.957 287.121 902.38 294.218 901.646C295.374 901.526 297.09 900.886 298.168 900.442C299.453 899.915 300.867 899.619 302.348 899.619C302.978 899.619 303.592 899.682 304.187 899.795C305.192 899.978 306.909 900.155 308.059 899.997C315.751 898.96 323.399 897.725 330.988 896.281C332.128 896.06 332.808 895.436 332.569 894.859C332.326 894.289 331.258 893.983 330.118 894.201C311.24 897.816 291.934 900.205 272.278 901.255C271.122 901.315 270.341 901.813 270.492 902.399Z" fill="#00343D"/>
<path opacity="0.25" fill-rule="evenodd" clip-rule="evenodd" d="M671.726 555.705C664.809 590.087 653.809 623.009 639.231 653.921C638.73 654.971 638.85 655.932 639.483 656.14C640.11 656.348 641.008 655.727 641.499 654.674C656.291 623.173 667.2 589.932 674.001 555.55C674.224 554.413 673.988 553.58 673.456 553.634C673.141 553.666 672.823 553.681 672.498 553.681C672.438 553.681 672.375 553.672 672.315 553.666C672.215 553.653 671.953 554.57 671.726 555.705Z" fill="#00343D"/>
<path opacity="0.25" fill-rule="evenodd" clip-rule="evenodd" d="M603.121 220.497C603.134 220.575 603.14 220.654 603.14 220.736C603.14 221.259 603.093 221.77 603.002 222.268C602.857 223.106 603.169 224.531 603.827 225.486C651.965 295.12 680.215 379.53 680.215 470.427C680.215 491.71 678.655 512.636 675.669 533.099C675.502 534.249 675.839 535.321 676.409 535.573C676.97 535.828 677.537 535.163 677.707 534.009C680.753 513.137 682.316 491.905 682.316 470.427C682.316 380.246 654.999 294.278 604.306 221.978C603.638 221.026 603.103 220.364 603.121 220.497Z" fill="#00343D"/>
<path fill-rule="evenodd" clip-rule="evenodd" d="M506.878 817.302C505.479 819.745 503.094 821.551 500.256 822.162C499.122 822.402 497.406 822.931 496.454 823.6C455.618 852.327 409.59 874.151 360.085 887.364C358.966 887.661 358.132 888.357 358.185 888.925C358.217 889.262 358.235 889.602 358.235 889.949C358.235 889.987 358.235 890.021 358.229 890.056C358.226 890.113 359.136 889.927 360.255 889.627C433.429 870.325 500.508 831.968 555.425 777.019C584.806 747.621 609.423 714.727 628.937 679.295C629.501 678.277 629.479 677.199 628.937 676.827C628.398 676.449 627.548 676.928 626.984 677.943C597.686 731.164 557.473 777.562 509.407 814.112C508.484 814.815 507.457 816.293 506.878 817.302Z" fill="#00343D"/>
<path opacity="0.25" fill-rule="evenodd" clip-rule="evenodd" d="M-34.1904 145.264C11.3208 105.524 65.2111 75.1796 124.45 57.2605C125.562 56.9232 126.277 56.1825 126.097 55.5773C125.918 54.9753 124.922 54.7389 123.811 55.073C122.689 55.4103 121.574 55.7538 120.456 56.0974C119.35 56.4441 105.764 60.9326 104.671 61.3171C52.4567 79.7121 4.02545 108.162 -38.235 145.693C-39.1044 146.462 -39.1422 146.853 -38.2948 146.698C-37.7908 146.604 -37.2711 146.553 -36.7387 146.553C-36.5718 146.553 -36.4111 146.572 -36.2505 146.591C-35.9859 146.623 -35.0661 146.03 -34.1904 145.264Z" fill="#00343D"/>
<path fill-rule="evenodd" clip-rule="evenodd" d="M136.797 888.169C136.904 888.844 137.831 889.641 138.952 889.938C146.38 891.876 153.864 893.635 161.408 895.179C162.545 895.413 164.092 895.419 164.88 895.299C165.343 895.227 165.818 895.189 166.307 895.189C168.014 895.189 169.623 895.583 171.063 896.27C172.109 896.768 173.794 897.509 174.938 897.704C196.802 901.449 219.101 903.523 241.68 903.895C242.842 903.914 243.841 903.444 243.963 902.864C244.089 902.284 243.296 901.814 242.133 901.795C206.397 901.238 171.706 896.305 138.561 887.508C137.44 887.211 136.687 887.498 136.797 888.169Z" fill="#00343D"/>
<path fill-rule="evenodd" clip-rule="evenodd" d="M363.475 54.3213C364.59 54.6333 366.068 54.4505 366.84 54.0218C367.615 53.5932 367.385 53.0794 366.269 52.7674C351.398 48.613 336.269 45.2593 320.928 42.7093C319.788 42.5202 318.011 42.7945 316.89 43.0939C315.992 43.3366 315.05 43.4721 314.071 43.4721C311.935 43.4721 309.951 42.8638 308.259 41.8236C307.267 41.2185 305.645 40.4431 304.488 40.2981C286.237 37.9751 267.728 36.771 249.03 36.771C216.711 36.771 184.94 40.3012 154.139 47.1442C153.008 47.3964 152.255 48.074 152.406 48.6666C152.558 49.2623 153.55 49.5397 154.684 49.2876C185.059 42.4761 216.632 38.8765 249.03 38.8765C288.638 38.8765 327.014 44.2633 363.475 54.3213Z" fill="#00343D"/>
<path fill-rule="evenodd" clip-rule="evenodd" d="M-48.0135 729.224C-30.5688 749.236 -11.1333 767.471 9.96854 783.628C10.8915 784.331 12.5295 785.232 13.5186 785.84C14.1108 786.203 14.6715 786.622 15.1881 787.079C16.0575 787.855 17.3899 789.166 18.3286 789.847C83.2281 836.887 162.939 864.669 249.028 864.669C262.176 864.669 275.173 864.016 287.991 862.746C289.15 862.636 290.208 862.024 290.432 861.413C290.649 860.801 289.953 860.426 288.794 860.543C275.715 861.87 262.454 862.566 249.028 862.566C140.971 862.566 42.9963 818.58 -27.9827 747.585C-28.8017 746.765 -30.1215 745.64 -30.8051 744.943C-31.4886 744.25 -32.5754 742.907 -33.3786 742.066C-51.9825 722.719 -68.624 701.471 -82.9785 678.641C-83.5959 677.658 -84.374 677.264 -84.7803 677.711C-85.1867 678.159 -85.0544 679.284 -84.437 680.268C-75.3776 694.622 -65.4204 708.365 -54.6411 721.395C-53.904 722.29 -52.4991 723.522 -51.677 724.342C-51.2234 724.796 -50.8076 725.288 -50.439 725.811C-49.7681 726.756 -48.7758 728.348 -48.0135 729.224Z" fill="#00343D"/>
<path opacity="0.3" fill-rule="evenodd" clip-rule="evenodd" d="M459.237 138.326C459.328 137.699 458.673 136.697 457.687 136.082C448.486 130.308 439.033 124.896 429.346 119.884C428.313 119.348 427.063 119.008 426.546 119.058C426.237 119.093 425.926 119.112 425.607 119.112C422.536 119.112 419.808 117.69 418.013 115.481C417.282 114.579 416.016 113.322 414.964 112.83C372.946 93.2214 326.93 80.8215 278.496 77.2156C277.343 77.1305 276.266 77.5497 276.033 78.1171C275.8 78.6844 276.493 79.1824 277.652 79.2675C343.323 84.0333 404.562 105.057 457.347 138.342C458.33 138.963 459.142 138.954 459.237 138.326Z" fill="#00343D"/>
<path opacity="0.3" fill-rule="evenodd" clip-rule="evenodd" d="M82.5348 115.388C133.095 91.5495 189.531 78.2039 249.028 78.2039C250.666 78.2039 252.304 78.226 253.936 78.2544C255.095 78.2764 255.835 77.8352 255.649 77.252C255.467 76.6658 254.433 76.1615 253.271 76.1425C251.86 76.1205 250.449 76.1016 249.028 76.1016C190.441 76.1016 133.811 88.8041 82.2765 112.895C81.2244 113.386 80.4999 114.345 80.5724 115.035C80.6448 115.728 81.4827 115.883 82.5348 115.388Z" fill="#00343D"/>
<path opacity="0.3" fill-rule="evenodd" clip-rule="evenodd" d="M607.939 310.456C608.399 310.052 608.424 308.918 607.948 307.862C579.22 244.582 534.273 190.176 478.439 150.016C477.498 149.339 476.31 149.105 475.756 149.43C475.204 149.755 475.497 150.508 476.442 151.183C532.506 191.301 577.598 245.824 606.295 309.305C606.767 310.364 607.479 310.859 607.939 310.456Z" fill="#00343D"/>
<path fill-rule="evenodd" clip-rule="evenodd" d="M454.755 804.041C411.937 830.581 363.663 849.105 312.028 857.493C310.882 857.676 310.305 858.212 310.677 858.741C311.052 859.267 312.233 859.579 313.379 859.39C365.981 850.71 415.106 831.571 458.535 804.177C459.517 803.559 459.971 803.112 459.552 803.159C459.303 803.187 459.048 803.2 458.79 803.2C458.409 803.2 458.031 803.178 457.662 803.13C457.038 803.052 455.741 803.43 454.755 804.041Z" fill="#00343D"/>
<path fill-rule="evenodd" clip-rule="evenodd" d="M505.739 766.461C494.475 776.254 482.659 785.423 470.324 793.899C469.366 794.557 468.453 795.916 468.071 796.868C467.693 797.823 468.015 797.996 468.975 797.35C482.341 788.316 495.127 778.479 507.257 767.923C508.136 767.163 508.467 766.246 508.048 765.843C507.629 765.436 506.612 765.701 505.739 766.461Z" fill="#00343D"/>
<path opacity="0.3" fill-rule="evenodd" clip-rule="evenodd" d="M614.621 329.136C627.491 362.395 635.943 397.836 639.282 434.727C639.386 435.887 639.77 436.637 640.17 436.445C640.567 436.253 640.986 435.809 641.121 435.43C641.257 435.049 641.307 433.81 641.2 432.657C637.742 396.456 629.397 361.664 616.8 328.965C616.381 327.881 615.61 327.099 615.077 327.156C614.753 327.188 614.425 327.204 614.098 327.204C614.054 327.204 614.016 327.2 613.978 327.194C613.909 327.185 614.202 328.055 614.621 329.136Z" fill="#00343D"/>
<path fill-rule="evenodd" clip-rule="evenodd" d="M598.59 647.55C579.842 684.45 555.435 718.009 526.506 747.058C525.69 747.884 525.365 748.871 525.75 749.305C526.134 749.744 527.079 749.463 527.898 748.64C556.308 720.128 580.402 687.309 599.082 651.241C599.614 650.213 599.8 648.628 599.655 647.67C599.573 647.102 599.526 646.522 599.526 645.926C599.526 645.885 599.529 645.841 599.529 645.797C599.535 645.728 599.116 646.513 598.59 647.55Z" fill="#00343D"/>
<path opacity="0.3" fill-rule="evenodd" clip-rule="evenodd" d="M-21.1705 186.557C-0.632549 166.977 22.0191 149.603 46.4033 134.811C47.3955 134.206 48.1956 133.626 48.1798 133.506C48.1672 133.433 48.1609 133.364 48.1609 133.291C48.1609 132.86 48.1956 132.44 48.2523 132.027C48.35 131.331 47.6947 131.262 46.6962 131.857C21.871 146.763 -1.4484 164.534 -22.8621 184.978C-23.7031 185.778 -23.9646 186.752 -23.4984 187.187C-23.0322 187.625 -22.0116 187.358 -21.1705 186.557Z" fill="#00343D"/>
<path opacity="0.3" fill-rule="evenodd" clip-rule="evenodd" d="M604.715 634.945C604.227 635.998 604.466 636.297 605.352 635.771C606.243 635.241 607.427 634.091 607.909 633.032C630.444 583.426 643.019 528.373 643.019 470.43C643.019 466.433 642.94 462.459 642.818 458.493C642.78 457.33 642.254 456.3 641.662 456.117C641.076 455.937 640.654 456.675 640.691 457.835C640.83 462.017 640.921 466.209 640.921 470.43C640.921 529.152 627.931 584.882 604.715 634.945Z" fill="#00343D"/>
<path fill-rule="evenodd" clip-rule="evenodd" d="M66.8097 777.8C66.3309 778.194 66.7183 778.951 67.7169 779.54C114.444 807.073 167.915 824.302 225.012 828.1C226.168 828.179 227.346 827.75 227.709 827.186C228.064 826.625 227.469 826.155 226.31 826.079C169.393 822.483 116.069 805.447 69.4651 778.125C68.4603 777.536 67.2916 777.413 66.8097 777.8Z" fill="#00343D"/>
<path opacity="0.35" fill-rule="evenodd" clip-rule="evenodd" d="M588.894 577.058C588.548 578.17 588.283 580.011 588.078 581.155C587.883 582.271 587.527 583.318 587.045 584.288C586.525 585.325 585.634 586.964 585.25 588.058C574.977 617.369 560.979 644.93 543.827 670.193C543.172 671.154 542.86 671.901 543.131 671.866C543.288 671.848 543.452 671.829 543.619 671.829C543.881 671.829 544.139 671.851 544.391 671.879C544.816 671.926 545.689 671.208 546.338 670.243C584.812 613.11 607.303 544.353 607.303 470.429C607.303 444.034 604.42 418.298 598.984 393.514C598.732 392.379 598.136 391.787 597.62 392.13C597.097 392.474 596.851 393.628 597.1 394.765C602.392 419.156 605.198 444.469 605.198 470.429C605.198 507.559 599.472 543.376 588.894 577.058Z" fill="#00343D"/>
<path opacity="0.35" fill-rule="evenodd" clip-rule="evenodd" d="M279.85 114.595C280.467 114.473 281.107 114.406 281.762 114.406C283.025 114.406 284.231 114.643 285.343 115.068C286.43 115.481 288.153 116.108 289.306 116.238C342.403 122.249 391.996 139.994 435.438 166.808C436.424 167.417 437.132 167.473 437.073 166.919C437.038 166.584 437.019 166.247 437.019 165.904C437.019 165.812 437.029 165.718 437.044 165.623C437.066 165.472 436.276 164.848 435.287 164.243C382.767 132.124 321.392 113.158 255.755 111.945C254.59 111.923 254.017 112.345 254.388 112.928C254.77 113.514 255.944 114.044 257.104 114.072C263.413 114.211 269.685 114.51 275.906 114.98C277.065 115.062 278.807 114.8 279.85 114.595Z" fill="#00343D"/>
<path opacity="0.35" fill-rule="evenodd" clip-rule="evenodd" d="M592.463 371.869C593.086 371.929 593.323 371.128 592.998 370.013C569.855 290.727 520.013 222.739 453.929 176.458C452.978 175.793 451.686 175.525 451.018 175.774C450.347 176.02 450.552 176.666 451.51 177.325C517.587 223.196 567.483 290.838 590.74 369.801C591.07 370.917 591.836 371.812 592.463 371.869Z" fill="#00343D"/>
<path fill-rule="evenodd" clip-rule="evenodd" d="M248.102 826.813C247.592 826.804 247.497 827.245 247.825 827.828C248.152 828.415 248.508 828.916 248.691 828.919C248.808 828.922 248.918 828.925 249.028 828.925C364.608 828.925 467.563 773.863 533.117 688.595C533.826 687.675 534.128 686.443 533.883 685.806C533.637 685.166 532.944 685.374 532.245 686.298C467.109 771.65 364.391 826.82 249.028 826.82C248.719 826.82 248.411 826.817 248.102 826.813Z" fill="#00343D"/>
<path opacity="0.35" fill-rule="evenodd" clip-rule="evenodd" d="M236.379 113.107C236.751 112.515 236.168 112.102 235.006 112.146C158.782 115.096 88.597 141.979 31.7489 185.49C30.8291 186.192 30.4228 187.103 30.7882 187.554C31.1536 188.005 32.1521 187.828 33.0719 187.122C89.227 144.161 158.47 117.517 233.68 114.311C234.839 114.264 236.008 113.703 236.379 113.107Z" fill="#00343D"/>
<path opacity="0.35" fill-rule="evenodd" clip-rule="evenodd" d="M46.9808 765.085C47.1478 764.495 46.5556 763.493 45.6043 762.828C-25.3022 713.31 -77.4473 638.68 -97.8089 551.925C-98.0767 550.796 -98.5964 550.409 -99.0532 551.004C-99.5099 551.603 -99.7367 552.94 -99.4658 554.068C-78.6506 640.871 -26.1779 715.482 44.9995 764.977C45.9539 765.639 46.8107 765.674 46.9808 765.085Z" fill="#00343D"/>
<path opacity="0.35" fill-rule="evenodd" clip-rule="evenodd" d="M-54.8405 284.546C-36.1579 254.076 -13.0243 226.619 13.6499 203.076C14.5193 202.307 14.8847 201.368 14.5067 200.927C14.1287 200.486 13.1522 200.712 12.2828 201.478C4.64093 208.227 -2.71117 215.29 -9.75457 222.653C-10.5578 223.489 -11.3296 225.118 -11.7233 226.209C-12.7219 228.98 -14.7977 231.23 -17.4563 232.478C-18.5053 232.976 -20.0551 233.897 -20.8174 234.77C-34.4096 250.334 -46.682 267.071 -57.4582 284.823C-58.0598 285.816 -58.0157 286.491 -57.3574 286.403C-56.9636 286.352 -56.5636 286.321 -56.1541 286.321C-56.1163 286.321 -56.0816 286.324 -56.0438 286.333C-55.984 286.339 -55.4485 285.536 -54.8405 284.546Z" fill="#00343D"/>
<path opacity="0.4" fill-rule="evenodd" clip-rule="evenodd" d="M563.898 390.804C564.461 390.659 564.701 389.666 564.405 388.544C564.392 388.503 564.383 388.462 564.37 388.421C564.08 387.296 563.463 386.735 562.959 387.097C562.455 387.46 562.215 388.465 562.458 389.405C562.701 390.344 563.337 390.952 563.898 390.804Z" fill="#00343D"/>
<path opacity="0.4" fill-rule="evenodd" clip-rule="evenodd" d="M568.026 531.219C568.656 531.02 569.358 529.977 569.563 528.833C571.119 520.269 572.338 511.591 573.208 502.807C573.321 501.65 572.94 500.909 572.341 501.073C571.743 501.231 571.157 502.249 571.037 503.405C570.143 512.237 568.886 520.965 567.289 529.573C567.081 530.714 567.393 531.423 568.026 531.219Z" fill="#00343D"/>
<path fill-rule="evenodd" clip-rule="evenodd" d="M60.5308 733.626C20.1824 704.625 -13.2391 666.574 -36.7727 622.468C-37.3208 621.444 -38.228 620.76 -38.8265 620.876C-39.425 620.987 -39.4849 621.853 -38.9399 622.878C-14.8865 668.166 19.5272 707.143 61.1261 736.611C62.0743 737.282 62.6066 737.178 62.4397 736.353C62.2728 735.53 61.4726 734.304 60.5308 733.626Z" fill="#00343D"/>
<path opacity="0.4" fill-rule="evenodd" clip-rule="evenodd" d="M561.716 554.276C524.701 692.362 398.546 794.326 249.029 794.326C223.394 794.326 198.449 791.309 174.515 785.645C173.388 785.377 171.992 785.576 171.346 786.014C170.701 786.458 171.05 786.975 172.178 787.25C196.833 793.238 222.565 796.428 249.029 796.428C399.129 796.428 525.825 694.332 563.449 555.9C563.751 554.774 563.569 553.542 563.087 553.094C562.605 552.644 562.019 553.154 561.716 554.276Z" fill="#00343D"/>
<path fill-rule="evenodd" clip-rule="evenodd" d="M75.6443 745.188C74.7907 745.339 74.8789 745.866 75.8617 746.483C98.926 761.014 123.924 772.736 150.381 781.162C151.487 781.511 152.054 781.247 151.729 780.534C151.405 779.816 150.325 778.924 149.219 778.564C124.346 770.483 100.788 759.463 78.9487 745.913C77.9627 745.304 76.498 745.033 75.6443 745.188Z" fill="#00343D"/>
<path opacity="0.4" fill-rule="evenodd" clip-rule="evenodd" d="M158.418 159.394C176.086 154.228 194.372 150.524 213.139 148.444C214.292 148.315 214.299 148.041 213.212 147.631C213.114 147.593 213.017 147.555 212.919 147.514C211.845 147.079 210.106 146.692 208.953 146.833C191.03 149.04 173.55 152.712 156.641 157.72C155.526 158.051 155.069 158.65 155.561 159.11C156.052 159.571 157.306 159.719 158.418 159.394Z" fill="#00343D"/>
<path opacity="0.4" fill-rule="evenodd" clip-rule="evenodd" d="M135.838 165.744C135.938 165.082 135.201 164.887 134.118 165.297C129.065 167.21 124.079 169.249 119.149 171.399C118.084 171.866 116.474 172.827 115.448 173.363C115.041 173.571 114.622 173.763 114.194 173.933C113.113 174.356 111.334 174.939 110.285 175.434C30.5519 213.131 -31.5346 282.255 -59.9287 366.741C-60.2972 367.841 -60.0673 368.547 -59.4026 368.389C-58.7411 368.228 -57.8938 367.261 -57.5221 366.157C-26.4631 274.983 44.1473 201.977 133.749 167.699C134.833 167.283 135.734 166.406 135.838 165.744Z" fill="#00343D"/>
<path opacity="0.4" fill-rule="evenodd" clip-rule="evenodd" d="M424.522 198.337C425.502 198.971 426.444 199.04 426.693 198.511C426.948 197.978 426.409 197.051 425.433 196.421C374.56 163.498 313.989 144.353 249.029 144.353C242.367 144.353 235.755 144.574 229.188 144.977C228.032 145.046 226.39 145.746 225.414 146.377C225.332 146.427 225.247 146.481 225.162 146.531C224.173 147.136 224.229 147.407 225.386 147.322C233.194 146.755 241.079 146.459 249.029 146.459C313.671 146.459 373.927 165.538 424.522 198.337Z" fill="#00343D"/>
<path opacity="0.4" fill-rule="evenodd" clip-rule="evenodd" d="M447.123 214.397C464.675 228.036 480.797 243.437 495.22 260.341C495.973 261.22 496.663 261.929 496.758 261.898C496.858 261.873 497.114 261.475 497.372 261.021C497.627 260.564 497.262 259.493 496.506 258.613C482.145 241.826 466.111 226.52 448.67 212.941C447.753 212.226 446.695 212.014 446.266 212.418C445.835 212.821 446.2 213.685 447.123 214.397Z" fill="#00343D"/>
<path opacity="0.4" fill-rule="evenodd" clip-rule="evenodd" d="M512.482 282.428C530.793 308.057 545.466 336.453 555.741 366.867C556.119 367.967 556.532 368.846 556.686 368.824C556.778 368.815 556.869 368.802 556.96 368.802C557.25 368.802 557.534 368.821 557.814 368.849C558.283 368.903 558.365 368.08 557.997 366.98C547.58 335.889 532.605 306.881 513.859 280.742C513.182 279.802 512.46 279.1 512.249 279.178C512.038 279.254 511.755 279.629 511.582 280.023C511.408 280.414 511.805 281.482 512.482 282.428Z" fill="#00343D"/>
<path opacity="0.4" fill-rule="evenodd" clip-rule="evenodd" d="M571.785 438.118C572.276 439.495 572.544 440.977 572.544 442.515C572.544 443.243 572.484 443.958 572.367 444.652C572.169 445.799 571.92 447.624 571.999 448.784C572.475 455.939 572.723 463.154 572.723 470.429C572.723 473.237 572.676 476.033 572.601 478.823C572.566 479.983 573.023 481.064 573.593 481.306C574.169 481.549 574.639 480.862 574.673 479.696C574.765 476.616 574.828 473.53 574.828 470.429C574.828 452.734 573.388 435.366 570.663 418.424C570.474 417.28 569.86 416.457 569.287 416.539C568.704 416.618 568.392 417.573 568.578 418.72C569.403 423.814 570.112 428.946 570.689 434.115C570.821 435.268 571.391 437.024 571.785 438.118Z" fill="#00343D"/>
<path opacity="0.5" fill-rule="evenodd" clip-rule="evenodd" d="M484.747 646.322C484.054 647.255 483.85 647.948 484.297 647.91C484.568 647.888 484.842 647.876 485.116 647.876C485.299 647.876 485.472 647.882 485.648 647.891C485.948 647.907 486.751 647.176 487.441 646.243C523.788 597.021 545.303 536.191 545.303 470.428C545.303 374.201 499.263 288.53 428.073 234.322C427.153 233.619 425.883 233.304 425.216 233.54C424.545 233.77 424.737 234.445 425.663 235.141C496.991 288.917 543.205 374.368 543.205 470.428C543.205 536.324 521.439 597.214 484.747 646.322Z" fill="#00343D"/>
<path opacity="0.5" fill-rule="evenodd" clip-rule="evenodd" d="M-42.9994 434.453C-30.4687 332.014 34.834 245.668 124.807 203.567C125.856 203.072 127.479 202.123 128.524 201.619C128.751 201.508 128.987 201.404 129.224 201.307C130.298 200.865 132.084 200.285 133.149 199.825C168.731 184.51 207.904 176.006 249.031 176.006C283.495 176.006 316.586 181.972 347.339 192.926C348.435 193.313 349.522 193.197 349.818 192.683C350.111 192.172 349.506 191.457 348.413 191.069C317.335 179.958 283.876 173.903 249.031 173.903C97.8213 173.903 -27.2777 287.819 -45.1067 434.384C-45.2485 435.534 -45.2138 436.464 -45.0343 436.455C-44.9272 436.448 -44.8201 436.442 -44.7098 436.442C-44.4641 436.442 -44.2216 436.452 -43.979 436.471C-43.5758 436.499 -43.1411 435.607 -42.9994 434.453Z" fill="#00343D"/>
<path fill-rule="evenodd" clip-rule="evenodd" d="M429.094 703.836C429.109 704.079 429.122 704.328 429.122 704.577C429.122 704.766 429.116 704.952 429.103 705.138C429.09 705.453 429.809 705.135 430.725 704.422C445.921 692.577 459.941 679.295 472.57 664.767C473.332 663.894 473.745 662.611 473.594 661.889C473.439 661.174 472.787 661.294 472.028 662.173C459.557 676.672 445.703 689.955 430.672 701.8C429.764 702.515 429.059 703.423 429.094 703.836Z" fill="#00343D"/>
<path fill-rule="evenodd" clip-rule="evenodd" d="M407.059 718.593C378.62 736.789 346.862 750.22 312.915 757.778C311.781 758.027 310.436 758.942 309.743 759.685C309.056 760.429 309.305 760.722 310.436 760.483C346.604 752.823 380.35 738.532 410.357 718.955C411.327 718.325 411.973 717.817 411.796 717.836C411.692 717.846 411.585 717.852 411.478 717.852C411.021 717.852 410.574 717.811 410.139 717.742C409.405 717.628 408.038 717.969 407.059 718.593Z" fill="#00343D"/>
<path opacity="0.5" fill-rule="evenodd" clip-rule="evenodd" d="M410.258 223.616C410.239 223.373 410.23 223.134 410.23 222.888C410.23 222.705 410.233 222.522 410.242 222.343C410.258 222.04 409.502 221.277 408.523 220.65C398.175 214.009 387.386 207.998 376.213 202.665C375.17 202.161 374.228 202.233 374.052 202.794C373.882 203.355 374.556 204.197 375.602 204.698C387.017 210.167 398.027 216.351 408.576 223.191C409.546 223.824 410.29 224.02 410.258 223.616Z" fill="#00343D"/>
<path opacity="0.5" fill-rule="evenodd" clip-rule="evenodd" d="M165.77 753.034C165.78 752.886 164.885 752.504 163.773 752.17C65.3513 722.302 -11.4047 642.131 -36.4661 541.702C-36.7496 540.577 -37.4773 539.625 -38.101 539.521C-38.7247 539.42 -39.005 540.208 -38.7247 541.334C-13.657 643.133 64.1165 724.401 163.871 754.399C164.983 754.733 165.833 754.619 165.795 754.15C165.773 753.869 165.761 753.585 165.761 753.296C165.761 753.207 165.767 753.119 165.77 753.034Z" fill="#00343D"/>
<path fill-rule="evenodd" clip-rule="evenodd" d="M192.353 759.301C191.212 759.08 190.069 759.345 189.744 759.871C189.42 760.398 190.037 760.987 191.174 761.211C209.892 764.936 229.236 766.888 249.03 766.888C265.713 766.888 282.071 765.491 298.007 762.825C299.153 762.636 299.276 762.273 298.363 761.838C297.449 761.394 295.871 761.037 294.724 761.214C279.828 763.556 264.569 764.785 249.03 764.785C229.645 764.785 210.698 762.897 192.353 759.301Z" fill="#00343D"/>
<path opacity="0.6" fill-rule="evenodd" clip-rule="evenodd" d="M508.812 533.613C508.538 534.742 508.374 536.031 508.431 536.501C508.463 536.778 508.485 537.058 508.485 537.348C508.485 539.196 508.006 540.917 507.184 542.439C506.636 543.46 505.766 545.09 505.435 546.202C472.704 656.916 370.146 737.929 249.029 737.929C247.923 737.929 246.817 737.916 245.715 737.903C244.556 737.884 243.803 738.319 243.979 738.903C244.156 739.483 245.192 739.993 246.354 740.006C247.243 740.022 248.137 740.031 249.029 740.031C397.595 740.031 518.464 619.089 518.464 470.429C518.464 463.743 518.209 457.114 517.727 450.552C517.642 449.392 517.16 448.844 516.612 449.269C516.064 449.692 515.664 450.927 515.739 452.087C516.152 458.148 516.363 464.266 516.363 470.429C516.363 492.187 513.739 513.346 508.812 533.613Z" fill="#00343D"/>
<path fill-rule="evenodd" clip-rule="evenodd" d="M29.6431 625.074C28.9974 625.165 29.01 625.937 29.6841 626.883C50.1937 655.579 76.1812 680.095 106.106 698.9C107.089 699.514 108.028 699.552 108.258 699.01C108.488 698.468 107.914 697.551 106.932 696.936C77.6712 678.494 52.2129 654.557 32.0277 626.561C31.3473 625.616 30.2889 624.985 29.6431 625.074Z" fill="#00343D"/>
<path opacity="0.6" fill-rule="evenodd" clip-rule="evenodd" d="M58.5592 282.817C59.3751 281.989 59.7027 280.992 59.331 280.545C58.953 280.097 58.0174 280.378 57.2016 281.207C9.1987 329.921 -20.4648 396.775 -20.4648 470.427C-20.4648 520.787 -6.59539 567.962 17.5273 608.333C18.1195 609.329 18.8314 609.641 19.1842 609.09C19.5307 608.538 19.3795 607.315 18.7873 606.316C-4.80304 566.468 -18.3638 520.005 -18.3638 470.427C-18.3638 397.414 11.0131 331.144 58.5592 282.817Z" fill="#00343D"/>
<path fill-rule="evenodd" clip-rule="evenodd" d="M129.582 710.895C129.223 711.364 129.739 712.14 130.782 712.65C157.727 725.867 187.177 734.724 218.22 738.273C219.373 738.405 220.463 738.03 220.705 737.475C220.951 736.917 220.258 736.388 219.102 736.259C188.21 732.804 158.896 724.048 132.077 710.942C131.034 710.434 129.941 710.422 129.582 710.895Z" fill="#00343D"/>
<path opacity="0.6" fill-rule="evenodd" clip-rule="evenodd" d="M78.982 262.733C79.4041 263.136 80.4468 262.894 81.3508 262.165C127.246 225.092 185.591 202.864 249.028 202.864C257.729 202.864 266.338 203.289 274.827 204.109C275.98 204.222 276.824 203.847 276.761 203.252C276.701 202.662 275.763 202.079 274.606 201.972C266.19 201.174 257.653 200.761 249.028 200.761C212.208 200.761 177.095 208.2 145.094 221.634C144.023 222.085 142.473 223.112 141.503 223.752C140.344 224.515 139.049 225.104 137.67 225.476C136.548 225.773 134.75 226.245 133.701 226.746C114.366 235.941 96.2913 247.367 79.8136 260.7C78.9127 261.431 78.5599 262.326 78.982 262.733Z" fill="#00343D"/>
<path opacity="0.6" fill-rule="evenodd" clip-rule="evenodd" d="M491.626 355.615C492.155 355.376 492.202 354.373 491.695 353.327C455.685 278.874 386.457 223.402 303.401 206.299C302.267 206.066 301.193 206.343 300.957 206.889C300.717 207.437 301.407 208.039 302.547 208.272C385.128 225.135 453.98 280.22 489.78 354.197C490.287 355.24 491.097 355.855 491.626 355.615Z" fill="#00343D"/>
<path opacity="0.6" fill-rule="evenodd" clip-rule="evenodd" d="M508.514 401.704C509.131 401.763 509.39 400.95 509.084 399.828C507.159 392.736 504.957 385.764 502.485 378.918C502.088 377.824 501.335 377.146 500.79 377.345C500.245 377.547 500.116 378.549 500.51 379.643C502.875 386.186 504.986 392.843 506.838 399.611C507.147 400.73 507.896 401.644 508.514 401.704Z" fill="#00343D"/>
<path opacity="0.7" fill-rule="evenodd" clip-rule="evenodd" d="M34.5499 356.263C35.0507 355.321 35.5579 354.384 36.0745 353.451C36.6352 352.433 36.5029 351.86 35.7374 352.027C34.972 352.197 33.8821 353.07 33.3245 354.088C32.9024 354.87 32.4803 355.655 32.0645 356.443C31.5227 357.467 31.57 358.205 32.1685 358.145C32.5276 358.107 32.893 358.088 33.2615 358.088C33.3119 358.088 33.3655 358.097 33.4127 358.101C33.4978 358.116 34.0018 357.287 34.5499 356.263Z" fill="#00343D"/>
<path fill-rule="evenodd" clip-rule="evenodd" d="M300.386 708.038C283.827 711.622 266.647 713.519 249.029 713.519C203.606 713.519 161.059 700.98 124.648 679.191C123.656 678.595 122.525 678.469 122.074 678.876C121.624 679.276 122.021 680.054 123.013 680.653C159.862 702.846 202.982 715.621 249.029 715.621C266.653 715.621 283.846 713.733 300.424 710.184C301.558 709.938 302.44 709.431 302.418 709.056C302.409 708.835 302.399 708.611 302.399 708.381C302.399 708.249 302.409 708.113 302.415 707.978C302.424 707.76 301.52 707.792 300.386 708.038Z" fill="#00343D"/>
<path fill-rule="evenodd" clip-rule="evenodd" d="M76.7086 643.151C76.2204 643.489 76.4566 644.381 77.2851 645.191C85.2325 653.011 93.7155 660.279 102.665 666.968C103.597 667.658 104.473 667.74 104.684 667.17C104.892 666.605 104.356 665.609 103.43 664.913C94.8463 658.467 86.7004 651.476 79.0522 643.977C78.2206 643.161 77.1937 642.814 76.7086 643.151Z" fill="#00343D"/>
<path opacity="0.7" fill-rule="evenodd" clip-rule="evenodd" d="M226.538 227.898C226.024 227.784 225.524 227.639 225.042 227.457C223.952 227.053 222.213 226.647 221.06 226.779C194.411 229.821 169.047 237.158 145.674 248.08C144.625 248.572 143.513 249.757 143.031 250.639C142.549 251.522 142.88 251.749 143.926 251.245C169.334 238.996 197.183 231.044 226.528 228.336C227.685 228.229 227.672 228.147 226.538 227.898Z" fill="#00343D"/>
<path fill-rule="evenodd" clip-rule="evenodd" d="M325.879 702.141C326.178 702.651 327.274 702.793 328.377 702.418C331.221 701.441 334.05 700.423 336.844 699.342C337.927 698.926 338.293 698.317 337.716 697.92C337.137 697.517 335.848 697.466 334.758 697.876C332.286 698.812 329.794 699.71 327.28 700.568C326.187 700.943 325.573 701.63 325.879 702.141Z" fill="#00343D"/>
<path opacity="0.7" fill-rule="evenodd" clip-rule="evenodd" d="M80.7878 293.602C80.8508 293.422 80.917 293.242 80.9863 293.066C81.4147 291.985 81.2477 291.834 80.4035 292.634C66.5341 305.813 54.1924 320.58 43.6934 336.661C43.0571 337.632 42.8177 339.025 43.0099 339.81C43.202 340.592 43.7659 340.453 44.3927 339.473C54.2617 324.085 65.8159 309.879 78.7907 297.113C79.616 296.3 80.4161 294.702 80.7878 293.602Z" fill="#00343D"/>
<path opacity="0.7" fill-rule="evenodd" clip-rule="evenodd" d="M132.806 256.825C132.721 256.831 132.636 256.834 132.548 256.834C132.018 256.834 131.499 256.799 130.988 256.727C130.128 256.61 128.632 256.881 127.624 257.458C113.559 265.518 100.367 274.93 88.224 285.517C87.3483 286.28 87.4837 286.463 88.5957 286.135C88.791 286.075 88.9863 286.025 89.1847 285.977C90.3156 285.703 91.9756 285.051 92.8639 284.304C104.739 274.309 117.576 265.426 131.221 257.824C132.233 257.259 132.945 256.815 132.806 256.825Z" fill="#00343D"/>
<path opacity="0.7" fill-rule="evenodd" clip-rule="evenodd" d="M491.18 489.895C484.209 577.507 430.624 652.169 355.308 688.99C354.265 689.498 353.424 690.472 353.314 691.162C353.21 691.849 353.909 691.994 354.952 691.49C397.256 671.112 432.855 638.943 457.45 599.253C458.058 598.266 458.622 596.511 458.949 595.398C459.459 593.655 460.379 592.092 461.601 590.815C462.411 589.977 463.655 588.624 464.207 587.603C480.287 558.157 490.506 525.08 493.284 489.932C493.376 488.772 493.253 487.855 493.013 487.884C492.875 487.903 492.73 487.921 492.582 487.921C492.371 487.921 492.163 487.899 491.958 487.877C491.618 487.836 491.271 488.738 491.18 489.895Z" fill="#00343D"/>
<path opacity="0.7" fill-rule="evenodd" clip-rule="evenodd" d="M21.3606 555.366C11.4633 528.912 6.03904 500.295 6.03904 470.43C6.03904 437.762 12.5123 406.583 24.2429 378.098C24.6839 377.023 24.6776 375.747 24.287 375.186C23.8932 374.625 23.2632 375 22.8128 376.072C10.6632 405.13 3.93799 437.006 3.93799 470.43C3.93799 500.89 9.53239 530.068 19.7226 557.002C20.1353 558.086 20.7968 558.556 21.2472 558.105C21.6977 557.655 21.767 556.454 21.3606 555.366Z" fill="#00343D"/>
<path opacity="0.7" fill-rule="evenodd" clip-rule="evenodd" d="M29.503 576.128C29.273 576.157 29.0431 576.175 28.81 576.175C28.6525 576.175 28.4981 576.16 28.3438 576.138C28.0886 576.106 28.2902 576.935 28.8005 577.978C37.4851 595.696 48.2518 612.219 60.7667 627.231C61.5101 628.127 62.3701 628.426 62.7292 627.953C63.0914 627.48 62.8205 626.412 62.0771 625.523C50.0032 610.986 39.5798 595.021 31.1158 577.925C30.6023 576.885 29.8841 576.084 29.503 576.128Z" fill="#00343D"/>
<path opacity="0.7" fill-rule="evenodd" clip-rule="evenodd" d="M301.266 232.952C302.4 233.201 303.783 232.987 304.407 232.536C305.03 232.085 304.662 231.569 303.534 231.31C285.998 227.307 267.756 225.183 249.03 225.183C245.416 225.183 241.819 225.265 238.244 225.419C237.085 225.473 235.431 226.147 234.423 226.724C234.045 226.941 233.654 227.137 233.251 227.31C232.183 227.764 232.186 227.871 233.346 227.799C238.531 227.462 243.763 227.288 249.03 227.288C266.956 227.288 284.439 229.246 301.266 232.952Z" fill="#00343D"/>
<path opacity="0.7" fill-rule="evenodd" clip-rule="evenodd" d="M493.312 467.909C493.715 467.956 494.03 467.067 494.008 465.904C493.986 464.536 493.948 463.165 493.901 461.8C493.863 460.641 493.306 459.465 492.707 459.106C492.112 458.743 491.712 459.336 491.759 460.496C491.825 462.267 491.872 464.045 491.904 465.826C491.926 466.989 492.077 467.915 492.257 467.89C492.364 467.874 492.471 467.862 492.584 467.862C492.83 467.862 493.072 467.881 493.312 467.909Z" fill="#00343D"/>
<path opacity="0.7" fill-rule="evenodd" clip-rule="evenodd" d="M413.602 290.906C413.857 290.877 414.118 290.858 414.389 290.858C414.641 290.858 414.893 290.877 415.142 290.906C415.555 290.95 415.202 290.367 414.348 289.582C388.903 266.266 358.549 248.24 325.03 237.268C323.924 236.909 323.345 237.164 323.641 237.87C323.934 238.579 324.998 239.474 326.098 239.843C357.916 250.522 386.817 267.619 411.258 289.604C412.121 290.379 413.164 290.956 413.602 290.906Z" fill="#00343D"/>
<path opacity="0.7" fill-rule="evenodd" clip-rule="evenodd" d="M424.408 301.575C424.364 301.954 424.966 302.937 425.763 303.782C460.029 340.162 483.232 387.086 489.941 439.106C490.092 440.26 490.59 440.77 491.119 440.295C491.645 439.819 492.007 438.561 491.85 437.407C484.737 384.731 460.838 337.316 425.747 300.727C424.944 299.889 424.355 299.586 424.405 300.053C424.44 300.327 424.453 300.608 424.453 300.891C424.453 301.121 424.44 301.352 424.408 301.575Z" fill="#00343D"/>
<path fill-rule="evenodd" clip-rule="evenodd" d="M118.076 649.434C117.968 650.077 118.586 651.145 119.528 651.82C145.191 670.205 174.889 683.293 207.022 689.445C208.162 689.669 208.906 689.348 208.761 688.727C208.616 688.106 207.633 687.422 206.49 687.198C174.668 680.957 145.276 667.86 119.912 649.503C118.973 648.829 118.183 648.794 118.076 649.434Z" fill="#00343D"/>
<path opacity="0.8" fill-rule="evenodd" clip-rule="evenodd" d="M60.1251 585.258C59.8007 584.801 59.5109 584.318 59.2526 583.817C58.7202 582.787 57.98 581.062 57.4035 580.057C38.8532 547.733 28.2251 510.3 28.2251 470.428C28.2251 464.543 28.4708 458.718 28.9275 452.943C29.0189 451.787 28.6283 450.756 28.0613 450.576C27.4943 450.397 26.9651 451.14 26.8706 452.297C26.3855 458.277 26.124 464.322 26.124 470.428C26.124 535.132 53.8157 593.478 97.9566 634.249C98.8103 635.04 99.9978 635.444 100.622 635.223C101.245 634.996 101.069 634.243 100.212 633.458C85.7913 620.273 73.122 605.2 62.5947 588.646C61.971 587.666 60.7929 586.21 60.1251 585.258Z" fill="#00343D"/>
<path fill-rule="evenodd" clip-rule="evenodd" d="M250.143 691.309C249.771 691.318 249.403 691.321 249.028 691.321C248.911 691.321 248.792 691.321 248.675 691.318C248.477 691.315 235.656 690.911 234.5 690.839C233.467 690.77 232.434 690.694 231.404 690.609C230.251 690.514 229.114 690.911 228.792 691.466C228.474 692.024 229.101 692.532 230.26 692.629C236.45 693.153 242.706 693.427 249.028 693.427C249.875 693.427 250.713 693.417 251.551 693.408C252.713 693.389 253.06 692.976 252.395 692.405C251.728 691.829 250.757 691.299 250.143 691.309Z" fill="#00343D"/>
<path opacity="0.8" fill-rule="evenodd" clip-rule="evenodd" d="M231.357 249.234C230.696 249.877 231.014 250.227 232.173 250.139C237.739 249.71 243.355 249.486 249.029 249.486C266.741 249.486 283.965 251.595 300.478 255.557C301.612 255.828 302.134 255.551 301.766 254.863C301.388 254.17 300.27 253.341 299.139 253.083C283.023 249.366 266.256 247.381 249.029 247.381C244.171 247.381 239.352 247.541 234.57 247.853C233.411 247.929 232.022 248.597 231.357 249.234Z" fill="#00343D"/>
<path opacity="0.8" fill-rule="evenodd" clip-rule="evenodd" d="M35.7232 413.247C58.2079 329.344 128.947 265.005 216.215 251.937C217.365 251.764 217.598 251.351 216.807 250.875C216.013 250.399 214.505 250.052 213.358 250.238C172.165 256.895 134.721 274.89 104.324 300.91C103.445 301.663 102.346 303.148 101.668 304.09C100.705 305.427 99.4635 306.555 98.0271 307.393C97.0254 307.98 95.4409 308.932 94.6062 309.738C66.0136 337.259 44.7228 372.324 33.975 411.699C33.6694 412.821 33.871 414.022 34.3561 414.454C34.8381 414.886 35.4208 414.369 35.7232 413.247Z" fill="#00343D"/>
<path opacity="0.8" fill-rule="evenodd" clip-rule="evenodd" d="M442.136 577.36C441.576 578.375 440.889 580.118 440.407 581.177C440.082 581.886 439.689 582.554 439.229 583.188C438.545 584.124 437.361 585.571 436.747 586.56C401.917 642.726 342.628 682.192 273.882 689.93C272.729 690.062 271.39 690.734 270.795 691.374C270.209 692.007 270.6 692.373 271.753 692.256C384.003 680.83 471.885 585.709 471.885 470.428C471.885 371.793 407.578 287.916 318.722 258.564C317.623 258.202 316.234 258.321 315.557 258.715C314.883 259.109 315.188 259.62 316.294 259.976C405.225 288.511 469.784 372.064 469.784 470.428C469.784 509.195 459.742 545.657 442.136 577.36Z" fill="#00343D"/>
<path fill-rule="evenodd" clip-rule="evenodd" d="M403.272 600.233C402.837 599.842 401.914 600.217 401.155 601.093C368.096 639.579 320.745 665.432 267.416 670.299C266.26 670.406 266.168 670.752 267.138 671.25C268.109 671.745 269.756 672.187 270.912 672.061C323.429 666.396 369.998 640.575 402.718 602.505C403.474 601.623 403.703 600.621 403.272 600.233Z" fill="#00343D"/>
<path opacity="0.9" fill-rule="evenodd" clip-rule="evenodd" d="M420.766 366.806C439.068 397.074 449.624 432.537 449.624 470.427C449.624 503.857 441.402 535.403 426.89 563.156C426.354 564.187 426.48 564.83 427.211 564.694C427.942 564.555 428.985 563.685 429.514 562.652C443.702 534.968 451.721 503.618 451.721 470.427C451.721 432.607 441.32 397.169 423.239 366.828C422.647 365.829 421.891 365.059 421.57 365.1C421.374 365.123 421.182 365.141 420.984 365.141C420.76 365.141 420.543 365.123 420.322 365.097C419.963 365.056 420.165 365.813 420.766 366.806Z" fill="#00343D"/>
<path opacity="0.9" fill-rule="evenodd" clip-rule="evenodd" d="M409.984 350.764C410.68 351.697 411.361 351.917 411.625 351.284C411.884 350.65 411.607 349.411 410.904 348.485C373.879 299.374 315.1 267.564 249.029 267.564C203.398 267.564 161.245 282.741 127.328 308.297C126.399 308.997 125.99 309.901 126.346 310.361C126.702 310.822 127.697 310.648 128.623 309.952C162.183 284.676 203.886 269.666 249.029 269.666C314.867 269.666 373.388 301.586 409.984 350.764Z" fill="#00343D"/>
<path fill-rule="evenodd" clip-rule="evenodd" d="M418.056 579.717C417.905 579.2 417.647 579.04 417.432 579.361C417.221 579.676 417.354 580.073 417.722 580.269C418.088 580.458 418.207 580.228 418.056 579.717Z" fill="#00343D"/>
<path opacity="0.9" fill-rule="evenodd" clip-rule="evenodd" d="M71.7823 564.416C56.8576 536.357 48.3935 504.364 48.3935 470.43C48.3935 413.177 72.4784 361.453 111.031 324.846C111.875 324.042 112.206 323.096 111.812 322.668C111.419 322.239 110.458 322.491 109.614 323.292C70.642 360.287 46.2925 412.562 46.2925 470.43C46.2925 504.232 54.6085 536.117 69.2875 564.176C69.8261 565.204 70.8404 566.023 71.5334 566.087C72.2264 566.153 72.3272 565.44 71.7823 564.416Z" fill="#00343D"/>
<path opacity="0.9" fill-rule="evenodd" clip-rule="evenodd" d="M81.826 583.069C81.552 583.703 81.8008 584.973 82.4655 585.925C119.113 638.664 180.106 673.248 249.031 673.248C249.554 673.248 250.077 673.241 250.6 673.232C251.463 673.222 252.808 672.605 253.706 672.003C254.607 671.394 254.471 671.067 253.312 671.092C251.885 671.126 250.461 671.145 249.031 671.145C180.349 671.145 119.626 636.442 83.442 583.643C82.7836 582.682 82.1001 582.439 81.826 583.069Z" fill="#00343D"/>
<path fill-rule="evenodd" clip-rule="evenodd" d="M428.364 503.008C428.157 504.149 428.031 505.444 428.062 505.904C428.081 506.182 428.097 506.459 428.097 506.743C428.097 508.543 427.725 510.254 427.064 511.821C426.61 512.892 425.873 514.604 425.586 515.726C423.731 522.957 421.45 530.011 418.757 536.866C418.332 537.951 418.455 538.877 419.031 539C419.607 539.123 420.42 538.398 420.842 537.317C428.935 516.568 433.389 494.012 433.389 470.429C433.389 395.925 389.037 331.602 325.375 302.497C324.32 302.012 323.942 302.264 324.408 303.115C324.874 303.966 326.005 305.101 327.054 305.599C388.624 334.909 431.291 397.772 431.291 470.429C431.291 481.546 430.277 492.433 428.364 503.008Z" fill="#00343D"/>
<path fill-rule="evenodd" clip-rule="evenodd" d="M406.865 561.529C375.315 616.046 316.388 652.807 249.031 652.807C148.508 652.807 66.728 570.991 66.728 470.43C66.728 430.166 79.8352 392.913 101.999 362.704C102.685 361.768 103.06 360.388 102.94 359.587C102.821 358.789 102.241 358.881 101.542 359.808C78.3767 390.653 64.627 428.962 64.627 470.43C64.627 572.148 147.349 654.906 249.031 654.906C317.062 654.906 376.594 617.842 408.538 562.834C409.12 561.828 409.177 560.753 408.72 560.394C408.251 560.028 407.448 560.526 406.865 561.529Z" fill="#00343D"/>
<path fill-rule="evenodd" clip-rule="evenodd" d="M116.677 345.125C149.929 309.977 196.958 288.014 249.031 288.014C268.482 288.014 287.237 291.084 304.824 296.761C305.929 297.117 307.545 297.073 308.484 296.786C309.423 296.489 309.325 296.054 308.229 295.679C289.641 289.353 269.73 285.911 249.031 285.911C195.594 285.911 147.396 308.776 113.685 345.238C112.897 346.089 112.702 346.707 113.244 346.66C113.568 346.628 113.896 346.612 114.23 346.612C114.397 346.612 114.567 346.616 114.734 346.625C115.014 346.641 115.88 345.969 116.677 345.125Z" fill="#00343D"/>
<path fill-rule="evenodd" clip-rule="evenodd" d="M236.937 635.647C235.781 635.562 234.332 635.59 233.693 635.659C233.312 635.7 232.924 635.716 232.531 635.716C231.677 635.716 230.852 635.612 230.061 635.426C228.93 635.155 227.352 634.666 226.467 634.559C225.582 634.446 224.218 634.811 223.345 635.268C222.476 635.719 222.643 636.126 223.789 636.299C232.023 637.554 240.45 638.228 249.03 638.228C273.03 638.228 295.846 633.119 316.513 623.991C317.574 623.521 318.122 622.755 317.798 622.263C317.477 621.775 316.399 621.74 315.335 622.207C295.02 631.13 272.602 636.129 249.03 636.129C244.961 636.129 240.932 635.949 236.937 635.647Z" fill="#00343D"/>
<path fill-rule="evenodd" clip-rule="evenodd" d="M381.019 369.623C381.23 369.611 381.447 369.608 381.658 369.608C381.892 369.608 382.128 369.611 382.361 369.627C382.751 369.649 382.503 368.933 381.791 368.013C366.305 347.95 346.394 331.472 323.528 320.08C322.489 319.56 321.241 319.519 320.709 319.913C320.183 320.314 320.577 320.994 321.616 321.505C344.101 332.524 363.725 348.508 379.091 368.01C379.806 368.924 380.669 369.639 381.019 369.623Z" fill="#00343D"/>
<path fill-rule="evenodd" clip-rule="evenodd" d="M339.048 610.658C339.3 611.185 340.254 611.122 341.221 610.482C372.91 589.531 397.112 558.134 408.855 521.205C409.204 520.102 409.034 519.033 408.502 518.778C407.973 518.522 407.286 519.184 406.936 520.291C395.404 556.778 371.562 587.822 340.308 608.569C339.341 609.212 338.796 610.126 339.048 610.658Z" fill="#00343D"/>
<path fill-rule="evenodd" clip-rule="evenodd" d="M413.273 491.354C413.124 492.501 413.32 493.403 413.723 493.381C413.959 493.368 414.199 493.362 414.441 493.362C414.555 493.362 414.671 493.368 414.781 493.371C414.967 493.384 415.248 492.46 415.389 491.31C416.249 484.46 416.728 477.501 416.728 470.428C416.728 440.503 408.828 412.409 395.053 388.06C394.483 387.048 393.834 386.793 393.538 387.448C393.245 388.101 393.415 389.422 393.979 390.44C407.108 414.174 414.627 441.433 414.627 470.428C414.627 477.517 414.145 484.495 413.273 491.354Z" fill="#00343D"/>
<path fill-rule="evenodd" clip-rule="evenodd" d="M204.187 629.928C160.08 617.502 123.405 587.215 102.432 547.405C101.89 546.378 101.049 545.766 100.508 545.981C99.9657 546.201 99.9311 547.156 100.47 548.187C122.142 589.453 160.452 620.642 206.448 632.73C207.573 633.023 207.882 632.711 207.255 631.948C206.625 631.176 205.302 630.243 204.187 629.928Z" fill="#00343D"/>
<path fill-rule="evenodd" clip-rule="evenodd" d="M85.1789 446.238C85.349 445.087 85.0277 444.123 84.4575 444.013C83.8842 443.909 83.2826 444.7 83.1125 445.85C81.9281 453.875 81.2949 462.08 81.2949 470.429C81.2949 489.868 84.6182 508.543 90.7229 525.917C91.1072 527.017 91.8348 527.648 92.3672 527.402C92.8964 527.156 93.0255 526.122 92.6412 525.025C86.6562 507.919 83.396 489.549 83.396 470.429C83.396 462.209 84.0165 454.137 85.1789 446.238Z" fill="#00343D"/>
<path fill-rule="evenodd" clip-rule="evenodd" d="M96.0607 406.987C101.592 393.683 108.806 381.258 117.437 369.964C118.142 369.037 118.01 368.618 117.084 368.855C116.158 369.091 114.813 369.904 114.12 370.837C105.741 382.175 98.7728 394.606 93.4304 407.867C92.9957 408.948 93.2162 409.556 93.9344 409.314C94.6589 409.065 95.6165 408.062 96.0607 406.987Z" fill="#00343D"/>
<path fill-rule="evenodd" clip-rule="evenodd" d="M184.645 316.59C184.523 316.014 183.596 315.9 182.532 316.36C161.439 325.511 142.59 338.875 127.035 355.385C126.238 356.227 125.624 357.144 125.64 357.418C125.649 357.579 125.652 357.746 125.652 357.913C125.652 358.317 125.63 358.72 125.586 359.114C125.514 359.773 126.018 359.599 126.799 358.742C142.404 341.655 161.509 327.827 182.988 318.444C184.053 317.98 184.771 317.167 184.645 316.59Z" fill="#00343D"/>
<path fill-rule="evenodd" clip-rule="evenodd" d="M207.875 308.786C208.13 309.322 209.204 309.546 210.332 309.271C222.752 306.286 235.708 304.691 249.03 304.691C265.873 304.691 282.12 307.245 297.445 311.944C298.557 312.285 299.313 312.058 299.219 311.408C299.111 310.762 298.189 309.946 297.077 309.615C281.846 305.048 265.725 302.586 249.03 302.586C235.384 302.586 222.116 304.231 209.409 307.323C208.281 307.598 207.62 308.247 207.875 308.786Z" fill="#00343D"/>
<path fill-rule="evenodd" clip-rule="evenodd" d="M384.418 400.209C383.842 399.106 383.259 398.009 382.657 396.922C382.093 395.904 381.051 395.093 380.339 395.021C379.627 394.955 379.532 395.645 380.106 396.657C380.836 397.959 381.548 399.27 382.244 400.591C382.783 401.618 383.684 402.315 384.283 402.211C384.881 402.107 384.957 401.24 384.418 400.209Z" fill="#00343D"/>
<path fill-rule="evenodd" clip-rule="evenodd" d="M159.207 592.396C158.637 591.384 157.606 589.912 156.69 589.194C121.337 561.623 98.5503 518.643 98.5503 470.43C98.5503 458.181 100.018 446.273 102.787 434.869C103.064 433.741 102.796 433.054 102.151 433.262C101.508 433.47 100.74 434.494 100.475 435.626C97.8541 446.812 96.4492 458.455 96.4492 470.43C96.4492 539.071 141.986 597.235 204.415 616.373C205.527 616.714 206.706 616.544 207.096 616.052C207.49 615.557 206.939 614.933 205.827 614.605C193.564 610.917 181.956 605.723 171.218 599.201C170.225 598.602 169.34 598.108 169.233 598.12C169.17 598.13 169.104 598.136 169.038 598.136C164.795 598.136 161.131 595.816 159.207 592.396Z" fill="#00343D"/>
<path fill-rule="evenodd" clip-rule="evenodd" d="M369.317 378.452C369.532 377.79 369.198 376.529 368.47 375.621C360.891 366.071 352.21 357.44 342.599 349.945C341.682 349.23 340.706 349.078 340.369 349.551C340.032 350.024 340.46 350.941 341.374 351.657C351.192 359.322 360.044 368.176 367.701 378.007C368.416 378.921 369.1 379.117 369.317 378.452Z" fill="#00343D"/>
<path fill-rule="evenodd" clip-rule="evenodd" d="M284.36 324.094C297.627 327.302 310.209 332.273 321.848 338.744C322.865 339.311 323.876 339.352 324.185 338.861C324.488 338.366 323.971 337.524 322.96 336.96C310.939 330.265 297.936 325.146 284.212 321.89C283.084 321.626 282.233 321.853 282.281 322.388C282.309 322.71 282.325 323.031 282.325 323.359C282.325 323.403 282.322 323.444 282.322 323.488C282.315 323.558 283.229 323.823 284.36 324.094Z" fill="#00343D"/>
<path fill-rule="evenodd" clip-rule="evenodd" d="M233.927 319.569C233.789 318.995 232.796 318.614 231.64 318.746C176.14 325.072 129.612 361.329 108.551 410.929C108.097 411.998 108.119 413.277 108.526 413.829C108.935 414.381 109.562 413.987 110.009 412.912C130.573 363.322 176.859 327.017 232.144 320.811C233.294 320.681 234.063 320.142 233.927 319.569Z" fill="#00343D"/>
<path fill-rule="evenodd" clip-rule="evenodd" d="M393.471 421.384C393.1 420.283 392.422 419.738 391.931 420.091C391.433 420.447 391.314 421.576 391.685 422.676C396.716 437.689 399.475 453.742 399.475 470.428C399.475 553.439 331.983 620.971 249.031 620.971C247.755 620.971 246.486 620.942 245.223 620.895C244.06 620.86 243.295 621.28 243.44 621.866C243.588 622.455 244.593 622.975 245.752 623.01C246.842 623.048 247.932 623.076 249.031 623.076C333.146 623.076 401.576 554.599 401.576 470.428C401.576 453.279 398.713 436.784 393.471 421.384Z" fill="#00343D"/>
<path fill-rule="evenodd" clip-rule="evenodd" d="M386.313 459.594C386.912 459.808 387.305 459.093 387.208 457.936C381.758 397.096 336.981 347.43 278.555 334.712C277.424 334.463 275.855 334.734 274.992 335.169C274.132 335.607 274.315 336.023 275.455 336.25C333.973 347.771 379.185 396.772 385.025 457.164C385.135 458.317 385.715 459.383 386.313 459.594Z" fill="#00343D"/>
<path fill-rule="evenodd" clip-rule="evenodd" d="M327.164 583.033C326.538 583.581 325.848 584.051 325.104 584.445C324.077 584.984 322.37 585.75 321.387 586.367C300.386 599.54 275.593 607.193 249.029 607.193C224.686 607.193 201.826 600.762 182.009 589.557C180.998 588.987 180.126 588.996 179.981 589.582C179.836 590.172 180.482 591.108 181.493 591.672C201.498 602.874 224.522 609.292 249.029 609.292C321.003 609.292 380.311 554.167 387.115 483.909C387.225 482.755 386.835 482.03 386.236 482.238C385.638 482.449 385.055 483.508 384.935 484.659C380.875 523.759 360.296 557.996 330.308 580.268C329.373 580.965 328.043 582.273 327.164 583.033Z" fill="#00343D"/>
<path fill-rule="evenodd" clip-rule="evenodd" d="M176.732 353.112C177.409 353.368 178.732 353.147 179.734 352.558C200.064 340.545 223.755 333.639 249.031 333.639C252.307 333.639 255.551 333.778 258.768 334.015C259.927 334.1 260.223 333.747 259.52 333.113C258.815 332.48 257.382 331.818 256.226 331.755C253.838 331.619 251.447 331.534 249.031 331.534C222.779 331.534 198.221 338.891 177.264 351.615C176.272 352.22 176.055 352.857 176.732 353.112Z" fill="#00343D"/>
<path fill-rule="evenodd" clip-rule="evenodd" d="M157.24 571.643C129.677 546.61 112.327 510.517 112.327 470.43C112.327 429.41 130.483 392.563 159.164 367.473C160.037 366.707 160.67 365.648 160.62 365.093C160.585 364.759 160.566 364.422 160.566 364.075C160.566 363.971 160.572 363.87 160.579 363.766C160.588 363.593 159.873 364.053 158.991 364.807C129.164 390.303 110.223 428.193 110.223 470.43C110.223 511.113 127.825 547.742 155.784 573.163C156.644 573.944 157.636 574.19 158.043 573.768C158.443 573.349 158.1 572.422 157.24 571.643Z" fill="#00343D"/>
<path fill-rule="evenodd" clip-rule="evenodd" d="M249.03 596.767C270.702 596.767 291.101 591.248 308.943 581.577C309.963 581.026 310.524 580.159 310.272 579.636C310.014 579.113 309.037 579.132 308.023 579.686C290.458 589.215 270.374 594.661 249.03 594.661C180.555 594.661 124.847 538.931 124.847 470.429C124.847 433.068 141.422 399.525 167.586 376.726C168.462 375.967 168.664 375.223 168.056 374.983C167.445 374.744 166.263 375.103 165.394 375.875C139.265 399.042 122.746 432.832 122.746 470.429C122.746 540.091 179.399 596.767 249.03 596.767Z" fill="#00343D"/>
<path fill-rule="evenodd" clip-rule="evenodd" d="M327.927 567.614C328.331 568.04 329.345 567.822 330.23 567.075C354.844 546.338 371.429 516.382 374.667 482.577C374.774 481.42 374.677 480.354 374.459 480.213C374.245 480.061 374.135 480.244 374.182 480.641C374.207 480.881 374.229 481.123 374.229 481.369C374.229 483.106 373.801 484.732 373.061 486.176C372.528 487.21 371.797 488.877 371.612 490.025C366.82 520.167 351.162 546.72 328.781 565.546C327.896 566.29 327.524 567.192 327.927 567.614Z" fill="#00343D"/>
<path fill-rule="evenodd" clip-rule="evenodd" d="M186.166 363.307C204.616 352.424 226.105 346.17 249.031 346.17C311.552 346.17 363.398 392.681 371.919 452.941C372.083 454.091 372.829 455.519 373.503 456.225C374.18 456.937 374.543 456.654 374.407 455.5C367.005 392.832 313.603 344.064 249.031 344.064C226.086 344.064 204.562 350.23 186.003 360.975C184.998 361.558 184.276 362.494 184.33 363.055C184.365 363.392 184.383 363.733 184.383 364.076C184.383 364.13 184.38 364.184 184.374 364.234C184.368 364.319 185.168 363.897 186.166 363.307Z" fill="#00343D"/>
</g>
</svg>
