<svg fill="none" height="12" viewBox="0 0 12 12" width="12" xmlns="http://www.w3.org/2000/svg" xmlns:xlink="http://www.w3.org/1999/xlink"><mask id="a" height="12" maskUnits="userSpaceOnUse" width="12" x="0" y="0"><path clip-rule="evenodd" d="m4.45545 7.45545h-3.01486c-.795614 0-1.44059-.64498-1.44059-1.4406s.644976-1.44059 1.44059-1.44059h3.01486v-3.02971c0-.85303.69152-1.54455 1.54455-1.54455s1.54455.691521 1.54455 1.54455v3.02971h3.01485c.7956 0 1.4406.64497 1.4406 1.44059s-.645 1.4406-1.4406 1.4406h-3.01485v2.99995c0 .8531-.69152 1.5446-1.54455 1.5446s-1.54455-.6915-1.54455-1.5446z" fill="#fff" fill-rule="evenodd"/></mask><path clip-rule="evenodd" d="m4.45545 7.45545h-3.01486c-.795614 0-1.44059-.64498-1.44059-1.4406s.644976-1.44059 1.44059-1.44059h3.01486v-3.02971c0-.85303.69152-1.54455 1.54455-1.54455s1.54455.691521 1.54455 1.54455v3.02971h3.01485c.7956 0 1.4406.64497 1.4406 1.44059s-.645 1.4406-1.4406 1.4406h-3.01485v2.99995c0 .8531-.69152 1.5446-1.54455 1.5446s-1.54455-.6915-1.54455-1.5446z" fill="#0bd8a2" fill-rule="evenodd"/><g mask="url(#a)"><path d="m0 0h12v12h-12z" fill="#0bd8a2"/></g></svg>