<svg fill="none" height="128" viewBox="0 0 128 128" width="128" xmlns="http://www.w3.org/2000/svg"><path clip-rule="evenodd" d="m42.8786 4.13333c6.5506-2.28904 13.5911-3.533232 20.9214-3.533232 35.0149 0 63.4 28.385102 63.4 63.400002 0 15.9613-5.899 30.5458-15.635 41.6909l-.602-.526c9.613-11.0052 15.437-25.4045 15.437-41.1649 0-34.573-28.027-62.6-62.6-62.6-7.2392 0-14.1906 1.22864-20.6575 3.48845zm-42.478576 59.86677c0-24.6423 14.058876-46.0002 34.591476-56.49183l.364.71239c-20.2755 10.36024-34.15548 31.44924-34.15548 55.77944 0 34.573 28.02698 62.5999 62.59998 62.5999 3.3726 0 6.6827-.267 9.9103-.78l.1256.79c-3.269.52-6.621.79-10.0359.79-35.0148 0-63.399976-28.3851-63.399976-63.3999z" fill="#00343d" fill-rule="evenodd"/></svg>