<svg width="75" height="78" viewBox="0 0 75 78" fill="none" xmlns="http://www.w3.org/2000/svg">
<mask id="mask0" mask-type="alpha" maskUnits="userSpaceOnUse" x="29" y="33" width="6" height="6">
<path fill-rule="evenodd" clip-rule="evenodd" d="M31.6788 33.8C30.6058 33.8 29.7388 34.673 29.7388 35.75V37.05C29.7388 38.128 30.6058 39 31.6788 39H32.9708C34.0428 39 34.9098 38.128 34.9098 37.05V35.75C34.9098 34.673 34.0428 33.8 32.9708 33.8H31.6788Z" fill="white"/>
</mask>
<g mask="url(#mask0)">
<path fill-rule="evenodd" clip-rule="evenodd" d="M24.7378 44H39.9098V28.8H24.7378V44Z" fill="#03D79E"/>
</g>
<mask id="mask1" mask-type="alpha" maskUnits="userSpaceOnUse" x="1" y="2" width="7" height="8">
<path fill-rule="evenodd" clip-rule="evenodd" d="M1.29395 5.85001C1.29395 7.64601 2.74195 9.10101 4.52595 9.10101C6.31095 9.10101 7.75895 7.64601 7.75895 5.85001C7.75895 4.05501 6.31095 2.60001 4.52595 2.60001C2.74195 2.60001 1.29395 4.05501 1.29395 5.85001Z" fill="white"/>
</mask>
<g mask="url(#mask1)">
<path fill-rule="evenodd" clip-rule="evenodd" d="M-3.70605 14.1H12.7589V-2.39999H-3.70605V14.1Z" fill="#E2E8F3"/>
</g>
<mask id="mask2" mask-type="alpha" maskUnits="userSpaceOnUse" x="58" y="2" width="7" height="8">
<path fill-rule="evenodd" clip-rule="evenodd" d="M58.1821 5.85001C58.1821 7.64601 59.6301 9.10101 61.4151 9.10101C63.2011 9.10101 64.6471 7.64601 64.6471 5.85001C64.6471 4.05501 63.2011 2.60001 61.4151 2.60001C59.6301 2.60001 58.1821 4.05501 58.1821 5.85001Z" fill="white"/>
</mask>
<g mask="url(#mask2)">
<path fill-rule="evenodd" clip-rule="evenodd" d="M53.1821 14.1H69.6481V-2.39999H53.1821V14.1Z" fill="#00FFA4"/>
</g>
<mask id="mask3" mask-type="alpha" maskUnits="userSpaceOnUse" x="28" y="1" width="9" height="9">
<path fill-rule="evenodd" clip-rule="evenodd" d="M30.3848 1.29999C29.3138 1.29999 28.4448 2.17399 28.4448 3.24999V7.15099C28.4448 8.22799 29.3138 9.10099 30.3848 9.10099H34.2638C35.3348 9.10099 36.2018 8.22799 36.2018 7.15099V3.24999C36.2018 2.17399 35.3348 1.29999 34.2638 1.29999H30.3848Z" fill="white"/>
</mask>
<g mask="url(#mask3)">
<path fill-rule="evenodd" clip-rule="evenodd" d="M23.4448 14.1H41.2018V-3.70001H23.4448V14.1Z" fill="#03D79E"/>
</g>
<mask id="mask4" mask-type="alpha" maskUnits="userSpaceOnUse" x="60" y="22" width="14" height="44">
<path fill-rule="evenodd" clip-rule="evenodd" d="M61.065 22.1H61.053C60.957 22.101 60.862 22.11 60.769 22.126V27.587L66.832 40.457L67.609 42.108L69.637 46.41C69.757 46.672 69.817 46.955 69.819 47.242V52.716C69.815 53.098 69.703 53.473 69.495 53.795L64.969 60.606C64.763 60.928 64.651 61.302 64.647 61.685V65.65H68.527V61.685C68.53 61.302 68.642 60.928 68.849 60.606L73.374 53.795C73.582 53.473 73.695 53.098 73.696 52.716V47.242C73.696 46.955 73.634 46.672 73.517 46.41L71.487 42.108L70.711 40.457L62.488 23.011C62.231 22.455 61.679 22.1 61.07 22.1C61.068 22.1 61.066 22.1 61.065 22.1Z" fill="white"/>
</mask>
<g mask="url(#mask4)">
<path fill-rule="evenodd" clip-rule="evenodd" d="M55.769 70.65H78.698V17.1H55.769V70.65Z" fill="#00FFA4"/>
</g>
<mask id="mask5" mask-type="alpha" maskUnits="userSpaceOnUse" x="45" y="22" width="25" height="44">
<path fill-rule="evenodd" clip-rule="evenodd" d="M56.8899 22.464C56.7069 22.61 56.5609 22.798 56.4639 23.011L54.3039 27.587L45.4349 46.41C45.3169 46.672 45.2549 46.955 45.2529 47.242V52.716C45.2569 53.098 45.3689 53.473 45.5749 53.795L48.3419 57.954L49.6229 59.891L50.1009 60.606C50.3089 60.928 50.4209 61.302 50.4249 61.685V65.65H64.6469V61.685C64.6509 61.302 64.7629 60.928 64.9689 60.606L69.4949 53.795C69.7029 53.473 69.8149 53.098 69.8189 52.716V47.242C69.8169 46.955 69.7569 46.672 69.6369 46.41L67.6089 42.108L66.8319 40.457L60.7689 27.587V41.834C61.3789 42.036 61.9239 42.4 62.3449 42.888C62.9939 43.601 63.3549 44.534 63.3549 45.5C63.3549 47.653 61.6169 49.4 59.4759 49.4C57.3349 49.4 55.5959 47.653 55.5959 45.5C55.5909 44.108 56.3329 42.823 57.5359 42.133C57.7409 42.012 57.9589 41.913 58.1819 41.834V22.464C57.9969 22.303 57.7759 22.192 57.5359 22.14C57.2979 22.192 57.0749 22.303 56.8899 22.464Z" fill="white"/>
</mask>
<g mask="url(#mask5)">
<path fill-rule="evenodd" clip-rule="evenodd" d="M40.2529 70.65H74.8179V17.139H40.2529V70.65Z" fill="#03D79E"/>
</g>
<mask id="mask6" mask-type="alpha" maskUnits="userSpaceOnUse" x="49" y="65" width="21" height="7">
<path fill-rule="evenodd" clip-rule="evenodd" d="M51.0711 65C49.8841 65.136 49.0241 66.202 49.1311 67.398V71.392H69.8191V67.398C69.9281 66.202 69.0671 65.136 67.8791 65H51.0711Z" fill="white"/>
</mask>
<g mask="url(#mask6)">
<path fill-rule="evenodd" clip-rule="evenodd" d="M44.123 76.392H74.828V60H44.123V76.392Z" fill="#00FFA4"/>
</g>
<mask id="mask7" mask-type="alpha" maskUnits="userSpaceOnUse" x="49" y="65" width="17" height="7">
<path fill-rule="evenodd" clip-rule="evenodd" d="M50.7079 65C49.8359 65 49.1309 66.071 49.1309 67.398V71.392H65.9409V67.398C65.9409 66.071 65.2359 65 64.3639 65H50.7079Z" fill="white"/>
</mask>
<g mask="url(#mask7)">
<path fill-rule="evenodd" clip-rule="evenodd" d="M44.1318 76.392H70.9408V60H44.1318V76.392Z" fill="#03D79E"/>
</g>
<mask id="mask8" mask-type="alpha" maskUnits="userSpaceOnUse" x="49" y="70" width="21" height="7">
<path fill-rule="evenodd" clip-rule="evenodd" d="M49.1309 70.2V74.751C49.1309 75.826 49.9999 76.701 51.0709 76.701H67.8789C68.9499 76.701 69.8189 75.826 69.8189 74.751V70.2H49.1309Z" fill="white"/>
</mask>
<g mask="url(#mask8)">
<path fill-rule="evenodd" clip-rule="evenodd" d="M44.1318 81.7H74.8188V65.2H44.1318V81.7Z" fill="#00FFA4"/>
</g>
<mask id="mask9" mask-type="alpha" maskUnits="userSpaceOnUse" x="49" y="70" width="17" height="7">
<path fill-rule="evenodd" clip-rule="evenodd" d="M49.131 70.2V74.751C49.04 75.724 49.742 76.592 50.708 76.701H64.364C65.33 76.592 66.031 75.724 65.941 74.751V70.2H49.131Z" fill="white"/>
</mask>
<g mask="url(#mask9)">
<path fill-rule="evenodd" clip-rule="evenodd" d="M44.124 81.7H70.948V65.2H44.124V81.7Z" fill="#03D79E"/>
</g>
<mask id="mask10" mask-type="alpha" maskUnits="userSpaceOnUse" x="60" y="28" width="7" height="15">
<path fill-rule="evenodd" clip-rule="evenodd" d="M60.769 41.834C61.352 42.022 61.874 42.363 62.28 42.823C62.462 42.757 62.655 42.705 62.85 42.653C64.167 42.034 65.54 41.537 66.948 41.171L60.769 28.053V41.834Z" fill="white"/>
</mask>
<g mask="url(#mask10)">
<path fill-rule="evenodd" clip-rule="evenodd" d="M55.769 47.823H71.949V23.054H55.769V47.823Z" fill="#03D79E"/>
</g>
<mask id="mask11" mask-type="alpha" maskUnits="userSpaceOnUse" x="61" y="22" width="1" height="1">
<path fill-rule="evenodd" clip-rule="evenodd" d="M61.5928 22.204C61.5508 22.185 61.5078 22.17 61.4638 22.157C61.5078 22.17 61.5508 22.185 61.5928 22.204Z" fill="white"/>
</mask>
<g mask="url(#mask11)">
<path fill-rule="evenodd" clip-rule="evenodd" d="M56.4639 27.203H66.5929V17.157H56.4639V27.203Z" fill="white"/>
</g>
<mask id="mask12" mask-type="alpha" maskUnits="userSpaceOnUse" x="60" y="22" width="2" height="1">
<path fill-rule="evenodd" clip-rule="evenodd" d="M61.0531 22.1C60.9571 22.101 60.8621 22.11 60.7691 22.126V22.464C60.9491 22.309 61.1621 22.2 61.3921 22.147C61.2861 22.12 61.1751 22.103 61.0651 22.1H61.0531Z" fill="white"/>
</mask>
<g mask="url(#mask12)">
<path fill-rule="evenodd" clip-rule="evenodd" d="M55.769 27.464H66.393V17.1H55.769V27.464Z" fill="white"/>
</g>
<mask id="mask13" mask-type="alpha" maskUnits="userSpaceOnUse" x="61" y="22" width="1" height="1">
<path fill-rule="evenodd" clip-rule="evenodd" d="M61.9911 22.417C61.9411 22.38 61.8901 22.345 61.8381 22.313C61.8901 22.345 61.9411 22.38 61.9911 22.417Z" fill="white"/>
</mask>
<g mask="url(#mask13)">
<path fill-rule="evenodd" clip-rule="evenodd" d="M56.8389 27.416H66.9899V17.313H56.8389V27.416Z" fill="white"/>
</g>
<mask id="mask14" mask-type="alpha" maskUnits="userSpaceOnUse" x="45" y="22" width="14" height="55">
<path fill-rule="evenodd" clip-rule="evenodd" d="M56.8899 22.464C56.7069 22.61 56.5609 22.798 56.4639 23.009L54.3039 27.587L45.4349 46.41C45.3169 46.672 45.2549 46.955 45.2529 47.242V52.716C45.2569 53.098 45.3689 53.473 45.5749 53.795L48.3419 57.954L49.6229 59.891L50.1009 60.606C50.3089 60.928 50.4209 61.302 50.4249 61.685V65.044C49.5419 65.473 49.0239 66.417 49.1309 67.398V74.751C49.0399 75.724 49.7419 76.592 50.7079 76.701H54.5859C53.6209 76.592 52.9179 75.724 53.0099 74.751V67.398C52.9029 66.417 53.4199 65.473 54.3039 65.044V61.685C54.2989 61.302 54.1869 60.928 53.9799 60.606L53.5019 59.891L52.2219 57.954L49.4549 53.795C49.2469 53.473 49.1359 53.098 49.1309 52.716V47.242C49.1339 46.955 49.1949 46.672 49.3139 46.41L58.1819 27.587V22.464C57.9969 22.303 57.7759 22.19 57.5359 22.14C57.2979 22.19 57.0749 22.303 56.8899 22.464Z" fill="white"/>
</mask>
<g mask="url(#mask14)">
<path fill-rule="evenodd" clip-rule="evenodd" d="M40.2529 81.7H63.1829V17.139H40.2529V81.7Z" fill="white"/>
</g>
<mask id="mask15" mask-type="alpha" maskUnits="userSpaceOnUse" x="58" y="2" width="6" height="8">
<path fill-rule="evenodd" clip-rule="evenodd" d="M59.5308 3.19601C58.3768 4.01501 57.8868 5.49101 58.3178 6.84401C58.7508 8.19401 60.0038 9.10901 61.4148 9.10101C62.1168 9.09701 62.7978 8.86501 63.3548 8.43601C62.5408 7.82901 62.0608 6.86901 62.0608 5.85001C62.0608 4.83201 62.5408 3.87201 63.3548 3.26401C62.7758 2.82301 62.0868 2.60001 61.3948 2.60001C60.7428 2.60001 60.0898 2.79801 59.5308 3.19601Z" fill="white"/>
</mask>
<g mask="url(#mask15)">
<path fill-rule="evenodd" clip-rule="evenodd" d="M53.1631 14.1H68.3541V-2.39999H53.1631V14.1Z" fill="white"/>
</g>
<mask id="mask16" mask-type="alpha" maskUnits="userSpaceOnUse" x="28" y="1" width="7" height="9">
<path fill-rule="evenodd" clip-rule="evenodd" d="M30.3848 1.29999C29.3138 1.29999 28.4448 2.17399 28.4448 3.24999V7.15099C28.4448 7.66699 28.6498 8.16299 29.0118 8.52799C29.3758 8.89599 29.8698 9.10099 30.3848 9.10099H34.2638C33.1918 9.10099 32.3248 8.22799 32.3248 7.15099V3.24999C32.3248 2.17399 33.1918 1.29999 34.2638 1.29999H30.3848Z" fill="white"/>
</mask>
<g mask="url(#mask16)">
<path fill-rule="evenodd" clip-rule="evenodd" d="M23.4448 14.1H39.2628V-3.70001H23.4448V14.1Z" fill="white"/>
</g>
<mask id="mask17" mask-type="alpha" maskUnits="userSpaceOnUse" x="1" y="2" width="6" height="8">
<path fill-rule="evenodd" clip-rule="evenodd" d="M2.64116 3.19601C1.48916 4.01501 0.999155 5.49101 1.43016 6.84401C1.86116 8.19401 3.11515 9.10901 4.52615 9.10101C5.22715 9.09701 5.90815 8.86501 6.46516 8.43601C5.65215 7.82901 5.17216 6.86901 5.17216 5.85001C5.17216 4.83201 5.65215 3.87201 6.46516 3.26401C5.88815 2.82301 5.19715 2.60001 4.50616 2.60001C3.85416 2.60001 3.20216 2.79801 2.64116 3.19601Z" fill="white"/>
</mask>
<g mask="url(#mask17)">
<path fill-rule="evenodd" clip-rule="evenodd" d="M-3.72607 14.1H11.4639V-2.39999H-3.72607V14.1Z" fill="white"/>
</g>
<path fill-rule="evenodd" clip-rule="evenodd" d="M35.4101 7.14991C35.4101 7.78391 34.8951 8.29991 34.2641 8.29991H30.3851C29.7531 8.29991 29.2381 7.78391 29.2381 7.14991V3.24991C29.2381 2.61591 29.7531 2.09991 30.3851 2.09991H34.2641C34.8951 2.09991 35.4101 2.61591 35.4101 3.24991V7.14991ZM4.52508 8.29991C3.18108 8.29991 2.08708 7.20091 2.08708 5.84991C2.08708 4.49991 3.18108 3.39991 4.52508 3.39991C5.87008 3.39991 6.96508 4.49991 6.96508 5.84991C6.96508 7.20091 5.87008 8.29991 4.52508 8.29991ZM61.4151 3.39991C62.7601 3.39991 63.8541 4.49991 63.8541 5.84991C63.8541 7.20091 62.7601 8.29991 61.4151 8.29991C60.0701 8.29991 58.9751 7.20091 58.9751 5.84991C58.9751 4.49991 60.0701 3.39991 61.4151 3.39991ZM41.0281 7.29291C41.2311 7.34091 41.4281 7.39991 41.6211 7.46791L41.8471 7.53691C41.8911 7.55991 41.9391 7.57791 41.9871 7.59091H41.9891L42.1501 7.65091C42.4651 7.74891 42.7671 7.85791 43.0991 7.99091C43.3421 8.08591 43.5441 8.16591 43.8281 8.28991C43.9501 8.33191 44.1041 8.39791 44.2631 8.46591C44.5791 8.60391 44.8551 8.72491 45.1971 8.90191C45.7991 9.17091 46.4201 9.48991 47.0181 9.83991C47.2521 9.95391 47.5071 10.1029 47.7521 10.2679C48.0861 10.4559 48.4411 10.6789 48.8171 10.9389L48.9791 11.0359C49.2011 11.1689 49.4191 11.3149 49.6281 11.4719C49.7051 11.5409 49.7351 11.5669 49.7681 11.5889L49.8671 11.6639C50.2731 11.9419 50.6361 12.2149 50.9731 12.4989C51.3301 12.7659 51.6851 13.0599 52.1021 13.4339C52.4361 13.6979 52.7651 14.0059 53.0661 14.2959L53.1861 14.4149C53.5141 14.7209 53.8311 15.0399 54.1891 15.4389C54.5041 15.7549 54.8231 16.1019 55.1321 16.4729C55.2671 16.6369 55.4581 16.7369 55.6691 16.7559C55.8811 16.7759 56.0841 16.7109 56.2471 16.5739C56.5851 16.2909 56.6301 15.7849 56.3481 15.4439C56.0091 15.0369 55.6571 14.6559 55.3431 14.3379C54.9961 13.9519 54.6511 13.5999 54.2701 13.2449L54.1881 13.1629C53.8871 12.8719 53.4851 12.4919 53.1301 12.2129C52.6951 11.8229 52.3021 11.4969 51.9641 11.2499C51.5871 10.9349 51.2141 10.6529 50.8281 10.3929L50.7451 10.3279C50.4251 10.0779 50.1391 9.88291 49.8441 9.70591L49.7251 9.63591C49.3051 9.34691 48.9131 9.10291 48.5971 8.92591C48.3051 8.72991 48.0421 8.57691 47.7801 8.44691C47.1511 8.07891 46.5261 7.75791 45.8911 7.47591C45.5491 7.29691 45.2371 7.15891 44.9051 7.01491L42.8921 5.99991H57.3911L57.4541 6.42791C57.7391 8.40091 59.4481 9.89191 61.4281 9.89691H61.4371C63.4141 9.89691 65.1251 8.41491 65.4191 6.44691C65.7131 4.47591 64.5051 2.55191 62.6091 1.97091C60.7161 1.39391 58.6461 2.31191 57.7991 4.11291L57.6641 4.39991H36.9961V3.24991C36.9961 1.73391 35.7701 0.499908 34.2641 0.499908H30.3851C28.8781 0.499908 27.6521 1.73391 27.6521 3.24991V4.39991H8.28008L8.14408 4.11491C7.29408 2.32091 5.22408 1.40791 3.34308 1.98991C1.45408 2.57191 0.251081 4.49291 0.545081 6.45891C0.839081 8.42191 2.54608 9.89991 4.51708 9.89991H4.52408C6.50508 9.89491 8.21008 8.40291 8.49008 6.42991L8.55208 5.99991H22.1141L19.8761 6.95991C13.7161 9.59991 8.61808 14.0349 5.13308 19.7849L4.30608 21.2379C3.72108 22.3449 3.19008 23.4939 2.72908 24.6569L2.11808 26.3339C1.91708 26.9389 1.75208 27.5329 1.58808 28.1249L1.45108 28.6759L1.46308 28.6769L1.43508 28.8789L1.40308 28.8729L0.979081 30.9149L0.935081 31.1609L0.776081 32.2629C0.666081 33.1119 0.588081 34.0349 0.536081 35.0749C0.494081 35.9139 0.495081 36.7979 0.537081 37.8589L0.567081 38.3109C0.620081 39.1069 0.674081 39.9289 0.790081 40.6989C1.29708 44.4669 2.45808 48.0699 4.24108 51.4139L5.24808 53.2049L6.37508 54.8889C6.67608 55.3379 7.01008 55.7559 7.36408 56.1999C7.56008 56.4459 7.75808 56.6929 7.94808 56.9449C8.32808 57.4109 8.75208 57.8649 9.17508 58.3169L9.67008 58.8509C10.0611 59.2499 10.4861 59.6399 10.9111 60.0309C11.1231 60.2259 11.3341 60.4209 11.5431 60.6179L13.0141 61.7979C13.1341 61.8959 13.2761 61.9559 13.4271 61.9749C13.6591 61.9729 13.9501 61.8599 14.1071 61.6439C14.2641 61.4279 14.3041 61.1469 14.2111 60.8939C14.1491 60.7099 14.0691 60.5949 13.9641 60.5099L12.5851 59.4129C12.3371 59.1799 12.1221 58.9819 11.9061 58.7839C11.5281 58.4349 11.1491 58.0859 10.7891 57.7189C10.5761 57.4819 10.3761 57.2659 10.1751 57.0499C9.82308 56.6729 9.47208 56.2949 9.14608 55.8989C8.95808 55.6479 8.77508 55.4199 8.59308 55.1919C8.27508 54.7959 7.94808 54.3859 7.65508 53.9459L6.60008 52.3659L5.64108 50.6759C3.94108 47.4839 2.83908 44.0589 2.36008 40.4859C2.25508 39.7799 2.20908 39.1099 2.15908 38.4009L2.12008 37.8569C2.07908 36.8309 2.07908 35.9389 2.12008 35.1139C2.16508 34.1659 2.23908 33.2899 2.34808 32.4369L2.86708 29.6069L3.11908 28.5529C3.27908 27.9689 3.43908 27.4009 3.61308 26.8749L4.24208 25.1499C4.56408 24.2869 5.01408 23.3849 5.45108 22.5119L5.90508 21.6219C5.90708 21.6189 6.02908 21.3909 6.07408 21.3159L6.49808 20.6059C11.0271 13.1609 18.5221 8.00791 27.0631 6.46391L27.6521 6.35791V7.14991C27.6521 8.66591 28.8781 9.89991 30.3851 9.89991H34.2641C35.7701 9.89991 36.9961 8.66591 36.9961 7.14991V6.39591L37.5611 6.46991C37.6491 6.48191 37.7351 6.49891 37.8211 6.51891C37.9011 6.53891 37.9801 6.55191 38.0591 6.56191C38.3021 6.59891 38.5231 6.64591 38.7421 6.70491L38.9071 6.74491C38.9381 6.75291 38.9711 6.75791 39.0051 6.76091L39.2561 6.81691C39.2911 6.82791 39.3271 6.83791 39.3641 6.84591C39.5881 6.88391 39.8201 6.94291 40.0461 7.01991C40.0761 7.02991 40.1161 7.03991 40.1571 7.04591C40.4221 7.09691 40.6231 7.15191 40.8181 7.22491L40.9161 7.25991C40.9531 7.27291 40.9901 7.28291 41.0281 7.29291Z" fill="#00343D"/>
<path fill-rule="evenodd" clip-rule="evenodd" d="M30.5303 35.7505C30.5303 35.1155 31.0453 34.5995 31.6773 34.5995H32.9703C33.6023 34.5995 34.1163 35.1155 34.1163 35.7505V37.0495C34.1163 37.6845 33.6023 38.1995 32.9703 38.1995H31.6773C31.0453 38.1995 30.5303 37.6845 30.5303 37.0495V35.7505ZM28.9453 37.0495C28.9453 38.5665 30.1713 39.8005 31.6773 39.8005H32.9703C34.4763 39.8005 35.7023 38.5665 35.7023 37.0495V35.7505C35.7023 35.0145 35.4183 34.3235 34.9013 33.8045C34.3933 33.2935 33.6893 33.0005 32.9703 33.0005H31.6773C30.9483 33.0005 30.2623 33.2855 29.7463 33.8045C29.2293 34.3245 28.9453 35.0155 28.9453 35.7505V37.0495Z" fill="#00343D"/>
<path fill-rule="evenodd" clip-rule="evenodd" d="M72.9044 52.71C72.9044 52.937 72.8384 53.156 72.7134 53.345L68.1874 60.165C67.8894 60.617 67.7324 61.145 67.7324 61.69V64.2H51.2174V61.69C51.2174 61.144 51.0584 60.616 50.7584 60.164L46.2324 53.348C46.1054 53.147 46.0434 52.927 46.0464 52.702V47.238C46.0464 47.07 46.0844 46.901 46.1564 46.748L57.1784 23.348C57.3314 23.028 57.6984 22.865 58.0664 22.948C58.4354 23.031 58.6824 23.328 58.6824 23.685V40.872L58.3084 40.969C56.0364 41.559 54.5454 43.77 54.8414 46.112C55.1364 48.454 57.1294 50.22 59.4754 50.22C61.8214 50.22 63.8134 48.454 64.1094 46.112C64.4054 43.77 62.9154 41.559 60.6424 40.969L60.2684 40.872V23.686C60.3194 23.286 60.5694 23.015 60.8934 22.943C61.2274 22.874 61.5624 23.015 61.7414 23.294L72.7934 46.751C72.8644 46.899 72.9024 47.066 72.9044 47.232V52.71ZM69.0264 69.4H49.9254V66.95C49.9254 66.315 50.4394 65.8 51.0714 65.8H67.8794C68.5114 65.8 69.0264 66.315 69.0264 66.95V69.4ZM69.0264 74.751C69.0264 75.384 68.5114 75.9 67.8794 75.9H51.0714C50.4394 75.9 49.9254 75.384 49.9254 74.751V71H69.0264V74.751ZM59.4754 42.4C61.1764 42.4 62.5614 43.791 62.5614 45.501C62.5614 47.21 61.1764 48.6 59.4754 48.6C57.7744 48.6 56.3894 47.21 56.3894 45.501C56.3894 43.791 57.7744 42.4 59.4754 42.4ZM74.4904 47.238C74.4894 46.834 74.3984 46.426 74.2254 46.06L63.2054 22.66C62.8114 21.835 61.9674 21.3 61.0564 21.3H61.0534H61.0524C60.5914 21.3 60.1414 21.437 59.7534 21.696L59.4754 21.881L59.1984 21.696C58.8064 21.435 58.3514 21.3 57.8904 21.3C57.6774 21.3 57.4644 21.329 57.2554 21.387C56.5924 21.572 56.0434 22.038 55.7474 22.664L44.7244 46.063C44.5514 46.429 44.4614 46.836 44.4614 47.238V52.71C44.4614 53.255 44.6204 53.784 44.9204 54.237L49.4454 61.053C49.5714 61.242 49.6384 61.464 49.6364 61.694V64.618L49.4364 64.768C48.7534 65.279 48.3424 66.095 48.3394 66.952V74.751C48.3394 76.267 49.5644 77.5 51.0714 77.5H67.8794C69.3854 77.5 70.6124 76.267 70.6124 74.751V66.95C70.6094 66.095 70.2014 65.278 69.5184 64.768L69.3184 64.617V61.69C69.3184 61.462 69.3854 61.242 69.5124 61.052L74.0364 54.235C74.3344 53.784 74.4914 53.256 74.4904 52.711V47.238Z" fill="#00343D"/>
<path fill-rule="evenodd" clip-rule="evenodd" d="M21.8388 65.7368C21.7668 65.9368 21.7768 66.1658 21.8708 66.3618C21.9638 66.5578 22.1348 66.7098 22.3378 66.7798C22.8868 66.9538 23.4518 67.1118 24.0158 67.2688L24.8998 67.5188L27.4878 68.0288C27.8858 68.0928 28.3008 68.1458 28.6148 68.1728C28.8338 68.2088 29.0058 68.2268 29.1838 68.2438L29.4058 68.2658C29.8568 68.3058 30.3118 68.3458 30.7508 68.3588C31.8758 68.4168 32.9268 68.4118 34.0218 68.3588C34.9078 68.3048 35.7468 68.2218 36.5068 68.1128C36.7998 68.0828 37.0608 68.0428 37.3378 67.9978C37.8118 67.9188 38.2908 67.8378 38.7338 67.7428C39.0968 67.6718 39.4398 67.6038 39.7798 67.5078C40.1378 67.4308 40.4608 67.3488 40.7618 67.2588L40.9838 67.1948C41.3478 67.0918 41.7027 66.9908 41.9967 66.8808C42.5567 66.7158 43.0728 66.5358 43.5688 66.3338C44.0868 66.1388 44.5917 65.9358 45.0868 65.7068C45.3447 65.5888 45.5218 65.3378 45.5478 65.0538C45.5737 64.7708 45.4457 64.4908 45.2157 64.3258C44.9847 64.1608 44.6838 64.1328 44.4278 64.2518C43.9668 64.4638 43.5088 64.6518 43.0088 64.8368C42.6238 64.9898 42.1378 65.1748 41.5218 65.3548C41.1898 65.4778 40.8268 65.5788 40.4248 65.6908L40.3008 65.7248C40.0428 65.8058 39.7528 65.8768 39.4648 65.9378L39.3598 65.9638C39.0608 66.0478 38.7577 66.1078 38.4058 66.1768C37.9977 66.2688 37.5768 66.3398 37.1618 66.4098L37.0348 66.4308C36.8168 66.4658 36.5948 66.5008 36.3128 66.5298C35.5798 66.6348 34.7948 66.7138 33.9308 66.7668C32.8438 66.8188 31.8568 66.8178 30.8198 66.7668C30.4228 66.7558 30.0278 66.7208 29.6558 66.6888L29.3338 66.6568C29.2038 66.6448 29.0768 66.6328 28.8468 66.5958C28.4958 66.5638 28.1108 66.5138 27.7278 66.4518L25.2298 65.9488C24.9358 65.8638 24.6418 65.7818 24.3468 65.6988C23.8418 65.5588 23.3368 65.4178 22.8378 65.2598C22.7518 65.2318 22.6648 65.2178 22.5798 65.2178C22.2558 65.2178 21.9578 65.4168 21.8388 65.7368Z" fill="#00343D"/>
<path fill-rule="evenodd" clip-rule="evenodd" d="M37.0781 65.917V65.916H37.0771L37.0781 65.917Z" fill="#00343D"/>
<path fill-rule="evenodd" clip-rule="evenodd" d="M18.5419 64.3223C18.6229 64.1433 18.6379 63.9183 18.5729 63.7083C18.5479 63.6423 18.4949 63.5563 18.4269 63.4833C18.2619 63.2773 18.0399 63.1703 17.8129 63.1703C17.7469 63.1703 17.6799 63.1793 17.6129 63.1983C17.5279 63.2273 17.4309 63.2793 17.3439 63.3483C17.2519 63.4193 17.1809 63.5003 17.1239 63.5933C17.0229 63.7693 16.9949 63.9873 17.0509 64.1953C17.1149 64.3873 17.2679 64.5713 17.4709 64.6843L17.4739 64.6853C17.6599 64.7903 17.8829 64.8133 18.0899 64.7443L18.2629 64.6583C18.2679 64.6543 18.3009 64.6293 18.3289 64.6003L18.4419 64.4953C18.4799 64.4393 18.5119 64.3823 18.5419 64.3223Z" fill="#00343D"/>
</svg>
