<svg fill="none" height="24" viewBox="0 0 24 24" width="24" xmlns="http://www.w3.org/2000/svg"><path clip-rule="evenodd" d="m3 0h18c1.6545 0 3 1.3455 3 3v18c0 1.6545-1.3455 3-3 3h-4.2381v-8.2198h2.2857l1.5238-3.7362h-3.8095v-2.98906c0-.75829.5768-.75391 1.3232-.74825.0657.0005.1326.001.2006.001h1.5238v-3.73626h-3.0476c-2.5249 0-4.5714 2.00712-4.5714 4.48351v2.98906h-3.04764v3.7362h3.04764v8.2198h-9.1905c-1.6545 0-3-1.3455-3-3v-18c0-1.6545 1.3455-3 3-3z" fill="#00343d" fill-rule="evenodd"/></svg>