<svg fill="none" height="74" viewBox="0 0 75 74" width="75" xmlns="http://www.w3.org/2000/svg" xmlns:xlink="http://www.w3.org/1999/xlink"><mask id="a" height="33" maskUnits="userSpaceOnUse" width="14" x="0" y="40"><path clip-rule="evenodd" d="m0 40.0858h13.9801v32.9141h-13.9801z" fill="#fff" fill-rule="evenodd"/></mask><mask id="b" height="26" maskUnits="userSpaceOnUse" width="3" x="0" y="44"><path clip-rule="evenodd" d="m0 44.0289h2.84447v25.8844h-2.84447z" fill="#fff" fill-rule="evenodd"/></mask><g clip-rule="evenodd" fill-rule="evenodd"><path d="m70.8212 30.3027-27.0555 26.6973-2.7657-1.5305 25.4787-25.1421c.2385-.24.2385-.6241 0-.8641l-9.5734-9.4422c-.1062-.1017-.2191-.1964-.3377-.2838 1.4081-1.0741 3.4028-.9636 4.6803.2592l9.5733 9.4422c.2384.24.2384.624 0 .864z" fill="#00ffa4"/><path d="m41.8605 56-2.3605-6-10.2936-1.1261-17.0312-17.1547c-.2336-.2403-.2336-.6246 0-.8647l9.6867-9.7444c1.3931-1.365 1.426-3.6083.0736-5.0143l-.0982-.0988c-.3714-.3584-.8937-.5106-1.3978-.4076-2.7881.4769-5.5789-.8304-7.0135-3.2851-1.2966-2.2684-1.24-5.0734.147-7.28678.9276-1.49464 2.3466-2.6137 4.0095-3.16165 2.4646-.82468 5.1801-.18511 7.0259 1.65486 1.5515 1.57771 2.2464 3.81555 1.8638 6.00229-.091.48788.0497.99038.38 1.35858l.135.1235c.1014.1048.2122.1998.331.2841 1.4165 1.0801 3.4104.9264 4.6471-.3582l7.9822-8.0277 1.7045-1.7168c.2383-.235333.6198-.235333.8582 0l9.3801 9.4481c1.3525 1.4059 1.3195 3.6492-.0736 5.0143l-.1349.1358c-.3615.3505-.8652.5104-1.3609.4323-2.2146-.2993-4.4407.4588-6.0205 2.0501-1.555 1.5129-2.3299 3.6637-2.0997 5.8289.2299 2.1653 1.4392 4.1024 3.2769 5.2494.4559.2843.9463.5085 1.4591.6669 1.9403.5968 4.041.3318 5.775-.7285 2.4589-1.488 3.8146-4.2967 3.4579-7.1634-.077-.5165.0855-1.0401.4414-1.4202l.1104-.1112c.1218-.1212.253-.2327.3923-.3334.1164.0874.2268.1822.331.2841l9.3801 9.4479c.2336.2403.2336.6245 0 .8646z" fill="#03d79e"/><path d="m12.1779 31.2364c-.2372.2392-.2372.6222 0 .8614l14.9404 14.7686c.4858.3747 1.0026.7087 1.5451.9979.5551.094 1.1176.1393 1.6808.1354l1.6558.0003-16.087-15.9022c-.2372-.2392-.2372-.6222 0-.8614l9.8357-9.7103c1.4139-1.3606 1.4473-3.5955.0747-4.9967l-.0995-.0984c-.3773-.3571-.9075-.5089-1.4193-.4061-2.8313.4755-5.6651-.8273-7.1217-3.2737-1.3166-2.2604-1.2591-5.05563.1494-7.26124.9417-1.48924 2.3826-2.60438 4.0713-3.15055.1145-.03692.2315-.05538.3474-.0861-1.3403-.36489-2.7592-.33503-4.0825.0861-1.6887.54617-3.1296 1.66131-4.0712 3.15055-1.4084 2.20561-1.4661 5.00084-.1494 7.26124 1.4565 2.4464 4.2903 3.7492 7.1216 3.2737.5118-.1028 1.042.049 1.4193.4061l.0995.0984c1.3727 1.4012 1.3392 3.6361-.0747 4.9967z" fill="#fff"/><path d="m43.4794 58.3297c-.4943-.0002-.4816.3706-.6706-.0888-.1891-.4594-.0847-.9883.2648-1.3399l25.9851-26.1586-8.9126-8.9679c-.916-.871-2.3579-.8381-3.2336.0739l-.115.1154c-.0819.1139-.1129.2571-.0855.3949.4136 3.327-1.1587 6.5869-4.0121 8.3186-2.6 1.6099-5.873 1.635-8.4971.0651-2.1194-1.2904-3.5301-3.4912-3.8239-5.9663-.2988-2.5922.6073-5.1783 2.4555-7.0091 1.848-1.8308 4.432-2.7019 7.0034-2.3608.1141.0182.2308-.0116.3226-.0824l.1381-.1365c.9071-.8837.937-2.3378.0673-3.2586l-8.909-8.95936-9.2181 9.26426c-.8842.8983-2.0825 1.4129-3.3388 1.4338h-.0746c-1.2292.0056-2.4092-.4848-3.2764-1.3612l-.0892-.08c-.6306-.6444-.9167-1.5535-.7699-2.44566.3198-1.74433-.2065-3.53738-1.4168-4.82694-1.2103-1.28941-2.9594-1.92057-4.7083-1.69894-1.8552.22537-3.5061 1.29157-4.4826 2.89455-1.1398 1.8112-1.1896 4.10819-.1296 5.96759 1.1775 2.0052 3.4613 3.0731 5.7439 2.6857.8879-.1648 1.7999.116 2.444.7524l.0967.0972c.8849.8898 1.3704 2.1046 1.3442 3.363-.0152 1.2648-.5223 2.473-1.4127 3.3656l-9.217 9.2593 16.5372 16.6411c.4632.4824.4566 1.2493-.0149 1.7237-.4713.4744-1.2335.481-1.7131.015l-17.4023-17.5104c-.2296-.2306-.3585-.5435-.3585-.8699s.1289-.6394.3585-.87l10.0821-10.1311c.4421-.4401.6953-1.037.7052-1.6625.0131-.5948-.2149-1.1694-.632-1.5912l-.0976-.0984c-.0959-.0668-.2153-.0898-.3289-.0628-3.2735.5607-6.5512-.9707-8.238-3.8488-1.5292-2.6558-1.4695-5.94573.1552-8.54358 1.3762-2.23673 3.6932-3.71737 6.2901-4.019833 2.5067-.306791 5.0096.600033 6.7465 2.444233 1.737 1.84435 2.5025 4.40775 2.0635 6.90978-.0216.1012-.0028.2068.0526.294l.0746.0651c.409.4688 1.0101.7211 1.6289.6837.6215-.0122 1.2139-.2686 1.6498-.7144l10.0823-10.133592c.4772-.480144 1.2507-.480144 1.7279 0l9.7768 9.837192c1.8161 1.8835 1.7835 4.8882-.0734 6.7312l-.1368.1365c-.6264.6159-1.5016.9039-2.3684.7796-1.8231-.242-3.6554.3749-4.9667 1.672-1.3112 1.2972-1.9554 3.1298-1.7462 4.9681.1944 1.7338 1.1844 3.2759 2.675 4.1673 1.836 1.091 4.1218 1.0667 5.9346-.0627 2.0352-1.2311 3.1601-3.5517 2.8718-5.9233-.1269-.8924.1631-1.7937.7858-2.442l.116-.1156c1.8287-1.8621 4.8062-1.8962 6.6763-.0762l9.7767 9.8371c.4771.4803.4771 1.2586 0 1.7389l-26.5308 26.6327c-.2264.2297-.8522-.0032-1.1738 0z" fill="#00343d" stroke="#fff"/><path d="m40.1156 58.2272c-.4973.0006-.563.4673-.748 0-.1849-.4674-.0702-1.0018.2899-1.3491 1.0174-1.0481 1.2059-2.6602.4581-3.92l-.1092-.1834c-.882-1.479-2.462-2.3849-4.1685-2.39h-6.3602c-2.7947-.0039-5.5055-.9666-7.6901-2.7311-1.7521-1.4159-3.9264-2.1887-6.1683-2.192h-3.4037c-.6714 0-1.2156-.5511-1.2156-1.2307 0-.6798.5442-1.2309 1.2156-1.2309h3.4037c2.7948.0039 5.5056.9666 7.6902 2.7311 1.7521 1.4159 3.9264 2.1887 6.1682 2.192h6.3589c2.56.008 4.9306 1.3669 6.2546 3.5853l.1093.1833c1.3263 2.2385 1.1097 4.9007-.7164 6.7432-.0413.0407-.4379-.4603-.4841-.4256-.2074.16-.242-.0014-.5026 0z" fill="#00343d" stroke="#fff"/><path d="m43.4865 72h-31.2513c-.6822 0-1.2352-.5504-1.2352-1.2296 0-.6791.553-1.2295 1.2352-1.2295h31.2513c1.3595 0 2.6928-.3722 3.8539-1.076l23.1545-14.0299c.5176-.3137.8781-.8305.9923-1.4231.1145-.5925-.028-1.2056-.392-1.6878-.0248-.0345-.0494-.069-.0705-.1046-.5666-.6774-1.495-.9353-2.332-.648l-22.8592 7.588c-.6321.2093-1.2942.3157-1.9604.3148h-10.9787c-1.9514-.0019-3.8594.5732-5.4819 1.6527l-.9043.6c-.5675.3769-1.3347.2243-1.7132-.3407-.3787-.5651-.2255-1.3285.3421-1.7055l.9056-.6c2.0278-1.349 4.4126-2.0681 6.8517-2.0658h10.9787c.399 0 .7951-.0638 1.1734-.1893l22.8641-7.5866c1.8856-.6303 3.9644.0141 5.1571 1.5983.0258.0337.0497.0686.0718.1046.7393 1.0195 1.0195 2.2993.7732 3.5328-.2476 1.2751-1.0245 2.3871-2.1395 3.0617l-23.1494 14.0286c-1.5474.9391-3.3249 1.4356-5.1373 1.4349z" fill="#00343d"/></g><path d="m43.4865 72h-31.2513c-.6822 0-1.2352-.5504-1.2352-1.2296 0-.6791.553-1.2295 1.2352-1.2295h31.2513c1.3595 0 2.6928-.3722 3.8539-1.076l23.1545-14.0299c.5176-.3137.8781-.8305.9923-1.4231.1145-.5925-.028-1.2056-.392-1.6878-.0248-.0345-.0494-.069-.0705-.1046-.5666-.6774-1.495-.9353-2.332-.648l-22.8592 7.588c-.6321.2093-1.2942.3157-1.9604.3148h-10.9787c-1.9514-.0019-3.8594.5732-5.4819 1.6527l-.9043.6c-.5675.3769-1.3347.2243-1.7132-.3407-.3787-.5651-.2255-1.3285.3421-1.7055l.9056-.6c2.0278-1.349 4.4126-2.0681 6.8517-2.0658h10.9787c.399 0 .7951-.0638 1.1734-.1893l22.8641-7.5866c1.8856-.6303 3.9644.0141 5.1571 1.5983.0258.0337.0497.0686.0718.1046.7393 1.0195 1.0195 2.2993.7732 3.5328-.2476 1.2751-1.0245 2.3871-2.1395 3.0617l-23.1494 14.0286c-1.5474.9391-3.3249 1.4356-5.1373 1.4349" stroke="#fff"/><g mask="url(#a)"><path clip-rule="evenodd" d="m10.1674 40.0858h-6.35463c-2.10313.006-3.80636574 1.6398-3.81277 3.6571v25.6c.00640426 2.0173 1.70964 3.651 3.81277 3.657h6.35463c1.4027-.001 2.6913-.7409 3.3553-1.926.3024-.5307.4599-1.1263.4575-1.731v-25.6c-.0063-2.0173-1.7096-3.6511-3.8128-3.6571z" fill="#00ffa4" fill-rule="evenodd"/></g><path clip-rule="evenodd" d="m5.14282 40h-1.28567c-2.12761.006-3.85082186 1.6441-3.85715 3.6667v25.6668c.00632814 2.0225 1.72954 3.6605 3.85715 3.6665h1.28567c1.41901-.001 2.72261-.7428 3.3943-1.931.30601-.5321.46526-1.1292.46285-1.7355v-25.6668c-.00633-2.0226-1.72954-3.6607-3.85715-3.6667z" fill="#03d79e" fill-rule="evenodd"/><path clip-rule="evenodd" d="m15.3871 70c-.0019.3315-.1348.6577-.3871.95l.3871.05h1.2904c.1994-.3192.3085-.6576.3225-1z" fill="#fff" fill-rule="evenodd"/><path clip-rule="evenodd" d="m12 42.9594v.016c.3353.0073.6695.0258 1 .0652-.0084-.027-.0143-.0543-.0239-.0812z" fill="#fff" fill-rule="evenodd"/><path clip-rule="evenodd" d="m4.5 73h3.5c-1.93061-.006-3.49426-1.6441-3.5-3.6667v-25.6668c.00574-2.0225 1.56939-3.6605 3.5-3.6665h-3.5c-1.93061.006-3.49426 1.644-3.5 3.6665v25.6668c.00574 2.0226 1.56939 3.6607 3.5 3.6667z" fill="#fff" fill-rule="evenodd"/><g mask="url(#b)"><path clip-rule="evenodd" d="m2.8445 44.0289v16.0238 9.8606h-2.8445v-9.8606-16.0238z" fill="#fff" fill-rule="evenodd"/></g><path clip-rule="evenodd" d="m2 54c-.00388-.2647-.10776-.5182-.29084-.7101l-.15041-.1199c-.05582-.0378-.11657-.0682-.18049-.0901-.05676-.0288-.11763-.0491-.1805-.0599-.06627-.0111-.13326-.0179-.200589-.02-.265337.0039-.519628.1075-.711874.2899-.090718.0958-.162163.2077-.2105775.3302-.1512351.3729-.06886075.7997.2105775 1.09.095888.0903.208227.1616.330908.21.120565.0512.25006.0785.380966.0799.265569-.0038.519749-.1073.711989-.2899.18308-.1918.28696-.4452.29084-.7101z" fill="#00343d" fill-rule="evenodd"/><path d="m2 54c-.00388-.2647-.10776-.5182-.29084-.7101l-.15041-.1199c-.05582-.0378-.11657-.0682-.18049-.0901-.05676-.0288-.11763-.0491-.1805-.0599-.06627-.0111-.13326-.0179-.200589-.02-.265337.0039-.519628.1075-.711874.2899-.090718.0958-.162163.2077-.2105775.3302-.1512351.3729-.06886075.7997.2105775 1.09.095888.0903.208227.1616.330908.21.120565.0512.25006.0785.380966.0799.265569-.0038.519749-.1073.711989-.2899.18308-.1918.28696-.4452.29084-.7101" stroke="#fff"/><path clip-rule="evenodd" d="m10.1674 72.5h-6.35463c-2.10566 0-3.81277-1.6373-3.81277-3.6572 0-.6731.569085-1.219 1.27102-1.219.70179 0 1.27087.5459 1.27087 1.219 0 .6733.56909 1.2192 1.27088 1.2192h6.35463c.702 0 1.271-.5459 1.271-1.2192v-25.6c0-.6733-.569-1.219-1.271-1.219h-6.35463c-.70179 0-1.27088.5457-1.27088 1.219s-.56908 1.219-1.27087 1.219c-.701935 0-1.27102-.5457-1.27102-1.219 0-2.0197 1.70711-3.657 3.81277-3.657h6.35463c2.1058 0 3.8128 1.6373 3.8128 3.657v25.6c0 2.0199-1.707 3.6572-3.8128 3.6572z" fill="#00343d" fill-rule="evenodd"/><path d="m10.1674 72.5h-6.35463c-2.10566 0-3.81277-1.6373-3.81277-3.6572 0-.6731.569085-1.219 1.27102-1.219.70179 0 1.27087.5459 1.27087 1.219 0 .6733.56909 1.2192 1.27088 1.2192h6.35463c.702 0 1.271-.5459 1.271-1.2192v-25.6c0-.6733-.569-1.219-1.271-1.219h-6.35463c-.70179 0-1.27088.5457-1.27088 1.219s-.56908 1.219-1.27087 1.219c-.701935 0-1.27102-.5457-1.27102-1.219 0-2.0197 1.70711-3.657 3.81277-3.657h6.35463c2.1058 0 3.8128 1.6373 3.8128 3.657v25.6c0 2.0199-1.707 3.6572-3.8128 3.6572" stroke="#fff"/></svg>