<svg fill="none" height="46" viewBox="0 0 125 46" width="125" xmlns="http://www.w3.org/2000/svg" xmlns:xlink="http://www.w3.org/1999/xlink"><clipPath id="a"><path d="m0 0h125v46h-125z"/></clipPath><g clip-path="url(#a)"><g clip-rule="evenodd" fill-rule="evenodd"><path d="m12.8846 16.3448c-1.9858 0-3.63316.659-4.94131 1.9762-1.3087 1.3175-1.96264 3.0397-1.96264 5.1652 0 2.1707.65394 3.9264 1.96264 5.2662 1.30815 1.3402 2.95551 2.0101 4.94131 2.0101 1.9239 0 3.5445-.6815 4.8607-2.0437 1.316-1.3625 1.9741-3.099 1.9741-5.2104 0-2.0957-.6467-3.8138-1.9395-5.1538-1.2931-1.3397-2.9252-2.0098-4.8953-2.0098zm-6.62683-5.0303v2.6946c1.13881-1.1076 2.37037-1.9386 3.69411-2.4928 1.32402-.5534 2.73992-.8308 4.24892-.8308 3.2788 0 6.0647 1.2054 8.3588 3.6156 2.2935 2.4107 3.4404 5.5021 3.4404 9.275 0 3.638-1.1856 6.6806-3.556 9.1285-2.3706 2.4481-5.1802 3.6721-8.4281 3.6721-1.4469 0-2.7937-.2508-4.04062-.7525-1.24716-.5013-2.48651-1.321-3.71751-2.4592v11.5205h-6.25777v-33.371z" fill="#0a523b"/><path d="m40.0698 17.4128c-1.9487 0-3.5671.6782-4.8561 2.034-1.2886 1.3561-1.9331 3.0948-1.9331 5.2157 0 2.1368.6559 3.8942 1.9677 5.273 1.3117 1.3786 2.9262 2.0683 4.8443 2.0683 1.9791 0 3.6206-.6779 4.9246-2.0343 1.3039-1.3558 1.9562-3.1326 1.9562-5.3295 0-2.151-.6523-3.8939-1.9562-5.2272-1.304-1.3331-2.953-2-4.9474-2zm6.6265-5.0907h6.3037v24.7269h-6.3037v-2.6137c-1.2305 1.1518-2.4643 1.9813-3.7017 2.4887-1.2376.5077-2.5795.7615-4.0247.7615-3.2443 0-6.0505-1.2387-8.4184-3.7162-2.3676-2.4773-3.5515-5.5565-3.5515-9.2382 0-3.8183 1.1458-6.9469 3.4365-9.3866 2.291-2.4391 5.0738-3.659 8.3491-3.659 1.5067 0 2.9209.2807 4.2433.8408 1.3223.5608 2.5447 1.4018 3.6674 2.5227z" fill="#0a523b"/><path d="m57 11.6855h6.29l6.3718 15.6196 7.0305-15.6196h6.3077l-15.3628 34h-6.3566l5.0448-10.9639z" fill="#0a523b"/><path d="m85 36.6855h6v-25h-6z" fill="#0a523b"/><path d="m119 11.6855h-7.115l-4.885 6.9498 3.567 5.0502z" fill="#0a523b"/><path d="m93 36.6855h7.667l6.333-8.7293-3.843-5.2707z" fill="#0a523b"/><path d="m102.15 11.6855h-7.15l8.434 12 3.566-5.0993z" fill="#0a523b"/><path d="m110.844 22.6855-3.844 5.3259 6.292 8.6741h7.708z" fill="#0a523b"/><path d="m88.5208.685547-3.5208 5.041903 3.48 4.95805 3.52-5.04214z" fill="#83cd44"/></g><path d="m124.155 34.4141c.193 0 .381.0498.565.1493.184.0985.327.2402.43.425.102.1839.153.3758.153.5759 0 .198-.05.3885-.152.5713-.1.1828-.242.325-.425.4265-.182.1006-.372.1509-.571.1509s-.39-.0503-.573-.1509c-.182-.1015-.324-.2437-.425-.4265-.102-.1828-.152-.3733-.152-.5713 0-.2001.051-.392.153-.5759.104-.1848.248-.3265.432-.425.183-.0995.372-.1493.565-.1493zm0 .1904c-.162 0-.319.0417-.473.125-.152.0822-.271.2005-.358.3549-.086.1534-.129.3133-.129.4799 0 .1655.042.3245.126.4768.086.1514.205.2697.357.355.152.0843.311.1264.477.1264.165 0 .324-.0421.477-.1264.152-.0853.27-.2036.355-.355.084-.1523.126-.3113.126-.4768 0-.1666-.043-.3265-.129-.4799-.086-.1544-.205-.2727-.358-.3549-.154-.0833-.311-.125-.471-.125zm-.504 1.5951v-1.2371h.425c.145 0 .25.0117.315.0351.065.0223.117.0619.155.1188.039.0569.058.1173.058.1813 0 .0904-.032.1691-.097.2361-.064.0671-.15.1046-.256.1128.043.0182.078.0401.105.0655.05.0487.111.1305.183.2452l.15.2423h-.243l-.11-.195c-.086-.1534-.156-.2494-.209-.288-.036-.0284-.09-.0426-.16-.0426h-.117v.5256zm.199-.6962h.242c.116 0 .195-.0173.236-.0518.043-.0346.064-.0803.064-.1371 0-.0366-.01-.0691-.03-.0975-.02-.0295-.049-.0513-.085-.0656-.036-.0142-.102-.0213-.2-.0213h-.227z" fill="#3e3c38"/></g></svg>