<svg fill="none" height="42" viewBox="0 0 140 42" width="140" xmlns="http://www.w3.org/2000/svg" xmlns:xlink="http://www.w3.org/1999/xlink"><mask id="a" height="42" maskUnits="userSpaceOnUse" width="20" x="19" y="0"><path clip-rule="evenodd" d="m19.4783.328613h19.4787v41.058487h-19.4787z" fill="#fff" fill-rule="evenodd"/></mask><mask id="b" height="42" maskUnits="userSpaceOnUse" width="20" x="0" y="0"><path clip-rule="evenodd" d="m0 .328613h19.4783v41.058487h-19.4783z" fill="#fff" fill-rule="evenodd"/></mask><g mask="url(#a)"><path d="m19.4783.328613c10.7405 0 19.4787 9.209257 19.4787 20.529287 0 11.3204-8.7382 20.5292-19.4787 20.5292v-5.8678c7.6692 0 13.9085-6.5755 13.9085-14.6585 0-8.0826-6.2393-14.65856-13.9085-14.65856z" fill="#d5b8e4"/></g><g mask="url(#b)"><path d="m19.4783 6.20224c-7.6688 0-13.90814 6.57596-13.90814 14.65856 0 8.083 6.23934 14.6585 13.90814 14.6585v5.8678c-10.74049 0-19.4783-9.2088-19.4783-20.5292 0-11.32003 8.73781-20.529287 19.4783-20.529287z" fill="#974ebc"/></g><g fill="#974ebc"><path d="m54.0973 6.22095h-4.0003v29.24985h17.9965v-3.5397c0-.7955-.6148-1.4439-1.3701-1.4439h-11.2545v-22.82063c0-.79723-.6148-1.44562-1.3716-1.44562z"/><path d="m86.5013 35.4706h3.4778v-21.4494h-3.7773c-.7615 0-1.3791.6518-1.3791 1.4544v12.616l-.0436.0581c-.4867.6555-2.2855 2.7888-4.9966 2.7888-.7648 0-2.2066-.1843-3.2776-1.4251-.7663-.9164-1.0781-2.0418-1.0781-3.8866v-11.6056h-3.8205c-.7374 0-1.3359.6317-1.3359 1.4076v9.971c0 3.0241.6513 5.2737 2.0515 7.0822 1.6508 2.1542 4.231 3.4401 6.9041 3.4401 2.0804 0 3.9732-.7454 5.4721-2.1555l.3396-.3214v.4807c0 .8512.6564 1.5447 1.4636 1.5447z"/><path d="m111.447 35.4707h3.79v-10.9291c0-3.4414-.626-5.693-2.092-7.5295-1.731-2.1881-4.295-3.4423-7.035-3.4423-2.126 0-4.056.7274-5.733 2.1622l-.333.2859v-1.9966h-3.6083c-.7358 0-1.3347.6317-1.3347 1.4076v18.5907c0 .7994.6183 1.4511 1.3763 1.4511h3.7797v-14.0637l.039-.0564c.659-.9678 2.6-2.7976 5.215-2.7976 1.322 0 2.484.4553 3.269 1.2813.911.9615 1.3 2.2362 1.3 4.2575v9.9383c0 .7943.614 1.4406 1.367 1.4406z"/><path clip-rule="evenodd" d="m139.122 35.4703h-3.478c-.807 0-1.465-.6927-1.465-1.5443v-.4653l-.337.3006c-1.599 1.4343-3.499 2.1609-5.645 2.1609-2.955 0-5.826-1.3545-7.677-3.6266-1.679-2.0447-2.604-4.7181-2.604-7.527 0-6.2796 4.383-11.1988 9.981-11.1988 2.247 0 4.303.7471 5.949 2.1626l.333.2876v-.5347c0-.8068.622-1.464 1.389-1.464h3.554zm-5.193-7.3297.036-.056v-6.6801l-.041-.0572c-1.265-1.7747-3.196-2.7943-5.298-2.7943-3.166 0-5.554 2.6734-5.554 6.2156 0 3.5175 2.442 6.1704 5.683 6.1704 2.083 0 4.019-1.0464 5.174-2.7984z" fill-rule="evenodd"/></g></svg>