<svg width="150" height="70" viewBox="0 0 150 70" fill="none" xmlns="http://www.w3.org/2000/svg">
<g id="Linc Color">
<rect width="150" height="70" fill="white"/>
<path id="Fill 1" fill-rule="evenodd" clip-rule="evenodd" d="M62.7449 51.8169C62.3524 51.4391 62.1562 50.9761 62.1562 50.4288V26.3414C62.1562 25.7422 62.3524 25.2759 62.7449 24.9436C63.1374 24.611 63.608 24.4448 64.157 24.4448C64.6934 24.4448 65.1543 24.611 65.5404 24.9436C65.9261 25.2759 66.119 25.7422 66.119 26.3414V49.236H78.4594C78.9693 49.236 79.3617 49.3925 79.6365 49.7053C79.9108 50.0182 80.048 50.3896 80.048 50.8197C80.048 51.2371 79.9078 51.6018 79.6267 51.9147C79.3453 52.2275 78.9562 52.384 78.4594 52.384H64.157C63.608 52.384 63.1374 52.1951 62.7449 51.8169Z" fill="#622681"/>
<path id="Fill 3" fill-rule="evenodd" clip-rule="evenodd" d="M84.1003 51.8657C83.7145 51.533 83.5217 51.0738 83.5217 50.4873V26.3218C83.5217 25.7353 83.7209 25.2728 84.1201 24.9338C84.5189 24.5948 84.9861 24.4253 85.5229 24.4253C86.0589 24.4253 86.5201 24.5914 86.9059 24.9237C87.2916 25.2563 87.4849 25.7226 87.4849 26.3218V50.4873C87.4849 51.0869 87.2883 51.5498 86.8958 51.8754C86.5037 52.2013 86.0327 52.3641 85.4836 52.3641C84.9473 52.3641 84.486 52.1979 84.1003 51.8657Z" fill="#622681"/>
<path id="Fill 5" fill-rule="evenodd" clip-rule="evenodd" d="M94.5972 51.9244C94.2372 51.6183 94.0578 51.1912 94.0578 50.6435V26.9671C94.0578 26.1849 94.2701 25.5689 94.6951 25.1194C95.1197 24.6699 95.6531 24.4448 96.2941 24.4448C96.752 24.4448 97.226 24.5755 97.7167 24.8357C98.2068 25.097 98.6288 25.4812 98.9816 25.9893L113.264 46.7138V26.1849C113.264 25.6376 113.441 25.2109 113.794 24.9044C114.147 24.5983 114.579 24.4448 115.089 24.4448C115.573 24.4448 115.998 24.5983 116.364 24.9044C116.73 25.2109 116.913 25.6376 116.913 26.1849V49.8617C116.913 50.6308 116.681 51.2434 116.217 51.6993C115.753 52.1559 115.18 52.3836 114.5 52.3836C114.055 52.3836 113.611 52.2731 113.166 52.0513C112.721 51.8299 112.355 51.5107 112.067 51.0934L97.7261 30.3689V50.6435C97.7261 51.1912 97.5429 51.6183 97.1766 51.9244C96.8107 52.2305 96.379 52.3836 95.8822 52.3836C95.3847 52.3836 94.9567 52.2305 94.5972 51.9244Z" fill="#622681"/>
<path id="Fill 7" fill-rule="evenodd" clip-rule="evenodd" d="M127.92 50.8978C125.932 49.6206 124.441 47.913 123.447 45.7752C122.453 43.6379 121.956 41.2198 121.956 38.5218C121.956 36.5147 122.26 34.6309 122.868 32.8714C123.476 31.1118 124.337 29.5771 125.449 28.267C126.56 26.957 127.959 25.924 129.647 25.1684C131.334 24.4124 133.204 24.0342 135.258 24.0342C137.795 24.0342 140.156 24.6401 142.34 25.8527C142.915 26.1652 143.204 26.615 143.204 27.2015C143.204 27.6189 143.059 27.9837 142.771 28.2962C142.484 28.609 142.137 28.7654 141.732 28.7654C141.536 28.7654 141.32 28.7135 141.085 28.609C141.032 28.5832 140.871 28.5015 140.604 28.3648C140.335 28.2278 140.116 28.1237 139.947 28.052C139.777 27.9803 139.515 27.8829 139.162 27.7589C138.809 27.635 138.468 27.5372 138.142 27.4655C137.815 27.3938 137.406 27.3318 136.915 27.2796C136.425 27.2277 135.918 27.2015 135.395 27.2015C134.127 27.2015 132.975 27.3972 131.942 27.788C130.909 28.1789 130.039 28.7203 129.333 29.4109C128.627 30.1016 128.031 30.9229 127.548 31.8742C127.064 32.8258 126.71 33.8521 126.488 34.9534C126.266 36.0551 126.155 37.2248 126.155 38.4631C126.155 39.7015 126.266 40.8678 126.488 41.9628C126.71 43.0578 127.064 44.0777 127.548 45.0226C128.031 45.9675 128.629 46.7791 129.343 47.4567C130.055 48.1347 130.938 48.669 131.991 49.0598C133.044 49.4511 134.218 49.6463 135.513 49.6463C136.677 49.6463 137.697 49.4933 138.573 49.1868C139.45 48.881 140.398 48.4408 141.418 47.8674C141.68 47.724 141.928 47.6524 142.163 47.6524C142.568 47.6524 142.915 47.8021 143.204 48.1019C143.491 48.4016 143.635 48.7537 143.635 49.1576C143.635 49.7572 143.308 50.2657 142.654 50.6827C140.469 52.1032 137.893 52.8137 134.924 52.8137C132.243 52.8137 129.908 52.1753 127.92 50.8978Z" fill="#622681"/>
<path id="Fill 9" fill-rule="evenodd" clip-rule="evenodd" d="M21.0031 63.4411C20.8895 63.3306 20.8327 63.1857 20.8327 63.0073V58.746H19.5248C19.3888 58.746 19.2804 58.7016 19.2 58.6124C19.1196 58.5231 19.0797 58.4171 19.0797 58.2947C19.0797 58.1718 19.1204 58.0647 19.2023 57.9729C19.2837 57.8806 19.3914 57.8347 19.5248 57.8347H23.2873C23.4181 57.8347 23.5247 57.8806 23.6061 57.9729C23.688 58.0647 23.7287 58.1707 23.7287 58.2906C23.7287 58.413 23.6884 58.5198 23.6084 58.6105C23.528 58.7009 23.4211 58.746 23.2873 58.746H21.9839V63.0073C21.9839 63.1857 21.9271 63.3306 21.8131 63.4411C21.6995 63.5516 21.5638 63.6068 21.4061 63.6068C21.2509 63.6068 21.1168 63.5516 21.0031 63.4411Z" fill="#009EC7"/>
<path id="Fill 11" fill-rule="evenodd" clip-rule="evenodd" d="M28.1088 63.0513C28.1088 63.2246 28.0613 63.3597 27.9664 63.4572C27.8714 63.5542 27.7503 63.6031 27.6034 63.6031C27.4588 63.6031 27.3392 63.5542 27.2442 63.4572C27.1493 63.3597 27.1018 63.2246 27.1018 63.0513V61.0686C27.1018 60.7942 27.0319 60.5844 26.8914 60.4391C26.7508 60.2939 26.571 60.2211 26.352 60.2211C26.0844 60.2211 25.8519 60.3238 25.6541 60.5291C25.456 60.7341 25.357 61.0021 25.357 61.3325V63.0513C25.357 63.2272 25.3103 63.3631 25.2168 63.459C25.123 63.555 25.0015 63.6031 24.8516 63.6031C24.7047 63.6031 24.5844 63.5542 24.4906 63.4572C24.3971 63.3597 24.3504 63.2246 24.3504 63.0513L24.3463 58.3865C24.3463 58.2133 24.393 58.0785 24.4868 57.9826C24.5803 57.887 24.7006 57.8389 24.8475 57.8389C24.9974 57.8389 25.1196 57.887 25.2146 57.9826C25.3095 58.0785 25.357 58.2133 25.357 58.3865V60.1371C25.6272 59.7376 26.0548 59.5375 26.6406 59.5375C26.8387 59.5375 27.0237 59.5678 27.1964 59.6279C27.3687 59.6876 27.5238 59.7768 27.6614 59.8956C27.7993 60.0139 27.908 60.1733 27.9884 60.3731C28.0688 60.5732 28.1088 60.8024 28.1088 61.0607V63.0513Z" fill="#009EC7"/>
<path id="Fill 13" fill-rule="evenodd" clip-rule="evenodd" d="M31.907 61.2525C31.8857 60.946 31.7968 60.6944 31.6405 60.4972C31.4839 60.2997 31.2522 60.2012 30.9445 60.2012C30.6451 60.2012 30.4104 60.3039 30.2407 60.5092C30.0706 60.7145 29.9738 60.962 29.9495 61.2525H31.907ZM29.1657 60.5551C29.3193 60.2527 29.5485 60.0082 29.8535 59.8215C30.1581 59.6348 30.5125 59.5415 30.9165 59.5415C31.2264 59.5415 31.5015 59.593 31.7407 59.6957C31.9799 59.798 32.1724 59.9402 32.3182 60.1213C32.464 60.3027 32.5742 60.5062 32.649 60.7328C32.7241 60.9594 32.763 61.2047 32.7652 61.4683C32.7652 61.5724 32.7413 61.6564 32.6935 61.7203C32.6453 61.7841 32.5731 61.8162 32.4767 61.8162H29.9417C29.9843 62.5677 30.3708 62.9433 31.1008 62.9433C31.4323 62.9433 31.7867 62.8089 32.1638 62.5397C32.212 62.5024 32.264 62.4837 32.3201 62.4837C32.403 62.4837 32.4767 62.5211 32.541 62.5957C32.6049 62.6704 32.637 62.754 32.637 62.8474C32.637 62.9541 32.5944 63.0449 32.5088 63.1192C32.0861 63.4738 31.5931 63.6508 31.0286 63.6508C30.3951 63.6508 29.8875 63.4671 29.5066 63.0994C29.1254 62.7316 28.9347 62.2187 28.9347 61.5605C28.9347 61.1924 29.0117 60.8575 29.1657 60.5551Z" fill="#009EC7"/>
<path id="Fill 15" fill-rule="evenodd" clip-rule="evenodd" d="M36.1549 63.3973C36.0454 63.26 35.9905 63.0953 35.9905 62.9038V58.4387C35.9905 58.2603 36.048 58.1162 36.1628 58.0072C36.2779 57.8978 36.4143 57.8433 36.5721 57.8433C36.7272 57.8433 36.861 57.8978 36.9732 58.0072C37.0857 58.1162 37.1417 58.2603 37.1417 58.4387L37.1458 62.6917H39.408C39.5392 62.6917 39.6438 62.7377 39.7227 62.8295C39.8016 62.9217 39.8412 63.0289 39.8412 63.1513C39.8412 63.2715 39.8016 63.3768 39.7227 63.4672C39.6438 63.5579 39.5392 63.603 39.408 63.603H36.5762C36.405 63.603 36.2645 63.5347 36.1549 63.3973Z" fill="#009EC7"/>
<path id="Fill 17" fill-rule="evenodd" clip-rule="evenodd" d="M43.1863 61.2525C43.165 60.946 43.0761 60.6944 42.9198 60.4972C42.7632 60.2997 42.5315 60.2012 42.2238 60.2012C41.9244 60.2012 41.6897 60.3039 41.52 60.5092C41.3499 60.7145 41.2531 60.962 41.2288 61.2525H43.1863ZM40.445 60.5551C40.5986 60.2527 40.8278 60.0082 41.1328 59.8215C41.4374 59.6348 41.7918 59.5415 42.1958 59.5415C42.5057 59.5415 42.7808 59.593 43.02 59.6957C43.2592 59.798 43.4517 59.9402 43.5975 60.1213C43.7433 60.3027 43.8535 60.5062 43.9283 60.7328C44.0034 60.9594 44.0423 61.2047 44.0445 61.4683C44.0445 61.5724 44.0206 61.6564 43.9728 61.7203C43.9245 61.7841 43.8524 61.8162 43.756 61.8162H41.221C41.2636 62.5677 41.6501 62.9433 42.3801 62.9433C42.7116 62.9433 43.066 62.8089 43.4431 62.5397C43.4913 62.5024 43.5433 62.4837 43.5994 62.4837C43.6823 62.4837 43.756 62.5211 43.8203 62.5957C43.8842 62.6704 43.9163 62.754 43.9163 62.8474C43.9163 62.9541 43.8737 63.0449 43.7881 63.1192C43.3654 63.4738 42.8724 63.6508 42.3079 63.6508C41.6744 63.6508 41.1668 63.4671 40.7859 63.0994C40.4046 62.7316 40.214 62.2187 40.214 61.5605C40.214 61.1924 40.291 60.8575 40.445 60.5551Z" fill="#009EC7"/>
<path id="Fill 19" fill-rule="evenodd" clip-rule="evenodd" d="M46.8004 62.7035C47.0064 62.4933 47.1092 62.2268 47.1092 61.9042V61.7881C46.8419 61.7881 46.63 61.7922 46.4734 61.8C46.3171 61.8083 46.1687 61.8236 46.0282 61.8463C45.888 61.8687 45.7841 61.9046 45.7176 61.9542C45.6507 62.0035 45.5983 62.0673 45.561 62.1457C45.5236 62.2245 45.5049 62.3253 45.5049 62.4478C45.5049 62.6341 45.5591 62.7763 45.6671 62.8734C45.7755 62.9708 45.9194 63.0193 46.0985 63.0193C46.3605 63.0193 46.5945 62.9141 46.8004 62.7035ZM44.9734 63.3453C44.7129 63.144 44.582 62.8633 44.582 62.5038C44.582 62.344 44.5989 62.2032 44.6325 62.0819C44.6658 61.9606 44.7129 61.856 44.7727 61.7683C44.8328 61.6802 44.9177 61.6055 45.0276 61.5443C45.1371 61.4831 45.2533 61.4331 45.3763 61.3946C45.4997 61.3558 45.6552 61.3259 45.8435 61.3043C46.0323 61.2833 46.2229 61.2692 46.4154 61.2624C46.6079 61.2561 46.8404 61.2524 47.1133 61.2524V60.9447C47.1133 60.6942 47.0538 60.5109 46.9346 60.3952C46.8157 60.2791 46.6386 60.2212 46.4035 60.2212C46.3526 60.2212 46.3011 60.2231 46.2487 60.2272C46.1968 60.2313 46.1441 60.238 46.0906 60.247C46.0372 60.2567 45.9901 60.2645 45.9501 60.2712C45.9101 60.278 45.8619 60.2892 45.8054 60.3052C45.7494 60.3213 45.7067 60.3332 45.6772 60.3411C45.6481 60.3493 45.6051 60.3631 45.549 60.3832C45.4926 60.403 45.4567 60.4157 45.4406 60.4209C45.4245 60.4265 45.3887 60.4404 45.3322 60.4631C45.2761 60.4859 45.2466 60.4971 45.244 60.4971C45.2145 60.5102 45.1771 60.5173 45.1319 60.5173C45.038 60.5173 44.9584 60.4777 44.893 60.3993C44.8276 60.3205 44.7947 60.2317 44.7947 60.1331C44.7947 60.0028 44.8538 59.9095 44.9711 59.8535C45.4152 59.6455 45.9086 59.5417 46.4513 59.5417C46.6976 59.5417 46.9178 59.5697 47.1133 59.6257C47.3084 59.6817 47.4807 59.7684 47.6306 59.8856C47.7805 60.0028 47.896 60.1611 47.9775 60.3612C48.0593 60.5609 48.1001 60.7969 48.1001 61.0687V63.0992C48.1001 63.259 48.0533 63.383 47.9595 63.4711C47.8661 63.5592 47.7536 63.6029 47.6227 63.6029C47.4915 63.6029 47.3787 63.5592 47.2837 63.4711C47.1888 63.383 47.1413 63.259 47.1413 63.0992V62.9675C47.0557 63.1702 46.9174 63.3344 46.726 63.461C46.535 63.5876 46.2842 63.651 45.9744 63.651C45.5677 63.648 45.2343 63.5465 44.9734 63.3453Z" fill="#009EC7"/>
<path id="Fill 21" fill-rule="evenodd" clip-rule="evenodd" d="M49.3012 63.4613C49.2062 63.3668 49.1588 63.2313 49.1588 63.0555V60.0733C49.1588 59.9217 49.2088 59.8037 49.309 59.7197C49.4096 59.6357 49.5292 59.5939 49.6682 59.5939C49.8046 59.5939 49.9231 59.6346 50.0233 59.7156C50.1235 59.797 50.1724 59.9083 50.1695 60.0494L50.1575 60.4612C50.2296 60.2215 50.3668 60.0158 50.5687 59.8437C50.7705 59.6719 50.9974 59.5857 51.2486 59.5857C51.3715 59.5857 51.4665 59.6271 51.5334 59.7096C51.6003 59.7921 51.6336 59.8922 51.6336 60.0094C51.6336 60.1214 51.6029 60.22 51.5412 60.3051C51.4799 60.3906 51.397 60.4332 51.2927 60.4332C51.1349 60.4332 50.9951 60.4459 50.8737 60.4712C50.7518 60.4966 50.6348 60.5411 50.5227 60.6053C50.4102 60.6691 50.3235 60.7665 50.2618 60.8968C50.2005 61.0275 50.1695 61.1873 50.1695 61.3766V63.0637C50.1695 63.2365 50.122 63.3698 50.027 63.4631C49.9321 63.5565 49.8099 63.6031 49.66 63.6031C49.5157 63.6031 49.3961 63.5557 49.3012 63.4613Z" fill="#009EC7"/>
<path id="Fill 23" fill-rule="evenodd" clip-rule="evenodd" d="M52.4039 63.4572C52.3104 63.3598 52.2637 63.2246 52.2637 63.0514V60.0972C52.2637 59.9374 52.3115 59.8135 52.408 59.7258C52.5044 59.6377 52.6259 59.5936 52.7728 59.5936C52.9174 59.5936 53.0363 59.6373 53.1298 59.7239C53.2236 59.8101 53.2703 59.9322 53.2703 60.0894V60.2294C53.388 60.0028 53.5596 59.831 53.7857 59.7138C54.0115 59.5966 54.281 59.5376 54.5939 59.5376C54.7867 59.5376 54.9676 59.569 55.1373 59.6317C55.3074 59.6944 55.4588 59.7862 55.5926 59.9076C55.7264 60.0289 55.8318 60.1894 55.9096 60.3892C55.9869 60.5889 56.0258 60.817 56.0258 61.0727V63.0514C56.0258 63.2246 55.978 63.3598 55.8815 63.4572C55.7851 63.5543 55.6621 63.6032 55.5126 63.6032C55.3706 63.6032 55.2532 63.5543 55.1598 63.4572C55.0659 63.3598 55.0192 63.2246 55.0192 63.0514V61.069C55.0192 60.7942 54.9475 60.5844 54.8047 60.4392C54.6615 60.294 54.4791 60.2215 54.2571 60.2215C53.9895 60.2215 53.7585 60.3268 53.5633 60.537C53.3679 60.7476 53.2703 61.0223 53.2703 61.3606V63.0514C53.2703 63.2246 53.2228 63.3598 53.1279 63.4572C53.0329 63.5543 52.9118 63.6032 52.7649 63.6032C52.6177 63.6032 52.4973 63.5543 52.4039 63.4572Z" fill="#009EC7"/>
<path id="Fill 25" fill-rule="evenodd" clip-rule="evenodd" d="M57.217 63.4573C57.1236 63.3598 57.0768 63.2221 57.0768 63.0436V60.1574C57.0768 59.9789 57.1236 59.8404 57.217 59.7415C57.3105 59.6433 57.4308 59.5936 57.5781 59.5936C57.725 59.5936 57.8461 59.6433 57.941 59.7415C58.036 59.8404 58.0834 59.9789 58.0834 60.1574V63.0436C58.0834 63.2194 58.036 63.3565 57.941 63.4554C57.8461 63.5539 57.725 63.6032 57.5781 63.6032C57.4308 63.6032 57.3105 63.5543 57.217 63.4573ZM57.1546 58.6405C57.0466 58.5378 56.9924 58.4038 56.9924 58.2388C56.9924 58.0734 57.0466 57.9401 57.1546 57.839C57.2634 57.7378 57.4054 57.687 57.5822 57.687C57.7556 57.687 57.8962 57.7378 58.0034 57.839C58.11 57.9401 58.1638 58.0734 58.1638 58.2388C58.1638 58.4038 58.1096 58.5378 58.0012 58.6405C57.8928 58.7432 57.7519 58.7943 57.5781 58.7943C57.4039 58.7943 57.2634 58.7432 57.1546 58.6405Z" fill="#009EC7"/>
<path id="Fill 27" fill-rule="evenodd" clip-rule="evenodd" d="M59.2425 63.4572C59.1491 63.3598 59.1024 63.2246 59.1024 63.0514V60.0972C59.1024 59.9374 59.1502 59.8135 59.2466 59.7258C59.3431 59.6377 59.4646 59.5936 59.6114 59.5936C59.7561 59.5936 59.875 59.6373 59.9684 59.7239C60.0619 59.8101 60.1089 59.9322 60.1089 60.0894V60.2294C60.2267 60.0028 60.3986 59.831 60.6244 59.7138C60.8505 59.5966 61.1197 59.5376 61.4325 59.5376C61.625 59.5376 61.8063 59.569 61.976 59.6317C62.1461 59.6944 62.2978 59.7862 62.4313 59.9076C62.5651 60.0289 62.6708 60.1894 62.7482 60.3892C62.826 60.5889 62.8645 60.817 62.8645 61.0727V63.0514C62.8645 63.2246 62.8166 63.3598 62.7202 63.4572C62.6241 63.5543 62.5008 63.6032 62.3509 63.6032C62.2092 63.6032 62.0919 63.5543 61.998 63.4572C61.9046 63.3598 61.8579 63.2246 61.8579 63.0514V61.069C61.8579 60.7942 61.7865 60.5844 61.6433 60.4392C61.5002 60.294 61.3178 60.2215 61.0957 60.2215C60.8281 60.2215 60.5967 60.3268 60.402 60.537C60.2065 60.7476 60.1089 61.0223 60.1089 61.3606V63.0514C60.1089 63.2246 60.0615 63.3598 59.9665 63.4572C59.8716 63.5543 59.7505 63.6032 59.6036 63.6032C59.4563 63.6032 59.336 63.5543 59.2425 63.4572Z" fill="#009EC7"/>
<path id="Fill 29" fill-rule="evenodd" clip-rule="evenodd" d="M66.5028 62.6098C66.6874 62.3952 66.7794 62.0603 66.7794 61.6045C66.7794 60.6797 66.44 60.2175 65.7608 60.2175C65.611 60.2175 65.476 60.2422 65.3557 60.2914C65.2353 60.3407 65.1351 60.4072 65.0548 60.4912C64.9744 60.5752 64.9075 60.6764 64.8544 60.7951C64.8006 60.9138 64.7621 61.0389 64.7378 61.171C64.7139 61.3028 64.7019 61.4447 64.7019 61.5966C64.7019 62.036 64.8028 62.3687 65.0047 62.5938C65.2065 62.8193 65.4599 62.9343 65.7646 62.9395C66.0726 62.9343 66.3185 62.8245 66.5028 62.6098ZM66.7794 62.9638C66.5525 63.3927 66.1537 63.607 65.5844 63.607C65.0066 63.607 64.5442 63.4293 64.1966 63.0735C63.8486 62.7177 63.6751 62.2346 63.6751 61.6246C63.6751 61.009 63.8441 60.5087 64.1824 60.1234C64.5206 59.7385 64.98 59.5459 65.5605 59.5459C65.8838 59.5459 66.1376 59.6019 66.3226 59.7139C66.5069 59.8255 66.6661 59.9883 66.7996 60.2015V60.0178C66.813 59.8815 66.8631 59.777 66.9498 59.7038C67.0369 59.6306 67.142 59.5937 67.2649 59.5937C67.404 59.5937 67.5184 59.6433 67.6077 59.7415C67.6974 59.8405 67.7423 59.9775 67.7423 60.1533V63.4312C67.7423 64.0629 67.5584 64.5437 67.1909 64.8741C66.8228 65.2049 66.3238 65.3699 65.6924 65.3699C65.4061 65.3699 65.1329 65.34 64.8724 65.2799C64.6115 65.2202 64.4089 65.1459 64.2646 65.0582C64.1416 64.9835 64.0803 64.8823 64.0803 64.7543C64.0803 64.6636 64.111 64.584 64.1726 64.5146C64.2339 64.4452 64.3117 64.4104 64.4051 64.4104C64.4477 64.4104 64.4904 64.4186 64.5333 64.4347C64.5576 64.4425 64.6294 64.4672 64.7501 64.5086C64.8705 64.5497 64.9583 64.5784 65.0148 64.5945C65.0708 64.6105 65.1546 64.6277 65.2652 64.6464C65.3762 64.665 65.4854 64.6744 65.5923 64.6744C65.9664 64.6744 66.2583 64.5818 66.4665 64.3966C66.6755 64.2114 66.7794 63.9296 66.7794 63.551V62.9638Z" fill="#009EC7"/>
<path id="Fill 31" fill-rule="evenodd" clip-rule="evenodd" d="M71.4364 63.4352C71.3243 63.3261 71.2682 63.182 71.2682 63.0036V58.4265C71.2682 58.2481 71.325 58.104 71.4386 57.9949C71.5523 57.8856 71.6864 57.8311 71.8416 57.8311C71.9967 57.8311 72.1316 57.8856 72.2467 57.9949C72.3619 58.104 72.4194 58.2481 72.4194 58.4265V63.0036C72.4194 63.182 72.3619 63.3261 72.2467 63.4352C72.1316 63.5445 71.9952 63.5991 71.8375 63.5991C71.6823 63.5991 71.5489 63.5445 71.4364 63.4352Z" fill="#009EC7"/>
<path id="Fill 33" fill-rule="evenodd" clip-rule="evenodd" d="M73.8069 63.4572C73.7134 63.3598 73.6667 63.2246 73.6667 63.0514V60.0972C73.6667 59.9374 73.7145 59.8135 73.811 59.7258C73.9074 59.6377 74.0289 59.5936 74.1758 59.5936C74.3204 59.5936 74.4393 59.6373 74.5327 59.7239C74.6262 59.8101 74.6733 59.9322 74.6733 60.0894V60.2294C74.7906 60.0028 74.9626 59.831 75.1887 59.7138C75.4145 59.5966 75.684 59.5376 75.9968 59.5376C76.1893 59.5376 76.3706 59.569 76.5403 59.6317C76.71 59.6944 76.8618 59.7862 76.9956 59.9076C77.129 60.0289 77.2348 60.1894 77.3122 60.3892C77.3899 60.5889 77.4288 60.817 77.4288 61.0727V63.0514C77.4288 63.2246 77.3806 63.3598 77.2841 63.4572C77.1881 63.5543 77.0647 63.6032 76.9152 63.6032C76.7736 63.6032 76.6562 63.5543 76.5624 63.4572C76.4689 63.3598 76.4222 63.2246 76.4222 63.0514V61.069C76.4222 60.7942 76.3504 60.5844 76.2073 60.4392C76.0645 60.294 75.8817 60.2215 75.6601 60.2215C75.3924 60.2215 75.1611 60.3268 74.966 60.537C74.7708 60.7476 74.6733 61.0223 74.6733 61.3606V63.0514C74.6733 63.2246 74.6258 63.3598 74.5309 63.4572C74.4359 63.5543 74.3148 63.6032 74.1679 63.6032C74.0207 63.6032 73.9003 63.5543 73.8069 63.4572Z" fill="#009EC7"/>
<path id="Fill 35" fill-rule="evenodd" clip-rule="evenodd" d="M78.5961 63.4572C78.5027 63.3598 78.4559 63.2246 78.4559 63.0514V60.0972C78.4559 59.9374 78.5038 59.8135 78.6002 59.7258C78.6966 59.6377 78.8181 59.5936 78.965 59.5936C79.1097 59.5936 79.2285 59.6373 79.322 59.7239C79.4154 59.8101 79.4625 59.9322 79.4625 60.0894V60.2294C79.5803 60.0028 79.7522 59.831 79.978 59.7138C80.2041 59.5966 80.4732 59.5376 80.7861 59.5376C80.9786 59.5376 81.1599 59.569 81.3296 59.6317C81.4996 59.6944 81.6514 59.7862 81.7848 59.9076C81.9186 60.0289 82.0244 60.1894 82.1018 60.3892C82.1795 60.5889 82.218 60.817 82.218 61.0727V63.0514C82.218 63.2246 82.1702 63.3598 82.0738 63.4572C81.9777 63.5543 81.8544 63.6032 81.7045 63.6032C81.5628 63.6032 81.4454 63.5543 81.3516 63.4572C81.2582 63.3598 81.2114 63.2246 81.2114 63.0514V61.069C81.2114 60.7942 81.1401 60.5844 80.9969 60.4392C80.8537 60.294 80.6713 60.2215 80.4493 60.2215C80.1817 60.2215 79.9503 60.3268 79.7556 60.537C79.5601 60.7476 79.4625 61.0223 79.4625 61.3606V63.0514C79.4625 63.2246 79.4151 63.3598 79.3201 63.4572C79.2252 63.5543 79.1041 63.6032 78.9572 63.6032C78.8099 63.6032 78.6895 63.5543 78.5961 63.4572Z" fill="#009EC7"/>
<path id="Fill 37" fill-rule="evenodd" clip-rule="evenodd" d="M85.9484 62.6078C86.1409 62.3677 86.2369 62.0321 86.2369 61.6005C86.2369 61.1659 86.1409 60.8277 85.9484 60.585C85.7555 60.3427 85.4856 60.2214 85.138 60.2214C84.7904 60.2214 84.5213 60.342 84.3299 60.5832C84.1385 60.8243 84.0428 61.1633 84.0428 61.6005C84.0428 62.0321 84.1393 62.3677 84.3318 62.6078C84.5242 62.8478 84.793 62.9673 85.138 62.9673C85.4856 62.9673 85.7555 62.8478 85.9484 62.6078ZM84.1994 63.4791C83.924 63.3645 83.7042 63.2099 83.5397 63.0154C83.3752 62.8209 83.25 62.6037 83.1648 62.364C83.0788 62.1243 83.0362 61.8697 83.0362 61.6005C83.0362 61.3873 83.0624 61.1813 83.1143 60.9826C83.1667 60.7844 83.2485 60.597 83.361 60.4211C83.4735 60.2453 83.6104 60.0922 83.7726 59.9616C83.934 59.8309 84.1322 59.7279 84.3661 59.6517C84.6001 59.5755 84.8573 59.5378 85.138 59.5378C85.4135 59.5378 85.6669 59.5744 85.8979 59.6476C86.1293 59.7211 86.3266 59.8212 86.4896 59.9478C86.6529 60.0739 86.792 60.2248 86.9067 60.3991C87.0219 60.5738 87.1071 60.7624 87.1617 60.9647C87.2166 61.1674 87.2439 61.3791 87.2439 61.6005C87.2439 61.8111 87.2177 62.0134 87.1658 62.2079C87.1134 62.4024 87.0319 62.5883 86.9213 62.7657C86.8103 62.9426 86.6735 63.0961 86.512 63.2253C86.3498 63.3544 86.1513 63.4578 85.9162 63.5351C85.6807 63.6124 85.4217 63.6509 85.138 63.6509C84.7878 63.6509 84.4749 63.5937 84.1994 63.4791Z" fill="#009EC7"/>
<path id="Fill 39" fill-rule="evenodd" clip-rule="evenodd" d="M89.2211 63.4533C89.1012 63.3371 88.9845 63.1288 88.872 62.8275L87.8053 60.2411C87.7787 60.1776 87.7649 60.1108 87.7649 60.0414C87.7649 59.9111 87.8131 59.8017 87.9095 59.7136C88.006 59.6258 88.1155 59.5818 88.2385 59.5818C88.3319 59.5818 88.4179 59.6098 88.4953 59.6658C88.573 59.7218 88.6332 59.8069 88.6758 59.9215L89.7269 62.5879L90.7776 59.9215C90.8202 59.8069 90.8804 59.7218 90.9577 59.6658C91.0355 59.6098 91.1211 59.5818 91.2149 59.5818C91.3379 59.5818 91.4474 59.6258 91.5438 59.7136C91.6399 59.8017 91.6881 59.9111 91.6881 60.0414C91.6881 60.1108 91.6746 60.1776 91.6477 60.2411L90.5769 62.8275C90.4647 63.1288 90.3492 63.3371 90.23 63.4533C90.1111 63.5694 89.9433 63.6272 89.7269 63.6272C89.5097 63.6272 89.3415 63.5694 89.2211 63.4533Z" fill="#009EC7"/>
<path id="Fill 41" fill-rule="evenodd" clip-rule="evenodd" d="M94.3636 62.7035C94.5695 62.4933 94.6723 62.2268 94.6723 61.9042V61.7881C94.4047 61.7881 94.1931 61.7922 94.0365 61.8C93.8803 61.8083 93.7319 61.8236 93.5917 61.8463C93.4512 61.8687 93.3473 61.9046 93.2807 61.9542C93.2138 62.0035 93.1615 62.0673 93.1241 62.1457C93.0867 62.2245 93.068 62.3253 93.068 62.4478C93.068 62.6341 93.1222 62.7763 93.2306 62.8734C93.3387 62.9708 93.4826 63.0193 93.6616 63.0193C93.9236 63.0193 94.1576 62.9141 94.3636 62.7035ZM92.5365 63.3453C92.2756 63.144 92.1452 62.8633 92.1452 62.5038C92.1452 62.344 92.162 62.2032 92.1956 62.0819C92.2289 61.9606 92.2756 61.856 92.3358 61.7683C92.396 61.6802 92.4808 61.6055 92.5907 61.5443C92.7002 61.4831 92.8165 61.4331 92.9395 61.3946C93.0628 61.3558 93.2187 61.3259 93.4067 61.3043C93.5954 61.2833 93.7861 61.2692 93.9786 61.2624C94.1707 61.2561 94.4036 61.2524 94.6764 61.2524V60.9447C94.6764 60.6942 94.617 60.5109 94.4978 60.3952C94.3789 60.2791 94.2017 60.2212 93.9666 60.2212C93.9158 60.2212 93.8642 60.2231 93.8119 60.2272C93.7599 60.2313 93.7068 60.238 93.6538 60.247C93.5999 60.2567 93.5532 60.2645 93.5132 60.2712C93.4728 60.278 93.425 60.2892 93.3689 60.3052C93.3125 60.3213 93.2699 60.3332 93.2404 60.3411C93.2108 60.3493 93.1682 60.3631 93.1118 60.3832C93.0561 60.403 93.0198 60.4157 93.0037 60.4209C92.9877 60.4265 92.9518 60.4404 92.8954 60.4631C92.8393 60.4859 92.8101 60.4971 92.8071 60.4971C92.778 60.5102 92.7402 60.5173 92.695 60.5173C92.6012 60.5173 92.5216 60.4777 92.4562 60.3993C92.3907 60.3205 92.3582 60.2317 92.3582 60.1331C92.3582 60.0028 92.4169 59.9095 92.5343 59.8535C92.9783 59.6455 93.4717 59.5417 94.0145 59.5417C94.2608 59.5417 94.4809 59.5697 94.6764 59.6257C94.8715 59.6817 95.0438 59.7684 95.1941 59.8856C95.3436 60.0028 95.4595 60.1611 95.5406 60.3612C95.6221 60.5609 95.6632 60.7969 95.6632 61.0687V63.0992C95.6632 63.259 95.6165 63.383 95.523 63.4711C95.4292 63.5592 95.3167 63.6029 95.1859 63.6029C95.0551 63.6029 94.9418 63.5592 94.8469 63.4711C94.7519 63.383 94.7045 63.259 94.7045 63.0992V62.9675C94.6189 63.1702 94.4802 63.3344 94.2896 63.461C94.0982 63.5876 93.8474 63.651 93.5371 63.651C93.1308 63.648 92.7974 63.5465 92.5365 63.3453Z" fill="#009EC7"/>
<path id="Fill 43" fill-rule="evenodd" clip-rule="evenodd" d="M97.3337 63.3052C97.1293 63.0853 97.0272 62.7691 97.0272 62.3558V60.2894H96.6381C96.523 60.2894 96.4341 60.258 96.3713 60.1953C96.3085 60.1326 96.2771 60.0493 96.2771 59.9456C96.2771 59.847 96.3062 59.7675 96.3653 59.7077C96.424 59.6476 96.5111 59.6178 96.6258 59.6178H97.0471L97.1674 58.6266C97.1835 58.4825 97.2336 58.3645 97.3177 58.2727C97.4022 58.1808 97.5176 58.1345 97.6649 58.1345C97.7823 58.1345 97.8739 58.1733 97.9396 58.2506C98.0051 58.3279 98.038 58.444 98.038 58.5986V59.6178H98.6835C98.796 59.6178 98.8816 59.6491 98.9403 59.7119C98.9989 59.7742 99.0285 59.8575 99.0285 59.9616C99.0285 60.0628 98.9989 60.1427 98.9403 60.2013C98.8816 60.2599 98.7945 60.2894 98.6797 60.2894H98.038V62.1079C98.038 62.364 98.0701 62.5544 98.134 62.6799C98.1983 62.8049 98.3119 62.8676 98.4753 62.8676H98.519L98.8042 62.8516H98.8322C98.9418 62.8516 99.0285 62.8889 99.0928 62.9636C99.1571 63.0383 99.1892 63.126 99.1892 63.2275C99.1892 63.2914 99.1784 63.3474 99.1571 63.3952C99.1354 63.4433 99.1014 63.4818 99.0546 63.5113C99.0079 63.5404 98.9604 63.5643 98.9122 63.5829C98.864 63.6016 98.7993 63.6143 98.7175 63.621C98.636 63.6277 98.5657 63.6322 98.507 63.6348C98.448 63.6378 98.3706 63.6389 98.2746 63.6389H98.186C97.8227 63.6363 97.5386 63.5251 97.3337 63.3052Z" fill="#009EC7"/>
<path id="Fill 45" fill-rule="evenodd" clip-rule="evenodd" d="M100.035 63.4573C99.9418 63.3598 99.8947 63.2221 99.8947 63.0436V60.1574C99.8947 59.9789 99.9418 59.8404 100.035 59.7415C100.129 59.6433 100.249 59.5936 100.396 59.5936C100.543 59.5936 100.664 59.6433 100.759 59.7415C100.854 59.8404 100.902 59.9789 100.902 60.1574V63.0436C100.902 63.2194 100.854 63.3565 100.759 63.4554C100.664 63.5539 100.543 63.6032 100.396 63.6032C100.249 63.6032 100.129 63.5543 100.035 63.4573ZM99.9732 58.6405C99.8648 58.5378 99.8106 58.4038 99.8106 58.2388C99.8106 58.0734 99.8648 57.9401 99.9732 57.839C100.081 57.7378 100.224 57.687 100.4 57.687C100.574 57.687 100.714 57.7378 100.822 57.839C100.929 57.9401 100.982 58.0734 100.982 58.2388C100.982 58.4038 100.928 58.5378 100.819 58.6405C100.711 58.7432 100.57 58.7943 100.396 58.7943C100.223 58.7943 100.081 58.7432 99.9732 58.6405Z" fill="#009EC7"/>
<path id="Fill 47" fill-rule="evenodd" clip-rule="evenodd" d="M104.624 62.6078C104.816 62.3677 104.913 62.0321 104.913 61.6005C104.913 61.1659 104.816 60.8277 104.624 60.585C104.431 60.3427 104.161 60.2214 103.814 60.2214C103.466 60.2214 103.197 60.342 103.005 60.5832C102.814 60.8243 102.718 61.1633 102.718 61.6005C102.718 62.0321 102.815 62.3677 103.007 62.6078C103.2 62.8478 103.469 62.9673 103.814 62.9673C104.161 62.9673 104.431 62.8478 104.624 62.6078ZM102.875 63.4791C102.6 63.3645 102.38 63.2099 102.215 63.0154C102.051 62.8209 101.926 62.6037 101.84 62.364C101.754 62.1243 101.712 61.8697 101.712 61.6005C101.712 61.3873 101.738 61.1813 101.79 60.9826C101.842 60.7844 101.924 60.597 102.037 60.4211C102.149 60.2453 102.286 60.0922 102.448 59.9616C102.61 59.8309 102.808 59.7279 103.042 59.6517C103.276 59.5755 103.533 59.5378 103.814 59.5378C104.089 59.5378 104.342 59.5744 104.573 59.6476C104.805 59.7211 105.002 59.8212 105.165 59.9478C105.329 60.0739 105.468 60.2248 105.582 60.3991C105.697 60.5738 105.783 60.7624 105.837 60.9647C105.892 61.1674 105.919 61.3791 105.919 61.6005C105.919 61.8111 105.893 62.0134 105.841 62.2079C105.789 62.4024 105.708 62.5883 105.597 62.7657C105.486 62.9426 105.349 63.0961 105.188 63.2253C105.025 63.3544 104.827 63.4578 104.592 63.5351C104.356 63.6124 104.097 63.6509 103.814 63.6509C103.463 63.6509 103.151 63.5937 102.875 63.4791Z" fill="#009EC7"/>
<path id="Fill 49" fill-rule="evenodd" clip-rule="evenodd" d="M106.91 63.4572C106.817 63.3598 106.77 63.2246 106.77 63.0514V60.0972C106.77 59.9374 106.818 59.8135 106.914 59.7258C107.011 59.6377 107.132 59.5936 107.279 59.5936C107.424 59.5936 107.543 59.6373 107.636 59.7239C107.729 59.8101 107.776 59.9322 107.776 60.0894V60.2294C107.894 60.0028 108.066 59.831 108.292 59.7138C108.518 59.5966 108.787 59.5376 109.1 59.5376C109.293 59.5376 109.474 59.569 109.644 59.6317C109.814 59.6944 109.965 59.7862 110.099 59.9076C110.233 60.0289 110.338 60.1894 110.416 60.3892C110.494 60.5889 110.532 60.817 110.532 61.0727V63.0514C110.532 63.2246 110.484 63.3598 110.388 63.4572C110.292 63.5543 110.168 63.6032 110.018 63.6032C109.877 63.6032 109.759 63.5543 109.666 63.4572C109.572 63.3598 109.525 63.2246 109.525 63.0514V61.069C109.525 60.7942 109.454 60.5844 109.311 60.4392C109.168 60.294 108.985 60.2215 108.763 60.2215C108.496 60.2215 108.264 60.3268 108.07 60.537C107.874 60.7476 107.776 61.0223 107.776 61.3606V63.0514C107.776 63.2246 107.729 63.3598 107.634 63.4572C107.539 63.5543 107.418 63.6032 107.271 63.6032C107.124 63.6032 107.004 63.5543 106.91 63.4572Z" fill="#009EC7"/>
<path id="Fill 51" fill-rule="evenodd" clip-rule="evenodd" d="M115.099 63.3434C114.683 63.1011 114.356 62.7524 114.116 62.298C113.877 61.8437 113.757 61.3195 113.757 60.7252C113.757 60.2615 113.829 59.8378 113.973 59.454C114.118 59.0702 114.317 58.7491 114.571 58.4904C114.825 58.2321 115.127 58.0316 115.476 57.889C115.824 57.7464 116.202 57.675 116.609 57.675C117.12 57.675 117.621 57.7979 118.113 58.0428C118.298 58.1443 118.39 58.2828 118.39 58.4587C118.39 58.5811 118.346 58.6905 118.257 58.7865C118.169 58.8824 118.065 58.9302 117.945 58.9302C117.899 58.9302 117.848 58.9197 117.792 58.8985C117.771 58.8902 117.722 58.869 117.646 58.8342C117.569 58.7999 117.504 58.7723 117.449 58.7525C117.395 58.7323 117.324 58.7099 117.239 58.6845C117.153 58.6592 117.062 58.6397 116.966 58.6267C116.87 58.6132 116.769 58.6065 116.665 58.6065C116.122 58.6065 115.704 58.7797 115.41 59.1262C115.115 59.4726 114.968 59.9964 114.968 60.6972C114.968 61.3632 115.116 61.8769 115.412 62.2383C115.707 62.5993 116.133 62.7796 116.689 62.7796C117.058 62.7796 117.457 62.6639 117.884 62.4321C117.941 62.4026 117.997 62.388 118.053 62.388C118.162 62.388 118.256 62.4332 118.331 62.5239C118.408 62.6146 118.446 62.7184 118.446 62.8356C118.446 63.001 118.371 63.1354 118.221 63.2396C117.754 63.5513 117.182 63.707 116.508 63.707C115.984 63.707 115.515 63.5857 115.099 63.3434Z" fill="#009EC7"/>
<path id="Fill 53" fill-rule="evenodd" clip-rule="evenodd" d="M121.294 62.7035C121.5 62.4933 121.603 62.2268 121.603 61.9042V61.7881C121.335 61.7881 121.124 61.7922 120.967 61.8C120.811 61.8083 120.662 61.8236 120.522 61.8463C120.382 61.8687 120.278 61.9046 120.211 61.9542C120.144 62.0035 120.092 62.0673 120.055 62.1457C120.017 62.2245 119.999 62.3253 119.999 62.4478C119.999 62.6341 120.053 62.7763 120.161 62.8734C120.269 62.9708 120.413 63.0193 120.592 63.0193C120.854 63.0193 121.088 62.9141 121.294 62.7035ZM119.467 63.3453C119.206 63.144 119.076 62.8633 119.076 62.5038C119.076 62.344 119.093 62.2032 119.126 62.0819C119.159 61.9606 119.206 61.856 119.266 61.7683C119.326 61.6802 119.411 61.6055 119.521 61.5443C119.631 61.4831 119.747 61.4331 119.87 61.3946C119.993 61.3558 120.149 61.3259 120.337 61.3043C120.526 61.2833 120.717 61.2692 120.909 61.2624C121.101 61.2561 121.334 61.2524 121.607 61.2524V60.9447C121.607 60.6942 121.548 60.5109 121.428 60.3952C121.309 60.2791 121.132 60.2212 120.897 60.2212C120.846 60.2212 120.795 60.2231 120.742 60.2272C120.69 60.2313 120.637 60.238 120.584 60.247C120.53 60.2567 120.484 60.2645 120.444 60.2712C120.403 60.278 120.356 60.2892 120.299 60.3052C120.243 60.3213 120.2 60.3332 120.171 60.3411C120.141 60.3493 120.099 60.3631 120.042 60.3832C119.987 60.403 119.95 60.4157 119.934 60.4209C119.918 60.4265 119.882 60.4404 119.826 60.4631C119.77 60.4859 119.741 60.4971 119.738 60.4971C119.708 60.5102 119.671 60.5173 119.626 60.5173C119.532 60.5173 119.452 60.4777 119.387 60.3993C119.321 60.3205 119.289 60.2317 119.289 60.1331C119.289 60.0028 119.347 59.9095 119.465 59.8535C119.909 59.6455 120.402 59.5417 120.945 59.5417C121.191 59.5417 121.411 59.5697 121.607 59.6257C121.802 59.6817 121.974 59.7684 122.125 59.8856C122.274 60.0028 122.39 60.1611 122.471 60.3612C122.553 60.5609 122.594 60.7969 122.594 61.0687V63.0992C122.594 63.259 122.547 63.383 122.454 63.4711C122.36 63.5592 122.247 63.6029 122.116 63.6029C121.986 63.6029 121.872 63.5592 121.777 63.4711C121.682 63.383 121.635 63.259 121.635 63.0992V62.9675C121.549 63.1702 121.411 63.3344 121.22 63.461C121.029 63.5876 120.778 63.651 120.468 63.651C120.061 63.648 119.728 63.5465 119.467 63.3453Z" fill="#009EC7"/>
<path id="Fill 55" fill-rule="evenodd" clip-rule="evenodd" d="M124.264 63.3052C124.06 63.0853 123.958 62.7691 123.958 62.3558V60.2894H123.569C123.454 60.2894 123.365 60.258 123.302 60.1953C123.239 60.1326 123.208 60.0493 123.208 59.9456C123.208 59.847 123.237 59.7675 123.296 59.7077C123.354 59.6476 123.442 59.6178 123.556 59.6178H123.978L124.098 58.6266C124.114 58.4825 124.164 58.3645 124.248 58.2727C124.333 58.1808 124.448 58.1345 124.595 58.1345C124.713 58.1345 124.804 58.1733 124.87 58.2506C124.936 58.3279 124.968 58.444 124.968 58.5986V59.6178H125.614C125.726 59.6178 125.812 59.6491 125.871 59.7119C125.929 59.7742 125.959 59.8575 125.959 59.9616C125.959 60.0628 125.929 60.1427 125.871 60.2013C125.812 60.2599 125.725 60.2894 125.61 60.2894H124.968V62.1079C124.968 62.364 125.001 62.5544 125.065 62.6799C125.129 62.8049 125.242 62.8676 125.406 62.8676H125.45L125.735 62.8516H125.763C125.872 62.8516 125.959 62.8889 126.023 62.9636C126.088 63.0383 126.12 63.126 126.12 63.2275C126.12 63.2914 126.109 63.3474 126.088 63.3952C126.066 63.4433 126.032 63.4818 125.985 63.5113C125.938 63.5404 125.891 63.5643 125.843 63.5829C125.795 63.6016 125.73 63.6143 125.648 63.621C125.567 63.6277 125.496 63.6322 125.438 63.6348C125.379 63.6378 125.301 63.6389 125.205 63.6389H125.116C124.753 63.6363 124.469 63.5251 124.264 63.3052Z" fill="#009EC7"/>
<path id="Fill 57" fill-rule="evenodd" clip-rule="evenodd" d="M128.771 62.7035C128.977 62.4933 129.08 62.2268 129.08 61.9042V61.7881C128.812 61.7881 128.6 61.7922 128.444 61.8C128.288 61.8083 128.139 61.8236 127.999 61.8463C127.858 61.8687 127.755 61.9046 127.688 61.9542C127.621 62.0035 127.569 62.0673 127.531 62.1457C127.494 62.2245 127.475 62.3253 127.475 62.4478C127.475 62.6341 127.529 62.7763 127.638 62.8734C127.746 62.9708 127.89 63.0193 128.069 63.0193C128.331 63.0193 128.565 62.9141 128.771 62.7035ZM126.944 63.3453C126.683 63.144 126.552 62.8633 126.552 62.5038C126.552 62.344 126.569 62.2032 126.603 62.0819C126.636 61.9606 126.683 61.856 126.743 61.7683C126.803 61.6802 126.888 61.6055 126.998 61.5443C127.107 61.4831 127.224 61.4331 127.347 61.3946C127.47 61.3558 127.626 61.3259 127.814 61.3043C128.003 61.2833 128.193 61.2692 128.386 61.2624C128.578 61.2561 128.811 61.2524 129.084 61.2524V60.9447C129.084 60.6942 129.024 60.5109 128.905 60.3952C128.786 60.2791 128.609 60.2212 128.374 60.2212C128.323 60.2212 128.271 60.2231 128.219 60.2272C128.167 60.2313 128.114 60.238 128.061 60.247C128.007 60.2567 127.96 60.2645 127.92 60.2712C127.88 60.278 127.832 60.2892 127.776 60.3052C127.72 60.3213 127.677 60.3332 127.648 60.3411C127.618 60.3493 127.575 60.3631 127.519 60.3832C127.463 60.403 127.427 60.4157 127.411 60.4209C127.395 60.4265 127.359 60.4404 127.303 60.4631C127.247 60.4859 127.217 60.4971 127.214 60.4971C127.185 60.5102 127.147 60.5173 127.102 60.5173C127.008 60.5173 126.929 60.4777 126.863 60.3993C126.798 60.3205 126.765 60.2317 126.765 60.1331C126.765 60.0028 126.824 59.9095 126.942 59.8535C127.386 59.6455 127.879 59.5417 128.422 59.5417C128.668 59.5417 128.888 59.5697 129.084 59.6257C129.279 59.6817 129.451 59.7684 129.601 59.8856C129.751 60.0028 129.867 60.1611 129.948 60.3612C130.029 60.5609 130.07 60.7969 130.07 61.0687V63.0992C130.07 63.259 130.024 63.383 129.93 63.4711C129.836 63.5592 129.724 63.6029 129.593 63.6029C129.462 63.6029 129.349 63.5592 129.254 63.4711C129.159 63.383 129.112 63.259 129.112 63.0992V62.9675C129.026 63.1702 128.887 63.3344 128.697 63.461C128.505 63.5876 128.255 63.651 127.944 63.651C127.538 63.648 127.205 63.5465 126.944 63.3453Z" fill="#009EC7"/>
<path id="Fill 59" fill-rule="evenodd" clip-rule="evenodd" d="M131.288 63.4572C131.195 63.3598 131.149 63.222 131.149 63.0436V58.4026C131.149 58.2268 131.196 58.0894 131.29 57.9909C131.383 57.8923 131.503 57.843 131.651 57.843C131.797 57.843 131.919 57.8923 132.015 57.9909C132.112 58.0894 132.16 58.2268 132.16 58.4026V63.0436C132.16 63.2194 132.111 63.3564 132.013 63.4553C131.916 63.5539 131.792 63.6032 131.642 63.6032C131.498 63.6032 131.38 63.5543 131.288 63.4572Z" fill="#009EC7"/>
<path id="Fill 61" fill-rule="evenodd" clip-rule="evenodd" d="M134.069 65.2979C133.944 65.2979 133.831 65.2516 133.732 65.1597C133.633 65.0679 133.584 64.9567 133.584 64.826C133.584 64.7517 133.601 64.6796 133.636 64.6102L134.438 63.0153L133.006 60.3049C132.969 60.2332 132.95 60.1586 132.95 60.0813C132.95 59.9559 133 59.8495 133.098 59.7613C133.197 59.6736 133.311 59.6296 133.439 59.6296C133.629 59.6296 133.774 59.7255 133.873 59.9174L134.94 62.0122L136.011 59.8816C136.112 59.6736 136.261 59.5698 136.456 59.5698C136.579 59.5698 136.686 59.6128 136.779 59.6994C136.871 59.786 136.917 59.8924 136.917 60.0175C136.917 60.0973 136.898 60.1746 136.861 60.2493L134.466 65.0257C134.375 65.2072 134.243 65.2979 134.069 65.2979Z" fill="#009EC7"/>
<path id="Fill 63" fill-rule="evenodd" clip-rule="evenodd" d="M137.431 62.9316C137.431 62.8438 137.46 62.7666 137.521 62.6997C137.581 62.6333 137.657 62.5997 137.751 62.5997C137.818 62.5997 137.888 62.6198 137.96 62.6598C138.078 62.7266 138.172 62.777 138.243 62.8117C138.313 62.8461 138.428 62.8857 138.586 62.9297C138.744 62.9734 138.901 62.9954 139.059 62.9954C139.214 62.9954 139.353 62.9801 139.474 62.9495C139.596 62.9189 139.7 62.8629 139.787 62.7819C139.874 62.7005 139.917 62.596 139.917 62.4679C139.917 62.2413 139.732 62.083 139.36 61.9923L138.734 61.8325C138.544 61.7817 138.39 61.7365 138.273 61.6962C138.155 61.6563 138.036 61.6051 137.916 61.5424C137.796 61.4801 137.703 61.4106 137.639 61.3348C137.575 61.2587 137.523 61.1642 137.483 61.0507C137.443 60.9376 137.423 60.8051 137.423 60.6531C137.423 60.288 137.57 60.0076 137.864 59.8116C138.158 59.616 138.544 59.5178 139.023 59.5178C139.486 59.5178 139.924 59.6179 140.339 59.8176C140.483 59.887 140.555 59.9934 140.555 60.1376C140.555 60.2227 140.528 60.2955 140.473 60.3552C140.418 60.4153 140.345 60.4452 140.254 60.4452C140.209 60.4452 140.157 60.4347 140.098 60.4131C140.095 60.4131 140.066 60.4026 140.01 60.3813C139.954 60.3601 139.914 60.3459 139.891 60.3395C139.868 60.3328 139.827 60.3194 139.765 60.2992C139.704 60.2794 139.65 60.2649 139.606 60.2555C139.562 60.2462 139.51 60.2354 139.448 60.2234C139.387 60.2115 139.326 60.2029 139.265 60.1973C139.205 60.1921 139.145 60.1894 139.083 60.1894C138.877 60.1894 138.702 60.2234 138.558 60.2914C138.413 60.3593 138.341 60.4638 138.341 60.6053C138.341 60.7304 138.38 60.823 138.459 60.8831C138.538 60.9428 138.689 60.9981 138.911 61.0489L139.528 61.2049C139.959 61.3113 140.274 61.4565 140.473 61.6406C140.672 61.8243 140.771 62.0789 140.771 62.4041C140.771 62.8117 140.621 63.1235 140.32 63.3393C140.02 63.555 139.629 63.6629 139.147 63.6629C138.524 63.6629 138 63.5084 137.575 63.1993C137.479 63.1302 137.431 63.041 137.431 62.9316Z" fill="#009EC7"/>
<path id="Fill 65" fill-rule="evenodd" clip-rule="evenodd" d="M142.198 63.3052C141.993 63.0853 141.891 62.7691 141.891 62.3558V60.2894H141.502C141.387 60.2894 141.298 60.258 141.235 60.1953C141.172 60.1326 141.141 60.0493 141.141 59.9456C141.141 59.847 141.17 59.7675 141.229 59.7077C141.288 59.6476 141.375 59.6178 141.49 59.6178H141.911L142.031 58.6266C142.047 58.4825 142.098 58.3645 142.182 58.2727C142.266 58.1808 142.382 58.1345 142.529 58.1345C142.646 58.1345 142.738 58.1733 142.804 58.2506C142.869 58.3279 142.902 58.444 142.902 58.5986V59.6178H143.547C143.66 59.6178 143.746 59.6491 143.804 59.7119C143.863 59.7742 143.892 59.8575 143.892 59.9616C143.892 60.0628 143.863 60.1427 143.804 60.2013C143.746 60.2599 143.658 60.2894 143.544 60.2894H142.902V62.1079C142.902 62.364 142.934 62.5544 142.998 62.6799C143.062 62.8049 143.176 62.8676 143.339 62.8676H143.383L143.668 62.8516H143.696C143.806 62.8516 143.892 62.8889 143.957 62.9636C144.021 63.0383 144.053 63.126 144.053 63.2275C144.053 63.2914 144.042 63.3474 144.021 63.3952C143.999 63.4433 143.965 63.4818 143.919 63.5113C143.872 63.5404 143.824 63.5643 143.776 63.5829C143.728 63.6016 143.663 63.6143 143.581 63.621C143.5 63.6277 143.43 63.6322 143.371 63.6348C143.312 63.6378 143.235 63.6389 143.139 63.6389H143.05C142.687 63.6363 142.403 63.5251 142.198 63.3052Z" fill="#00A8DA"/>
<path id="Fill 67" fill-rule="evenodd" clip-rule="evenodd" d="M20.9031 46.6177L10.3894 33.199L12.6847 30.7212V28.0507L10.2518 26.6365L28.0053 9.69653L29.6283 12.5268L32.3812 13.3335C33.8924 12.5029 36.2558 11.0678 36.5978 10.4996L36.9155 9.97243L47.7425 24.927L46.6226 26.6014L47.3717 28.3923L49.2686 29.0225L50.8217 28.7645L48.0097 44.4583L47.2091 44.3161L49.8184 29.7527L49.2032 29.855L46.7632 29.0445L45.7046 26.513L46.7531 24.9453L36.9129 11.3541C35.8364 12.3554 33.2098 13.8066 32.6234 14.1258L32.4754 14.206L29.0844 13.2122L27.8158 10.9995L11.5933 26.4782L13.4977 27.5852V31.0381L11.4558 33.2427L21.5441 46.1189L20.9031 46.6177Z" fill="#8FA9AD"/>
<path id="Fill 69" fill-rule="evenodd" clip-rule="evenodd" d="M8.96764 27.7231C7.73491 28.1301 7.06771 29.4505 7.47999 30.6665C7.89264 31.8828 9.23041 32.541 10.4635 32.1337C11.6959 31.7271 12.3631 30.4066 11.9508 29.1903C11.5385 27.9744 10.2 27.3162 8.96764 27.7231ZM11.1087 34.0366C8.81289 34.7944 6.32015 33.568 5.5524 31.303C4.78428 29.0384 6.02673 26.5789 8.32249 25.8206C10.6179 25.0627 13.1106 26.2891 13.8788 28.5542C14.6469 30.8188 13.4041 33.2787 11.1087 34.0366Z" fill="#7CBE2D"/>
<path id="Fill 71" fill-rule="evenodd" clip-rule="evenodd" d="M48.6078 25.2477C47.6588 25.5609 47.1456 26.5775 47.4633 27.5142C47.781 28.4502 48.8104 28.9564 49.7594 28.6432C50.7081 28.3296 51.2209 27.3141 50.9036 26.3782C50.5859 25.4415 49.5568 24.9345 48.6078 25.2477ZM50.4046 30.5461C48.3929 31.2102 46.2085 30.1358 45.5353 28.1508C44.8618 26.165 45.951 24.009 47.9627 23.3448C49.9744 22.6807 52.1584 23.7559 52.8319 25.7416C53.5051 27.7267 52.4163 29.8819 50.4046 30.5461Z" fill="#009EC7"/>
<path id="Fill 73" fill-rule="evenodd" clip-rule="evenodd" d="M45.3345 45.3926C43.9485 45.8503 43.1983 47.3354 43.6618 48.7022C44.1253 50.069 45.6302 50.8086 47.0161 50.3512C48.4014 49.8939 49.1504 48.4099 48.687 47.0427C48.2235 45.676 46.7197 44.9353 45.3345 45.3926ZM47.6613 52.2545C45.2127 53.0627 42.5532 51.755 41.7335 49.3387C40.9142 46.9225 42.2407 44.2995 44.6894 43.4908C47.1376 42.6826 49.7956 43.99 50.6149 46.4062C51.4342 48.8228 50.1096 51.4458 47.6613 52.2545Z" fill="#E7891C"/>
<path id="Fill 75" fill-rule="evenodd" clip-rule="evenodd" d="M21.8633 47.4063C21.3534 47.5747 21.0765 48.1205 21.2473 48.6234C21.4177 49.1267 21.9724 49.3992 22.4819 49.2312C22.9917 49.0628 23.2679 48.5163 23.0971 48.0126C22.9263 47.5094 22.3727 47.238 21.8633 47.4063ZM23.127 51.133C21.5538 51.6523 19.8464 50.8126 19.3197 49.2599C18.7934 47.708 19.6449 46.0228 21.2178 45.5035C22.7906 44.9842 24.4984 45.8245 25.0247 47.3761C25.551 48.9288 24.6999 50.6137 23.127 51.133Z" fill="#C50070"/>
<g id="Group 79">
<mask id="mask0" mask-type="alpha" maskUnits="userSpaceOnUse" x="26" y="3" width="12" height="12">
<path id="Clip 78" fill-rule="evenodd" clip-rule="evenodd" d="M26.5101 3.37329H37.9046V14.6158H26.5101V3.37329Z" fill="white"/>
</mask>
<g mask="url(#mask0)">
<path id="Fill 77" fill-rule="evenodd" clip-rule="evenodd" d="M28.7323 10.1421C29.3733 12.0319 31.4534 13.0549 33.3687 12.4221C35.2854 11.7893 36.3227 9.73741 35.6816 7.8476C35.0406 5.95704 32.9601 4.93373 31.0437 5.56653C29.1281 6.19896 28.0912 8.25155 28.7323 10.1421ZM26.8051 10.7783C25.8082 7.83901 27.4203 4.64813 30.3986 3.6644C33.3784 2.68067 36.6131 4.27144 37.61 7.21069C38.6065 10.1499 36.9932 13.3412 34.0138 14.3249C31.0359 15.3083 27.8016 13.7175 26.8051 10.7783Z" fill="#622681"/>
</g>
</g>
<path id="Fill 80" fill-rule="evenodd" clip-rule="evenodd" d="M42.5844 47.2323L36.737 44.3554L37.643 42.5601L43.492 45.437L42.5844 47.2323Z" fill="#E7891C"/>
<path id="Fill 82" fill-rule="evenodd" clip-rule="evenodd" d="M25.2565 38.5639L12.4343 32.2561L13.3407 30.4607L26.1633 36.7685L25.2565 38.5639Z" fill="#7CBE2D"/>
<path id="Fill 84" fill-rule="evenodd" clip-rule="evenodd" d="M36.8731 37.6528L35.6355 36.0624L46.9099 27.5205L48.1475 29.1113L36.8731 37.6528Z" fill="#009EC7"/>
<path id="Fill 86" fill-rule="evenodd" clip-rule="evenodd" d="M24.3682 47.919L23.1306 46.3282L25.9564 44.1621L27.194 45.7525L24.3682 47.919Z" fill="#C50070"/>
<path id="Fill 88" fill-rule="evenodd" clip-rule="evenodd" d="M32.4984 34.1512L30.4669 34.0944L31.0578 13.5779L33.0897 13.6343L32.4984 34.1512Z" fill="#622681"/>
<path id="Fill 90" fill-rule="evenodd" clip-rule="evenodd" d="M33.2578 47.0662L29.6145 46.9792C29.4512 46.9751 29.2979 47.0345 29.1836 47.1457C29.0711 47.2551 29.0101 47.4011 29.0116 47.5571C29.0146 47.8752 29.2826 48.1395 29.6093 48.1466L33.2402 48.2243C33.3094 48.2254 33.377 48.2153 33.4409 48.1944C33.5228 48.1675 33.5979 48.1227 33.6615 48.0619C33.7736 47.9547 33.8368 47.811 33.8386 47.6564C33.8424 47.3387 33.5819 47.074 33.2578 47.0662Z" fill="#FFCD4B"/>
<path id="Fill 92" fill-rule="evenodd" clip-rule="evenodd" d="M33.1508 48.6168L29.5263 48.5436C29.3633 48.5402 29.2104 48.6 29.0964 48.7108C28.985 48.8195 28.9245 48.9647 28.926 49.1193C28.929 49.4355 29.1966 49.6979 29.5225 49.7035L33.1348 49.7678C33.2035 49.7689 33.2705 49.7588 33.3336 49.7379C33.4159 49.7106 33.4914 49.6655 33.5553 49.6046C33.6663 49.4978 33.7287 49.3552 33.7306 49.2025C33.7343 48.8859 33.4742 48.6235 33.1508 48.6168Z" fill="#FFCD4B"/>
<path id="Fill 94" fill-rule="evenodd" clip-rule="evenodd" d="M31.5148 50.0465C31.2169 50.0364 30.9085 50.0256 30.6035 50.0244C30.5377 50.0196 30.4704 50.0166 30.4035 50.0166C30.3288 50.0166 30.254 50.0188 30.1781 50.0215L29.7606 50.0364L29.9995 50.3743C30.3123 50.8174 30.8263 51.0869 31.3742 51.0948C31.5667 51.0978 31.7547 51.0679 31.9315 51.0097C32.2545 50.9029 32.5393 50.7002 32.7408 50.4239L33.0028 50.0648L32.5546 50.0677C32.2111 50.07 31.8572 50.058 31.5148 50.0465Z" fill="#FFCD4B"/>
<path id="Fill 96" fill-rule="evenodd" clip-rule="evenodd" d="M31.5241 35.0192C30.0424 34.9195 28.646 35.4123 27.5923 36.4065C26.5091 37.4287 25.9327 38.8354 25.9686 40.3672C26.0183 42.4788 27.331 44.0617 28.1092 44.8174C28.4613 45.1593 28.6736 45.5659 28.8789 45.9586C28.9181 46.0337 28.9566 46.1076 28.994 46.1767C29.1398 46.4541 29.4866 46.5731 29.7699 46.4402C29.9082 46.3753 30.0114 46.261 30.0604 46.1181C30.1101 45.9728 30.0978 45.816 30.0279 45.6816C30.0249 45.6757 30.0215 45.6697 30.0204 45.6671C29.9871 45.6051 29.9524 45.5371 29.9157 45.4647C29.7098 45.0615 29.4283 44.5094 28.9218 44.0136C27.8289 42.944 27.1879 41.6246 27.1632 40.3937C27.1393 39.1927 27.5897 38.094 28.4322 37.3003C29.2493 36.5297 30.3362 36.1467 31.4927 36.221C33.8651 36.3748 35.7519 38.4416 35.6985 40.829C35.672 42.0155 35.0612 43.2453 34.0228 44.2029C33.5294 44.6579 33.2536 45.1855 33.0521 45.5711C33.0159 45.6409 32.9815 45.7063 32.9501 45.7638C32.7976 46.0329 32.8963 46.3775 33.1702 46.5325C33.3044 46.6082 33.4595 46.6277 33.6076 46.5873C33.6173 46.5847 33.627 46.5817 33.6367 46.5784C33.7694 46.5347 33.8793 46.4451 33.9485 46.3238L33.9537 46.3144C33.9914 46.2461 34.0288 46.1755 34.0673 46.1039C34.2654 45.7324 34.4706 45.3482 34.8059 45.0391C35.5449 44.3582 36.7929 42.9115 36.8453 40.8731C36.9226 37.848 34.5357 35.2219 31.5241 35.0192Z" fill="#FFCD4B"/>
</g>
</svg>
