<svg fill="none" height="30" viewBox="0 0 156 30" width="156" xmlns="http://www.w3.org/2000/svg"><g clip-rule="evenodd" fill="#00343d" fill-rule="evenodd"><path d="m41.4136 17.1002 6.3908 7.5316c.2749.321.3251.6744.1099 1.0312-.0449.0833-.1267.1519-.2045.2171-.0106.0089-.0212.0178-.0315.0266l-.2159.1826-.7641.6507c-.3225.2743-.791.2813-1.129-.0557l-6.617-7.8658v7.3168c0 .4562-.3699.805-.8123.805h-1.2441c-.4306 0-.8124-.3355-.8124-.8293v-22.29817c0-.36517.3376-.75717.8124-.75717h1.2441c.4877 0 .8123.3745.8123.825v12.43904.0171l6.3626-5.8255c.2539-.2706.6699-.2778.9289-.0083l.6444.6745c.1621.1615.2734.5415.1123.8687-.0233.0408-.087.1516-.1449.2115l-5.4248 4.8235zm76.1404-6.7582c1.978 0 3.669.7202 5.072 2.1625 1.549 1.5822 2.326 3.6344 2.326 6.1384 0 2.5488-.777 4.6011-2.326 6.1685-1.422 1.4213-3.118 2.1288-5.087 2.1288-1.963 0-3.681-.6717-5.121-2.1253v1.298c0 .4573-.359.8273-.807.8273h-1.257c-.444 0-.805-.3573-.805-.8145v-.7477-1.0928-17.5145-1.186-.52117c0-.45416.361-.813.805-.813h1.257c.448 0 .807.36984.807.82417v1.696.00633 6.13287c1.355-1.6292 3.164-2.5679 5.136-2.5679zm-12.938 6.7579v6.9759 1.475.5763c0 .449.361.813.799.813h1.289c.443 0 .793-.364.793-.813v-.5763-1.475-7.8315c0-1.5877-.432-2.9282-1.241-4.0202-.93-1.2788-2.382-1.8597-3.945-1.9205-1.945 0-2.8382.3288-4.0025 1.1715-.81.6538-1.1996 1.2662-1.5163 1.7858-.4748-.8736-.91-1.3856-1.5152-1.8411-1.1556-.8704-2.1534-1.059-3.1703-1.1125-1.9416-.0725-3.7402.6313-5.0058 2.3155v-.7365-.1362c0-.4475-.3583-.813-.7968-.813h-1.3048c-.4375 0-.7959.3655-.7959.813v.1362 1.5185 10.671 1.475.5763c0 .449.3584.813.7959.813h1.3048c.4385 0 .7968-.364.7968-.813v-.5763-1.475-6.9759c0-.5208.4698-4.1976 4.2185-4.1976 2.7283 0 3.0921 2.6011 3.0921 3.8985v7.275 1.475.5763c0 .449.3554.813.7994.813h1.2702c.4402 0 .7956-.364.7956-.813v-.5763-1.475-6.9759s.2031-4.1903 4.1963-4.1903c3.432 0 3.143 4.1903 3.143 4.1903zm28.988 7.2382c-3.226-.1912-4.627-2.781-4.627-4.7459h10.397s.774-.1363 1.026-.4081c.258-.2695.384-.6039.384-1.0007 0-2.1892-.624-4.0293-1.872-5.5122-1.33-1.5863-3.138-2.3675-5.426-2.3675-2.413 0-4.272.8464-5.579 2.5579-1.166 1.5205-1.748 3.433-1.748 5.7318 0 2.6515.695 4.694 2.087 6.1357 1.259 1.3076 3.034 2.091 5.225 2.2111 5.591 0 7.02-4.5883 7.02-4.5883.309-1.0788-.251-1.0913-1.024-1.1084v-.0001c-.12-.0026-.245-.0054-.373-.0123-.344-.0205-.722.1741-.916.3813-.117.1245-.196.2597-.196.2597-1.51 2.731-4.378 2.466-4.378 2.466zm-76.6687-14.0335c2.4526 0 4.4171.7645 5.8963 2.2908 1.4818 1.5483 2.2216 3.5583 2.2216 6.029 0 2.4663-.7398 4.4788-2.2216 6.0261-1.4792 1.5284-3.4437 2.2897-5.8963 2.2897-2.4745 0-4.4417-.7613-5.8989-2.2897-1.4807-1.5256-2.219-3.5388-2.219-6.0261 0-2.4917.7383-4.5012 2.219-6.029 1.4572-1.5263 3.4244-2.2908 5.8989-2.2908zm-3.5368 12.7308c.4963.45 1.0581.7796 1.6805.9881.6237.2104 1.2359.3147 1.8389.3147.6053 0 1.2156-.1043 1.8404-.3147.6218-.2085 1.1892-.5366 1.6963-.9718 1.1422-1.0252 1.7112-2.5173 1.7112-4.463 0-1.8807-.569-3.3485-1.7112-4.3912-.9505-.8576-2.1262-1.2875-3.5197-1.2875-2.2832 0-3.8711 1.0162-4.7562 3.0452-.3199.7328-.479 1.6172-.479 2.6483 0 1.0384.1591 1.9252.479 2.6549.3145.7365.7223 1.3233 1.2198 1.7771zm21.022-12.7308c2.452 0 4.4176.7645 5.8974 2.2908 1.4817 1.5483 2.22 3.5583 2.22 6.029 0 2.4663-.7383 4.4788-2.22 6.0261-1.4798 1.5284-3.4454 2.2897-5.8974 2.2897-2.4745 0-4.4395-.7613-5.8985-2.2897-1.4806-1.5256-2.22-3.5388-2.22-6.0261 0-2.4917.7394-4.5012 2.22-6.029 1.459-1.5263 3.424-2.2908 5.8985-2.2908zm-1.8551 13.7189c-.6238-.2085-1.1859-.5381-1.6808-.9881v.0001c-.4993-.4538-.9038-1.0406-1.2217-1.7771-.3194-.7297-.4763-1.6165-.4763-2.6549 0-1.0311.1569-1.9155.4763-2.6483.8884-2.029 2.4745-3.0452 4.7574-3.0452 1.3928 0 2.5682.4299 3.518 1.2875 1.1418 1.0427 1.7124 2.5105 1.7124 4.3912 0 1.9457-.5706 3.4378-1.7124 4.463-.5065.4352-1.0741.7633-1.6955.9718-.6229.2104-1.2354.3147-1.8391.3147-.6041 0-1.2166-.1043-1.8383-.3147zm57.0416-8.7666c-.288.5825-.5 1.1163-.6 1.8428h8.961c-.221-1.447-.768-2.4936-1.597-3.2566-.781-.7165-1.762-.9334-2.885-.9334-1.787 0-3.133.8437-3.879 2.3472zm22.851 1.1719c-.128-1.9608-1.618-2.8711-1.618-2.8711s-1.013-.6777-2.486-.6777c-1.188 0-2.319.2712-2.951.9483-.606.6501-1.023.65-2.263.6499h-.061c-.787 0-.738-.7819-.6-1.0444 1.694-3.2276 6.386-3.1215 6.386-3.1215v-.0021c2.32 0 4.156 1.12 4.896 1.9518 1.032 1.136 1.548 2.4905 1.548 4.1912v7.817 1.0991.7394c0 .4593-.363.8315-.815.8315h-1.193c-.446 0-.812-.3722-.812-.8315v-.7394-.5536l-.017.0144c-.663.569-2.458 2.1101-5.807 2.1101-1.423 0-2.517-.451-3.468-1.2885-.992-.884-1.582-2.0072-1.582-3.4369 0-1.5521.578-2.7685 1.736-3.655 1.257-.9633 3.054-1.4443 5.389-1.4443h3.233c.479 0 .498-.5542.485-.6867zm.02 4.8257v.0102c-.003.1055-.013.4149-.195.6655-.426.6012-.94 1.1218-1.609 1.5088-.767.4414-1.76.8989-2.648.8989-2.006 0-3.27-.8359-3.211-2.6039.03-.8931.67-1.4133 1.424-1.7593.755-.3435 1.807-.5195 3.15-.5195h2.7s.389-.0083.389.3668zm-30.675-.0851c-.774 2.1321-2.321 3.1981-4.643 3.1981-1.043 0-4.742-.4378-4.742-5.7165 0-4.3558 3.001-5.5621 4.742-5.5621 1.506 0 2.71.4715 3.603 1.4113.938 1.0205 1.408 2.4312 1.408 4.2282 0 .918-.123 1.7313-.368 2.441z"/><path d="m15.0924 7.39927c-4.2144 0-7.62976 3.40393-7.62976 7.60163 0 4.1965 3.41536 7.5988 7.62976 7.5988 4.2132 0 7.6291-3.4023 7.6291-7.5988 0-4.1977-3.4159-7.60163-7.6291-7.60163zm0-3.1967 2.5185 2.47401 3.4622-.7238.7755 3.43889 3.3064 1.25423-1.2129 3.3092 2.1002 2.837-2.8173 2.1315.2275 3.5159-3.5266.2771-1.7169 3.0809-3.1166-1.6676-3.1167 1.6676-1.7169-3.0809-3.52664-.2771.22755-3.5159-2.81677-2.1315 2.09964-2.837-1.21339-3.3092 3.3058-1.25423.77666-3.43889 3.46155.7238z"/><path d="m15.0918 2.89247c-6.70229 0-12.15279 5.43128-12.15279 12.10843 0 6.6761 5.4505 12.1068 12.15279 12.1068 6.7012 0 12.1533-5.4307 12.1533-12.1068 0-6.67715-5.4521-12.10843-12.1533-12.10843zm0 26.44093c-7.93348 0-14.388187-6.43-14.388187-14.3325 0-7.90417 6.454707-14.334152 14.388187-14.334152 7.9329 0 14.3887 6.429982 14.3887 14.334152 0 7.9025-6.4558 14.3325-14.3887 14.3325z"/><path d="m15.0924 18.221c-1.7831 0-3.2335-1.4448-3.2335-3.2205 0-1.7763 1.4504-3.2211 3.2335-3.2211 1.7825 0 3.2323 1.4448 3.2323 3.2211 0 1.7757-1.4498 3.2205-3.2323 3.2205zm0-7.9568c-2.6221 0-4.7535 2.1254-4.7535 4.7363 0 2.6114 2.1314 4.7357 4.7535 4.7357 2.6209 0 4.7534-2.1243 4.7534-4.7357 0-2.6109-2.1325-4.7363-4.7534-4.7363z"/></g></svg>