<svg fill="none" height="70" viewBox="0 0 150 70" width="150" xmlns="http://www.w3.org/2000/svg" xmlns:xlink="http://www.w3.org/1999/xlink"><mask id="a" height="12" maskUnits="userSpaceOnUse" width="12" x="26" y="3"><path clip-rule="evenodd" d="m26.5101 3.37329h11.3945v11.24251h-11.3945z" fill="#fff" fill-rule="evenodd"/></mask><path d="m0 0h150v70h-150z" fill="#fff"/><g clip-rule="evenodd" fill-rule="evenodd"><path d="m62.7449 51.8169c-.3925-.3778-.5887-.8408-.5887-1.3881v-24.0874c0-.5992.1962-1.0655.5887-1.3978.3925-.3326.8631-.4988 1.4121-.4988.5364 0 .9973.1662 1.3834.4988.3857.3323.5786.7986.5786 1.3978v22.8946h12.3404c.5099 0 .9023.1565 1.1771.4693.2743.3129.4115.6843.4115 1.1144 0 .4174-.1402.7821-.4213 1.095-.2814.3128-.6705.4693-1.1673.4693h-14.3024c-.549 0-1.0196-.1889-1.4121-.5671z" fill="#622681"/><path d="m84.1003 51.8657c-.3858-.3327-.5786-.7919-.5786-1.3784v-24.1655c0-.5865.1992-1.049.5984-1.388.3988-.339.866-.5085 1.4028-.5085.536 0 .9972.1661 1.383.4984.3857.3326.579.7989.579 1.3981v24.1655c0 .5996-.1966 1.0625-.5891 1.3881-.3921.3259-.8631.4887-1.4122.4887-.5363 0-.9976-.1662-1.3833-.4984z" fill="#622681"/><path d="m94.5972 51.9244c-.36-.3061-.5394-.7332-.5394-1.2809v-23.6764c0-.7822.2123-1.3982.6373-1.8477.4246-.4495.958-.6746 1.599-.6746.4579 0 .9319.1307 1.4226.3909.4901.2613.9121.6455 1.2649 1.1536l14.2824 20.7245v-20.5289c0-.5473.177-.974.53-1.2805.353-.3061.785-.4596 1.295-.4596.484 0 .909.1535 1.275.4596.366.3065.549.7332.549 1.2805v23.6768c0 .7691-.232 1.3817-.696 1.8376-.464.4566-1.037.6843-1.717.6843-.445 0-.889-.1105-1.334-.3323-.445-.2214-.811-.5406-1.099-.9579l-14.3409-20.7245v20.2746c0 .5477-.1832.9748-.5495 1.2809-.3659.3061-.7976.4592-1.2944.4592-.4975 0-.9255-.1531-1.285-.4592z" fill="#622681"/><path d="m127.92 50.8978c-1.988-1.2772-3.479-2.9848-4.473-5.1226-.994-2.1373-1.491-4.5554-1.491-7.2534 0-2.0071.304-3.8909.912-5.6504.608-1.7596 1.469-3.2943 2.581-4.6044 1.111-1.31 2.51-2.343 4.198-3.0986 1.687-.756 3.557-1.1342 5.611-1.1342 2.537 0 4.898.6059 7.082 1.8185.575.3125.864.7623.864 1.3488 0 .4174-.145.7822-.433 1.0947-.287.3128-.634.4692-1.039.4692-.196 0-.412-.0519-.647-.1564-.053-.0258-.214-.1075-.481-.2442-.269-.137-.488-.2411-.657-.3128-.17-.0717-.432-.1691-.785-.2931-.353-.1239-.694-.2217-1.02-.2934-.327-.0717-.736-.1337-1.227-.1859-.49-.0519-.997-.0781-1.52-.0781-1.268 0-2.42.1957-3.453.5865-1.033.3909-1.903.9323-2.609 1.6229-.706.6907-1.302 1.512-1.785 2.4633-.484.9516-.838 1.9779-1.06 3.0792-.222 1.1017-.333 2.2714-.333 3.5097 0 1.2384.111 2.4047.333 3.4997s.576 2.1149 1.06 3.0598c.483.9449 1.081 1.7565 1.795 2.4341.712.678 1.595 1.2123 2.648 1.6031 1.053.3913 2.227.5865 3.522.5865 1.164 0 2.184-.153 3.06-.4595.877-.3058 1.825-.746 2.845-1.3194.262-.1434.51-.215.745-.215.405 0 .752.1497 1.041.4495.287.2997.431.6518.431 1.0557 0 .5996-.327 1.1081-.981 1.5251-2.185 1.4205-4.761 2.131-7.73 2.131-2.681 0-5.016-.6384-7.004-1.9159z" fill="#622681"/><path d="m21.0031 63.4411c-.1136-.1105-.1704-.2554-.1704-.4338v-4.2613h-1.3079c-.136 0-.2444-.0444-.3248-.1336-.0804-.0893-.1203-.1953-.1203-.3177 0-.1229.0407-.23.1226-.3218.0814-.0923.1891-.1382.3225-.1382h3.7625c.1308 0 .2374.0459.3188.1382.0819.0918.1226.1978.1226.3177 0 .1224-.0403.2292-.1203.3199-.0804.0904-.1873.1355-.3211.1355h-1.3034v4.2613c0 .1784-.0568.3233-.1708.4338-.1136.1105-.2493.1657-.407.1657-.1552 0-.2893-.0552-.403-.1657z" fill="#009ec7"/><path d="m28.1088 63.0513c0 .1733-.0475.3084-.1424.4059-.095.097-.2161.1459-.363.1459-.1446 0-.2642-.0489-.3592-.1459-.0949-.0975-.1424-.2326-.1424-.4059v-1.9827c0-.2744-.0699-.4842-.2104-.6295-.1406-.1452-.3204-.218-.5394-.218-.2676 0-.5001.1027-.6979.308-.1981.205-.2971.473-.2971.8034v1.7188c0 .1759-.0467.3118-.1402.4077-.0938.096-.2153.1441-.3652.1441-.1469 0-.2672-.0489-.361-.1459-.0935-.0975-.1402-.2326-.1402-.4059l-.0041-4.6648c0-.1732.0467-.308.1405-.4039.0935-.0956.2138-.1437.3607-.1437.1499 0 .2721.0481.3671.1437.0949.0959.1424.2307.1424.4039v1.7506c.2702-.3995.6978-.5996 1.2836-.5996.1981 0 .3831.0303.5558.0904.1723.0597.3274.1489.465.2677.1379.1183.2466.2777.327.4775.0804.2001.1204.4293.1204.6876z" fill="#009ec7"/><path d="m31.907 61.2525c-.0213-.3065-.1102-.5581-.2665-.7553-.1566-.1975-.3883-.296-.696-.296-.2994 0-.5341.1027-.7038.308-.1701.2053-.2669.4528-.2912.7433zm-2.7413-.6974c.1536-.3024.3828-.5469.6878-.7336.3046-.1867.659-.28 1.063-.28.3099 0 .585.0515.8242.1542.2392.1023.4317.2445.5775.4256.1458.1814.256.3849.3308.6115.0751.2266.114.4719.1162.7355 0 .1041-.0239.1881-.0717.252-.0482.0638-.1204.0959-.2168.0959h-2.535c.0426.7515.4291 1.1271 1.1591 1.1271.3315 0 .6859-.1344 1.063-.4036.0482-.0373.1002-.056.1563-.056.0829 0 .1566.0374.2209.112.0639.0747.096.1583.096.2517 0 .1067-.0426.1975-.1282.2718-.4227.3546-.9157.5316-1.4802.5316-.6335 0-1.1411-.1837-1.522-.5514-.3812-.3678-.5719-.8807-.5719-1.5389 0-.3681.077-.703.231-1.0054z" fill="#009ec7"/><path d="m36.1549 63.3973c-.1095-.1373-.1644-.302-.1644-.4935v-4.4651c0-.1784.0575-.3225.1723-.4315.1151-.1094.2515-.1639.4093-.1639.1551 0 .2889.0545.4011.1639.1125.109.1685.2531.1685.4315l.0041 4.253h2.2622c.1312 0 .2358.046.3147.1378.0789.0922.1185.1994.1185.3218 0 .1202-.0396.2255-.1185.3159-.0789.0907-.1835.1358-.3147.1358h-2.8318c-.1712 0-.3117-.0683-.4213-.2057z" fill="#009ec7"/><path d="m43.1863 61.2525c-.0213-.3065-.1102-.5581-.2665-.7553-.1566-.1975-.3883-.296-.696-.296-.2994 0-.5341.1027-.7038.308-.1701.2053-.2669.4528-.2912.7433zm-2.7413-.6974c.1536-.3024.3828-.5469.6878-.7336.3046-.1867.659-.28 1.063-.28.3099 0 .585.0515.8242.1542.2392.1023.4317.2445.5775.4256.1458.1814.256.3849.3308.6115.0751.2266.114.4719.1162.7355 0 .1041-.0239.1881-.0717.252-.0483.0638-.1204.0959-.2168.0959h-2.535c.0426.7515.4291 1.1271 1.1591 1.1271.3315 0 .6859-.1344 1.063-.4036.0482-.0373.1002-.056.1563-.056.0829 0 .1566.0374.2209.112.0639.0747.096.1583.096.2517 0 .1067-.0426.1975-.1282.2718-.4227.3546-.9157.5316-1.4802.5316-.6335 0-1.1411-.1837-1.522-.5514-.3813-.3678-.5719-.8807-.5719-1.5389 0-.3681.077-.703.231-1.0054z" fill="#009ec7"/><path d="m46.8004 62.7035c.206-.2102.3088-.4767.3088-.7993v-.1161c-.2673 0-.4792.0041-.6358.0119-.1563.0083-.3047.0236-.4452.0463-.1402.0224-.2441.0583-.3106.1079-.0669.0493-.1193.1131-.1566.1915-.0374.0788-.0561.1796-.0561.3021 0 .1863.0542.3285.1622.4256.1084.0974.2523.1459.4314.1459.262 0 .496-.1052.7019-.3158zm-1.827.6418c-.2605-.2013-.3914-.482-.3914-.8415 0-.1598.0169-.3006.0505-.4219.0333-.1213.0804-.2259.1402-.3136.0601-.0881.145-.1628.2549-.224.1095-.0612.2257-.1112.3487-.1497.1234-.0388.2789-.0687.4672-.0903.1888-.021.3794-.0351.5719-.0419.1925-.0063.425-.01.6979-.01v-.3077c0-.2505-.0595-.4338-.1787-.5495-.1189-.1161-.296-.174-.5311-.174-.0509 0-.1024.0019-.1548.006-.0519.0041-.1046.0108-.1581.0198-.0534.0097-.1005.0175-.1405.0242-.04.0068-.0882.018-.1447.034-.056.0161-.0987.028-.1282.0359-.0291.0082-.0721.022-.1282.0421-.0564.0198-.0923.0325-.1084.0377-.0161.0056-.0519.0195-.1084.0422-.0561.0228-.0856.034-.0882.034-.0295.0131-.0669.0202-.1121.0202-.0939 0-.1735-.0396-.2389-.118-.0654-.0788-.0983-.1676-.0983-.2662 0-.1303.0591-.2236.1764-.2796.4441-.208.9375-.3118 1.4802-.3118.2463 0 .4665.028.662.084.1951.056.3674.1427.5173.2599s.2654.2755.3469.4756c.0818.1997.1226.4357.1226.7075v2.0305c0 .1598-.0468.2838-.1406.3719-.0934.0881-.2059.1318-.3368.1318-.1312 0-.244-.0437-.339-.1318-.0949-.0881-.1424-.2121-.1424-.3719v-.1317c-.0856.2027-.2239.3669-.4153.4935-.191.1266-.4418.19-.7516.19-.4067-.003-.7401-.1045-1.001-.3057z" fill="#009ec7"/><path d="m49.3012 63.4613c-.095-.0945-.1424-.23-.1424-.4058v-2.9822c0-.1516.05-.2696.1502-.3536.1006-.084.2202-.1258.3592-.1258.1364 0 .2549.0407.3551.1217.1002.0814.1491.1927.1462.3338l-.012.4118c.0721-.2397.2093-.4454.4112-.6175.2018-.1718.4287-.258.6799-.258.1229 0 .2179.0414.2848.1239s.1002.1826.1002.2998c0 .112-.0307.2106-.0924.2957-.0613.0855-.1442.1281-.2485.1281-.1578 0-.2976.0127-.419.038-.1219.0254-.2389.0699-.351.1341-.1125.0638-.1992.1612-.2609.2915-.0613.1307-.0923.2905-.0923.4798v1.6871c0 .1728-.0475.3061-.1425.3994-.0949.0934-.2171.14-.367.14-.1443 0-.2639-.0474-.3588-.1418z" fill="#009ec7"/><path d="m52.4039 63.4572c-.0935-.0974-.1402-.2326-.1402-.4058v-2.9542c0-.1598.0478-.2837.1443-.3714.0964-.0881.2179-.1322.3648-.1322.1446 0 .2635.0437.357.1303.0938.0862.1405.2083.1405.3655v.14c.1177-.2266.2893-.3984.5154-.5156.2258-.1172.4953-.1762.8082-.1762.1928 0 .3737.0314.5434.0941.1701.0627.3215.1545.4553.2759.1338.1213.2392.2818.317.4816.0773.1997.1162.4278.1162.6835v1.9787c0 .1732-.0478.3084-.1443.4058-.0964.0971-.2194.146-.3689.146-.142 0-.2594-.0489-.3528-.146-.0939-.0974-.1406-.2326-.1406-.4058v-1.9824c0-.2748-.0717-.4846-.2145-.6298-.1432-.1452-.3256-.2177-.5476-.2177-.2676 0-.4986.1053-.6938.3155-.1954.2106-.293.4853-.293.8236v1.6908c0 .1732-.0475.3084-.1424.4058-.095.0971-.2161.146-.363.146-.1472 0-.2676-.0489-.361-.146z" fill="#009ec7"/><path d="m57.217 63.4573c-.0934-.0975-.1402-.2352-.1402-.4137v-2.8862c0-.1785.0468-.317.1402-.4159.0935-.0982.2138-.1479.3611-.1479.1469 0 .268.0497.3629.1479.095.0989.1424.2374.1424.4159v2.8862c0 .1758-.0474.3129-.1424.4118-.0949.0985-.216.1478-.3629.1478-.1473 0-.2676-.0489-.3611-.1459zm-.0624-4.8168c-.108-.1027-.1622-.2367-.1622-.4017 0-.1654.0542-.2987.1622-.3998.1088-.1012.2508-.152.4276-.152.1734 0 .314.0508.4212.152.1066.1011.1604.2344.1604.3998 0 .165-.0542.299-.1626.4017s-.2493.1538-.4231.1538c-.1742 0-.3147-.0511-.4235-.1538z" fill="#009ec7"/><path d="m59.2425 63.4572c-.0934-.0974-.1401-.2326-.1401-.4058v-2.9542c0-.1598.0478-.2837.1442-.3714.0965-.0881.218-.1322.3648-.1322.1447 0 .2636.0437.357.1303.0935.0862.1405.2083.1405.3655v.14c.1178-.2266.2897-.3984.5155-.5156.2261-.1172.4953-.1762.8081-.1762.1925 0 .3738.0314.5435.0941.1701.0627.3218.1545.4553.2759.1338.1213.2395.2818.3169.4816.0778.1997.1163.4278.1163.6835v1.9787c0 .1732-.0479.3084-.1443.4058-.0961.0971-.2194.146-.3693.146-.1417 0-.259-.0489-.3529-.146-.0934-.0974-.1401-.2326-.1401-.4058v-1.9824c0-.2748-.0714-.4846-.2146-.6298-.1431-.1452-.3255-.2177-.5476-.2177-.2676 0-.499.1053-.6937.3155-.1955.2106-.2931.4853-.2931.8236v1.6908c0 .1732-.0474.3084-.1424.4058-.0949.0971-.216.146-.3629.146-.1473 0-.2676-.0489-.3611-.146z" fill="#009ec7"/><path d="m66.5028 62.6098c.1846-.2146.2766-.5495.2766-1.0053 0-.9248-.3394-1.387-1.0186-1.387-.1498 0-.2848.0247-.4051.0739-.1204.0493-.2206.1158-.3009.1998-.0804.084-.1473.1852-.2004.3039-.0538.1187-.0923.2438-.1166.3759-.0239.1318-.0359.2737-.0359.4256 0 .4394.1009.7721.3028.9972.2018.2255.4552.3405.7599.3457.308-.0052.5539-.115.7382-.3297zm.2766.354c-.2269.4289-.6257.6432-1.195.6432-.5778 0-1.0402-.1777-1.3878-.5335-.348-.3558-.5215-.8389-.5215-1.4489 0-.6156.169-1.1159.5073-1.5012.3382-.3849.7976-.5775 1.3781-.5775.3233 0 .5771.056.7621.168.1843.1116.3435.2744.477.4876v-.1837c.0134-.1363.0635-.2408.1502-.314.0871-.0732.1922-.1101.3151-.1101.1391 0 .2535.0496.3428.1478.0897.099.1346.236.1346.4118v3.2779c0 .6317-.1839 1.1125-.5514 1.4429-.3681.3308-.8671.4958-1.4985.4958-.2863 0-.5595-.0299-.82-.09-.2609-.0597-.4635-.134-.6078-.2217-.123-.0747-.1843-.1759-.1843-.3039 0-.0907.0307-.1703.0923-.2397.0613-.0694.1391-.1042.2325-.1042.0426 0 .0853.0082.1282.0243.0243.0078.0961.0325.2168.0739.1204.0411.2082.0698.2647.0859.056.016.1398.0332.2504.0519.111.0186.2202.028.3271.028.3741 0 .666-.0926.8742-.2778.209-.1852.3129-.467.3129-.8456z" fill="#009ec7"/><path d="m71.4364 63.4352c-.1121-.1091-.1682-.2532-.1682-.4316v-4.5771c0-.1784.0568-.3225.1704-.4316.1137-.1093.2478-.1638.403-.1638.1551 0 .29.0545.4051.1638.1152.1091.1727.2532.1727.4316v4.5771c0 .1784-.0575.3225-.1727.4316-.1151.1093-.2515.1639-.4092.1639-.1552 0-.2886-.0546-.4011-.1639z" fill="#009ec7"/><path d="m73.8069 63.4572c-.0935-.0974-.1402-.2326-.1402-.4058v-2.9542c0-.1598.0478-.2837.1443-.3714.0964-.0881.2179-.1322.3648-.1322.1446 0 .2635.0437.3569.1303.0935.0862.1406.2083.1406.3655v.14c.1173-.2266.2893-.3984.5154-.5156.2258-.1172.4953-.1762.8081-.1762.1925 0 .3738.0314.5435.0941s.3215.1545.4553.2759c.1334.1213.2392.2818.3166.4816.0777.1997.1166.4278.1166.6835v1.9787c0 .1732-.0482.3084-.1447.4058-.096.0971-.2194.146-.3689.146-.1416 0-.259-.0489-.3528-.146-.0935-.0974-.1402-.2326-.1402-.4058v-1.9824c0-.2748-.0718-.4846-.2149-.6298-.1428-.1452-.3256-.2177-.5472-.2177-.2677 0-.499.1053-.6941.3155-.1952.2106-.2927.4853-.2927.8236v1.6908c0 .1732-.0475.3084-.1424.4058-.095.0971-.2161.146-.363.146-.1472 0-.2676-.0489-.361-.146z" fill="#009ec7"/><path d="m78.5961 63.4572c-.0934-.0974-.1402-.2326-.1402-.4058v-2.9542c0-.1598.0479-.2837.1443-.3714.0964-.0881.2179-.1322.3648-.1322.1447 0 .2635.0437.357.1303.0934.0862.1405.2083.1405.3655v.14c.1178-.2266.2897-.3984.5155-.5156.2261-.1172.4952-.1762.8081-.1762.1925 0 .3738.0314.5435.0941.17.0627.3218.1545.4552.2759.1338.1213.2396.2818.317.4816.0777.1997.1162.4278.1162.6835v1.9787c0 .1732-.0478.3084-.1442.4058-.0961.0971-.2194.146-.3693.146-.1417 0-.2591-.0489-.3529-.146-.0934-.0974-.1402-.2326-.1402-.4058v-1.9824c0-.2748-.0713-.4846-.2145-.6298s-.3256-.2177-.5476-.2177c-.2676 0-.499.1053-.6937.3155-.1955.2106-.2931.4853-.2931.8236v1.6908c0 .1732-.0474.3084-.1424.4058-.0949.0971-.216.146-.3629.146-.1473 0-.2677-.0489-.3611-.146z" fill="#009ec7"/><path d="m85.9484 62.6078c.1925-.2401.2885-.5757.2885-1.0073 0-.4346-.096-.7728-.2885-1.0155-.1929-.2423-.4628-.3636-.8104-.3636s-.6167.1206-.8081.3618c-.1914.2411-.2871.5801-.2871 1.0173 0 .4316.0965.7672.289 1.0073.1924.24.4612.3595.8062.3595.3476 0 .6175-.1195.8104-.3595zm-1.749.8713c-.2754-.1146-.4952-.2692-.6597-.4637s-.2897-.4117-.3749-.6514c-.086-.2397-.1286-.4943-.1286-.7635 0-.2132.0262-.4192.0781-.6179.0524-.1982.1342-.3856.2467-.5615.1125-.1758.2494-.3289.4116-.4595.1614-.1307.3596-.2337.5935-.3099.234-.0762.4912-.1139.7719-.1139.2755 0 .5289.0366.7599.1098.2314.0735.4287.1736.5917.3002.1633.1261.3024.277.4171.4513.1152.1747.2004.3633.255.5656.0549.2027.0822.4144.0822.6358 0 .2106-.0262.4129-.0781.6074-.0524.1945-.1339.3804-.2445.5578-.111.1769-.2478.3304-.4093.4596-.1622.1291-.3607.2325-.5958.3098-.2355.0773-.4945.1158-.7782.1158-.3502 0-.6631-.0572-.9386-.1718z" fill="#009ec7"/><path d="m89.2211 63.4533c-.1199-.1162-.2366-.3245-.3491-.6258l-1.0667-2.5864c-.0266-.0635-.0404-.1303-.0404-.1997 0-.1303.0482-.2397.1446-.3278.0965-.0878.206-.1318.329-.1318.0934 0 .1794.028.2568.084.0777.056.1379.1411.1805.2557l1.0511 2.6664 1.0507-2.6664c.0426-.1146.1028-.1997.1801-.2557.0778-.056.1634-.084.2572-.084.123 0 .2325.044.3289.1318.0961.0881.1443.1975.1443.3278 0 .0694-.0135.1362-.0404.1997l-1.0708 2.5864c-.1122.3013-.2277.5096-.3469.6258-.1189.1161-.2867.1739-.5031.1739-.2172 0-.3854-.0578-.5058-.1739z" fill="#009ec7"/><path d="m94.3636 62.7035c.2059-.2102.3087-.4767.3087-.7993v-.1161c-.2676 0-.4792.0041-.6358.0119-.1562.0083-.3046.0236-.4448.0463-.1405.0224-.2444.0583-.311.1079-.0669.0493-.1192.1131-.1566.1915-.0374.0788-.0561.1796-.0561.3021 0 .1863.0542.3285.1626.4256.1081.0974.252.1459.431.1459.262 0 .496-.1052.702-.3158zm-1.8271.6418c-.2609-.2013-.3913-.482-.3913-.8415 0-.1598.0168-.3006.0504-.4219.0333-.1213.08-.2259.1402-.3136.0602-.0881.145-.1628.2549-.224.1095-.0612.2258-.1112.3488-.1497.1233-.0388.2792-.0687.4672-.0903.1887-.021.3794-.0351.5719-.0419.1921-.0063.425-.01.6978-.01v-.3077c0-.2505-.0594-.4338-.1786-.5495-.1189-.1161-.2961-.174-.5312-.174-.0508 0-.1024.0019-.1547.006-.052.0041-.1051.0108-.1581.0198-.0539.0097-.1006.0175-.1406.0242-.0404.0068-.0882.018-.1443.034-.0564.0161-.099.028-.1285.0359-.0296.0082-.0722.022-.1286.0421-.0557.0198-.092.0325-.1081.0377-.016.0056-.0519.0195-.1083.0422-.0561.0228-.0853.034-.0883.034-.0291.0131-.0669.0202-.1121.0202-.0938 0-.1734-.0396-.2388-.118-.0655-.0788-.098-.1676-.098-.2662 0-.1303.0587-.2236.1761-.2796.444-.208.9374-.3118 1.4802-.3118.2463 0 .4664.028.6619.084.1951.056.3674.1427.5177.2599.1495.1172.2654.2755.3465.4756.0815.1997.1226.4357.1226.7075v2.0305c0 .1598-.0467.2838-.1402.3719-.0938.0881-.2063.1318-.3371.1318s-.2441-.0437-.339-.1318c-.095-.0881-.1424-.2121-.1424-.3719v-.1317c-.0856.2027-.2243.3669-.4149.4935-.1914.1266-.4422.19-.7525.19-.4063-.003-.7397-.1045-1.0006-.3057z" fill="#009ec7"/><path d="m97.3337 63.3052c-.2044-.2199-.3065-.5361-.3065-.9494v-2.0664h-.3891c-.1151 0-.204-.0314-.2668-.0941s-.0942-.146-.0942-.2497c0-.0986.0291-.1781.0882-.2379.0587-.0601.1458-.0899.2605-.0899h.4213l.1203-.9912c.0161-.1441.0662-.2621.1503-.3539.0845-.0919.1999-.1382.3472-.1382.1174 0 .209.0388.2747.1161.0655.0773.0984.1934.0984.348v1.0192h.6455c.1125 0 .1981.0313.2568.0941.0586.0623.0882.1456.0882.2497 0 .1012-.0296.1811-.0882.2397-.0587.0586-.1458.0881-.2606.0881h-.6417v1.8185c0 .2561.0321.4465.096.572.0643.125.1779.1877.3413.1877h.0437l.2852-.016h.028c.1096 0 .1963.0373.2606.112s.0964.1624.0964.2639c0 .0639-.0108.1199-.0321.1677-.0217.0481-.0557.0866-.1025.1161-.0467.0291-.0942.053-.1424.0716-.0482.0187-.1129.0314-.1947.0381-.0815.0067-.1518.0112-.2105.0138-.059.003-.1364.0041-.2324.0041h-.0886c-.3633-.0026-.6474-.1138-.8523-.3337z" fill="#009ec7"/><path d="m100.035 63.4573c-.0932-.0975-.1403-.2352-.1403-.4137v-2.8862c0-.1785.0471-.317.1403-.4159.094-.0982.214-.1479.361-.1479s.268.0497.363.1479c.095.0989.143.2374.143.4159v2.8862c0 .1758-.048.3129-.143.4118-.095.0985-.216.1478-.363.1478s-.267-.0489-.361-.1459zm-.0618-4.8168c-.1084-.1027-.1626-.2367-.1626-.4017 0-.1654.0542-.2987.1626-.3998.1078-.1012.2508-.152.4268-.152.174 0 .314.0508.422.152.107.1011.16.2344.16.3998 0 .165-.054.299-.163.4017-.108.1027-.249.1538-.423.1538-.173 0-.315-.0511-.4228-.1538z" fill="#009ec7"/><path d="m104.624 62.6078c.192-.2401.289-.5757.289-1.0073 0-.4346-.097-.7728-.289-1.0155-.193-.2423-.463-.3636-.81-.3636-.348 0-.617.1206-.809.3618-.191.2411-.287.5801-.287 1.0173 0 .4316.097.7672.289 1.0073.193.24.462.3595.807.3595.347 0 .617-.1195.81-.3595zm-1.749.8713c-.275-.1146-.495-.2692-.66-.4637-.164-.1945-.289-.4117-.375-.6514s-.128-.4943-.128-.7635c0-.2132.026-.4192.078-.6179.052-.1982.134-.3856.247-.5615.112-.1758.249-.3289.411-.4595.162-.1307.36-.2337.594-.3099s.491-.1139.772-.1139c.275 0 .528.0366.759.1098.232.0735.429.1736.592.3002.164.1261.303.277.417.4513.115.1747.201.3633.255.5656.055.2027.082.4144.082.6358 0 .2106-.026.4129-.078.6074s-.133.3804-.244.5578c-.111.1769-.248.3304-.409.4596-.163.1291-.361.2325-.596.3098-.236.0773-.495.1158-.778.1158-.351 0-.663-.0572-.939-.1718z" fill="#009ec7"/><path d="m106.91 63.4572c-.093-.0974-.14-.2326-.14-.4058v-2.9542c0-.1598.048-.2837.144-.3714.097-.0881.218-.1322.365-.1322.145 0 .264.0437.357.1303.093.0862.14.2083.14.3655v.14c.118-.2266.29-.3984.516-.5156s.495-.1762.808-.1762c.193 0 .374.0314.544.0941s.321.1545.455.2759c.134.1213.239.2818.317.4816.078.1997.116.4278.116.6835v1.9787c0 .1732-.048.3084-.144.4058-.096.0971-.22.146-.37.146-.141 0-.259-.0489-.352-.146-.094-.0974-.141-.2326-.141-.4058v-1.9824c0-.2748-.071-.4846-.214-.6298s-.326-.2177-.548-.2177c-.267 0-.499.1053-.693.3155-.196.2106-.294.4853-.294.8236v1.6908c0 .1732-.047.3084-.142.4058-.095.0971-.216.146-.363.146s-.267-.0489-.361-.146z" fill="#009ec7"/><path d="m115.099 63.3434c-.416-.2423-.743-.591-.983-1.0454-.239-.4543-.359-.9785-.359-1.5728 0-.4637.072-.8874.216-1.2712.145-.3838.344-.7049.598-.9636.254-.2583.556-.4588.905-.6014.348-.1426.726-.214 1.133-.214.511 0 1.012.1229 1.504.3678.185.1015.277.24.277.4159 0 .1224-.044.2318-.133.3278-.088.0959-.192.1437-.312.1437-.046 0-.097-.0105-.153-.0317-.021-.0083-.07-.0295-.146-.0643-.077-.0343-.142-.0619-.197-.0817-.054-.0202-.125-.0426-.21-.068-.086-.0253-.177-.0448-.273-.0578-.096-.0135-.197-.0202-.301-.0202-.543 0-.961.1732-1.255.5197-.295.3464-.442.8702-.442 1.571 0 .666.148 1.1797.444 1.5411.295.361.721.5413 1.277.5413.369 0 .768-.1157 1.195-.3475.057-.0295.113-.0441.169-.0441.109 0 .203.0452.278.1359.077.0907.115.1945.115.3117 0 .1654-.075.2998-.225.404-.467.3117-1.039.4674-1.713.4674-.524 0-.993-.1213-1.409-.3636z" fill="#009ec7"/><path d="m121.294 62.7035c.206-.2102.309-.4767.309-.7993v-.1161c-.268 0-.479.0041-.636.0119-.156.0083-.305.0236-.445.0463-.14.0224-.244.0583-.311.1079-.067.0493-.119.1131-.156.1915-.038.0788-.056.1796-.056.3021 0 .1863.054.3285.162.4256.108.0974.252.1459.431.1459.262 0 .496-.1052.702-.3158zm-1.827.6418c-.261-.2013-.391-.482-.391-.8415 0-.1598.017-.3006.05-.4219s.08-.2259.14-.3136c.06-.0881.145-.1628.255-.224s.226-.1112.349-.1497c.123-.0388.279-.0687.467-.0903.189-.021.38-.0351.572-.0419.192-.0063.425-.01.698-.01v-.3077c0-.2505-.059-.4338-.179-.5495-.119-.1161-.296-.174-.531-.174-.051 0-.102.0019-.155.006-.052.0041-.105.0108-.158.0198-.054.0097-.1.0175-.14.0242-.041.0068-.088.018-.145.034-.056.0161-.099.028-.128.0359-.03.0082-.072.022-.129.0421-.055.0198-.092.0325-.108.0377-.016.0056-.052.0195-.108.0422-.056.0228-.085.034-.088.034-.03.0131-.067.0202-.112.0202-.094 0-.174-.0396-.239-.118-.066-.0788-.098-.1676-.098-.2662 0-.1303.058-.2236.176-.2796.444-.208.937-.3118 1.48-.3118.246 0 .466.028.662.084.195.056.367.1427.518.2599.149.1172.265.2755.346.4756.082.1997.123.4357.123.7075v2.0305c0 .1598-.047.2838-.14.3719-.094.0881-.207.1318-.338.1318-.13 0-.244-.0437-.339-.1318s-.142-.2121-.142-.3719v-.1317c-.086.2027-.224.3669-.415.4935s-.442.19-.752.19c-.407-.003-.74-.1045-1.001-.3057z" fill="#009ec7"/><path d="m124.264 63.3052c-.204-.2199-.306-.5361-.306-.9494v-2.0664h-.389c-.115 0-.204-.0314-.267-.0941s-.094-.146-.094-.2497c0-.0986.029-.1781.088-.2379.058-.0601.146-.0899.26-.0899h.422l.12-.9912c.016-.1441.066-.2621.15-.3539.085-.0919.2-.1382.347-.1382.118 0 .209.0388.275.1161s.098.1934.098.348v1.0192h.646c.112 0 .198.0313.257.0941.058.0623.088.1456.088.2497 0 .1012-.03.1811-.088.2397-.059.0586-.146.0881-.261.0881h-.642v1.8185c0 .2561.033.4465.097.572.064.125.177.1877.341.1877h.044l.285-.016h.028c.109 0 .196.0373.26.112.065.0747.097.1624.097.2639 0 .0639-.011.1199-.032.1677-.022.0481-.056.0866-.103.1161-.047.0291-.094.053-.142.0716-.048.0187-.113.0314-.195.0381-.081.0067-.152.0112-.21.0138-.059.003-.137.0041-.233.0041h-.089c-.363-.0026-.647-.1138-.852-.3337z" fill="#009ec7"/><path d="m128.771 62.7035c.206-.2102.309-.4767.309-.7993v-.1161c-.268 0-.48.0041-.636.0119-.156.0083-.305.0236-.445.0463-.141.0224-.244.0583-.311.1079-.067.0493-.119.1131-.157.1915-.037.0788-.056.1796-.056.3021 0 .1863.054.3285.163.4256.108.0974.252.1459.431.1459.262 0 .496-.1052.702-.3158zm-1.827.6418c-.261-.2013-.392-.482-.392-.8415 0-.1598.017-.3006.051-.4219.033-.1213.08-.2259.14-.3136.06-.0881.145-.1628.255-.224.109-.0612.226-.1112.349-.1497.123-.0388.279-.0687.467-.0903.189-.021.379-.0351.572-.0419.192-.0063.425-.01.698-.01v-.3077c0-.2505-.06-.4338-.179-.5495-.119-.1161-.296-.174-.531-.174-.051 0-.103.0019-.155.006s-.105.0108-.158.0198c-.054.0097-.101.0175-.141.0242-.04.0068-.088.018-.144.034-.056.0161-.099.028-.128.0359-.03.0082-.073.022-.129.0421-.056.0198-.092.0325-.108.0377-.016.0056-.052.0195-.108.0422-.056.0228-.086.034-.089.034-.029.0131-.067.0202-.112.0202-.094 0-.173-.0396-.239-.118-.065-.0788-.098-.1676-.098-.2662 0-.1303.059-.2236.177-.2796.444-.208.937-.3118 1.48-.3118.246 0 .466.028.662.084.195.056.367.1427.517.2599s.266.2755.347.4756c.081.1997.122.4357.122.7075v2.0305c0 .1598-.046.2838-.14.3719s-.206.1318-.337.1318-.244-.0437-.339-.1318-.142-.2121-.142-.3719v-.1317c-.086.2027-.225.3669-.415.4935-.192.1266-.442.19-.753.19-.406-.003-.739-.1045-1-.3057z" fill="#009ec7"/><path d="m131.288 63.4572c-.093-.0974-.139-.2352-.139-.4136v-4.641c0-.1758.047-.3132.141-.4117.093-.0986.213-.1479.361-.1479.146 0 .268.0493.364.1479.097.0985.145.2359.145.4117v4.641c0 .1758-.049.3128-.147.4117-.097.0986-.221.1479-.371.1479-.144 0-.262-.0489-.354-.146z" fill="#009ec7"/><path d="m134.069 65.2979c-.125 0-.238-.0463-.337-.1382-.099-.0918-.148-.203-.148-.3337 0-.0743.017-.1464.052-.2158l.802-1.5949-1.432-2.7104c-.037-.0717-.056-.1463-.056-.2236 0-.1254.05-.2318.148-.32.099-.0877.213-.1317.341-.1317.19 0 .335.0959.434.2878l1.067 2.0948 1.071-2.1306c.101-.208.25-.3118.445-.3118.123 0 .23.043.323.1296.092.0866.138.193.138.3181 0 .0798-.019.1571-.056.2318l-2.395 4.7764c-.091.1815-.223.2722-.397.2722z" fill="#009ec7"/><path d="m137.431 62.9316c0-.0878.029-.165.09-.2319.06-.0664.136-.1.23-.1.067 0 .137.0201.209.0601.118.0668.212.1172.283.1519.07.0344.185.074.343.118.158.0437.315.0657.473.0657.155 0 .294-.0153.415-.0459.122-.0306.226-.0866.313-.1676.087-.0814.13-.1859.13-.314 0-.2266-.185-.3849-.557-.4756l-.626-.1598c-.19-.0508-.344-.096-.461-.1363-.118-.0399-.237-.0911-.357-.1538-.12-.0623-.213-.1318-.277-.2076-.064-.0761-.116-.1706-.156-.2841-.04-.1131-.06-.2456-.06-.3976 0-.3651.147-.6455.441-.8415.294-.1956.68-.2938 1.159-.2938.463 0 .901.1001 1.316.2998.144.0694.216.1758.216.32 0 .0851-.027.1579-.082.2176-.055.0601-.128.09-.219.09-.045 0-.097-.0105-.156-.0321-.003 0-.032-.0105-.088-.0318-.056-.0212-.096-.0354-.119-.0418-.023-.0067-.064-.0201-.126-.0403-.061-.0198-.115-.0343-.159-.0437-.044-.0093-.096-.0201-.158-.0321-.061-.0119-.122-.0205-.183-.0261-.06-.0052-.12-.0079-.182-.0079-.206 0-.381.034-.525.102-.145.0679-.217.1724-.217.3139 0 .1251.039.2177.118.2778.079.0597.23.115.452.1658l.617.156c.431.1064.746.2516.945.4357.199.1837.298.4383.298.7635 0 .4076-.15.7194-.451.9352-.3.2157-.691.3236-1.173.3236-.623 0-1.147-.1545-1.572-.4636-.096-.0691-.144-.1583-.144-.2677z" fill="#009ec7"/><path d="m142.198 63.3052c-.205-.2199-.307-.5361-.307-.9494v-2.0664h-.389c-.115 0-.204-.0314-.267-.0941s-.094-.146-.094-.2497c0-.0986.029-.1781.088-.2379.059-.0601.146-.0899.261-.0899h.421l.12-.9912c.016-.1441.067-.2621.151-.3539.084-.0919.2-.1382.347-.1382.117 0 .209.0388.275.1161.065.0773.098.1934.098.348v1.0192h.645c.113 0 .199.0313.257.0941.059.0623.088.1456.088.2497 0 .1012-.029.1811-.088.2397-.058.0586-.146.0881-.26.0881h-.642v1.8185c0 .2561.032.4465.096.572.064.125.178.1877.341.1877h.044l.285-.016h.028c.11 0 .196.0373.261.112.064.0747.096.1624.096.2639 0 .0639-.011.1199-.032.1677-.022.0481-.056.0866-.102.1161-.047.0291-.095.053-.143.0716-.048.0187-.113.0314-.195.0381-.081.0067-.151.0112-.21.0138-.059.003-.136.0041-.232.0041h-.089c-.363-.0026-.647-.1138-.852-.3337z" fill="#00a8da"/><path d="m20.9031 46.6177-10.5137-13.4187 2.2953-2.4778v-2.6705l-2.4329-1.4142 17.7535-16.93997 1.623 2.83027 2.7529.8067c1.5112-.8306 3.8746-2.2657 4.2166-2.8339l.3177-.52717 10.827 14.95457-1.1199 1.6744.7491 1.7909 1.8969.6302 1.5531-.258-2.812 15.6938-.8006-.1422 2.6093-14.5634-.6152.1023-2.44-.8105-1.0586-2.5315 1.0485-1.5677-9.8402-13.5912c-1.0765 1.0013-3.7031 2.4525-4.2895 2.7717l-.148.0802-3.391-.9938-1.2686-2.2127-16.2225 15.4787 1.9044 1.107v3.4529l-2.0419 2.2046 10.0883 12.8762z" fill="#8fa9ad"/><path d="m8.96764 27.7231c-1.23273.407-1.89993 1.7274-1.48765 2.9434.41265 1.2163 1.75042 1.8745 2.98351 1.4672 1.2324-.4066 1.8996-1.7271 1.4873-2.9434-.4123-1.2159-1.7508-1.8741-2.98316-1.4672zm2.14106 6.3135c-2.29581.7578-4.78855-.4686-5.5563-2.7336-.76812-2.2646.47433-4.7241 2.77009-5.4824 2.29541-.7579 4.78811.4685 5.55631 2.7336.7681 2.2646-.4747 4.7245-2.7701 5.4824z" fill="#7cbe2d"/><path d="m48.6078 25.2477c-.949.3132-1.4622 1.3298-1.1445 2.2665.3177.936 1.3471 1.4422 2.2961 1.129.9487-.3136 1.4615-1.3291 1.1442-2.265-.3177-.9367-1.3468-1.4437-2.2958-1.1305zm1.7968 5.2984c-2.0117.6641-4.1961-.4103-4.8693-2.3953-.6735-1.9858.4157-4.1418 2.4274-4.806 2.0117-.6641 4.1957.4111 4.8692 2.3968.6732 1.9851-.4156 4.1403-2.4273 4.8045z" fill="#009ec7"/><path d="m45.3345 45.3926c-1.386.4577-2.1362 1.9428-1.6727 3.3096s1.9684 2.1064 3.3543 1.649c1.3853-.4573 2.1343-1.9413 1.6709-3.3085-.4635-1.3667-1.9673-2.1074-3.3525-1.6501zm2.3268 6.8619c-2.4486.8082-5.1081-.4995-5.9278-2.9158-.8193-2.4162.5072-5.0392 2.9559-5.8479 2.4482-.8082 5.1062.4992 5.9255 2.9154.8193 2.4166-.5053 5.0396-2.9536 5.8483z" fill="#e7891c"/><path d="m21.8633 47.4063c-.5099.1684-.7868.7142-.616 1.2171.1704.5033.7251.7758 1.2346.6078.5098-.1684.786-.7149.6152-1.2186-.1708-.5032-.7244-.7746-1.2338-.6063zm1.2637 3.7267c-1.5732.5193-3.2806-.3204-3.8073-1.8731-.5263-1.5519.3252-3.2371 1.8981-3.7564 1.5728-.5193 3.2806.321 3.8069 1.8726.5263 1.5527-.3248 3.2376-1.8977 3.7569z" fill="#c50070"/></g><g mask="url(#a)"><path clip-rule="evenodd" d="m28.7323 10.1421c.641 1.8898 2.7211 2.9128 4.6364 2.28 1.9167-.6328 2.954-2.68469 2.3129-4.5745-.641-1.89056-2.7215-2.91387-4.6379-2.28107-1.9156.63243-2.9525 2.68502-2.3114 4.57557zm-1.9272.6362c-.9969-2.93929.6152-6.13017 3.5935-7.1139 2.9798-.98373 6.2145.60704 7.2114 3.54629.9965 2.93921-.6168 6.13051-3.5962 7.11421-2.9779.9834-6.2122-.6074-7.2087-3.5466z" fill="#622681" fill-rule="evenodd"/></g><path clip-rule="evenodd" d="m42.5844 47.2323-5.8474-2.8769.906-1.7953 5.849 2.8769z" fill="#e7891c" fill-rule="evenodd"/><path clip-rule="evenodd" d="m25.2565 38.5639-12.8222-6.3078.9064-1.7954 12.8226 6.3078z" fill="#7cbe2d" fill-rule="evenodd"/><path clip-rule="evenodd" d="m36.8731 37.6528-1.2376-1.5904 11.2744-8.5419 1.2376 1.5908z" fill="#009ec7" fill-rule="evenodd"/><path clip-rule="evenodd" d="m24.3682 47.919-1.2376-1.5908 2.8258-2.1661 1.2376 1.5904z" fill="#c50070" fill-rule="evenodd"/><path clip-rule="evenodd" d="m32.4984 34.1512-2.0315-.0568.5909-20.5165 2.0319.0564z" fill="#622681" fill-rule="evenodd"/><path clip-rule="evenodd" d="m33.2578 47.0662-3.6433-.087c-.1633-.0041-.3166.0553-.4309.1665-.1125.1094-.1735.2554-.172.4114.003.3181.271.5824.5977.5895l3.6309.0777c.0692.0011.1368-.009.2007-.0299.0819-.0269.157-.0717.2206-.1325.1121-.1072.1753-.2509.1771-.4055.0038-.3177-.2567-.5824-.5808-.5902z" fill="#ffcd4b" fill-rule="evenodd"/><path clip-rule="evenodd" d="m33.1508 48.6168-3.6245-.0732c-.163-.0034-.3159.0564-.4299.1672-.1114.1087-.1719.2539-.1704.4085.003.3162.2706.5786.5965.5842l3.6123.0643c.0687.0011.1357-.009.1988-.0299.0823-.0273.1578-.0724.2217-.1333.111-.1068.1734-.2494.1753-.4021.0037-.3166-.2564-.579-.5798-.5857z" fill="#ffcd4b" fill-rule="evenodd"/><path clip-rule="evenodd" d="m31.5148 50.0465c-.2979-.0101-.6063-.0209-.9113-.0221-.0658-.0048-.1331-.0078-.2-.0078-.0747 0-.1495.0022-.2254.0049l-.4175.0149.2389.3379c.3128.4431.8268.7126 1.3747.7205.1925.003.3805-.0269.5573-.0851.323-.1068.6078-.3095.8093-.5858l.262-.3591-.4482.0029c-.3435.0023-.6974-.0097-1.0398-.0212z" fill="#ffcd4b" fill-rule="evenodd"/><path clip-rule="evenodd" d="m31.5241 35.0192c-1.4817-.0997-2.8781.3931-3.9318 1.3873-1.0832 1.0222-1.6596 2.4289-1.6237 3.9607.0497 2.1116 1.3624 3.6945 2.1406 4.4502.3521.3419.5644.7485.7697 1.1412.0392.0751.0777.149.1151.2181.1458.2774.4926.3964.7759.2635.1383-.0649.2415-.1792.2905-.3221.0497-.1453.0374-.3021-.0325-.4365-.003-.0059-.0064-.0119-.0075-.0145-.0333-.062-.068-.13-.1047-.2024-.2059-.4032-.4874-.9553-.9939-1.4511-1.0929-1.0696-1.7339-2.389-1.7586-3.6199-.0239-1.201.4265-2.2997 1.269-3.0934.8171-.7706 1.904-1.1536 3.0605-1.0793 2.3724.1538 4.2592 2.2206 4.2058 4.608-.0265 1.1865-.6373 2.4163-1.6757 3.3739-.4934.455-.7692.9826-.9707 1.3682-.0362.0698-.0706.1352-.102.1927-.1525.2691-.0538.6137.2201.7687.1342.0757.2893.0952.4374.0548.0097-.0026.0194-.0056.0291-.0089.1327-.0437.2426-.1333.3118-.2546l.0052-.0094c.0377-.0683.0751-.1389.1136-.2105.1981-.3715.4033-.7557.7386-1.0648.739-.6809 1.987-2.1276 2.0394-4.166.0773-3.0251-2.3096-5.6512-5.3212-5.8539z" fill="#ffcd4b" fill-rule="evenodd"/></svg>