<svg fill="none" height="40" viewBox="0 0 124 40" width="124" xmlns="http://www.w3.org/2000/svg"><path d="m11.6918 0c-4.06549 0-5.53974.422832-7.02602 1.21682-1.48629.79399-2.65273 1.95914-3.4476 3.44377-.794878 1.48464-1.21818 2.95724-1.21818 7.01821v16.2521c0 4.061.423302 5.5336 1.21818 7.0183.79487 1.4846 1.96131 2.6497 3.4476 3.4437 1.48628.794 2.96053 1.2169 7.02602 1.2169h16.2702c4.0655 0 5.5398-.4229 7.026-1.2169 1.4863-.794 2.6528-1.9591 3.4476-3.4437.7949-1.4847 1.2182-2.9573 1.2182-7.0183v-16.2521c0-4.06097-.4233-5.53357-1.2182-7.01821-.7948-1.48463-1.9613-2.64978-3.4476-3.44377-1.4862-.793988-2.9605-1.21682-7.026-1.21682z" fill="#844ed7"/><path d="m7.68256 7.92188h3.16404c.5073 0 .7888.22082 1.0055.47192 1.0184 1.17995 4.5853 5.313 10.7006 12.3992l-6.8877.002c-2.2993.0007-4.3351-1.4813-5.0343-3.665z" fill="#fff"/><path d="m24.3331 22.7756h-16.19272c-.52405 0-.55387.5435-.31191.7822.09871.0829.24734.2052.4436.3599.56168.4409 1.27214.957 2.09653 1.5061 2.9858 1.974 8.3116 4.8618 15.2167 5.9882 2.2551.3424 4.3286.4637 6.0573.4739.1418-.0009.2843-.003.4271-.0056z" fill="#fff" opacity=".7"/><g fill="#4d5f79"><path d="m47 6.19702v12.60168h2.7804v-4.3566h4.5486v-2.394h-4.5486v-3.40277h4.5486v-2.44831z"/><path d="m63.8369 16.2783v2.5204h-6.5367v-12.60168h2.9333v10.08128z"/><path d="m65.8177 18.7987h2.7731v-12.60168h-2.7731z"/><path d="m78.3481 12.3269h6.506v2.1693h-1.2902c-.1319.7172-.3586 1.3686-.6813 1.954-.3225.5859-.7469 1.0877-1.2724 1.5059-.5261.4186-1.1445.7442-1.8553.9771-.7111.2333-1.5143.3496-2.4106.3496-1.0516 0-1.9867-.1793-2.805-.5376-.8187-.3587-1.5056-.8396-2.0613-1.4433-.5556-.6036-.9801-1.3027-1.2726-2.0977-.2929-.7947-.439-1.6343-.439-2.5189 0-.8606.1493-1.688.448-2.4828.2984-.79508.7316-1.49711 1.2994-2.10665.5675-.60972 1.2575-1.0963 2.0703-1.4611.8125-.36429 1.7324-.54686 2.7602-.54686.8245 0 1.58.11663 2.2673.34939.687.23327 1.2815.54994 1.7835.95037.5019.4006.902.86679 1.201 1.39841.2984.53196.4776 1.0968.5373 1.69414h-3.1004c-.048-.2509-.1437-.48995-.287-.71705-.1433-.22693-.3315-.42732-.5645-.60064-.2331-.17298-.505-.31068-.8156-.41242-.3108-.10139-.6572-.15208-1.0395-.15208-.5976 0-1.1176.11355-1.5594.34048-.4421.2271-.8156.53179-1.1204.9144-.3046.38241-.5318.82171-.6809 1.31761-.1497.4963-.224 1.0072-.224 1.5328 0 .5619.0776 1.0908.2329 1.5867s.391.9322.708 1.3088c.3164.3766.7168.6753 1.201.8962.4841.2215 1.0484.3318 1.6936.3318.442 0 .8363-.0629 1.183-.1882.3466-.1256.6454-.296.8962-.5111.2507-.2149.4541-.4631.6094-.744.1552-.2805.2567-.5765.3047-.8873h-2.2224z"/><path d="m93.9595 13.9763h-4.3378v4.9841h-2.9035v-12.54976h2.9035v5.07366h4.3378v-5.07366h2.8857v12.54976h-2.8857z"/><path d="m101.505 8.92059h-2.8317v-2.50995h8.5857v2.50995h-2.85v10.03961h-2.904z"/><path d="m53.6686 32.0253v2.5866h-6.6685v-12.9337h2.9924v10.3471z"/><path clip-rule="evenodd" d="m58.1389 34.381c.8496.3754 1.8102.5634 2.8816.5634s2.0287-.188 2.8724-.5634c.8434-.3756 1.5609-.8778 2.1521-1.5058.5911-.6284 1.0404-1.3519 1.3485-2.1712.3077-.819.4616-1.6721.4616-2.5589 0-.887-.1539-1.7398-.4616-2.5591-.3081-.819-.7574-1.5426-1.3485-2.1709-.5912-.6282-1.3087-1.13-2.1521-1.5058-.8437-.3757-1.801-.5636-2.8724-.5636s-2.032.1879-2.8816.5636c-.8498.3758-1.5702.8776-2.1613 1.5058-.5912.6283-1.0407 1.3519-1.3485 2.1709-.3079.8193-.4617 1.6721-.4617 2.5591 0 .8868.1538 1.7399.4617 2.5589.3078.8193.7573 1.5428 1.3485 2.1712.5911.628 1.3115 1.1302 2.1613 1.5058zm4.4701-2.4759c-.4681.228-.9974.3417-1.5885.3417s-1.1207-.1137-1.5885-.3417c-.4683-.2278-.8655-.5326-1.1916-.9147-.3265-.3815-.5758-.8189-.7481-1.3118-.1726-.4926-.2585-1.0038-.2585-1.5335 0-.5296.0859-1.0407.2585-1.5336.1723-.4925.4216-.93.7481-1.3119.3261-.3816.7233-.6864 1.1916-.9146.4678-.2277.9974-.3416 1.5885-.3416s1.1204.1139 1.5885.3416c.468.2282.8652.533 1.1916.9146.3262.3819.5756.8194.7481 1.3119.1722.4929.2585 1.004.2585 1.5336 0 .5297-.0863 1.0409-.2585 1.5335-.1725.4929-.4219.9303-.7481 1.3118-.3264.3821-.7236.6869-1.1916.9147z" fill-rule="evenodd"/><path d="m77.2205 27.7756h6.7053v2.2356h-1.3297c-.1358.7392-.3697 1.4106-.7021 2.0141-.3325.6036-.7698 1.1208-1.3116 1.5521-.5421.4312-1.1792.7667-1.9119 1.0069-.7329.2399-1.5608.3601-2.4845.3601-1.0837 0-2.0474-.1848-2.8909-.5542-.8438-.3696-1.5517-.8654-2.1243-1.4873-.5725-.6219-1.0099-1.3424-1.3114-2.1619-.302-.819-.4527-1.6843-.4527-2.5959 0-.8869.1539-1.7398.4618-2.559.3077-.819.7542-1.5427 1.3392-2.171.5849-.6282 1.296-1.13 2.1336-1.5058.8372-.3755 1.7853-.5636 2.8447-.5636.8498 0 1.6284.1202 2.3367.3604.7081.2401 1.3209.5667 1.838.9791.5173.4129.9298.8933 1.2376 1.4412.3077.5483.4925 1.1302.5543 1.7461h-3.1956c-.0494-.2586-.148-.5049-.2956-.7392-.1478-.2338-.3419-.4401-.5818-.619-.2403-.1782-.5204-.3199-.8406-.4247-.3203-.1046-.6775-.1571-1.0714-.1571-.616 0-1.1516.1172-1.6071.351-.4556.2343-.8406.5484-1.1544.9423-.3142.3944-.5483.8471-.7021 1.3582-.1541.511-.231 1.0378-.231 1.5796 0 .579.08 1.1242.2403 1.6352.1597.5113.4032.9607.7296 1.3488.3262.3879.7388.696 1.2376.9238.4988.2281 1.0808.3417 1.7455.3417.4557 0 .8622-.0646 1.2193-.1939.3569-.1293.6649-.3048.9237-.5266.2587-.2217.4678-.4772.6282-.7668.1598-.2893.2645-.594.3139-.9146h-2.2906z"/><path d="m93.0142 27.7756h6.7053v2.2356h-1.3299c-.1356.7392-.3695 1.4106-.702 2.0141-.3324.6036-.7697 1.1208-1.3115 1.5521-.5419.4312-1.1794.7667-1.9119 1.0069-.7329.2399-1.5608.3601-2.4844.3601-1.0838 0-2.0475-.1848-2.8908-.5542-.8438-.3696-1.5517-.8654-2.1246-1.4873-.5726-.6219-1.0098-1.3424-1.3113-2.1619-.302-.819-.4527-1.6843-.4527-2.5959 0-.8869.1539-1.7398.4616-2.559.3079-.819.7544-1.5427 1.3395-2.171.5846-.6282 1.2959-1.13 2.1335-1.5058.8372-.3755 1.7853-.5636 2.8448-.5636.8497 0 1.6284.1202 2.3366.3604.7081.2401 1.3207.5667 1.838.9791.5171.4129.9298.8933 1.2376 1.4412.3077.5483.4925 1.1302.5543 1.7461h-3.1956c-.0495-.2586-.148-.5049-.2958-.7392-.1477-.2338-.3417-.4401-.5818-.619-.24-.1782-.5204-.3199-.8405-.4247-.3204-.1046-.6774-.1571-1.0713-.1571-.6159 0-1.1516.1172-1.6071.351-.4558.2343-.8406.5484-1.1544.9423-.3141.3944-.5483.8471-.7021 1.3582-.1541.511-.2308 1.0378-.2308 1.5796 0 .579.0796 1.1242.2401 1.6352.1597.5113.403.9607.7294 1.3488.3264.3879.7392.696 1.2378.9238.4988.2281 1.0806.3417 1.7457.3417.4555 0 .862-.0646 1.219-.1939.3572-.1293.6652-.3048.9238-.5266.2587-.2217.4678-.4772.628-.7668.16-.2893.2647-.594.3141-.9146h-2.2906z"/><path d="m104.633 24.0803v2.9377h4.895v2.3466h-4.895v2.8453h4.895v2.4019h-7.888v-12.9336h7.888v2.4021z"/><path clip-rule="evenodd" d="m117.693 21.678h-5.431v12.9337h2.992v-3.5845h1.404l3.12 3.5845h3.473l-3.415-4.0834c.812-.3814 1.443-.9451 1.893-1.6904.449-.7454.674-1.5733.674-2.4853 0-.6282-.111-1.2254-.332-1.7922-.222-.5664-.539-1.0623-.952-1.4873-.413-.4251-.908-.7635-1.487-1.0163-.579-.2523-1.225-.3788-1.939-.3788zm.462 6.7255c-.259.1233-.542.1848-.85.1848h-2.051v-4.4713h2.051c.308 0 .591.0618.85.1848.258.1232.477.2865.655.4897.179.2033.317.4405.416.7113.098.2711.148.5543.148.8498 0 .2958-.05.5792-.148.85-.099.2711-.237.5081-.416.7113-.178.2033-.397.3667-.655.4896z" fill-rule="evenodd"/></g></svg>