<svg fill="none" height="53" viewBox="0 0 86 53" width="86" xmlns="http://www.w3.org/2000/svg" xmlns:xlink="http://www.w3.org/1999/xlink"><mask id="a" height="33" maskUnits="userSpaceOnUse" width="56" x="0" y="0"><path clip-rule="evenodd" d="m.00006104.0703125h55.99743896v32.7880875h-55.99743896z" fill="#fff" fill-rule="evenodd"/></mask><mask id="b" height="5" maskUnits="userSpaceOnUse" width="4" x="82" y="48"><path clip-rule="evenodd" d="m82.118 48.1519h3.8736v4.8448h-3.8736z" fill="#fff" fill-rule="evenodd"/></mask><g mask="url(#a)"><path clip-rule="evenodd" d="m44.2021 13.0469c-2.7096 0-4.9089 3.947-4.9089 8.8098 0 4.8654 2.1993 8.8095 4.9089 8.8095 2.7127 0 4.9105-3.9441 4.9105-8.8095 0-4.8628-2.1978-8.8098-4.9105-8.8098zm-15.8311-9.72524c5.4799 4.42939 5.19 10.40274 5.19 10.40274v2.9967c2.2078-4.2981 6.6278-5.533 6.6278-5.533 5.4268-1.76162 9.8742.4696 9.8742.4696 6.6381 3.0675 5.911 10.1324 5.911 10.1324-.1315 5.1659-2.9086 7.9013-2.9086 7.9013-2.9423 3.2046-8.7825 3.1671-8.7825 3.1671-3.6846-.0347-6.5356-1.4977-6.5356-1.4977-5.2157-2.6025-5.1149-9.4697-5.1149-9.4697-3.3672 7.302-8.06 9.2661-8.06 9.2661-3.4654 1.6666-10.0323 1.6015-10.0323 1.6015h-12.51177c-.75987.0318-1.255948-.1009-1.255948-.1009-.92283-.0983-.7614923-.7975-.7614923-.7975.0691447-.735 1.2892603-1.2303 1.2892603-1.2303l2.37361-1.073c1.09317-.4001 1.02672-1.7764 1.02672-1.7764v-8.7939h9.27552l.6286.8061c.2612.3596.2324.9633.2324.9633v1.4053c0 .5313-1.1884.8605-1.1884.8605-.6617.136-.5622.7004-.5622.7004v3.8664c0 .9026.793.7408.793.7408h10.2995c.6877 0 .5624-.9068.5624-.9068v-4.197l-1.1249-.5994c-.3923-.2052-.3619-1.0023-.3619-1.0023v-10.635c.0979-3.17303-2.2454-5.50395-2.2454-5.50395-3.0357-2.86361-7.9531-2.86361-7.9531-2.86361-1.1911 0-1.223.66704-1.223.66704-.0992.53305.7903.96457.7903.96457 1.5864 1.0688 2.016 2.43515 2.016 2.43515.3953 1.12777.1632 3.6305.1632 3.6305-.062.9691-1.0541 1.7043-1.0541 1.7043h-9.0119v-7.10382c-.10516-2.13184-2.50758-2.9031-2.50758-2.9031-.47015-.06203-1.328333-.32765-1.328333-.32765-.790122-.26869-.790122-.766938-.790122-.766938 0-.901098.892575-.8506062.892575-.8506062h17.86886c6.0653-.0504918 9.4991 3.2507742 9.4991 3.2507742z" fill="#ef4b3e" fill-rule="evenodd"/></g><g clip-rule="evenodd" fill="#ef4b3e" fill-rule="evenodd"><path d="m69 4.99347c0 2.20965-1.7938 4.00653-4.0018 4.00653-2.2078 0-3.9982-1.79688-3.9982-4.00653 0-2.20661 1.7904-3.99347 3.9982-3.99347 2.208 0 4.0018 1.78686 4.0018 3.99347z"/><path d="m59.7316 10.7538s-1.2746-.0538-1.6157.9681c0 0-.2183.7346.9509 1.1338l2.0038.7371v15.1482s.1695 1.4776-1.0571 1.8724c0 0-2.0644.231-2.0082 1.3616 0 0-.1679 1.0247 1.394 1.0247h10.5923s1.1696-.0582 1.2816-1.1381c0 0 .1119-1.1887-1.4502-1.1887 0 0-2.2868-.1076-2.2868-1.7013v-14.0725s-.2779-1.4208 1.1162-1.7576h1.3964s1.3363-.058 1.3911 1.3614v13.161s-.2213 4.4256 3.6244 5.1094c0 0 3.0098.9624 6.2991-1.0786 0 0 2.8966-1.5327 2.6177-3.3515 0 0 0-.7883-1.2225-.1712 0 0-1.6181 1.0828-2.3995 1.1351 0 0-2.1213.2322-2.3961-1.5865 0 0-.115-.7374-.115-1.7011v-12.8217h2.5673s2.5104 0 3.064-1.4759c0 0 .8901-1.4181 0-2.04224 0 0-.6128-.11487-.9492.33964 0 0-.5024.6268-.9986.7345h-3.5685v-5.95431s.0575-.73887-.5019-.79524c0 0-.6142-.11045-1.2816.79524 0 0-2.8942 3.23401-3.6768 3.96988 0 0-1.8456 1.64613-4.1278 1.82023z"/><path d="m25.8216 40.1709c-1.0042-1.8847-2.5501-1.763-2.5501-1.763s-2.173-.1217-2.7205 2.1342c-.1647.9002-.1647 1.7165-.1647 1.7165-.0419.4972.4174.4547.4174.4547h4.7247s.5403.0807.6242-.5329c.0433-1.4767-.331-2.0095-.331-2.0095zm-13.9556.2907c-.9607-1.6414-2.38389-1.6414-2.38389-1.6414-1.92026-.2889-2.50243 1.3111-2.50243 1.3111-1.08822 2.2943-.04348 5.4929-.04348 5.4929 1.2513 4.2996 4.3433 4.5847 4.3433 4.5847 3.2594.371 4.8039-1.5151 4.8039-1.5151-.6271-1.9698-.543-4.2175-.543-4.2175.0851-4.5507 4.3878-6.6438 4.3878-6.6438 4.0947-1.9654 7.7747.1659 7.7747.1659 3.7146 2.2532 3.1326 5.4918 3.1326 5.4918-.0868.9861-1.1707.8612-1.1707.8612h-8.9c-.4204-.0423-.4204.4917-.4204.4917.1662 5.4081 4.9313 5.5342 4.9313 5.5342 2.6758.0342 4.2578-1.437 4.2578-1.437.2121-.204.6747-.4109.6747-.4109.7483-.204.7918.452.7918.452-.0435 1.0627-1.965 2.1713-1.965 2.1713-3.8042 2.5434-7.5623 1.7202-7.5623 1.7202-3.9677-.7779-4.8055-3.0737-4.8055-3.0737-.8364 1.1507-2.2567 1.9658-2.2567 1.9658-3.9661 2.3793-8.35288.5351-8.35288.5351-5.305239-2.4596-3.88489-8.6854-3.88489-8.6854 1.29586-5.3683 7.18526-6.3929 7.18526-6.3929 4.22011-.6604 6.47281 1.5984 6.47281 1.5984 1.085 1.2274.127 2.0466.127 2.0466-.919 1.1479-2.5894 1.8465-2.5894 1.8465-1.1759.4477-1.1282-.8247-1.1282-.8247-.0477-.7723-.3742-1.427-.3742-1.427z"/><path d="m37.6133 36.6265s.039-.9076-.8916-.538c0 0-2.3025 1.3632-4.4822 1.7827 0 0-.9628.0786-1.1693.4869 0 0-.3195.7036.4048.9105l.6863.2083s.7663.0788.7286 1.1561v8.4555s0 .7863-.6504 1.2018c0 0-1.0074.6993-.8443 1.1117 0 0 0 .6209 1.0856.4594 0 0 3.1873-.7503 6.1777.0358 0 0 1.0493.4126 1.4092-.4156 0 0 .2835-.8187-.7243-1.0702 0 0-1.8181-.3327-1.8181-1.6886v-6.8136s-.1185-1.9384 1.8587-2.6406c0 0 2.0583-.6594 3.0657.9891 0 0 .649 1.0732.649 2.479v6.3518s.0781.8678-.7718 1.3229c0 0-.8846.331-.8066.9906 0 0 .0392.6596 1.0927.4952 0 0 3.2679-.538 5.5663-.124 0 0 1.4498.4954 1.7777-.2916 0 0 .3237-.7392-.805-1.1557 0 0-1.3773-.1627-1.3773-1.8556v-6.7653s.3249-4.169-3.8724-5.1612c0 0-2.6637-.8249-5.4462 1.6117 0 0-.6489.659-.7648.7419 0 0-.166.1231-.078-.5764z"/><path d="m60.5248 42.0749c0 .7002.7312.5779.7312.5779h4.4915c1.1824-.5381.3662-2.14.3662-2.14-.938-2.5142-3.0177-2.0598-3.0177-2.0598-2.6997.5765-2.5712 3.6219-2.5712 3.6219zm-6.7413-4.5717h1.8343c.7769.0841 1.4687-.3744 1.4687-.3744.3673-.2433.6959-.2833.6959-.2833.6952-.0427.2107.991.2107.991l-.4561 1.0705c-.2839.6578-1.181.6578-1.181.6578h-2.0002c-.8153 0-.6556.9866-.6556.9866v8.1935c.4518 2.5954 3.4297 1.1091 3.4297 1.1091-3.3096-6.8752 1.1878-10.6197 1.1878-10.6197 2.8536-2.8002 7.1026-2.0571 7.1026-2.0571 5.7989 1.2358 5.4276 6.213 5.4276 6.213-.0407.9894-.9348.9069-.9348.9069h-8.7023c-.6072-.0371-.686.4939-.686.4939.0349 4.4022 3.9977 5.4331 3.9977 5.4331 3.3462.6177 5.1452-1.3584 5.1452-1.3584.7369-.6961 1.1395-.2872 1.1395-.2872.4954.5367-.1203 1.2755-.1203 1.2755-2.6501 3.3352-7.5909 3.129-7.5909 3.129-3.6402-.2474-4.8592-1.7681-4.8592-1.7681-.2437-.2906-.3726-.1655-.3726-.1655-2.2464 2.4673-5.7596 1.8925-5.7596 1.8925-3.1445-.5354-3.0232-4.1131-3.0232-4.1131v-8.6079c.0497-.699-.4419-.6163-.4419-.6163h-1.1465c-.4505-.0398-.493-.3703-.493-.3703 0-.6177.5312-.8213.5312-.8213 2.413-1.3185 4.9856-4.5743 4.9856-4.5743.4904-.6561.7372-.783.7372-.783.6497-.2861.6086.6236.6086.6236z"/><path d="m76.4823 36.2952s-2.0155.9912-4.3669 1.5752c0 0-1.0685.1543-1.1127.6157-.0357.4911.2916.6184.5808.744 0 0 1.147.2857 1.234.9498v8.9582s.1236.744-.7417 1.3639c0 0-.8213.4143-.5368 1.1564 0 0 .1683.536 1.4479.2116 0 0 2.2172-.3356 4.3579-.1696 0 0 1.4804.1696 1.8107.2483 0 0 .9448.2871 1.2339-.497 0 0 .3301-.8241-.6988-1.0328 0 0-1.9332-.3328-2.014-1.608v-6.57s-.0443-1.7309 1.3536-1.8136c0 0 .8664-.2474 1.7707 1.111 0 0 .6984 1.3668 1.9367.2525 0 0 .7818-.6611 1.1915-2.1092 0 0 .3687-.8672-.5753-2.0239 0 0-1.1099-1.4053-2.3896-1.1954 0 0-.696-.0487-1.5654 1.0725l-1.3935 1.6953s-.4158.617-.373-.0842v-1.9824s.0839-.9498-.2022-1.1182c0 0-.2076-.2029-.9478.2499z"/></g><g mask="url(#b)"><path clip-rule="evenodd" d="m83.598 49.7194h.1676c.2376 0 .383.0125.441.0355.0603.0293.1083.0664.1366.1156.0357.0585.0518.1156.0518.1894 0 .0739-.0161.14-.0518.1956-.0283.0587-.0763.0956-.1334.1185-.0612.023-.2066.0325-.4442.0325h-.1676zm0 2.138v-1.0492h.1096c.1159 0 .208.034.2868.111.0752.0696.1677.245.2809.5238l.1674.4144h.5142l-.2306-.5148c-.0911-.1859-.139-.2846-.1514-.3107-.0654-.0974-.1086-.1589-.1403-.191-.0336-.0369-.0816-.071-.1454-.0958.1758-.0354.3091-.1186.4038-.2461.0937-.1293.142-.2866.142-.4729 0-.1354-.0214-.2569-.0706-.3621-.0564-.1108-.1191-.1923-.1957-.245-.0755-.0552-.1824-.0891-.3204-.1045-.0479 0-.266-.0063-.6565-.0063h-.4132v2.5492zm-.5016-3.3961c-.3055.2046-.5472.5067-.7249.8946-.1697.3896-.2535.7963-.2535 1.2167 0 .4189.08.8269.2535 1.2064.1717.3804.4092.6819.7123.8979.3048.2136.6298.3198.9686.3198.3379 0 .6603-.1062.9671-.3198.3031-.216.5421-.5175.7137-.8979.1709-.3795.2584-.7875.2584-1.2064 0-.4204-.0875-.8271-.2686-1.2167-.1687-.3879-.4086-.69-.7134-.8946-.303-.2079-.6267-.3094-.9572-.3094-.3326 0-.6517.1015-.956.3094zm1.7172.4217c.2491.1667.4364.4006.5808.7179.1403.3052.2094.6331.2094.9706 0 .3369-.0691.6588-.2058.9636-.1407.3098-.3313.5427-.5742.7227-.2438.1708-.5015.2541-.7728.2541-.2706 0-.5244-.0833-.77-.2541-.245-.18-.4363-.4129-.5764-.7227-.1357-.3048-.201-.6267-.201-.9636 0-.3375.0679-.6654.2071-.9706.1366-.3173.3299-.5512.5763-.7179.243-.166.5016-.2479.764-.2479.2651 0 .5177.0819.7626.2479z" fill="#ef4b3e" fill-rule="evenodd"/></g></svg>