<svg fill="none" height="44" viewBox="0 0 44 44" width="44" xmlns="http://www.w3.org/2000/svg"><path clip-rule="evenodd" d="m21.853 3.63082c-10.1796 0-18.45795 8.29228-18.45795 18.48678 0 10.1928 8.27835 18.4842 18.45795 18.4842 10.178 0 18.4589-8.2914 18.4589-18.4842 0-10.1945-8.2809-18.48678-18.4589-18.48678zm0 40.36918c-12.04954 0-21.85312207-9.8171-21.85312207-21.8824 0-12.0679 9.80358207-21.884934 21.85312207-21.884934 12.0488 0 21.854 9.817034 21.854 21.884934 0 12.0653-9.8052 21.8824-21.854 21.8824zm.0009-33.4883c-6.4008 0-11.5882 5.197-11.5882 11.6058 0 6.4071 5.1874 11.6016 11.5882 11.6016 6.3991 0 11.5873-5.1945 11.5873-11.6016 0-6.4088-5.1882-11.6058-11.5873-11.6058zm0-4.88066 3.8253 3.77723 5.2583-1.10507 1.1779 5.2504 5.0218 1.9148-1.842 5.0524 3.1898 4.3315-4.279 3.2543.3456 5.368-5.3564.4231-2.6077 4.7037-4.7336-2.546-4.7337 2.546-2.6076-4.7037-5.3564-.4231.3456-5.368-4.27819-3.2543 3.189-4.3315-1.84293-5.0524 5.02092-1.9148 1.1796-5.2504 5.2576 1.10507zm-4.9111 16.48586c0 2.7111 2.2029 4.917 4.9111 4.917 2.7073 0 4.9094-2.2059 4.9094-4.917 0-2.7119-2.2021-4.9178-4.9094-4.9178-2.7082 0-4.9111 2.2059-4.9111 4.9178zm-2.3085 0c0-3.9862 3.2371-7.2312 7.2196-7.2312 3.9807 0 7.2196 3.245 7.2196 7.2312 0 3.9871-3.2389 7.2304-7.2196 7.2304-3.9825 0-7.2196-3.2433-7.2196-7.2304z" fill="#00d8a0" fill-rule="evenodd"/></svg>