<svg fill="none" height="44" viewBox="0 0 161 44" width="161" xmlns="http://www.w3.org/2000/svg"><g clip-rule="evenodd" fill-rule="evenodd"><path d="m54.8501 20.587c.6592.3826 1.6481.6887 2.8842.9183 1.236.3062 2.5545.3827 3.873.3827s2.4721-.1531 3.5434-.4592 1.9777-.7653 2.8018-1.301c.7416-.5357 1.4009-1.2245 1.8129-2.0664.412-.8418.6592-1.6837.6592-2.7551 0-1.2245-.412-2.2959-1.1536-3.2909-.7417-.9183-2.0602-1.6837-3.8731-2.21937l-3.5434-1.07144c-1.3185-.38266-2.3073-.84185-2.8018-1.30104-.4944-.45919-.7416-.99491-.7416-1.68369 0-.91838.412-1.68369 1.1537-2.06635.824-.45919 1.8953-.68878 3.3786-.68878 1.8129 0 3.3786.30612 4.8619.91837.412.15307.7416.30613.9888.30613.4121 0 .5769-.22959.5769-.76531v-.91838c0-.30613-.0824-.61225-.2473-.76532-.1648-.22959-.412-.45919-.7416-.61225-.2472-.153061-.6592-.306124-1.0713-.382655-.412-.153063-.9064-.229595-1.4009-.382658-.4944-.076531-1.0712-.229594-1.6481-.229594-.5768-.153063-1.1536-.153063-1.7305-.153063-1.1536 0-2.1425.153063-3.1314.382657-.9888.306126-1.8953.688783-2.6369 1.224503-.7417.53572-1.3185 1.14797-1.8129 1.91329-.4945.76531-.6593 1.60716-.6593 2.60207 0 1.2245.4121 2.37247 1.2361 3.36738.8241 1.0714 2.1425 1.8368 4.0379 2.3725l3.6258 1.0714c1.2361.3827 2.0601.7653 2.5545 1.2245.4945.4592.6593.9949.6593 1.6072 0 .9184-.412 1.6837-1.3185 2.2194s-2.0601.7653-3.7082.7653c-.9889 0-1.9778-.0765-2.9666-.3061-.9889-.1531-1.8953-.4592-2.8018-.8419-.2472-.0765-.4944-.153-.6592-.2296-.1648-.0765-.3296-.0765-.4945-.0765-.412 0-.5768.2296-.5768.7653v1.148c0 .2296.0824.4592.1648.6888.2472.3061.4944.4592.9065.6888z" fill="#252f3e"/><path d="m13.5947 9.22804c-.8991-.15253-1.7981-.15253-2.6154-.15253-2.53365 0-4.57692.61012-6.1298 1.83039-1.55289 1.2202-2.28846 2.8218-2.28846 4.8047 0 1.9066.57211 3.3556 1.79807 4.4996 1.22596 1.1439 2.86058 1.6778 4.98558 1.6778 2.94231 0 5.39421-1.0677 7.35571-3.2031.2452.5338.4904.9914.7356 1.3727.2452.3814.5721.7627.8991 1.0678.2452.2287.4903.305.7355.305.1635 0 .4087-.0763.6539-.2288l1.5529-.9914c.3269-.2288.4904-.4576.4904-.6864 0-.1525-.0818-.3051-.1635-.5339-.3269-.6101-.6539-1.1439-.8173-1.6778-.1635-.5338-.2452-1.2202-.2452-2.0591v-7.62652c0-2.51674-.6539-4.42336-2.0433-5.71986-1.3894-1.296501-3.5144-1.90662-6.5384-1.90662-1.3895 0-2.69715.15253-3.92311.457589-1.14423.305059-2.20673.610121-3.10576 1.067711-.32693.15253-.57212.30506-.65385.45759-.16346.15252-.16346.45758-.16346.83891v1.14397c0 .45759.16346.76265.49038.76265.08173 0 .2452 0 .40866-.07627.16346-.07626.49038-.15253.89903-.30506.89904-.30506 1.79808-.61011 2.69712-.76264.89904-.2288 1.79809-.30506 2.69709-.30506 1.9616 0 3.2693.38132 4.0866 1.0677.8173.68639 1.1442 1.98289 1.1442 3.73698v1.67783c-1.0625-.2288-1.9615-.38133-2.9423-.53386zm2.8606 4.11826c0 .7627-.0818 1.4491-.2452 1.9829-.1635.5339-.4087 1.0677-.8173 1.4491-.6539.6863-1.4712 1.2202-2.3702 1.449-.8991.305-1.7981.4576-2.6154.4576-1.14425 0-2.04328-.3051-2.6154-.8389-.57211-.5339-.89904-1.3728-.89904-2.4405 0-1.144.40866-2.0592 1.22596-2.6693.81731-.6101 2.04328-.9152 3.67788-.9152.7356 0 1.5529.0763 2.3702.1526.8173.0762 1.5529.2288 2.2885.3813z" fill="#252f3e"/><path d="m28.5968 20.7681c.158.4775.316.7959.4739.9551.158.1592.474.2388.948.2388h2.0539c.474 0 .79-.0796.948-.2388s.316-.4776.474-.9551l3.7129-15.6798 3.7918 15.6798c.079.4775.237.7959.474.9551.158.1592.553.2388.948.2388h2.0539c.395 0 .711-.0796.948-.2388.1579-.1592.3949-.4776.4739-.9551l5.8458-18.78391c.079-.23878.158-.47756.158-.55715 0-.15919.079-.23878.079-.39796 0-.397968-.158-.557153-.553-.557153h-2.2119c-.474 0-.79.079592-.948.238778-.1579.159185-.3159.477555-.4739.955115l-4.1869 16.31648-3.8708-16.39608c-.079-.47755-.237-.795922-.474-.955108-.158-.159185-.553-.238778-.948-.238778h-1.9749c-.474 0-.79.079593-.948.238778-.158.159186-.316.477558-.474.955108l-3.7918 16.07778-4.0289-16.07778c-.158-.47755-.316-.795922-.474-.955108-.158-.159185-.4739-.238778-.9479-.238778h-2.3699c-.395 0-.553.159185-.553.557149 0 .159187.079.477557.237.955117z" fill="#252f3e"/><path d="m64.3825 32.5478c-8.8477 3.8204-18.5644 5.6511-27.333 5.6511-13.0346 0-25.6741-3.5817-35.86474-9.6308-.868972-.5571-1.579946.398-.789975 1.1143 9.479655 8.5961 21.961215 13.7696 35.864715 13.7696 9.8746 0 21.4082-3.1041 29.3869-9.0736 1.185-.9551.079-2.3878-1.2639-1.8306z" fill="#f90"/><path d="m60.6146 29.129c-.6688.4538-.5202 1.1347.1486 1.059 2.3778-.3026 7.8023-.9834 8.694.3026.966 1.2103-1.0403 6.3542-1.932 8.6992-.2972.6809.2972.9834.966.4539 4.0126-3.404 5.0529-10.5904 4.2355-11.5738-.8174-1.1347-7.8766-1.9668-12.1121 1.0591z" fill="#f90"/><g fill="#252f3e"><path d="m92.5213 16.7378c-.1645 0-.3289-.0731-.3289-.2926v-12.07057c0-.14631.0822-.29262.3289-.29262h.4112c.2467 0 .3289.07316.3289.29262l.0822.73156c.5756-.43894 1.2335-.73156 1.8091-.95102.5756-.21947 1.1512-.29262 1.8091-.29262 1.3156 0 2.3024.43893 3.0422 1.24364.74.8047 1.152 1.97518 1.152 3.36513 0 1.4631-.412 2.63358-1.152 3.51148-.822.8778-1.8088 1.3168-3.2067 1.3168-1.2335 0-2.3025-.439-3.3715-1.2437v4.3893c0 .1463-.0822.2926-.3289.2926zm4.1115-4.3893c1.069 0 1.8913-.2926 2.467-.951.5756-.6584.8223-1.60939.8223-2.85303 0-2.48727-1.069-3.73091-3.207-3.73091-1.069 0-2.2203.36578-3.2893 1.17049v5.19405c.5757.4389 1.069.7315 1.5624.951.4934.0731 1.069.2194 1.6446.2194z"/><path d="m105.428 12.8753c-.889 0-1.617-.2395-2.183-.7985-.566-.479-.809-1.1977-.809-2.076 0-.95814.324-1.67676.97-2.23569.647-.55892 1.537-.79846 2.669-.79846.89 0 1.779.15969 2.831.47908v-1.59694c0-.79847-.162-1.35739-.566-1.67678-.405-.31939-.971-.47908-1.86-.47908-.89 0-1.86.15969-2.831.47908-.081 0-.243.07985-.323.07985-.162 0-.162-.07985-.162-.23954v-.39924c0-.07985 0-.15969.081-.23954s.081-.07985.161-.15969c1.052-.39924 2.103-.63878 3.316-.63878 1.132 0 2.022.23954 2.588.71862.566.47909.809 1.19771.809 2.15587v6.86684c0 .1597-.081.3194-.324.3194h-.404c-.162 0-.324-.0799-.324-.3194l-.08-.7985c-1.133.9582-2.346 1.3574-3.559 1.3574zm.162-.9582c.485 0 1.051-.0798 1.617-.3193.566-.2396 1.133-.4791 1.78-.8784v-2.39536c-.89-.23954-1.699-.31939-2.588-.31939-1.86 0-2.75.71863-2.75 2.07605 0 .5589.162 1.038.485 1.3574.324.3194.809.479 1.456.479z"/><path d="m114.208 12.8753c-.124 0-.248-.0837-.248-.335v-9.63026c0-.16748.062-.33497.248-.33497h.31c.185 0 .247.08374.247.33497l.062 1.17238c.372-.58619.744-1.0049 1.116-1.17238.371-.25123.805-.33497 1.239-.33497h.371c.124 0 .248.08374.248.33497v.50245c0 .08374 0 .08374-.062.16748 0 .08375-.062.08375-.124.08375s-.185 0-.247 0-.186 0-.31 0c-.434 0-.868.08374-1.239.33496-.372.25123-.682.5862-1.054 1.08865v7.45297c0 .1675-.062.335-.247.335z"/><path d="m123.488 12.8753c-.831 0-1.413-.2429-1.829-.6478s-.665-.9717-.665-1.7815v-6.55912h-1.58c-.166 0-.332-.08098-.332-.32391v-.16195c0-.08098 0-.16195.083-.24293 0-.08098.083-.08098.249-.08098l1.663-.16195.166-2.591253c0-.080977.083-.161954.083-.2429303.084-.0809767.084-.0809767.25-.0809767h.333c.166 0 .332.0809767.332.323907v2.591253h2.91c.166 0 .333.08098.333.32391v.40488c0 .16195-.083.32391-.333.32391h-2.91v6.55914c0 .5668.083.8907.333 1.1336.249.243.665.324 1.164.324.415 0 .748 0 .997-.081.167 0 .25-.081.333-.081h.166c.167 0 .25.081.25.2429v.3239c0 .243-.083.3239-.25.4049-.499 0-1.081.081-1.746.081z"/><path d="m128.352 12.7948c-.153 0-.307-.0804-.307-.3218v-9.25416c0-.16094.077-.32188.307-.32188h.384c.231 0 .308.08047.308.32188l.076.8047c.615-.48282 1.23-.8047 1.921-1.04611.692-.24142 1.306-.40236 1.921-.40236.922 0 1.613.24142 2.074.72424s.692 1.20706.692 2.25317v6.84002c0 .1609-.077.3219-.308.3219h-.537c-.154 0-.308-.0805-.308-.3219v-6.27672c0-.88518-.153-1.44847-.461-1.85082-.307-.40236-.845-.5633-1.459-.5633-1.23 0-2.459.40235-3.611 1.28753v7.56421c0 .161-.077.3219-.308.3219h-.384"/><path d="m142.657 12.8753c-1.431 0-2.561-.3992-3.239-1.2775-.753-.8784-1.129-2.1559-1.129-3.91253 0-1.59694.376-2.87449 1.129-3.7528.754-.87832 1.808-1.3574 3.089-1.3574 1.129 0 1.958.31939 2.56 1.03801.603.63878.904 1.59694.904 2.87449 0 .47908 0 .87831-.075 1.1977 0 .15969-.151.31938-.301.31938h-6.177c0 1.3574.302 2.39545.829 3.03415.527.6388 1.431.9582 2.561.9582.904 0 1.732-.1597 2.485-.4791.151-.0798.302-.0798.302-.0798.075 0 .075 0 .15.0798 0 .0799.076.0799.076.1597v.3194c0 .2395-.076.3194-.226.3992-.98.2396-1.883.4791-2.938.4791zm2.26-5.82881c0-.15969 0-.39923 0-.63877 0-.95816-.226-1.59694-.603-2.07602-.452-.47908-1.054-.71862-1.883-.71862-1.958 0-2.937 1.11786-3.088 3.43341z"/><path d="m150.06 12.8753c-.124 0-.248-.0837-.248-.335v-9.63026c0-.16748.062-.33497.248-.33497h.31c.186 0 .248.08374.248.33497l.062 1.17238c.372-.58619.743-1.0049 1.115-1.17238.372-.25123.806-.33497 1.239-.33497h.372c.124 0 .248.08374.248.33497v.50245c0 .08374 0 .08374-.062.16748 0 .08375-.062.08375-.124.08375s-.186 0-.248 0-.186 0-.31 0c-.433 0-.867.08374-1.239.33496-.372.25123-.681.5862-1.053 1.08865v7.45297c0 .1675-.062.335-.248.335z"/><path d="m92.4997 34.6821c-.1537 0-.3073-.0811-.3073-.3244v-9.2459c0-.1622.0768-.3244.3073-.3244h.3841c.2305 0 .3073.0811.3073.3244l.0769.8111c.6146-.4866 1.2292-.8111 1.9206-1.0544.6915-.2433 1.3061-.4055 1.9207-.4055.9219 0 1.6134.2433 2.0743.73.461.4866.6915 1.2165.6915 2.2709v6.8938c0 .1622-.0769.3244-.3073.3244h-.5378c-.1537 0-.3073-.0811-.3073-.3244v-6.4072c0-.8922-.1537-1.4599-.461-1.8654s-.8451-.5677-1.4597-.5677c-1.2292 0-2.4585.4055-3.6109 1.2976v7.6238c0 .1622-.0768.3244-.3073.3244h-.3841"/><path d="m106.805 34.7632c-1.431 0-2.561-.3992-3.239-1.2775-.753-.8783-1.13-2.1559-1.13-3.9125 0-1.5969.377-2.8745 1.13-3.7528s1.808-1.3574 3.088-1.3574c1.13 0 1.958.3194 2.561 1.038.602.6388.904 1.597.904 2.8745 0 .4791 0 .8783-.076 1.1977 0 .1597-.15.3194-.301.3194h-6.176c0 1.3574.301 2.3954.828 3.0342.528.6387 1.431.9581 2.561.9581.904 0 1.733-.1597 2.486-.479.15-.0799.301-.0799.301-.0799.075 0 .075 0 .151.0799 0 .0798.075.0798.075.1596v.3194c0 .2396-.075.3194-.226.3993-.904.2395-1.883.479-2.937.479zm2.259-5.9086c0-.1597 0-.3992 0-.6388 0-.9581-.226-1.5969-.602-2.076-.452-.4791-1.055-.7186-1.883-.7186-1.959 0-2.938 1.1178-3.088 3.4334z"/><path d="m115.806 34.7632c-.832 0-1.414-.2414-1.83-.6437-.415-.4024-.665-.9657-.665-1.7704v-6.5986h-1.579c-.167 0-.333-.0804-.333-.3219v-.1609c0-.0805 0-.1609.083-.2414 0-.0805.083-.0805.25-.0805l1.662-.1609.167-2.5751c0-.0804.083-.1609.083-.2414.083-.0805.083-.0805.249-.0805h.333c.166 0 .332.0805.332.3219v2.5751h2.911c.166 0 .332.0805.332.3219v.4023c0 .161-.083.3219-.332.3219h-2.911v6.5181c0 .5633.084.8852.333 1.1266s.665.3219 1.164.3219c.416 0 .748 0 .998-.0805.166 0 .249-.0805.332-.0805h.167c.166 0 .249.0805.249.2415v.3218c0 .2415-.083.3219-.249.4024-.499.0805-1.081.1609-1.746.1609z"/><path d="m122.338 34.7632c-.148 0-.296-.0837-.37-.2512l-2.812-9.4628c-.074-.1675-.074-.2512-.074-.335 0-.0837.074-.1674.222-.1674h.592c.148 0 .222.0837.296.2512l2.442 8.6254 2.147-8.6254c.074-.1675.148-.2512.37-.2512h.666c.148 0 .296.0837.37.2512l2.146 8.6254 2.517-8.7092c.074-.1674.148-.2512.296-.2512h.518c.148 0 .222.0838.222.1675s0 .1675-.074.335l-2.961 9.4628c-.074.1675-.148.2512-.37.2512h-.592c-.148 0-.296-.0837-.37-.2512l-2.146-8.6254-2.147 8.6254c-.074.1675-.148.2512-.37.2512h-.518"/><path d="m138.929 34.7632c-1.415 0-2.516-.4753-3.302-1.3469-.787-.8716-1.18-2.1393-1.18-3.8032 0-1.5846.393-2.8523 1.18-3.8031.786-.8716 1.887-1.347 3.302-1.347s2.516.4754 3.302 1.347c.786.8715 1.179 2.1392 1.179 3.8031 0 1.5847-.393 2.8524-1.179 3.8032-.786.8716-1.887 1.3469-3.302 1.3469zm0-1.03c2.201 0 3.302-1.3469 3.302-4.1201 0-2.7731-1.101-4.1201-3.302-4.1201-2.202 0-3.302 1.347-3.302 4.1201 0 2.7732 1.1 4.1201 3.302 4.1201z"/><path d="m146.219 34.6795c-.124 0-.248-.0837-.248-.335v-9.5465c0-.1675.062-.335.248-.335h.31c.186 0 .248.0838.248.335l.062 1.1724c.371-.5862.743-1.0049 1.115-1.1724.372-.2512.805-.335 1.239-.335h.372c.124 0 .248.0838.248.335v.5024c0 .0838 0 .0838-.062.1675-.062.0838-.062.0838-.124.0838s-.186 0-.248 0-.186 0-.31 0c-.434 0-.867.0837-1.239.3349s-.682.5862-1.053 1.0887v7.453c0 .1675-.062.3349-.248.3349h-.31"/><path d="m152.697 34.7633c-.162 0-.323-.0858-.323-.3433v-14.7637c0-.1716.08-.3433.323-.3433h.566c.162 0 .324.0858.324.3433v9.2702l4.69-4.4634c.162-.1717.324-.1717.485-.1717h.728c.162 0 .243.0859.243.1717s-.081.1717-.243.3433l-4.771 4.4635 5.175 5.0643c.081.0858.162.1716.162.2575 0 .1716-.081.1716-.242.1716h-.809c-.162 0-.324-.0858-.404-.1716l-5.014-4.9785v4.8068c0 .1717-.081.3433-.324.3433z"/></g></g></svg>