<svg fill="none" height="24" viewBox="0 0 24 24" width="24" xmlns="http://www.w3.org/2000/svg"><g fill="#00d8a0"><path d="m23.9911 19.7531c-.0432-.3955-.2409-.7488-.5568-.9935l-4.6254-3.5749c-.7863-.6067-1.8471-.6787-2.7054-.1824l-.8506.4915c-.5184.2986-1.1597.2592-1.634-.1075-.6873-.529-1.7136-1.366-2.6957-2.349-.97446-.9754-1.79628-1.9823-2.31373-2.6553-.36288-.47128-.4032-1.11158-.10369-1.63091l.49152-.85246c.49635-.8601.42528-1.92279-.18147-2.70611l-3.57611-4.625072c-.24376-.315794-.59512-.5135105-.99161-.5576664-.3965-.0460777-.78338.0719993-1.08964.3254034-.7853.647947-1.79431 1.494645-2.14468 1.845965-.710441.71039-1.01379 1.64061-1.01379 3.11318 0 1.71734 3.15275 8.10487 6.94966 11.74307 3.65094 3.811 10.03904 6.9626 11.75844 6.9626 1.4717 0 2.402-.3033 3.1105-1.0137.3792-.3782 1.32-1.5071 1.8461-2.1445.2544-.3073.3696-.6932.3264-1.0887z"/><g clip-rule="evenodd" fill-rule="evenodd"><path d="m16.3305 1.97177c2.6535.96877 4.7294 3.0447 5.6972 5.69827.0742.20357.2667.32996.4713.32996.0571 0 .1143-.01004.1705-.0311.2608-.09524.3951-.38211.2999-.64282-1.0681-2.93138-3.3626-5.22689-6.2959-6.29595-.2568-.094263-.5476.04011-.6429.29887-.0953.25968.0392.54748.2999.64277z"/><path d="m15.2883 5.84564c1.3188.47664 2.3894 1.54842 2.8651 2.86681.0653.17777.2317.28755.4103.28755.0496 0 .0993-.00783.148-.02527.2266-.08191.3441-.33112.2622-.5577-.5636-1.55888-1.8302-2.82673-3.3895-3.39051-.2248-.0828-.4756.03485-.5584.26143-.0818.22657.0358.47578.2623.55769z"/><path d="m14.3021 8.88217c.3807.13633.6788.43441.8151.81611.0673.18629.2418.30172.4281.30172.05 0 .1018-.00817.1526-.02725.2372-.08454.3599-.34446.2754-.58072-.2281-.63891-.7261-1.13691-1.3659-1.36506-.2354-.08543-.4953.0391-.5807.27448-.0845.23626.0382.49618.2754.58072z"/></g></g></svg>