<svg fill="none" height="116" viewBox="0 0 834 116" width="834" xmlns="http://www.w3.org/2000/svg"><path d="m963.929 2.16346.895-.70633-.706-.894812-.895.706322zm-221.928 104.96054-.293-1.101-1.101.292.292 1.102zm222.87-103.76744.706.89481.895-.70632-.706-.89482zm-222.48 105.23744-1.102.292.293 1.102 1.101-.293zm-639.758 4.387 1.109.267.266-1.109-1.108-.266zm-232.17-104.0595.695-.90376-.904-.69484-.695.90376zm231.815 105.5375-.267 1.108 1.109.267.266-1.109zm-232.741-104.3325-.904-.69482-.695.90382.904.6948zm1093.686-8.85786c-58.431 46.12276-132.249 81.05636-221.515 104.75436l.585 2.203c89.498-23.7588 163.616-58.8116 222.342-105.16772zm2.543 1.38159-.942-1.1931-1.79 1.41266.942 1.19309zm-223.083 107.04477c89.652-23.7997 163.97-58.932 222.894-105.44363l-1.412-1.78963c-58.629 46.27826-132.647 81.29146-222.067 105.03026zm-1.784-2.278.39 1.469 2.204-.585-.39-1.469zm-637.999 4.456c-93.83311-22.5628-171.0574-57.1992-231.742-103.85526l-1.39 1.80753c60.9951 46.89443 138.53245 81.64563 232.599 104.26373zm.486 2.852.356-1.477-2.217-.533-.356 1.477zm-234.544-103.6947c61.2014 47.0534 138.94747 81.881 233.169 104.5367l.533-2.216c-93.98808-22.6004-171.4211-57.3132-232.312-104.12824zm.717-2.80364-.926 1.20502 1.808 1.38972.926-1.20505z" fill="#0bd8a2"/></svg>