<svg fill="none" height="152" viewBox="0 0 1441 152" width="1441" xmlns="http://www.w3.org/2000/svg"><path d="m1438.38 2.21507 1.18-.92939-.93-1.177372-1.18.929372zm-292.01 138.10693-.39-1.45-1.45.385.39 1.449zm293.25-136.53707.93 1.17739 1.18-.92938-.93-1.1774zm-292.74 138.47007-1.45.384.39 1.45 1.45-.385zm-841.784 5.773 1.459.35.35-1.458-1.458-.351zm-305.486489-136.9208.914265-1.18914-1.189167-.91426-.914269 1.1892zm305.019489 138.8648-.351 1.459 1.459.35.35-1.458zm-306.23851-137.2792-1.18917-.9143-.91426 1.1892 1.18916.9143zm1439.05951-11.65512c-76.88 60.68782-174.01 106.65332-291.47 137.83432l.77 2.899c117.76-31.262 215.29-77.3837 292.56-138.37854zm3.35 1.81786-1.24-1.56986-2.36 1.85878 1.24 1.56986zm-293.53 140.84846c117.96-31.315 215.75-77.5422 293.28-138.74168l-1.86-2.35478c-77.14 60.89246-174.53 106.96246-292.19 138.19746zm-2.35-2.998.51 1.933 2.9-.769-.51-1.933zm-839.473 5.863c-123.464-29.687-225.0752-75.2614-304.923224-136.65094l-1.828536 2.37834c80.25616 61.7032 182.27876 107.4286 306.05076 137.1896zm.64 3.754.468-1.945-2.917-.701-.468 1.945zm-308.61078-136.441c80.52828 61.9124 182.82578 107.738 306.80178 137.549l.701-2.917c-123.669-29.737-225.5541-75.4117-305.674245-137.0104zm.94412-3.689-1.21902 1.5855 2.378336 1.8285 1.219021-1.5855z" fill="#0bd8a2"/></svg>