<svg fill="none" height="17" viewBox="0 0 24 17" width="24" xmlns="http://www.w3.org/2000/svg"><path clip-rule="evenodd" d="m20.184.252337c1.4385.082909 2.145.300929 2.796 1.486223.678 1.18376 1.02 3.22271 1.02 6.8139v.0046.00768c0 3.57426-.342 5.62856-1.0185 6.80006-.651 1.1853-1.3575 1.4003-2.796 1.5001-1.4385.0844-5.052.1351-8.1825.1351-3.1365 0-6.7515-.0507-8.1885-.1367-1.4355-.0998-2.142-.3147-2.799-1.5-.6705-1.1715-1.0155-3.2258-1.0155-6.8001v-.00307-.0046-.00461c0-3.58965.345-5.6286 1.0155-6.81236.657-1.186829 1.365-1.403314 2.8005-1.487759 1.4355-.098262 5.0505-.139717 8.187-.139717 3.1305 0 6.744.041455 8.181.141253zm-3.0411 8.866153-8.00004-4.5037v9.00741z" fill="#00343d" fill-rule="evenodd"/></svg>