<svg width="12" height="12" viewBox="0 0 12 12" fill="none" xmlns="http://www.w3.org/2000/svg">
<path fill-rule="evenodd" clip-rule="evenodd" d="M4.45545 7.45545H1.44059C0.644976 7.45545 0 6.81047 0 6.01485C0 5.21923 0.644976 4.57426 1.44059 4.57426H4.45545V1.54455C4.45545 0.69152 5.14697 0 6 0C6.85303 0 7.54455 0.691521 7.54455 1.54455V4.57426H10.5594C11.355 4.57426 12 5.21923 12 6.01485C12 6.81047 11.355 7.45545 10.5594 7.45545H7.54455V10.4554C7.54455 11.3085 6.85303 12 6 12C5.14697 12 4.45545 11.3085 4.45545 10.4554V7.45545Z" fill="#0BD8A2"/>
<mask id="mask0" mask-type="alpha" maskUnits="userSpaceOnUse" x="0" y="0" width="12" height="12">
<path fill-rule="evenodd" clip-rule="evenodd" d="M4.45545 7.45545H1.44059C0.644976 7.45545 0 6.81047 0 6.01485C0 5.21923 0.644976 4.57426 1.44059 4.57426H4.45545V1.54455C4.45545 0.69152 5.14697 0 6 0C6.85303 0 7.54455 0.691521 7.54455 1.54455V4.57426H10.5594C11.355 4.57426 12 5.21923 12 6.01485C12 6.81047 11.355 7.45545 10.5594 7.45545H7.54455V10.4554C7.54455 11.3085 6.85303 12 6 12C5.14697 12 4.45545 11.3085 4.45545 10.4554V7.45545Z" fill="white"/>
</mask>
<g mask="url(#mask0)">
<rect width="12" height="12" fill="#0BD8A2"/>
</g>
</svg>
